<?xml version="1.0" encoding="UTF-8" standalone="no"?>
<!-- Created with Inkscape (http://www.inkscape.org/) -->

<svg
   xmlns:dc="http://purl.org/dc/elements/1.1/"
   xmlns:cc="http://creativecommons.org/ns#"
   xmlns:rdf="http://www.w3.org/1999/02/22-rdf-syntax-ns#"
   xmlns:svg="http://www.w3.org/2000/svg"
   xmlns="http://www.w3.org/2000/svg"
   xmlns:xlink="http://www.w3.org/1999/xlink"
   xmlns:sodipodi="http://sodipodi.sourceforge.net/DTD/sodipodi-0.dtd"
   xmlns:inkscape="http://www.inkscape.org/namespaces/inkscape"
   width="150mm"
   height="70mm"
   viewBox="0 0 150 70"
   version="1.1"
   id="svg1487"
   inkscape:version="0.92.3 (2405546, 2018-03-11)"
   sodipodi:docname="a11y.svg">
  <defs
     id="defs1481">
    <linearGradient
       inkscape:collect="always"
       id="linearGradient938">
      <stop
         style="stop-color:#ff6600;stop-opacity:1;"
         offset="0"
         id="stop934" />
      <stop
         id="stop942"
         offset="0.73219842"
         style="stop-color:#ffff00;stop-opacity:1" />
      <stop
         style="stop-color:#ffffff;stop-opacity:1"
         offset="1"
         id="stop936" />
    </linearGradient>
    <linearGradient
       inkscape:collect="always"
       xlink:href="#linearGradient938"
       id="linearGradient940"
       x1="88.22435"
       y1="105.7381"
       x2="88.409737"
       y2="196.83035"
       gradientUnits="userSpaceOnUse" />
  </defs>
  <sodipodi:namedview
     id="base"
     pagecolor="#ffffff"
     bordercolor="#666666"
     borderopacity="1.0"
     inkscape:pageopacity="0.0"
     inkscape:pageshadow="2"
     inkscape:zoom="0.7"
     inkscape:cx="582.67698"
     inkscape:cy="470.59459"
     inkscape:document-units="mm"
     inkscape:current-layer="layer1"
     showgrid="false"
     inkscape:window-width="1920"
     inkscape:window-height="1017"
     inkscape:window-x="-8"
     inkscape:window-y="-8"
     inkscape:window-maximized="1" />
  <metadata
     id="metadata1484">
    <rdf:RDF>
      <cc:Work
         rdf:about="">
        <dc:format>image/svg+xml</dc:format>
        <dc:type
           rdf:resource="http://purl.org/dc/dcmitype/StillImage" />
        <dc:title></dc:title>
      </cc:Work>
    </rdf:RDF>
  </metadata>
  <g
     inkscape:label="Layer 1"
     inkscape:groupmode="layer"
     id="layer1"
     transform="translate(0,-227)">
    <path
       style="fill:#000000;stroke-width:0.36585903"
       d="m 26.616037,285.66254 c -1.409007,-0.32353 -2.214902,-1.89145 -2.214902,-4.30923 0,-2.03478 0.296765,-2.81905 4.389554,-11.60036 4.451007,-9.5499 7.664735,-15.14724 13.48,-23.47807 4.332023,-6.20597 6.362915,-8.37731 8.094915,-8.65473 0.777168,-0.12448 2.492995,-0.42175 3.812951,-0.66061 1.319956,-0.23885 3.81677,-0.44815 5.548477,-0.46511 4.14885,-0.0406 4.245063,0.0665 4.701766,5.23659 l 0.352004,3.98483 1.175745,-2.92103 c 1.743587,-4.33178 2.274357,-4.71901 7.60333,-5.54715 3.087991,-0.47988 5.178011,-0.60744 6.871608,-0.41938 1.338626,0.14865 3.228694,0.2243 4.200154,0.16812 5.114534,-0.29577 13.808753,0.21192 16.685021,0.97429 0.43362,0.11494 1.03768,0.72603 1.34236,1.35798 l 0.55394,1.14901 1.03368,-0.93294 c 0.56852,-0.51312 1.47464,-1.03053 2.0136,-1.1498 3.60966,-0.79882 7.83799,-1.42934 10.87596,-1.62181 3.75665,-0.23801 4.25404,-0.0595 4.41712,1.58501 0.20274,2.04445 -0.1151,2.89088 -2.08029,5.54005 -1.14075,1.53778 -4.34821,6.44601 -7.1277,10.90717 l -5.0536,8.11122 -1.89994,7.80298 c -1.04496,4.29164 -2.1316,8.18393 -2.41474,8.64951 -0.28315,0.4656 -0.94996,0.96109 -1.4818,1.10111 -0.53185,0.14001 -1.44389,0.83515 -2.026773,1.54475 -0.934104,1.13718 -1.562444,1.42781 -5.298869,2.45085 -2.331504,0.63838 -5.178312,1.16793 -6.326238,1.17679 -1.843174,0.0142 -2.183842,-0.10448 -2.91438,-1.01545 -1.437393,-1.79241 -1.166564,-4.18321 1.468939,-12.96739 2.135831,-7.11876 2.70074,-10.06465 2.016945,-10.51795 -0.153579,-0.10181 -1.292349,2.72189 -2.530603,6.27488 -2.173841,6.23754 -2.294991,6.47941 -3.518288,7.024 -0.696809,0.31021 -1.66434,1.07108 -2.15007,1.69081 -1.146937,1.46338 -3.654936,2.19285 -8.484945,2.46793 -3.027295,0.1724 -3.79656,0.10745 -4.150875,-0.35047 -0.380762,-0.4921 -0.797801,-0.49666 -3.349204,-0.0366 -3.768491,0.67952 -5.452825,1.39549 -6.976752,2.96564 -1.046061,1.0778 -1.89942,1.4527 -5.543153,2.43525 -5.652406,1.52419 -7.585899,1.53578 -8.967603,0.0538 -0.607014,-0.65109 -1.0326,-1.51001 -1.0326,-2.084 0,-0.53703 -0.101448,-0.97642 -0.225439,-0.97642 -0.123991,0 -0.884712,0.65182 -1.690492,1.4485 -1.248233,1.23413 -2.012148,1.59518 -5.161748,2.43962 -3.936176,1.05534 -6.732824,1.46273 -8.017065,1.16786 z m 10.30049,-6.60925 4.371913,-1.17436 0.787146,-2.33055 c 0.432931,-1.28181 1.398516,-3.64021 2.145746,-5.2409 l 1.3586,-2.91033 3.45261,-0.12094 c 1.898935,-0.0665 3.524347,-0.0724 3.612025,-0.0131 0.08768,0.0593 -0.619922,2.65368 -1.572447,5.76526 -0.952525,3.11158 -1.617173,5.78043 -1.477,5.93079 0.237958,0.25523 8.36631,-1.65581 9.016224,-2.11979 0.496606,-0.35453 2.874284,-15.60218 3.266998,-20.95072 0.209464,-2.85279 0.264272,-7.62386 0.126738,-11.03269 l -0.242328,-6.00621 -1.062063,0.22784 c -0.584134,0.12531 -2.066514,0.22784 -3.294181,0.22784 h -2.232125 l -2.96817,3.88382 c -5.663248,7.4103 -11.758879,17.42988 -15.617977,25.67176 -1.593378,3.40298 -4.768681,10.84707 -4.768681,11.17956 0,0.33292 0.653019,0.20643 5.096972,-0.98728 z m 16.601287,-17.81817 c -0.164823,-0.28606 -0.97555,-0.34573 -2.468331,-0.18169 -1.222591,0.13436 -2.30828,0.0961 -2.412646,-0.085 -0.254891,-0.44237 6.55494,-12.6731 6.846435,-12.29648 0.343702,0.44407 -0.201025,9.12592 -0.702051,11.18935 -0.435123,1.792 -0.796223,2.18467 -1.263407,1.37386 z m 42.86893,17.79872 c 2.472121,-0.6566 4.520456,-1.21075 4.551856,-1.23146 0.0314,-0.0207 0.95384,-3.70359 2.04987,-8.1842 1.94158,-7.93718 2.04901,-8.23906 4.18012,-11.74619 3.97247,-6.53743 8.66639,-13.79337 10.50201,-16.2342 0.99436,-1.32221 1.75671,-2.45134 1.69412,-2.5092 -0.0626,-0.0579 -1.91851,0.1714 -4.12429,0.50946 -3.98709,0.61106 -4.01742,0.6235 -5.19654,2.13029 -0.65233,0.8336 -2.58331,3.92937 -4.29107,6.87949 l -3.10502,5.36386 -1.05977,-6.69004 -1.05978,-6.69004 -4.007385,-0.10747 c -3.349717,-0.0898 -3.974768,-0.19866 -3.808613,-0.66309 0.22351,-0.62475 -1.640888,-0.74155 -4.976478,-0.31176 l -1.841474,0.23727 -1.093359,2.81707 c -0.601347,1.54939 -1.652057,4.55293 -2.334908,6.67453 -0.682855,2.1216 -2.918672,8.34084 -4.96848,13.82052 -2.049808,5.47968 -3.667692,10.0192 -3.595291,10.08781 0.0724,0.0686 1.800779,-0.15335 3.840844,-0.49324 l 3.70921,-0.618 5.475501,-15.62607 c 3.011525,-8.59434 5.565694,-15.62654 5.675932,-15.6271 0.425386,-0.002 1.446779,4.36027 2.627696,11.22305 0.676973,3.93417 1.361492,7.66131 1.521154,8.28252 0.233168,0.90723 -0.213435,2.8012 -2.269637,9.62514 -2.811529,9.33064 -3.067333,10.27486 -2.783621,10.27486 0.105949,0 2.215278,-0.53722 4.687403,-1.19381 z m -29.038285,-6.45354 2.889199,-0.44807 5.713508,-16.26794 c 3.142428,-8.94736 5.633046,-16.35424 5.534706,-16.45972 -0.09834,-0.10548 -1.660973,-0.0726 -3.472513,0.0731 l -3.293708,0.26487 -1.306931,3.47582 c -0.718813,1.9117 -1.803132,5.0104 -2.409595,6.88601 -0.606462,1.8756 -2.676354,7.63176 -4.599759,12.79147 -1.923406,5.15972 -3.4971,9.55033 -3.4971,9.75692 0,0.48875 0.920358,0.47374 4.442193,-0.0724 z"
       id="path913"
       inkscape:connector-curvature="0" />
    <g
       id="g924"
       style="fill-opacity:1;fill:url(#linearGradient940)">
      <path
         transform="matrix(0.26458333,0,0,0.26458333,0,227)"
         inkscape:connector-curvature="0"
         id="path915"
         d="m 120.62898,200.69725 c -0.87541,-1.41645 12.89213,-33.42337 23.19141,-53.91561 14.84026,-29.52733 34.29561,-60.719684 54.23397,-86.952158 l 9.77225,-12.857143 12.75797,-0.976736 c 7.01689,-0.537206 13.00567,-0.729046 13.3084,-0.426313 0.30273,0.302733 0.56599,15.527979 0.58501,33.833879 0.0312,30.018671 -0.40437,36.247811 -4.44044,63.504061 -6.47238,43.70911 -6.71978,44.65745 -12.25336,46.96952 -6.2523,2.61239 -29.03567,7.21475 -30.15828,6.09213 -0.49736,-0.49736 1.72138,-10.1407 4.93053,-21.42966 3.20915,-11.28895 5.83483,-20.98471 5.83483,-21.54612 0,-1.25478 -6.84231,-1.307 -18.03041,-0.13761 -9.65015,1.00864 -8.81194,-0.14855 -19.02123,26.25971 l -5.24664,13.57142 -17.42402,4.50365 c -9.58322,2.477 -17.70121,4.05514 -18.03999,3.50698 z m 86.40093,-79.04272 c 1.59371,-8.53071 3.4074,-38.253619 2.33423,-38.253619 -2.70355,0 -25.89422,43.724249 -23.8581,44.982639 0.74972,0.46336 4.51608,0.42421 8.3697,-0.087 4.79483,-0.63605 7.34073,-0.38877 8.06515,0.78336 1.66505,2.69411 3.77314,-0.38179 5.08902,-7.42538 z"
         style="opacity:1;fill:url(#linearGradient940);fill-opacity:1;stroke:none;stroke-width:8.42571354;stroke-linecap:square;stroke-linejoin:round;stroke-miterlimit:4;stroke-dasharray:none;stroke-opacity:1;paint-order:normal" />
      <path
         transform="matrix(0.26458333,0,0,0.26458333,0,227)"
         inkscape:connector-curvature="0"
         id="path917"
         d="m 238.87663,173.72038 c -1.17354,-0.73909 0.84279,-7.92484 6.90566,-24.61025 4.70974,-12.9615 14.57515,-40.52877 21.92315,-61.260592 7.348,-20.731826 13.90068,-38.234915 14.56152,-38.895752 1.22381,-1.223804 26.12431,-3.617258 26.12431,-2.511087 0,3.029808 -41.19746,121.255881 -43.06375,123.581831 -0.71651,0.89298 -5.62386,2.0573 -10.90522,2.58736 -5.28135,0.53007 -10.56675,1.23119 -11.74532,1.55806 -1.17857,0.32687 -2.88873,0.12456 -3.80035,-0.44957 z"
         style="opacity:1;fill:url(#linearGradient940);fill-opacity:1;stroke:none;stroke-width:8.42571354;stroke-linecap:square;stroke-linejoin:round;stroke-miterlimit:4;stroke-dasharray:none;stroke-opacity:1;paint-order:normal" />
      <path
         transform="matrix(0.26458333,0,0,0.26458333,0,227)"
         inkscape:connector-curvature="0"
         id="path919"
         d="m 348.24362,191.6152 c 1.39071,-4.91072 5.94727,-20.74752 10.12569,-35.19289 l 7.59711,-26.26431 -4.62259,-25.87855 C 355.38274,70.907642 351.2253,52.820841 349.86409,54.337343 c -0.59558,0.663534 -1.75836,3.134996 -2.58395,5.492139 -13.13514,37.50212 -38.97026,109.843288 -39.3715,110.244528 -0.60092,0.60092 -23.5623,4.75052 -26.30309,4.75352 -0.98214,0.001 -1.78571,-0.78919 -1.78571,-1.75614 0,-0.96695 6.97605,-21.05623 15.50234,-44.64286 8.52628,-23.58662 18.29285,-50.761278 21.70348,-60.388132 3.41063,-9.626853 6.61214,-18.168371 7.11447,-18.981151 0.50233,-0.81278 6.46973,-1.869903 13.26089,-2.349162 10.65689,-0.752068 12.47118,-0.549264 13.25032,1.481151 0.75345,1.963458 3.2242,2.352532 14.93936,2.352532 12.13798,0 14.13525,0.338155 14.76591,2.5 0.40112,1.375 2.13421,11.821428 3.85131,23.214285 1.71711,11.392858 3.5723,21.215065 4.12266,21.827128 0.55036,0.612061 6.08034,-7.648843 12.28884,-18.357566 15.68189,-27.04886 17.58449,-29.046551 29.93927,-31.435596 5.48649,-1.060922 12.39548,-1.952578 15.35332,-1.981458 l 5.37788,-0.05251 -11.94941,17.5 c -17.9052,26.222298 -38.26906,59.386239 -41.1972,67.092469 -1.42604,3.75303 -5.59614,18.88006 -9.2669,33.61561 -3.67075,14.73556 -7.32834,27.22434 -8.12798,27.75285 -1.79182,1.18429 -30.04361,8.32479 -32.93747,8.32479 -1.79598,0 -1.73407,-1.27762 0.43269,-8.92857 z"
         style="opacity:1;fill:url(#linearGradient940);fill-opacity:1;stroke:none;stroke-width:8.42571354;stroke-linecap:square;stroke-linejoin:round;stroke-miterlimit:4;stroke-dasharray:none;stroke-opacity:1;paint-order:normal" />
    </g>
  </g>
</svg>
