<?xml version="1.0" encoding="UTF-8" standalone="no"?>
<!-- Created with Inkscape (http://www.inkscape.org/) -->

<svg
   xmlns:dc="http://purl.org/dc/elements/1.1/"
   xmlns:cc="http://creativecommons.org/ns#"
   xmlns:rdf="http://www.w3.org/1999/02/22-rdf-syntax-ns#"
   xmlns:svg="http://www.w3.org/2000/svg"
   xmlns="http://www.w3.org/2000/svg"
   xmlns:sodipodi="http://sodipodi.sourceforge.net/DTD/sodipodi-0.dtd"
   xmlns:inkscape="http://www.inkscape.org/namespaces/inkscape"
   width="400"
   height="400"
   viewBox="0 0 105.83333 105.83333"
   version="1.1"
   id="svg921"
   inkscape:version="0.92.3 (2405546, 2018-03-11)"
   sodipodi:docname="a11ydocsqr.svg">
  <defs
     id="defs915" />
  <sodipodi:namedview
     id="base"
     pagecolor="#ffffff"
     bordercolor="#666666"
     borderopacity="1.0"
     inkscape:pageopacity="0.0"
     inkscape:pageshadow="2"
     inkscape:zoom="0.35"
     inkscape:cx="-64.285714"
     inkscape:cy="560"
     inkscape:document-units="mm"
     inkscape:current-layer="layer1"
     showgrid="false"
     units="px"
     inkscape:window-width="1920"
     inkscape:window-height="1017"
     inkscape:window-x="-8"
     inkscape:window-y="-8"
     inkscape:window-maximized="1" />
  <metadata
     id="metadata918">
    <rdf:RDF>
      <cc:Work
         rdf:about="">
        <dc:format>image/svg+xml</dc:format>
        <dc:type
           rdf:resource="http://purl.org/dc/dcmitype/StillImage" />
        <dc:title></dc:title>
      </cc:Work>
    </rdf:RDF>
  </metadata>
  <g
     inkscape:label="Layer 1"
     inkscape:groupmode="layer"
     id="layer1"
     transform="translate(0,-191.16667)">
    <path
       style="fill:#000000;stroke-width:0.26458335"
       d="M 3.1749943,283.03378 V 270.99524 H 15.213534 27.252081 v 12.03854 12.03855 H 15.213534 3.1749943 Z m 20.6375027,0 v -8.59895 H 15.213534 6.6145843 v 8.59895 8.59896 h 8.5989497 8.598963 z m -13.758333,0 v -5.15937 h 5.15937 5.15938 v 5.15937 5.15938 h -5.15938 -5.15937 z m 20.6375,3.43959 v -8.59896 h 1.719792 1.719792 v -1.71979 -1.71979 h -1.719792 -1.719792 v -3.43959 -3.43958 h -3.439583 -3.439584 v -1.71979 -1.7198 h 1.719792 1.719792 v -1.5875 -1.5875 h -1.719792 -1.719792 v -1.71979 -1.71979 h 3.439584 3.439583 v -1.71979 -1.71979 h 1.719792 1.719792 v 3.43958 3.43958 h -1.719792 -1.719792 v 3.3073 3.30729 h 1.719792 1.719792 v -1.71979 -1.7198 h 3.307292 3.307292 v -3.30729 -3.30729 h 3.439583 3.439584 v 1.71979 1.71979 h -1.719792 -1.719792 v 3.3073 3.30729 h 1.719792 1.719792 v -1.71979 -1.7198 h 3.439583 3.439584 v -1.5875 -1.5875 h -1.719792 -1.719792 v -3.43958 -3.43958 h -3.439583 -3.439584 v -3.43959 -3.43958 h 1.719792 1.719792 v 1.71979 1.71979 h 5.159375 5.159375 v 1.7198 1.71979 h 1.719792 1.719792 v -1.71979 -1.7198 h 1.719792 1.719791 v 1.7198 1.71979 H 69.85 74.877084 v 1.71979 1.71979 h 1.719791 1.719792 v -1.71979 -1.71979 h 5.159376 5.159375 v -1.71979 -1.7198 h -1.719792 -1.719792 v -1.71979 -1.71979 h -1.719791 -1.719792 v 1.71979 1.71979 H 75.009375 68.2625 v -1.71979 -1.71979 h -1.719792 -1.719792 v -3.43958 -3.43959 h -1.719791 -1.719792 v 1.71979 1.7198 h -1.719792 -1.719792 v 1.71979 1.71979 h -1.719791 -1.719792 v -1.71979 -1.71979 h 1.719792 1.719791 v -1.7198 -1.71979 h 1.719792 1.719792 v -1.71979 -1.71979 h 1.719792 1.719791 v 1.71979 1.71979 h 1.719792 1.719792 v -3.43958 -3.43958 h 1.5875 1.5875 v -1.7198 -1.71979 h -3.307292 -3.307292 v 1.71979 1.7198 h -3.439583 -3.439584 v 1.71979 1.71979 h -1.719791 -1.719792 v 1.71979 1.71979 h -1.719792 -1.719792 v 1.71979 1.7198 h -3.439583 -3.439584 v -1.7198 -1.71979 h -1.719792 -1.719791 v 3.43959 3.43958 H 39.02604 37.306248 v -3.43958 -3.43959 h -3.307292 -3.307292 v -1.71979 -1.71979 h 1.719792 1.719792 v -3.43958 -3.43959 h -3.439584 -3.439583 v 1.71979 1.7198 h -1.719792 -1.719792 v -1.7198 -1.71979 H 20.372914 16.93333 v 3.43959 3.43958 h 5.159375 5.159376 v 1.71979 1.71979 h -1.719792 -1.719792 v 1.71979 1.7198 h 1.719792 1.719792 v 1.71979 1.71979 h 3.439583 3.439584 v 1.71979 1.71979 h -3.439584 -3.439583 v 1.7198 1.71979 h -1.719792 -1.719792 v -1.71979 -1.7198 h 1.719792 1.719792 v -1.71979 -1.71979 h -1.719792 -1.719792 v -1.71979 -1.71979 h -1.719792 -1.719791 v 1.71979 1.71979 H 18.653122 16.93333 v 1.71979 1.71979 h 1.719792 1.719792 v 6.74688 6.74687 H 18.653122 16.93333 v -1.5875 -1.5875 h -1.719796 -1.71979 v 3.3073 3.30729 h -1.71979 -1.71979 v -3.30729 -3.3073 h 1.71979 1.71979 v -1.71979 -1.71979 h 1.71979 1.719796 v -3.43958 -3.43959 h -1.719796 -1.71979 v 1.7198 1.71979 h -1.71979 -1.71979 v 1.71979 1.71979 h -1.7197897 -1.71979 v 5.02708 5.02709 h -1.7198 -1.71979 V 257.3692 247.18274 h 1.71979 1.7198 v 1.71979 1.71979 h 3.4395797 3.43958 v -1.71979 -1.71979 h -1.71979 -1.71979 v -1.71979 -1.71979 h -1.7197897 -1.71979 v -3.43959 -3.43958 h -1.7198 -1.71979 v -3.43958 -3.43959 h 5.15938 5.1593697 v -1.5875 -1.5875 h -5.1593697 -5.15938 v -1.71979 -1.71979 h 8.5989597 8.59896 v 1.71979 1.71979 h 1.719791 1.719792 v -1.71979 -1.71979 h 8.466667 8.466668 v 1.71979 1.71979 H 39.02604 37.306248 v 3.30729 3.3073 h 1.719792 1.719792 v -1.7198 -1.71979 h 3.439583 3.439584 v -1.5875 -1.5875 h -1.719792 -1.719792 v -5.15937 -5.15938 h 1.719792 1.719792 v 3.43959 3.43958 h 1.719791 1.719792 v -3.43958 -3.43959 h 1.719792 1.719792 v -1.71979 -1.71979 H 49.34479 44.185415 v -1.71979 -1.7198 h -1.719792 -1.719791 v 5.15938 5.15938 H 39.02604 37.306248 v -5.15938 -5.15938 h -3.307292 -3.307292 v -1.71979 -1.71979 h 1.719792 1.719792 v -1.71979 -1.71979 h -1.719792 -1.719792 v -1.71979 -1.7198 h 1.719792 1.719792 v -1.71979 -1.71979 h 1.5875 1.5875 v 3.43958 3.43959 h 1.719792 1.719792 v -1.71979 -1.7198 h 3.439583 3.439584 v 1.7198 1.71979 h -1.719792 -1.719792 v 3.43958 3.43958 h 1.719792 1.719792 v -1.71979 -1.71979 h 3.439583 3.439584 v -1.71979 -1.71979 h -1.719792 -1.719792 v -3.43959 -3.43958 h 1.719792 1.719792 v 1.71979 1.71979 h 1.719792 1.719791 v -1.71979 -1.71979 h 1.719792 1.719792 v 1.71979 1.71979 h 1.719792 1.719791 v -1.71979 -1.71979 H 69.85 74.877084 v 5.15938 5.15937 H 73.157292 71.4375 v 1.71979 1.71979 h 1.719792 1.719792 v 1.7198 1.71979 H 71.569792 68.2625 v 3.43958 3.43959 h -1.719792 -1.719792 v -1.7198 -1.71979 h -1.719791 -1.719792 v 3.43959 3.43958 h 3.439583 3.439584 v 1.71979 1.71979 h 3.307292 3.307292 v -1.71979 -1.71979 H 73.157292 71.4375 v -3.43958 -3.43959 h 1.719792 1.719792 v 3.43959 3.43958 h 1.719791 1.719792 v 1.71979 1.71979 h 1.719792 1.719792 v -1.71979 -1.71979 h 1.719792 1.719791 v 1.71979 1.71979 h 1.719792 1.719792 v -1.71979 -1.71979 h 1.719792 1.719791 v 1.71979 1.71979 H 90.35521 88.635418 v 1.5875 1.5875 h -1.719792 -1.719792 v 1.71979 1.7198 h 3.439584 3.439583 v 1.71979 1.71979 h 1.719792 1.719792 v -1.71979 -1.71979 h 1.719792 1.719792 v 1.71979 1.71979 h -1.719792 -1.719792 v 1.71979 1.71979 h -3.439584 -3.439583 v 1.71979 1.7198 h 3.439583 3.439584 v 1.71979 1.71979 h 1.719792 1.719792 v 1.71979 1.71979 h -1.719792 -1.719792 v 5.15938 5.15937 h 1.719792 1.719792 v 1.5875 1.5875 h 1.719791 1.71979 v 3.43959 3.43958 h -3.439581 -3.439584 v 1.71979 1.7198 h -3.439584 -3.439583 v 3.43958 3.43958 h 1.719792 1.719791 v -1.71979 -1.71979 h 3.439584 3.439584 v -1.71979 -1.71979 h 1.719791 1.71979 v 5.15937 5.15938 h -1.71979 -1.719791 v 3.43958 3.43958 h -1.719792 -1.719792 v 1.71979 1.7198 H 90.35521 85.195834 v -1.7198 -1.71979 h 1.719792 1.719792 v -1.71979 -1.71979 h -3.439584 -3.439583 v 3.43958 3.43959 h -3.439584 -3.439583 v -1.7198 -1.71979 H 73.157292 71.4375 v 1.71979 1.7198 H 69.85 68.2625 v -1.7198 -1.71979 h 1.5875 1.5875 v -1.71979 -1.71979 H 69.85 68.2625 v -1.71979 -1.71979 h -1.719792 -1.719792 v -1.7198 -1.71979 h -1.719791 -1.719792 v 3.43959 3.43958 h -5.159375 -5.159376 v -1.71979 -1.71979 H 49.34479 47.624999 v 1.71979 1.71979 h -1.719792 -1.719792 v 1.71979 1.71979 h 1.719792 1.719792 v 1.71979 1.7198 h -5.159376 -5.159375 v -1.7198 -1.71979 h 1.719792 1.719792 v -1.71979 -1.71979 H 37.43854 34.131248 v 3.43958 3.43959 h -1.719792 -1.719792 z m 47.625003,3.43958 v -1.71979 h -1.719792 -1.719791 v 1.71979 1.71979 h 1.719791 1.719792 z m 17.197918,0 v -1.71979 h -1.719792 -1.719792 v 1.71979 1.71979 h 1.719792 1.719792 z m -58.208337,-6.87917 v -1.71979 h -1.5875 -1.5875 v 1.71979 1.7198 h 1.5875 1.5875 z m 10.318751,0 v -1.71979 h -1.719792 -1.719792 v -3.43958 -3.43958 h 1.719792 1.719792 v 1.71979 1.71979 h 1.719791 1.719792 v -3.43958 -3.43959 h 3.439584 3.439583 v -1.71979 -1.71979 h 1.719792 1.719792 v 1.71979 1.71979 h 1.719792 1.719791 v -1.71979 -1.71979 h 3.307292 3.307292 v -1.71979 -1.7198 h 3.439584 3.439583 v -1.5875 -1.5875 h 1.719792 1.719792 v -1.71979 -1.71979 h -1.719792 -1.719792 v 1.71979 1.71979 h -1.719792 -1.719791 v -1.71979 -1.71979 H 71.569792 68.2625 v 1.71979 1.71979 h -5.159375 -5.159376 v 1.5875 1.5875 h -1.719791 -1.719792 v 1.7198 1.71979 h -1.719792 -1.719792 v 1.71979 1.71979 h -3.439583 -3.439584 v -1.71979 -1.71979 h -5.027084 -5.027083 v 3.43958 3.43959 h 1.5875 1.5875 v 1.71979 1.71979 h 1.719792 1.719792 v 3.43958 3.43959 h 3.439583 3.439584 z M 37.306248,272.71503 v -1.71979 h 1.719792 1.719792 v 1.71979 1.7198 H 39.02604 37.306248 Z m 24.077085,-6.87916 v -1.7198 h 1.719792 1.719791 v 1.7198 1.71979 h -1.719791 -1.719792 z m 6.879167,-3.3073 v -1.5875 h 1.5875 1.5875 v 1.5875 1.5875 H 69.85 68.2625 Z m -10.318751,20.50521 v -1.71979 h -3.439583 -3.439584 v 1.71979 1.7198 h 3.439584 3.439583 z m 30.691669,0 v -1.71979 h -5.159375 -5.159376 v 1.71979 1.7198 h 5.159376 5.159375 z M 71.4375,279.5942 v -1.71979 H 69.85 68.2625 v -1.71979 -1.71979 h -6.879167 -6.879167 v 1.71979 1.71979 h 5.159375 5.159375 v 1.71979 1.71979 h 3.307292 3.307292 z m 13.758334,-6.87917 v -5.15937 h -5.159375 -5.159375 v 5.15937 5.15938 h 5.159375 5.159375 z m -6.879167,0 v -1.71979 h 1.719792 1.719792 v 1.71979 1.7198 h -1.719792 -1.719792 z m 13.758334,-6.87916 v -1.7198 h 1.719792 1.719792 v -1.5875 -1.5875 h -1.719792 -1.719792 v -3.43958 -3.43958 H 90.35521 88.635418 v 6.74687 6.74688 h 1.719792 1.719791 z M 57.943749,255.7817 v -1.71979 h -1.719791 -1.719792 v 1.71979 1.71979 h 1.719792 1.719791 z m 6.879167,0 v -1.71979 h -1.719791 -1.719792 v 1.71979 1.71979 h 1.719792 1.719791 z m 30.691669,-6.87917 v -1.71979 h -3.439584 -3.439583 v 1.71979 1.71979 h 3.439583 3.439584 z M 71.4375,245.46295 v -1.71979 h 1.719792 1.719792 v -1.7198 -1.71979 h 6.879167 6.879167 v -1.71979 -1.71979 h -1.719792 -1.719792 v -1.71979 -1.71979 h -1.719791 -1.719792 v -1.7198 -1.71979 h -1.719792 -1.719792 v -1.5875 -1.5875 h -1.719792 -1.719791 v 3.30729 3.3073 h 1.719791 1.719792 v 1.71979 1.71979 H 74.877084 71.4375 v 3.43958 3.43959 H 69.85 68.2625 v 1.71979 1.71979 h 1.5875 1.5875 z m -51.064586,-3.43959 v -1.71979 H 16.93333 13.493744 v -3.43958 -3.43958 h -3.43958 -3.4395797 v 1.71979 1.71979 h 1.71979 1.7197897 v 3.43958 3.43959 h 5.15937 5.15938 z m 20.372918,-3.43958 v -1.71979 H 39.02604 37.306248 v 1.71979 1.71979 h 1.719792 1.719792 z m 6.879167,0 v -1.71979 h 3.439583 3.439584 v -1.71979 -1.71979 H 49.34479 44.185415 v 3.43958 3.43958 h 1.719792 1.719792 z M 27.252081,228.39732 v -1.5875 h -1.719792 -1.719792 v 1.5875 1.5875 h 1.719792 1.719792 z m 30.691668,0 v -1.5875 h 1.719792 1.719792 v -1.71979 -1.71979 h -5.159375 -5.159376 v 3.30729 3.30729 h 3.439584 3.439583 z m 0,-10.18646 v -1.71979 h 1.719792 1.719792 v -1.71979 -1.71979 h 3.439583 3.439584 v -5.15938 -5.15937 h 1.5875 1.5875 v -1.71979 -1.7198 H 69.85 68.2625 v 1.7198 1.71979 h -5.159375 -5.159376 v 1.71979 1.71979 h -1.719791 -1.719792 v 3.43958 3.43959 h 1.719792 1.719791 v 1.71979 1.71979 h -1.719791 -1.719792 v 1.71979 1.7198 h 1.719792 1.719791 z m 0,-6.87916 v -1.7198 h 1.719792 1.719792 v -1.71979 -1.71979 h 1.719792 1.719791 v 1.71979 1.71979 h -1.719791 -1.719792 v 1.7198 1.71979 h -1.719792 -1.719792 z m -17.197917,-3.43959 v -1.71979 H 39.02604 37.306248 v 1.71979 1.71979 h 1.719792 1.719792 z m 13.758334,85.46042 v -1.71979 h 5.159375 5.159375 v 1.71979 1.7198 H 59.663541 54.504166 Z M 98.954169,255.7817 v -1.71979 h 1.719791 1.71979 v 1.71979 1.71979 h -1.71979 -1.719791 z m -61.647921,-3.43958 v -1.7198 h 1.719792 1.719792 v 1.7198 1.71979 H 39.02604 37.306248 Z m 61.647921,-10.31876 v -1.71979 h 1.719791 1.71979 v 1.71979 1.7198 h -1.71979 -1.719791 z m 0,-13.62604 v -1.5875 h -1.719792 -1.719792 v -1.71979 -1.71979 h 1.719792 1.719792 v 1.71979 1.71979 h 1.719791 1.71979 v 1.5875 1.5875 h -1.71979 -1.719791 z M 3.1749943,207.89211 V 195.85357 H 15.213534 27.252081 v 12.03854 12.03855 H 15.213534 3.1749943 Z m 20.6375027,0 v -8.59896 H 15.213534 6.6145843 v 8.59896 8.59896 h 8.5989497 8.598963 z m -13.758333,0 v -5.15937 h 5.15937 5.15938 v 5.15937 5.15938 h -5.15938 -5.15937 z m 20.6375,8.59896 v -3.43958 h 1.719792 1.719792 v 3.43958 3.43959 h -1.719792 -1.719792 z m 47.625003,-8.59896 v -12.03854 h 12.038543 12.03854 v 12.03854 12.03855 H 90.35521 78.316667 Z m 20.637502,0 v -8.59896 H 90.35521 81.756251 v 8.59896 8.59896 h 8.598959 8.598959 z m -13.758335,0 v -5.15937 h 5.159376 5.159375 v 5.15937 5.15938 H 90.35521 85.195834 Z"
       id="path1479"
       inkscape:connector-curvature="0" />
  </g>
</svg>
