<?xml version="1.0" encoding="UTF-8" standalone="no"?>
<!-- Created with Inkscape (http://www.inkscape.org/) -->

<svg
   xmlns:dc="http://purl.org/dc/elements/1.1/"
   xmlns:cc="http://creativecommons.org/ns#"
   xmlns:rdf="http://www.w3.org/1999/02/22-rdf-syntax-ns#"
   xmlns:svg="http://www.w3.org/2000/svg"
   xmlns="http://www.w3.org/2000/svg"
   xmlns:sodipodi="http://sodipodi.sourceforge.net/DTD/sodipodi-0.dtd"
   xmlns:inkscape="http://www.inkscape.org/namespaces/inkscape"
   width="400"
   height="400"
   viewBox="0 0 105.83333 105.83333"
   version="1.1"
   id="svg921"
   inkscape:version="0.92.3 (2405546, 2018-03-11)"
   sodipodi:docname="jsxa11yqr.svg">
  <defs
     id="defs915" />
  <sodipodi:namedview
     id="base"
     pagecolor="#ffffff"
     bordercolor="#666666"
     borderopacity="1.0"
     inkscape:pageopacity="0.0"
     inkscape:pageshadow="2"
     inkscape:zoom="0.98994949"
     inkscape:cx="186.35607"
     inkscape:cy="291.96815"
     inkscape:document-units="mm"
     inkscape:current-layer="layer1"
     showgrid="false"
     units="px"
     inkscape:window-width="1920"
     inkscape:window-height="1017"
     inkscape:window-x="-8"
     inkscape:window-y="-8"
     inkscape:window-maximized="1" />
  <metadata
     id="metadata918">
    <rdf:RDF>
      <cc:Work
         rdf:about="">
        <dc:format>image/svg+xml</dc:format>
        <dc:type
           rdf:resource="http://purl.org/dc/dcmitype/StillImage" />
        <dc:title></dc:title>
      </cc:Work>
    </rdf:RDF>
  </metadata>
  <g
     inkscape:label="Layer 1"
     inkscape:groupmode="layer"
     id="layer1"
     transform="translate(0,-191.16667)">
    <path
       style="fill:#000000;stroke-width:0.29453498"
       d="M 1.6828667,283.34551 V 270.94275 H 14.02112 26.359374 v 12.40276 12.40277 H 14.02112 1.6828667 Z m 21.1512913,0 V 274.4864 H 14.02112 5.2080808 v 8.85911 8.85912 h 8.8130392 8.813038 z m -14.1008608,0 v -5.31547 h 5.2878228 5.287823 v 5.31547 5.31548 H 14.02112 8.7332972 Z m 21.1512918,3.54365 v -8.85912 h 1.762607 1.762608 v -1.77182 -1.77182 h -1.762608 -1.762607 v -3.54365 -3.54366 h 1.762607 1.762608 v -1.77182 -1.77183 h 3.525215 3.525216 v 1.77183 1.77182 h 1.762607 1.762608 v -3.54365 -3.54365 h 1.762607 1.762608 v 1.77183 1.77182 h 1.762608 1.762607 v -3.54365 -3.54364 h -8.813038 -8.813038 v 1.77182 1.77182 h -1.762608 -1.762607 v 1.77183 1.77182 h -1.762608 -1.762607 v 1.77183 1.77182 h -1.762608 -1.762608 v -1.77182 -1.77183 h -3.525215 -3.525215 v 1.77183 1.77182 H 12.258513 8.7332972 v -5.31547 -5.31547 H 6.9706895 5.2080808 v 5.31547 5.31547 H 3.4454743 1.6828667 v -7.0873 -7.08729 h 1.7626076 1.7626065 v -1.77182 -1.77183 H 3.4454743 1.6828667 v -5.31547 -5.31547 h 3.5252141 3.5252164 v 1.77182 1.77183 h 5.2878228 5.287823 v -1.77183 -1.77182 h -3.525215 -3.525215 v -1.77183 -1.77182 H 10.495905 8.7332972 v -3.54365 -3.54364 h 1.7626078 1.762608 v 3.54364 3.54365 h 1.762607 1.762608 v -3.54365 -3.54364 h 1.762608 1.762607 v 1.77182 1.77182 h 1.762608 1.762607 v -1.77182 -1.77182 h 5.287823 5.287823 v -1.77183 -1.77182 h -5.287823 -5.287823 v -1.77183 -1.77182 H 33.409804 43.98545 v -3.54365 -3.54364 h 1.762607 1.762608 v -1.77183 -1.77182 H 45.748057 43.98545 v -1.77183 -1.77182 h -1.762608 -1.762607 v 5.31547 5.31547 h -1.762608 -1.762608 v -5.31547 -5.31547 h -3.525215 -3.525215 v -1.77182 -1.77183 h 1.762607 1.762608 v -1.77182 -1.77182 h -1.762608 -1.762607 v -1.77183 -1.77182 h 1.762607 1.762608 v -1.77183 -1.77182 h 1.762608 1.762607 v 3.54365 3.54365 h 1.762608 1.762608 v -1.77183 -1.77182 h 3.525215 3.525215 v 1.77182 1.77183 H 45.748057 43.98545 v 1.77182 1.77182 h 3.525215 3.525215 v -5.31547 -5.31547 h 1.762608 1.762607 v 1.77182 1.77183 h 1.762608 1.762608 v -1.77183 -1.77182 h 8.813039 8.813038 v 3.54365 3.54365 H 73.94978 72.187173 v 1.77182 1.77182 h -1.762608 -1.762608 v -1.77182 -1.77182 h 1.762608 1.762608 v -1.77183 -1.77182 h -3.525216 -3.525215 v 1.77182 1.77183 h -1.762607 -1.762608 v 1.77182 1.77182 h 1.762608 1.762607 v 1.77183 1.77182 h 5.287823 5.287823 v 1.77182 1.77183 h -3.525215 -3.525216 v 3.54365 3.54364 h 1.762608 1.762608 v -1.77182 -1.77182 h 1.762607 1.762608 v 3.54364 3.54365 h 1.762608 1.762607 v 1.77182 1.77183 h 1.762608 1.762607 v -1.77183 -1.77182 h 1.762608 1.762608 v 1.77182 1.77183 h 1.762607 1.762608 v -1.77183 -1.77182 h 1.762611 1.762607 v 1.77182 1.77183 H 91.57586 89.813249 v 3.54365 3.54364 h 1.762611 1.762607 v 1.77183 1.77182 h 1.762608 1.762608 v -1.77182 -1.77183 h 1.762607 1.76261 v 1.77183 1.77182 h -1.76261 -1.762607 v 1.77182 1.77183 h -3.525216 -3.525218 v 1.77182 1.77183 h 3.525218 3.525216 v 1.77182 1.77182 h 1.762607 1.76261 v 1.77183 1.77182 h -1.76261 -1.762607 v 5.31547 5.31547 h 1.762607 1.76261 v 1.77183 1.77182 h 1.76261 1.7626 v 3.54365 3.54366 h -3.52521 -3.525217 v 1.77182 1.77183 h -3.525216 -3.525218 v 3.54364 3.54365 h 1.762611 1.762607 v -1.77182 -1.77183 h 3.525216 3.525217 v 1.77183 1.77182 h 1.76261 1.7626 v 1.77182 1.77183 h -1.7626 -1.76261 v 3.54365 3.54364 h -1.76261 -1.762607 v 1.77183 1.77182 h -1.762608 -1.762608 v -1.77182 -1.77183 H 91.57586 89.813249 v 1.77183 1.77182 h -5.287823 -5.287823 v -1.77182 -1.77183 h -3.525215 -3.525215 v 1.77183 1.77182 h -1.762608 -1.762608 v -1.77182 -1.77183 h 1.762608 1.762608 v -1.77182 -1.77182 H 66.89935 61.611527 v 1.77182 1.77182 h 1.762608 1.762607 v 1.77183 1.77182 h -1.762607 -1.762608 v -1.77182 -1.77183 h -3.525216 -3.525216 v 1.77183 1.77182 H 51.03588 47.510665 v -1.77182 -1.77183 H 45.748057 43.98545 v 1.77183 1.77182 h -3.525215 -3.525216 v -1.77182 -1.77183 h -1.762607 -1.762608 v 1.77183 1.77182 h -1.762608 -1.762607 z m 14.100861,1.77183 v -3.54365 h -3.525215 -3.525216 v -1.77183 -1.77182 h 1.762608 1.762608 v -1.77182 -1.77183 h 7.05043 7.05043 v 3.54365 3.54365 H 52.798488 51.03588 v -1.77183 -1.77182 h -1.762607 -1.762608 v 1.77182 1.77183 h 1.762608 1.762607 v 1.77182 1.77183 h -1.762607 -1.762608 v 1.77182 1.77182 h 1.762608 1.762607 v -1.77182 -1.77182 h 1.762608 1.762607 v -1.77183 -1.77182 h 1.762608 1.762608 v 1.77182 1.77183 h 1.762607 1.762609 v -1.77183 -1.77182 h 3.525215 3.525215 v -1.77183 -1.77182 h 1.762608 1.762608 v -1.77182 -1.77183 h -1.762608 -1.762608 v -3.54364 -3.54365 h 1.762608 1.762608 v -1.77183 -1.77183 h -1.762608 -1.762608 v -1.77182 -1.77183 h 1.762608 1.762608 v -3.54365 -3.54364 h 1.762607 1.762608 v 1.77182 1.77182 h 1.762608 1.762607 v -1.77182 -1.77182 h -1.762607 -1.762608 v -3.54365 -3.54365 H 73.94978 72.187173 v 3.54365 3.54365 h -3.525216 -3.525215 v 1.77182 1.77182 h -1.762607 -1.762608 v -1.77182 -1.77182 h -1.762609 -1.762607 v -1.77183 -1.77182 h -1.762608 -1.762608 v -3.54365 -3.54365 H 51.03588 47.510665 v -1.77182 -1.77182 H 43.98545 40.460235 v 3.54364 3.54365 h -1.762608 -1.762608 v -1.77182 -1.77183 h -1.762607 -1.762608 v -1.77182 -1.77182 h 1.762608 1.762607 v -1.77183 -1.77182 h 5.287823 5.287823 v -1.77183 -1.77182 h 1.762608 1.762607 v -1.77182 -1.77183 h 1.762608 1.762607 v -1.77182 -1.77182 h 1.762608 1.762608 v -1.77183 -1.77182 H 54.561095 51.03588 v 1.77182 1.77183 h -1.762607 -1.762608 v -3.54365 -3.54365 h 1.762608 1.762607 v -3.54365 -3.54364 h -1.762607 -1.762608 v 3.54364 3.54365 H 45.748057 43.98545 v 3.54365 3.54365 h -1.762608 -1.762607 v -1.77183 -1.77182 h -1.762608 -1.762608 v 3.54365 3.54364 h 1.762608 1.762608 v 1.77183 1.77182 h -1.762608 -1.762608 v 1.77182 1.77183 h -1.762607 -1.762608 v -3.54365 -3.54365 h -5.287823 -5.287823 v 1.77183 1.77182 h 3.525216 3.525215 v 1.77182 1.77183 h 1.762607 1.762608 v 1.77182 1.77183 h -3.525215 -3.525215 v -1.77183 -1.77182 h -1.762608 -1.762608 v 1.77182 1.77183 h -1.762607 -1.762608 v 1.77182 1.77182 h 1.762608 1.762607 v 1.77183 1.77182 h -1.762607 -1.762608 v 1.77183 1.77182 h -3.525215 -3.525215 v 1.77182 1.77183 h 1.762607 1.762608 v 1.77182 1.77182 H 14.02112 12.258513 v 1.77183 1.77182 h 1.762607 1.762608 v -1.77182 -1.77183 h 1.762608 1.762607 v -1.77182 -1.77182 h 3.525215 3.525216 v 1.77182 1.77182 h -1.762608 -1.762608 v 1.77183 1.77182 h 1.762608 1.762608 v -1.77182 -1.77183 h 1.762607 1.762608 v -1.77182 -1.77182 h 1.762607 1.762608 v -1.77183 -1.77182 h -5.287823 -5.287823 v -1.77182 -1.77183 h 7.050431 7.05043 v 1.77183 1.77182 h 5.287823 5.287823 v -1.77182 -1.77183 h 1.762608 1.762607 v 3.54365 3.54365 h 3.525215 3.525216 v 1.77182 1.77182 h -1.762608 -1.762608 v 3.54365 3.54365 H 52.798488 51.03588 v 3.54366 3.54365 h -1.762607 -1.762608 v -3.54365 -3.54366 H 45.748057 43.98545 v 1.77183 1.77183 h -1.762608 -1.762607 v -1.77183 -1.77183 h -3.525216 -3.525215 v 1.77183 1.77183 h 1.762608 1.762607 v 1.77182 1.77183 h 1.762608 1.762608 v 1.77182 1.77182 h -3.525216 -3.525215 v 5.31547 5.31548 h 1.762608 1.762607 v 1.77182 1.77182 h 3.525216 3.525215 z m 14.100861,-5.31548 v -1.77182 h 1.762607 1.762609 v -1.77182 -1.77183 h 1.762608 1.762607 v 1.77183 1.77182 h -1.762607 -1.762608 v 1.77182 1.77183 h -1.762609 -1.762607 z m -3.525216,-8.85911 v -3.54365 h 1.762608 1.762608 v -1.77183 -1.77183 h 1.762607 1.762609 v -1.77182 -1.77183 h -1.762609 -1.762607 v -1.77182 -1.77183 h 1.762607 1.762609 v 1.77183 1.77182 h 1.762608 1.762607 v 1.77183 1.77182 h 1.762608 1.762607 v 1.77183 1.77183 H 66.89935 65.136742 v -1.77183 -1.77183 h -1.762607 -1.762608 v 3.54366 3.54365 h -1.762609 -1.762607 v 1.77182 1.77182 H 56.323703 54.561095 Z M 43.98545,247.90903 v -1.77183 h 1.762607 1.762608 v 1.77183 1.77182 H 45.748057 43.98545 Z m -21.151292,-3.54365 v -1.77182 h 1.762608 1.762608 v 1.77182 1.77182 H 24.596766 22.834158 Z M 43.98545,233.73444 v -1.77183 h 1.762607 1.762608 v 1.77183 1.77182 H 45.748057 43.98545 Z m 38.777368,56.69837 v -1.77182 h -1.762607 -1.762608 v 1.77182 1.77182 h 1.762608 1.762607 z m 7.050431,0 v -1.77182 h -1.762608 -1.762607 v 1.77182 1.77182 h 1.762607 1.762608 z m 7.050434,0 v -1.77182 h -1.762608 -1.762608 v 1.77182 1.77182 h 1.762608 1.762608 z m -7.050434,-7.0873 v -1.77182 h -7.050431 -7.05043 v 1.77182 1.77183 h 7.05043 7.050431 z m 10.575651,0 v -1.77182 h -1.76261 -1.762607 v 1.77182 1.77183 h 1.762607 1.76261 z M 86.288034,272.71457 v -5.31548 h -5.287823 -5.287823 v 5.31548 5.31547 h 5.287823 5.287823 z m -7.050431,0 v -1.77182 h 1.762608 1.762607 v 1.77182 1.77183 h -1.762607 -1.762608 z m 14.100864,-7.0873 v -1.77183 h 1.762608 1.762608 v -1.77182 -1.77183 h -1.762608 -1.762608 v -3.54364 -3.54365 H 91.57586 89.813249 v -1.77182 -1.77183 h 3.525218 3.525216 v -1.77182 -1.77183 h -3.525216 -3.525218 v 1.77183 1.77182 h -1.762608 -1.762607 v 1.77183 1.77182 h 1.762607 1.762608 v 3.54365 3.54364 h -3.525215 -3.525216 v 1.77183 1.77182 h 3.525216 3.525215 v 1.77183 1.77182 h 1.762611 1.762607 z M 82.762818,251.45268 v -1.77183 h -1.762607 -1.762608 v 1.77183 1.77182 h 1.762608 1.762607 z M 8.7332972,246.1372 v -3.54364 H 6.9706895 5.2080808 v 3.54364 3.54365 h 1.7626087 1.7626077 z m 7.0504308,1.77183 V 246.1372 H 14.02112 12.258513 v 1.77183 1.77182 h 1.762607 1.762608 z m 49.353014,0 v -1.77183 h 3.525215 3.525216 v -1.77182 -1.77182 h -3.525216 -3.525215 v 1.77182 1.77182 h -1.762607 -1.762608 v -5.31547 -5.31547 h 1.762608 1.762607 v 1.77182 1.77183 h 12.338254 12.338253 v -3.54365 -3.54365 h -1.762608 -1.762607 v -1.77182 -1.77182 h -3.525216 -3.525215 v -1.77183 -1.77182 h -1.762607 -1.762608 v 5.31547 5.31547 H 73.94978 72.187173 v -3.54365 -3.54364 h -3.525216 -3.525215 v -1.77183 -1.77182 h 3.525215 3.525216 v -1.77183 -1.77182 h -3.525216 -3.525215 v -5.31547 -5.31547 h -3.525215 -3.525216 v -1.77183 -1.77182 h 1.762607 1.762609 v -1.77182 -1.77183 h -3.525216 -3.525216 v 1.77183 1.77182 H 51.03588 47.510665 v 1.77182 1.77183 h 5.287823 5.287823 v 1.77182 1.77183 h -1.762608 -1.762608 v 1.77182 1.77182 h 1.762608 1.762608 v 1.77183 1.77182 h 3.525216 3.525215 v 1.77182 1.77183 h -1.762607 -1.762608 v 5.31547 5.31547 h -3.525216 -3.525216 v 1.77182 1.77183 H 52.798488 51.03588 v 1.77182 1.77183 h 3.525215 3.525216 v 1.77182 1.77182 h 1.762607 1.762609 v 1.77183 1.77182 h 1.762608 1.762607 z M 58.086311,216.0162 v -1.77182 h 1.762607 1.762609 v 1.77182 1.77182 h -1.762609 -1.762607 z m 28.201723,28.34918 v -1.77182 h -3.525216 -3.525215 v 1.77182 1.77182 h 3.525215 3.525216 z M 40.460235,205.38526 v -1.77183 h -1.762608 -1.762608 v 1.77183 1.77182 h 1.762608 1.762608 z m 21.151292,-7.0873 v -1.77182 h -1.762609 -1.762607 v 1.77182 1.77183 h 1.762607 1.762609 z m 38.777373,56.69836 v -1.77182 h 1.76261 1.7626 v 1.77182 1.77183 h -1.7626 -1.76261 z m 0,-14.17459 v -1.77182 h 1.76261 1.7626 v 1.77182 1.77183 h -1.7626 -1.76261 z m 0,-14.17459 v -1.77182 h -1.76261 -1.762607 v -1.77183 -1.77182 h 1.762607 1.76261 v 1.77182 1.77183 h 1.76261 1.7626 v 1.77182 1.77183 h -1.7626 -1.76261 z M 1.6828667,223.10349 v -1.77182 h 8.8130383 8.813038 v 1.77182 1.77183 H 10.495905 1.6828667 Z m 0,-17.71823 V 192.98249 H 14.02112 26.359374 v 12.40277 12.40276 H 14.02112 1.6828667 Z m 21.1512913,0 v -8.85912 H 14.02112 5.2080808 v 8.85912 8.85912 h 8.8130392 8.813038 z m -14.1008608,0 v -5.31547 h 5.2878228 5.287823 v 5.31547 5.31547 H 14.02112 8.7332972 Z m 21.1512918,8.85912 v -3.54365 h 1.762607 1.762608 v 3.54365 3.54364 h -1.762608 -1.762607 z m 49.353014,-8.85912 v -12.40277 h 12.338257 12.33825 v 12.40277 12.40276 H 91.57586 79.237603 Z m 21.151297,0 v -8.85912 h -8.81304 -8.813042 v 8.85912 8.85912 h 8.813042 8.81304 z m -14.100866,0 v -5.31547 h 5.287826 5.287823 v 5.31547 5.31547 H 91.57586 86.288034 Z"
       id="path1701"
       inkscape:connector-curvature="0" />
  </g>
</svg>
