<?xml version="1.0" encoding="UTF-8" standalone="no"?>
<!-- Created with Inkscape (http://www.inkscape.org/) -->

<svg
   xmlns:dc="http://purl.org/dc/elements/1.1/"
   xmlns:cc="http://creativecommons.org/ns#"
   xmlns:rdf="http://www.w3.org/1999/02/22-rdf-syntax-ns#"
   xmlns:svg="http://www.w3.org/2000/svg"
   xmlns="http://www.w3.org/2000/svg"
   xmlns:sodipodi="http://sodipodi.sourceforge.net/DTD/sodipodi-0.dtd"
   xmlns:inkscape="http://www.inkscape.org/namespaces/inkscape"
   width="400"
   height="400"
   viewBox="0 0 105.83333 105.83333"
   version="1.1"
   id="svg921"
   inkscape:version="0.92.3 (2405546, 2018-03-11)"
   sodipodi:docname="react-axeqr.svg">
  <defs
     id="defs915" />
  <sodipodi:namedview
     id="base"
     pagecolor="#ffffff"
     bordercolor="#666666"
     borderopacity="1.0"
     inkscape:pageopacity="0.0"
     inkscape:pageshadow="2"
     inkscape:zoom="0.98994949"
     inkscape:cx="186.35607"
     inkscape:cy="291.96815"
     inkscape:document-units="mm"
     inkscape:current-layer="layer1"
     showgrid="false"
     units="px"
     inkscape:window-width="1920"
     inkscape:window-height="1017"
     inkscape:window-x="-8"
     inkscape:window-y="-8"
     inkscape:window-maximized="1" />
  <metadata
     id="metadata918">
    <rdf:RDF>
      <cc:Work
         rdf:about="">
        <dc:format>image/svg+xml</dc:format>
        <dc:type
           rdf:resource="http://purl.org/dc/dcmitype/StillImage" />
        <dc:title></dc:title>
      </cc:Work>
    </rdf:RDF>
  </metadata>
  <g
     inkscape:label="Layer 1"
     inkscape:groupmode="layer"
     id="layer1"
     transform="translate(0,-191.16667)">
    <path
       style="fill:#000000;stroke-width:0.29453492"
       d="M 1.7956881,283.19573 V 270.79297 H 14.133941 26.472195 v 12.40276 12.40277 H 14.133941 1.7956881 Z m 21.1512919,0 v -8.85911 H 14.133941 5.3209034 v 8.85911 8.85912 h 8.8130376 8.813039 z m -14.1008614,0 v -5.31547 h 5.2878224 5.287823 v 5.31547 5.31548 H 14.133941 8.8461186 Z m 21.1512914,7.0873 v -5.31547 h 3.525214 3.525215 v -1.77183 -1.77182 h 1.762608 1.762608 v -1.77182 -1.77183 h -1.762608 -1.762608 v -3.54364 -3.54365 h 1.762608 1.762608 v -1.77183 -1.77182 h 1.762607 1.762608 v -1.77182 -1.77183 h -1.762608 -1.762607 v -1.77182 -1.77183 h -3.525216 -3.525215 v 1.77183 1.77182 h 1.762608 1.762607 v 1.77183 1.77182 h -1.762607 -1.762608 v 7.0873 7.08729 H 31.760018 29.99741 v -8.85912 -8.85912 h -1.762608 -1.762607 v 1.77183 1.77182 H 24.709587 22.94698 v -1.77182 -1.77183 h 1.762607 1.762608 v -1.77182 -1.77183 H 22.94698 19.421764 v -1.77182 -1.77182 h -1.762607 -1.762608 v -1.77183 -1.77182 h -1.762608 -1.762607 v 3.54365 3.54364 h 1.762607 1.762608 v 1.77183 1.77182 h 1.762608 1.762607 v 1.77183 1.77182 h -1.762607 -1.762608 v -1.77182 -1.77183 h -1.762608 -1.762607 v 1.77183 1.77182 H 10.608726 8.8461186 v -1.77182 -1.77183 H 7.083511 5.3209034 v 1.77183 1.77182 H 3.5582957 1.7956881 v -1.77182 -1.77183 h 1.7626076 1.7626077 v -1.77182 -1.77183 H 3.5582957 1.7956881 v -1.77182 -1.77182 h 1.7626076 1.7626077 v -1.77183 -1.77182 H 3.5582957 1.7956881 v -1.77182 -1.77183 h 7.0504305 7.0504304 v -3.54365 -3.54364 h 7.050431 7.05043 v -1.77183 -1.77182 h -8.813038 -8.813038 v 3.54365 3.54364 H 7.083511 1.7956881 v -3.54364 -3.54365 h 3.5252153 3.5252152 v -1.77182 -1.77183 h 1.7626074 1.762608 v -1.77182 -1.77183 h 1.762607 1.762608 v -1.77182 -1.77182 H 12.371334 8.8461186 v -1.77183 -1.77182 H 7.083511 5.3209034 v 1.77182 1.77183 H 3.5582957 1.7956881 v -3.54365 -3.54365 h 5.2878229 5.287823 v 1.77182 1.77183 h 1.762607 1.762608 v -1.77183 -1.77182 h 7.050431 7.05043 v -3.54365 -3.54364 h 1.762608 1.762606 v -1.77183 -1.77182 h 1.762608 1.762607 v -1.77183 -1.77182 h -1.762607 -1.762608 v -1.77182 -1.77183 H 31.760018 29.99741 v -1.77182 -1.77182 h 3.525214 3.525215 v -1.77183 -1.77182 h -1.762607 -1.762608 v -1.77183 -1.77182 h 1.762608 1.762607 v 1.77182 1.77183 h 3.525216 3.525215 v -1.77183 -1.77182 h 3.525215 3.525215 v 3.54365 3.54365 h 1.762608 1.762608 v -3.54365 -3.54365 h 1.762607 1.762608 v 1.77182 1.77183 h 5.287823 5.287822 v -1.77183 -1.77182 h 1.762607 1.762608 v 1.77182 1.77183 h 1.762607 1.762608 v 5.31547 5.31547 h -1.762608 -1.762607 v 1.77182 1.77183 h 1.762607 1.762608 v 5.31547 5.31547 h 3.525215 3.525216 v 5.31547 5.31547 h 1.762607 1.762608 v -1.77182 -1.77182 h 1.762608 1.762607 v -1.77183 -1.77182 h 1.762608 1.762607 v -1.77183 -1.77182 h 1.762608 1.762608 v 1.77182 1.77183 H 95.21389 93.451282 v 1.77182 1.77183 h 3.525216 3.525212 v -1.77183 -1.77182 h 1.76261 1.76261 v 3.54365 3.54364 h -1.76261 -1.76261 v 1.77183 1.77182 h 1.76261 1.76261 v 5.31547 5.31547 h -1.76261 -1.76261 v 1.77183 1.77182 h 1.76261 1.76261 v 5.31547 5.31547 h -1.76261 -1.76261 v 1.77183 1.77182 h -1.762606 -1.762606 v -3.54365 -3.54364 h -3.525216 -3.525215 v 1.77182 1.77182 h 1.762608 1.762607 v 1.77183 1.77182 h -1.762607 -1.762608 v 3.54365 3.54365 h 1.762608 1.762607 v -1.77183 -1.77182 h 5.287822 5.287826 v 10.63094 10.63095 h -1.76261 -1.76261 v 1.77182 1.77182 h 1.76261 1.76261 v 1.77183 1.77182 h -3.52522 -3.525212 v -3.54365 -3.54364 h 1.762606 1.762606 v -1.77183 -1.77182 h -3.525212 -3.525216 v 1.77182 1.77183 h -1.762607 -1.762608 v 3.54364 3.54365 h -3.525215 -3.525215 v -1.77182 -1.77183 h 1.762607 1.762608 v -1.77182 -1.77182 h -1.762608 -1.762607 v -3.54365 -3.54365 h -3.525216 -3.525215 v 1.77182 1.77183 h -1.762608 -1.762607 v 1.77182 1.77183 h 3.525215 3.525215 v 3.54364 3.54365 h -5.287823 -5.287822 v -1.77182 -1.77183 h -1.762608 -1.762607 v 1.77183 1.77182 h -1.762607 -1.762608 v -3.54365 -3.54364 h -1.762607 -1.762608 v -5.31548 -5.31547 h -1.762608 -1.762607 v 3.54365 3.54365 H 52.911308 51.1487 v 1.77182 1.77183 h -1.762607 -1.762608 v -1.77183 -1.77182 h 1.762608 1.762607 v -3.54365 -3.54365 H 47.623485 44.09827 v 3.54365 3.54365 h -3.525215 -3.525216 v 1.77182 1.77183 h -1.762607 -1.762608 v 1.77182 1.77182 h 1.762608 1.762607 v 1.77183 1.77182 H 33.522624 29.99741 Z m 38.777366,-3.54365 v -1.77182 h 1.762607 1.762608 v -5.31547 -5.31547 h -1.762608 -1.762607 v 3.54364 3.54365 h -3.525215 -3.525215 v 1.77182 1.77183 h 1.762608 1.762607 v 1.77182 1.77183 h 1.762607 1.762608 z m 24.676506,-3.54365 v -1.77182 h 1.762608 1.762608 v -5.31547 -5.31547 H 95.21389 93.451282 v 3.54365 3.54364 h -1.762607 -1.762608 v 3.54365 3.54365 h 1.762608 1.762607 z M 44.09827,276.10844 v -1.77182 h -1.762608 -1.762607 v 1.77182 1.77182 h 1.762607 1.762608 z m 42.302582,-3.54365 v -5.31547 h -5.287823 -5.287823 v 5.31547 5.31547 h 5.287823 5.287823 z m -7.050431,0 v -1.77182 h 1.762608 1.762608 v 1.77182 1.77183 h -1.762608 -1.762608 z m -28.201721,0 v -1.77182 h 1.762608 1.762608 v 1.77182 1.77183 h 3.525215 3.525215 v -1.77183 -1.77182 h -1.762607 -1.762608 v -3.54365 -3.54365 h 1.762608 1.762607 v -3.54365 -3.54364 h -1.762607 -1.762608 v -3.54365 -3.54365 h 1.762608 1.762607 v -1.77182 -1.77183 h 1.762608 1.762607 v -1.77182 -1.77182 h 1.762607 1.762608 v 3.54364 3.54365 h -1.762608 -1.762607 v 3.54365 3.54365 h 1.762607 1.762608 v 1.77182 1.77182 h -1.762608 -1.762607 v 3.54365 3.54365 h 1.762607 1.762608 v -3.54365 -3.54365 h 3.525215 3.525215 v -3.54364 -3.54365 h 1.762608 1.762607 v -1.77182 -1.77183 h -1.762607 -1.762608 v 1.77183 1.77182 h -3.525215 -3.525215 v -1.77182 -1.77183 h 1.762607 1.762608 v -1.77182 -1.77183 h 3.525215 3.525215 v -1.77182 -1.77182 h -3.525215 -3.525215 v -3.54365 -3.54365 h -1.762608 -1.762607 v -1.77182 -1.77183 h 1.762607 1.762608 v -5.31547 -5.31547 h -3.525215 -3.525215 v 1.77182 1.77183 H 58.199131 51.1487 v -1.77183 -1.77182 H 47.623485 44.09827 v -3.54365 -3.54364 h 1.762608 1.762607 v 1.77182 1.77182 h 1.762608 1.762607 v -1.77182 -1.77182 h -1.762607 -1.762608 v -1.77183 -1.77182 h 1.762608 1.762607 v -5.31547 -5.31547 h -1.762607 -1.762608 v 1.77182 1.77182 H 45.860878 44.09827 v -1.77182 -1.77182 h -1.762608 -1.762607 v 1.77182 1.77182 h 1.762607 1.762608 v 1.77183 1.77182 h -1.762608 -1.762607 v 1.77182 1.77183 h -1.762608 -1.762608 v 1.77182 1.77183 h -1.762607 -1.762608 v 1.77182 1.77182 h 1.762608 1.762607 v -1.77182 -1.77182 h 1.762608 1.762608 v 3.54364 3.54365 h 1.762607 1.762608 v 3.54365 3.54365 h -3.525215 -3.525216 v -3.54365 -3.54365 h -1.762607 -1.762608 v 1.77182 1.77183 H 31.760018 29.99741 v 1.77182 1.77183 h -1.762608 -1.762607 v -1.77183 -1.77182 H 24.709587 22.94698 v 1.77182 1.77183 h -1.762608 -1.762608 v -1.77183 -1.77182 h -1.762607 -1.762608 v 1.77182 1.77183 h 1.762608 1.762607 v 1.77182 1.77182 h -1.762607 -1.762608 v 1.77183 1.77182 h 1.762608 1.762607 v -1.77182 -1.77183 h 1.762608 1.762608 v 1.77183 1.77182 h 5.287822 5.287822 v 1.77183 1.77182 h 1.762608 1.762607 v 1.77182 1.77183 h -1.762607 -1.762608 v 1.77182 1.77182 h -7.050429 -7.050431 v 1.77183 1.77182 h -1.762607 -1.762608 v 1.77183 1.77182 h 1.762608 1.762607 v 1.77182 1.77183 h 5.287823 5.287823 v 1.77182 1.77182 h 1.762608 1.762606 v -1.77182 -1.77182 H 31.760018 29.99741 v -3.54365 -3.54365 h 1.762608 1.762606 v 1.77183 1.77182 h 1.762608 1.762607 v 1.77182 1.77183 h 1.762608 1.762608 v 1.77182 1.77182 h 1.762607 1.762608 v 1.77183 1.77182 h 1.762608 1.762607 v 1.77183 1.77182 h 1.762608 1.762607 v 1.77182 1.77183 h -1.762607 -1.762608 v 1.77182 1.77183 h 1.762608 1.762607 z m 3.525216,-10.63094 v -1.77183 h 1.762607 1.762608 v 1.77183 1.77182 h -1.762608 -1.762607 z m -7.050431,-3.54365 v -1.77182 h 1.762608 1.762607 v -3.54365 -3.54365 H 47.623485 44.09827 v 3.54365 3.54365 h -1.762608 -1.762607 v -1.77183 -1.77182 h -1.762608 -1.762608 v -3.54365 -3.54365 h 1.762608 1.762608 v -3.54364 -3.54365 h 1.762607 1.762608 v -1.77182 -1.77183 h -1.762608 -1.762607 v -1.77182 -1.77183 h 1.762607 1.762608 v 1.77183 1.77182 h 1.762608 1.762607 v 1.77183 1.77182 h 1.762608 1.762607 v 1.77182 1.77183 h 1.762608 1.762608 v 7.08729 7.0873 H 52.911308 51.1487 v 1.77182 1.77182 H 49.386093 47.623485 Z M 44.09827,247.75926 v -1.77183 h -1.762608 -1.762607 v 1.77183 1.77182 h 1.762607 1.762608 z m 7.05043,-3.54365 v -1.77182 h -1.762607 -1.762608 v 1.77182 1.77182 h 1.762608 1.762607 z m -28.20172,7.0873 v -1.77183 h 1.762607 1.762608 v 1.77183 1.77182 H 24.709587 22.94698 Z m 35.252151,-10.63095 v -1.77182 h 1.762608 1.762607 v -1.77182 -1.77183 h -3.525215 -3.525215 v -1.77182 -1.77183 h 1.762607 1.762608 v -1.77182 -1.77182 h 1.762608 1.762607 v 1.77182 1.77182 h 1.762608 1.762607 v 5.31548 5.31547 H 61.724346 58.199131 Z M 22.94698,230.04102 v -1.77182 h 1.762607 1.762608 v 1.77182 1.77182 H 24.709587 22.94698 Z m 10.575644,0 v -1.77182 h 1.762608 1.762607 v 1.77182 1.77182 h -1.762607 -1.762608 z m 14.100861,0 v -1.77182 h 1.762608 1.762607 v 1.77182 1.77182 h -1.762607 -1.762608 z m -35.252151,31.89283 v -1.77183 H 10.608726 8.8461186 v -1.77182 -1.77182 H 7.083511 5.3209034 v 1.77182 1.77182 H 7.083511 8.8461186 v 1.77183 1.77182 h 1.7626074 1.762608 z m 70.504303,-3.54365 v -1.77182 h 3.525215 3.525215 v -5.31547 -5.31548 H 88.16346 86.400852 v -1.77182 -1.77182 h 1.762608 1.762607 v -3.54365 -3.54365 h 1.762608 1.762607 v 8.85912 8.85912 h 1.762608 1.762608 v 1.77182 1.77183 h 1.762606 1.762606 v -1.77183 -1.77182 h -1.762606 -1.762606 v -5.31547 -5.31547 h 1.762606 1.762606 v -1.77183 -1.77182 h -1.762606 -1.762606 v -3.54365 -3.54365 H 95.21389 93.451282 v -1.77182 -1.77182 h -1.762607 -1.762608 v 3.54364 3.54365 h -3.525215 -3.525215 v -1.77182 -1.77183 h -3.525216 -3.525215 v 1.77183 1.77182 h 3.525215 3.525216 v 7.0873 7.08729 h 1.762607 1.762608 v 1.77183 1.77182 h -1.762608 -1.762607 v 1.77182 1.77183 h -1.762608 -1.762608 v 1.77182 1.77182 h 1.762608 1.762608 z m -3.525216,-31.89283 v -1.77182 h -1.762607 -1.762608 v 1.77182 1.77183 h 1.762608 1.762607 z m -21.15129,-10.63094 v -1.77182 h -1.762608 -1.762607 v 1.77182 1.77182 h 1.762607 1.762608 z m 7.05043,0 v -1.77182 h -1.762607 -1.762608 v 1.77182 1.77182 h 1.762608 1.762607 z m 7.05043,0 v -1.77182 h -1.762608 -1.762607 v 1.77182 1.77182 h 1.762607 1.762608 z m -7.05043,-8.85912 v -3.54365 h 3.525215 3.525215 v -1.77182 -1.77182 h -5.287823 -5.287822 v 1.77182 1.77182 h -1.762607 -1.762608 v -1.77182 -1.77182 h -1.762608 -1.762607 v 1.77182 1.77182 h 1.762607 1.762608 v 3.54365 3.54365 h 3.525215 3.525215 z M 44.09827,293.82668 v -1.77183 h -1.762608 -1.762607 v -1.77182 -1.77182 h 1.762607 1.762608 v 1.77182 1.77182 h 1.762608 1.762607 v 1.77183 1.77182 H 45.860878 44.09827 Z M 1.7956881,205.23549 V 192.83272 H 14.133941 26.472195 v 12.40277 12.40276 H 14.133941 1.7956881 Z m 21.1512919,0 v -8.85912 H 14.133941 5.3209034 v 8.85912 8.85912 h 8.8130376 8.813039 z m -14.1008614,0 v -5.31547 h 5.2878224 5.287823 v 5.31547 5.31547 H 14.133941 8.8461186 Z m 70.5043024,0 v -12.40277 h 12.338254 12.338255 v 12.40277 12.40276 H 91.688675 79.350421 Z m 21.151289,0 v -8.85912 h -8.813035 -8.813038 v 8.85912 8.85912 h 8.813038 8.813035 z m -14.100858,0 v -5.31547 h 5.287823 5.287823 v 5.31547 5.31547 h -5.287823 -5.287823 z"
       id="path1714"
       inkscape:connector-curvature="0" />
  </g>
</svg>
