<?xml version="1.0" encoding="UTF-8" standalone="no"?>
<svg
   xmlns:dc="http://purl.org/dc/elements/1.1/"
   xmlns:cc="http://creativecommons.org/ns#"
   xmlns:rdf="http://www.w3.org/1999/02/22-rdf-syntax-ns#"
   xmlns:svg="http://www.w3.org/2000/svg"
   xmlns="http://www.w3.org/2000/svg"
   xmlns:xlink="http://www.w3.org/1999/xlink"
   xmlns:sodipodi="http://sodipodi.sourceforge.net/DTD/sodipodi-0.dtd"
   xmlns:inkscape="http://www.inkscape.org/namespaces/inkscape"
   version="1.0"
   width="1998.000000pt"
   height="1333.000000pt"
   viewBox="0 0 1998.000000 1333.000000"
   preserveAspectRatio="xMidYMid meet"
   id="svg58"
   sodipodi:docname="titletext.svg"
   inkscape:version="0.92.3 (2405546, 2018-03-11)">
  <defs
     id="defs62">
    <linearGradient
       inkscape:collect="always"
       id="linearGradient2711">
      <stop
         style="stop-color:#000000;stop-opacity:1;"
         offset="0"
         id="stop2707" />
      <stop
         style="stop-color:#000000;stop-opacity:0;"
         offset="1"
         id="stop2709" />
    </linearGradient>
    <linearGradient
       inkscape:collect="always"
       xlink:href="#linearGradient2711"
       id="linearGradient2713"
       x1="4284.0166"
       y1="-5419.1436"
       x2="15767.305"
       y2="-5419.1436"
       gradientUnits="userSpaceOnUse" />
    <linearGradient
       inkscape:collect="always"
       xlink:href="#Indiana"
       id="linearGradient1211"
       gradientUnits="userSpaceOnUse"
       x1="947.36218"
       y1="673.0354"
       x2="948.88251"
       y2="880.5307" />
    <linearGradient
       inkscape:collect="always"
       id="Indiana">
      <stop
         style="stop-color:#ff6600;stop-opacity:1"
         offset="0"
         id="stop1201" />
      <stop
         id="stop1209"
         offset="0.79123527"
         style="stop-color:#ffff00;stop-opacity:1" />
      <stop
         style="stop-color:#ffffff;stop-opacity:1"
         offset="1"
         id="stop1203" />
    </linearGradient>
    <linearGradient
       inkscape:collect="always"
       xlink:href="#Indiana"
       id="linearGradient4500"
       gradientUnits="userSpaceOnUse"
       x1="947.36218"
       y1="673.0354"
       x2="948.88251"
       y2="880.5307" />
    <linearGradient
       inkscape:collect="always"
       xlink:href="#Indiana"
       id="linearGradient4502"
       gradientUnits="userSpaceOnUse"
       x1="947.36218"
       y1="673.0354"
       x2="948.88251"
       y2="880.5307" />
    <linearGradient
       inkscape:collect="always"
       xlink:href="#Indiana"
       id="linearGradient4504"
       gradientUnits="userSpaceOnUse"
       x1="947.36218"
       y1="673.0354"
       x2="948.88251"
       y2="880.5307" />
    <linearGradient
       inkscape:collect="always"
       xlink:href="#Indiana"
       id="linearGradient4506"
       gradientUnits="userSpaceOnUse"
       x1="947.36218"
       y1="673.0354"
       x2="948.88251"
       y2="880.5307" />
    <linearGradient
       inkscape:collect="always"
       xlink:href="#Indiana"
       id="linearGradient4508"
       gradientUnits="userSpaceOnUse"
       x1="947.36218"
       y1="673.0354"
       x2="948.88251"
       y2="880.5307" />
    <linearGradient
       inkscape:collect="always"
       xlink:href="#Indiana"
       id="linearGradient4510"
       gradientUnits="userSpaceOnUse"
       x1="947.36218"
       y1="673.0354"
       x2="948.88251"
       y2="880.5307" />
    <linearGradient
       inkscape:collect="always"
       xlink:href="#Indiana"
       id="linearGradient4512"
       gradientUnits="userSpaceOnUse"
       x1="947.36218"
       y1="673.0354"
       x2="948.88251"
       y2="880.5307" />
    <linearGradient
       inkscape:collect="always"
       xlink:href="#Indiana"
       id="linearGradient4514"
       gradientUnits="userSpaceOnUse"
       x1="947.36218"
       y1="673.0354"
       x2="948.88251"
       y2="880.5307" />
    <linearGradient
       inkscape:collect="always"
       xlink:href="#Indiana"
       id="linearGradient4516"
       gradientUnits="userSpaceOnUse"
       x1="947.36218"
       y1="673.0354"
       x2="948.88251"
       y2="880.5307" />
    <linearGradient
       inkscape:collect="always"
       xlink:href="#Indiana"
       id="linearGradient4518"
       gradientUnits="userSpaceOnUse"
       x1="947.36218"
       y1="673.0354"
       x2="948.88251"
       y2="880.5307" />
    <linearGradient
       inkscape:collect="always"
       xlink:href="#Indiana"
       id="linearGradient4520"
       gradientUnits="userSpaceOnUse"
       x1="947.36218"
       y1="673.0354"
       x2="948.88251"
       y2="880.5307" />
    <linearGradient
       inkscape:collect="always"
       xlink:href="#Indiana"
       id="linearGradient4522"
       gradientUnits="userSpaceOnUse"
       x1="947.36218"
       y1="673.0354"
       x2="948.88251"
       y2="880.5307" />
  </defs>
  <sodipodi:namedview
     pagecolor="#ffffff"
     bordercolor="#666666"
     borderopacity="1"
     objecttolerance="10"
     gridtolerance="10"
     guidetolerance="10"
     inkscape:pageopacity="0"
     inkscape:pageshadow="2"
     inkscape:window-width="1920"
     inkscape:window-height="1017"
     id="namedview60"
     showgrid="false"
     inkscape:zoom="0.45254834"
     inkscape:cx="813.52124"
     inkscape:cy="897.70106"
     inkscape:window-x="-8"
     inkscape:window-y="-8"
     inkscape:window-maximized="1"
     inkscape:current-layer="layer3" />
  <metadata
     id="metadata10">
Created by potrace 1.15, written by Peter Selinger 2001-2017
<rdf:RDF>
  <cc:Work
     rdf:about="">
    <dc:format>image/svg+xml</dc:format>
    <dc:type
       rdf:resource="http://purl.org/dc/dcmitype/StillImage" />
  </cc:Work>
</rdf:RDF>
</metadata>
  <g
     inkscape:groupmode="layer"
     id="layer3"
     inkscape:label="Layer 1"
     style="display:inline">
    <g
       style="fill:#000000;stroke:none"
       transform="matrix(0.1,0,0,-0.1,6.4561523,1308.7039)"
       id="g56">
      <path
         inkscape:connector-curvature="0"
         d="m 3305,8409 c -108,-26 -125,-28 -173,-17 -64,14 -388,0 -814,-36 -295,-25 -321,-31 -334,-80 -6,-27 -29,-36 -94,-36 -64,0 -118,-17 -134,-43 -8,-12 -36,-94 -62,-182 -49,-166 -60,-249 -35,-278 17,-21 91,-22 221,-2 52,8 95,13 97,12 1,-2 -32,-79 -73,-172 -104,-234 -195,-466 -245,-627 -36,-114 -46,-138 -63,-140 -13,-2 -28,-18 -39,-39 l -17,-36 -97,-11 c -58,-7 -102,-17 -111,-26 -20,-19 -122,-369 -122,-417 0,-55 27,-79 87,-79 27,0 154,14 283,30 167,22 311,33 498,40 284,10 285,10 308,66 12,29 18,32 75,38 34,3 76,6 92,6 17,0 39,7 49,16 10,9 36,76 59,149 l 41,132 94,22 c 73,18 98,28 111,47 13,18 39,30 93,44 41,11 80,20 86,20 7,0 13,-25 16,-60 2,-33 9,-65 15,-71 21,-21 114,-11 286,31 173,43 217,60 217,83 0,8 37,22 98,36 53,13 108,30 121,38 22,14 25,14 34,-3 6,-10 31,-41 56,-68 108,-116 241,-168 435,-168 169,0 283,26 404,92 75,40 82,39 82,-14 0,-24 3,-51 6,-60 11,-28 69,-28 255,-2 236,33 390,46 560,46 150,0 166,5 184,61 l 12,34 95,5 c 103,5 123,14 133,61 8,35 18,37 32,7 20,-43 87,-111 146,-149 93,-60 169,-81 295,-80 153,0 253,23 357,81 28,15 82,37 120,50 39,12 88,32 111,45 l 41,24 18,-104 c 10,-58 24,-113 31,-122 31,-43 254,5 444,95 36,17 99,44 140,60 l 76,28 -12,-57 c -6,-32 -9,-72 -5,-91 11,-53 40,-55 301,-23 135,17 306,30 427,34 218,6 220,7 239,64 l 11,32 96,5 c 67,4 101,10 111,20 8,8 28,58 45,110 l 30,95 -5,-70 c -10,-134 -9,-253 2,-265 28,-28 90,-22 283,25 160,39 196,52 219,74 20,20 52,34 121,51 108,27 123,38 221,183 33,49 60,86 60,84 0,-3 -18,-67 -39,-144 -46,-163 -54,-208 -43,-248 13,-49 49,-52 263,-21 235,34 381,46 546,46 159,0 178,6 194,60 l 12,40 h 83 c 128,0 125,-3 177,157 46,137 50,158 48,221 -2,52 -24,55 -266,43 -115,-6 -210,-9 -212,-7 -2,1 4,26 12,54 l 16,52 h 84 c 110,0 131,9 146,60 l 12,40 h 83 c 125,0 124,-1 174,137 26,71 45,142 48,179 7,93 0,95 -206,87 l -164,-6 7,24 c 4,13 8,25 9,26 1,1 74,5 161,9 88,4 168,11 177,16 10,4 23,26 29,48 l 12,40 h 89 c 49,0 98,5 108,10 25,14 110,278 110,343 0,39 -4,49 -25,63 -23,15 -50,16 -318,5 -488,-20 -973,-53 -1033,-72 -17,-5 -45,-25 -64,-44 -25,-26 -44,-36 -79,-40 -97,-12 -111,-17 -140,-41 -17,-14 -57,-60 -89,-102 l -58,-77 1,168 c 0,165 0,169 -24,188 -32,26 -77,24 -229,-11 -72,-16 -133,-30 -136,-30 -3,0 -6,9 -6,20 0,11 -12,27 -26,37 -24,16 -44,16 -263,4 -130,-6 -327,-20 -438,-30 -216,-19 -234,-24 -247,-76 -5,-20 -14,-24 -70,-30 -35,-4 -71,-5 -80,-4 -11,3 -29,32 -47,73 -17,39 -35,76 -41,83 -27,33 -186,4 -380,-70 l -66,-25 -6,34 c -4,18 -15,38 -26,44 -10,6 -95,10 -193,10 -160,0 -176,-2 -200,-20 -14,-11 -28,-34 -32,-50 l -7,-30 h -88 c -78,0 -92,-3 -113,-22 -18,-17 -67,-140 -177,-438 -84,-228 -171,-455 -193,-504 l -41,-89 -8,34 c -25,105 48,355 233,805 90,220 99,270 53,301 -25,16 -35,16 -188,-1 -213,-23 -233,-29 -253,-70 -15,-32 -19,-34 -82,-41 -132,-13 -138,-17 -178,-103 -142,-310 -278,-718 -299,-894 l -7,-56 -81,-6 c -240,-16 -276,-17 -276,-6 0,6 36,127 81,268 70,222 180,523 265,723 25,60 32,141 14,169 -11,18 -52,18 -238,3 -145,-13 -171,-22 -192,-72 -12,-29 -15,-31 -69,-31 -76,-1 -133,-15 -151,-38 -14,-18 -17,-18 -65,19 -134,101 -277,142 -500,143 -175,1 -251,-14 -370,-74 l -75,-38 v 43 c 0,65 -16,75 -113,75 -99,0 -253,-16 -287,-30 -14,-6 -35,-25 -47,-44 -20,-31 -25,-33 -96,-39 -41,-4 -86,-12 -100,-18 -15,-7 -40,-39 -63,-80 -36,-66 -54,-85 -54,-55 0,37 -64,278 -77,291 -22,23 -122,17 -258,-16 z m 234,-160 c 40,-170 86,-410 107,-556 9,-67 20,-120 24,-118 4,3 26,51 50,107 64,155 297,609 319,622 14,9 280,30 287,24 3,-4 -19,-53 -49,-110 -176,-328 -279,-591 -417,-1057 -38,-128 -70,-234 -72,-236 -2,-1 -79,-21 -173,-44 -93,-23 -177,-44 -186,-47 -14,-4 -17,16 -22,168 -7,216 -52,567 -75,590 -10,10 -143,-303 -186,-438 -28,-86 -56,-205 -56,-241 0,-25 14,-20 -223,-79 -81,-20 -150,-34 -153,-32 -5,6 89,327 147,499 56,168 174,443 265,617 47,92 74,155 74,175 0,18 -14,69 -30,115 -21,59 -26,84 -17,88 17,6 352,82 354,80 1,-1 16,-58 32,-127 z m 4772,-36 c 81,-190 79,-173 22,-173 -155,0 -323,-103 -323,-197 0,-34 27,-88 93,-187 86,-128 133,-289 116,-398 -27,-169 -184,-334 -400,-421 -83,-33 -269,-91 -274,-85 -4,5 -65,342 -65,361 0,11 8,17 23,17 39,0 176,38 236,66 159,72 182,185 73,354 -112,174 -135,234 -135,350 0,83 0,84 -13,45 -132,-413 -172,-527 -212,-620 -123,-284 -255,-433 -440,-497 -56,-19 -88,-23 -192,-23 -120,0 -128,1 -193,32 -87,42 -169,119 -207,197 -79,160 -64,345 55,701 45,136 128,346 188,477 32,70 38,77 69,82 30,6 280,36 291,36 3,0 -11,-37 -30,-82 -120,-283 -205,-512 -255,-683 -27,-94 -32,-126 -33,-220 0,-126 16,-174 69,-206 39,-24 116,-25 162,-3 55,26 130,117 179,217 25,51 119,290 208,532 l 163,440 152,3 c 84,1 152,1 152,-2 0,-2 -20,-61 -45,-130 -46,-131 -56,-174 -28,-121 42,78 114,137 227,184 77,32 299,101 305,96 2,-2 30,-66 62,-142 z m -5258,-25 c -25,-79 -51,-161 -57,-183 l -12,-40 -189,-5 c -167,-4 -186,-7 -160,-18 17,-7 40,-20 52,-27 l 21,-14 -55,-128 c -62,-144 -221,-614 -281,-831 l -40,-143 164,7 c 96,4 164,3 164,-2 0,-5 -24,-85 -54,-179 l -54,-170 -98,-2 c -196,-5 -424,-23 -672,-53 -140,-17 -256,-29 -259,-27 -2,3 19,86 48,185 45,154 56,181 74,186 12,3 72,8 134,12 68,4 114,11 116,18 1,6 39,121 83,256 81,249 212,570 321,789 37,72 56,121 49,121 -7,0 -97,-12 -200,-27 -103,-14 -190,-25 -192,-22 -6,6 93,351 104,362 12,14 745,71 966,76 l 72,1 z m 1989,116 c 102,-23 211,-78 280,-143 55,-50 125,-138 116,-146 -1,-1 -86,-44 -188,-95 l -184,-92 -16,23 c -60,93 -142,139 -248,139 -174,0 -320,-94 -397,-254 -98,-206 -84,-407 40,-555 92,-109 304,-110 427,-2 l 44,39 111,-91 c 62,-51 112,-95 112,-99 2,-17 -140,-122 -214,-159 -98,-48 -191,-69 -315,-69 -222,0 -377,93 -470,284 -64,131 -75,186 -74,381 0,155 3,178 27,258 92,302 322,530 593,591 84,19 247,14 356,-10 z m 4369,-119 -46,-145 -120,-1 c -66,-1 -131,-4 -144,-8 -23,-6 -23,-7 12,-26 l 35,-19 -20,-39 c -68,-135 -297,-827 -277,-840 2,-1 60,0 129,3 69,3 126,5 128,4 2,-1 -18,-67 -44,-147 l -47,-145 -206,-5 c -139,-3 -272,-13 -410,-31 -112,-15 -205,-25 -207,-23 -2,1 16,68 40,147 48,164 41,156 158,159 98,2 98,2 143,147 65,214 189,522 292,728 19,37 32,70 30,72 -2,2 -75,-6 -161,-19 l -157,-24 6,26 c 3,14 22,81 42,149 30,101 39,123 57,127 50,10 607,49 757,53 l 56,2 z m 2201,2 -45,-144 -289,-7 c -159,-4 -296,-10 -304,-13 -14,-5 -13,-9 6,-23 l 23,-18 -51,-120 c -29,-66 -52,-123 -52,-127 0,-7 297,2 382,11 l 47,5 -47,-136 -47,-135 h -76 c -42,0 -137,-3 -213,-7 l -136,-6 -35,-111 c -35,-114 -66,-229 -62,-232 1,-1 117,5 256,12 140,7 256,12 258,11 1,-2 -18,-66 -44,-144 l -47,-140 -220,-6 c -200,-6 -370,-22 -571,-57 -33,-5 -63,-10 -68,-10 -10,0 -4,23 64,257 87,299 214,633 326,857 l 45,89 -87,-7 c -47,-4 -93,-10 -101,-13 -12,-4 -12,1 0,38 28,93 28,94 -2,49 -16,-25 -84,-146 -152,-270 -282,-516 -453,-800 -532,-881 -30,-32 -46,-38 -211,-78 -98,-23 -180,-41 -182,-39 -1,2 1,48 6,103 11,142 31,988 27,1183 -3,138 -1,163 12,166 8,3 89,21 179,41 185,42 181,43 181,-40 0,-78 -18,-347 -41,-597 -11,-124 -19,-236 -17,-246 2,-14 33,31 93,135 157,271 347,558 448,675 30,35 37,39 110,48 139,17 844,59 1163,68 l 51,2 z m -5618,96 c -28,-66 -191,-485 -212,-548 -30,-86 -159,-501 -174,-557 -6,-26 -10,-49 -7,-51 2,-2 116,2 254,9 137,7 251,12 252,10 1,-1 -18,-66 -43,-144 l -45,-142 h -148 c -166,0 -404,-20 -589,-50 -67,-11 -124,-20 -127,-20 -6,0 50,207 100,367 63,203 129,374 285,738 184,429 164,391 218,399 24,3 68,6 96,7 28,0 69,4 91,8 68,14 67,15 49,-26 z m 2241,-393 c 0,-43 4,-64 15,-71 9,-6 56,-8 123,-5 59,3 107,2 107,-3 0,-5 -16,-44 -36,-87 -20,-44 -62,-143 -94,-221 l -57,-142 -6,47 c -9,73 -65,218 -113,290 -24,35 -53,80 -65,98 -25,41 -18,74 16,74 41,0 75,18 75,39 0,11 8,25 18,30 9,6 17,11 17,11 0,0 0,-27 0,-60 z m 927,-380 -4,-325 -105,-1 -105,-2 6,33 c 14,71 204,635 211,622 1,-1 -1,-148 -3,-327 z m -4500,277 c 20,-11 51,-40 68,-63 17,-24 41,-49 52,-55 34,-18 101,-3 195,45 49,24 104,47 123,51 19,4 52,16 72,26 21,11 39,19 42,19 3,0 -15,-48 -40,-107 -51,-121 -108,-263 -148,-370 -25,-64 -30,-72 -46,-63 -10,6 -39,10 -64,10 -35,0 -54,-7 -89,-34 -25,-19 -59,-42 -75,-50 -42,-22 -149,-24 -188,-3 -69,36 -137,146 -149,241 -12,96 40,256 111,343 33,40 39,43 68,37 17,-3 48,-15 68,-27 z"
         id="path12" />
      <path
         inkscape:connector-curvature="0"
         d="m 15474,8401 c -128,-7 -134,-9 -186,-67 -25,-28 -34,-32 -100,-36 -40,-3 -82,-10 -93,-18 -11,-7 -44,-41 -74,-76 -30,-35 -56,-63 -57,-61 -2,2 6,31 16,66 11,34 20,85 20,112 0,41 -4,51 -25,65 -24,15 -50,16 -313,5 -418,-17 -783,-41 -812,-54 -21,-10 -41,-37 -52,-70 -2,-4 -44,-11 -93,-16 -79,-7 -93,-6 -116,10 -40,28 -188,85 -265,102 -190,43 -554,46 -849,7 -128,-16 -153,-22 -167,-41 -10,-12 -18,-27 -18,-35 0,-15 -11,-18 -125,-33 -93,-13 -115,-30 -115,-92 0,-52 77,-416 96,-454 14,-30 13,-35 -52,-180 -130,-292 -233,-582 -346,-975 -52,-181 -63,-264 -39,-293 20,-25 92,-21 205,8 53,15 155,39 226,55 133,29 155,38 165,69 4,13 30,22 102,37 53,10 105,25 115,34 12,10 32,67 57,163 22,82 41,151 44,153 11,12 197,-278 265,-413 37,-72 62,-93 114,-93 37,0 438,139 464,161 7,6 64,30 126,53 127,47 142,62 134,132 -7,53 -11,52 224,60 l 185,7 11,-30 c 20,-54 53,-53 319,12 124,31 155,42 176,64 19,21 49,33 112,49 47,12 88,22 91,22 2,0 3,-27 3,-61 -3,-106 27,-111 296,-43 152,38 186,50 207,72 19,21 48,33 123,51 113,27 121,35 139,130 6,33 14,61 18,61 3,0 12,-17 19,-37 34,-98 146,-230 241,-286 77,-44 186,-69 314,-69 165,0 288,27 395,88 25,14 80,36 121,50 94,30 187,84 262,153 57,52 58,54 58,106 0,62 -1,64 -130,171 l -94,79 h -61 c -55,0 -66,-3 -98,-32 -21,-18 -50,-39 -66,-47 -41,-22 -149,-23 -186,-4 -75,40 -141,147 -151,245 -11,106 41,258 118,347 l 33,38 45,-12 c 44,-12 119,-76 146,-125 9,-17 21,-20 70,-19 49,0 74,8 149,46 50,25 106,49 125,53 19,4 52,16 73,27 22,11 46,17 54,14 8,-3 75,1 149,10 74,8 141,14 149,12 11,-2 4,-26 -29,-98 -113,-248 -202,-496 -307,-855 -34,-116 -43,-215 -22,-236 23,-23 104,-13 293,35 172,43 210,59 210,87 0,4 48,19 106,32 58,14 110,29 115,34 6,6 39,118 74,251 68,254 171,573 227,707 l 34,80 54,5 c 69,7 77,12 91,60 l 12,40 h 89 c 49,0 98,5 108,10 26,14 110,276 110,342 0,78 -13,82 -233,74 -217,-8 -692,-34 -823,-45 -100,-9 -127,-21 -138,-65 -4,-16 -16,-25 -37,-30 -68,-13 -108,-7 -161,27 -130,82 -254,112 -463,112 -170,0 -261,-19 -370,-79 -33,-18 -91,-42 -130,-54 -38,-12 -105,-42 -148,-67 -75,-44 -205,-162 -259,-234 l -26,-34 -6,109 c -13,240 -23,345 -32,354 -15,15 -92,19 -230,11 z m 181,-208 c 10,-188 -1,-562 -19,-673 -13,-82 -46,-270 -86,-489 -11,-58 -24,-107 -29,-110 -15,-10 -361,-94 -366,-89 -2,2 27,100 65,218 39,118 70,218 70,223 0,9 -154,9 -239,1 l -62,-7 -50,-101 c -27,-56 -64,-141 -82,-191 l -32,-90 -160,-41 c -88,-22 -173,-44 -189,-48 -27,-7 -28,-6 -22,20 10,38 216,468 283,588 145,262 420,656 615,880 l 34,39 125,7 c 68,4 127,8 130,8 4,1 10,-64 14,-145 z m -2535,122 c 299,-27 496,-124 569,-280 36,-75 41,-214 12,-320 -51,-186 -159,-319 -324,-398 -51,-24 -113,-50 -139,-57 -27,-7 -48,-16 -48,-21 0,-5 31,-43 68,-86 182,-209 416,-534 396,-552 -5,-4 -101,-41 -213,-81 -169,-61 -206,-71 -213,-59 -5,7 -36,64 -69,124 -117,213 -362,551 -453,627 l -35,29 -32,-103 c -18,-57 -62,-217 -99,-357 l -67,-254 -144,-32 c -79,-18 -186,-44 -236,-58 -51,-14 -93,-23 -93,-20 0,12 105,372 151,518 90,283 204,570 334,837 26,52 41,94 35,96 -6,2 -24,-1 -41,-7 -22,-8 -31,-7 -34,2 -13,41 -86,409 -82,413 7,7 204,33 327,43 148,13 262,12 430,-4 z m 1784,-92 c -19,-60 -39,-124 -45,-144 l -11,-36 -284,-7 c -157,-4 -294,-10 -305,-14 -20,-8 -20,-8 4,-21 l 24,-13 -53,-125 c -30,-68 -54,-126 -54,-129 0,-6 307,4 382,12 l 47,5 -46,-136 -47,-135 h -70 c -39,0 -135,-3 -214,-7 l -142,-6 -30,-96 c -37,-121 -70,-244 -67,-247 1,-1 117,5 257,12 140,7 255,12 257,11 1,-2 -18,-66 -44,-144 l -47,-140 -215,-6 c -197,-5 -410,-26 -584,-58 -32,-5 -61,-9 -63,-6 -5,4 36,153 93,341 74,244 209,588 305,780 l 40,79 -79,-7 c -43,-3 -88,-9 -99,-12 -21,-6 -20,1 24,145 38,126 49,152 66,156 43,9 715,46 983,53 l 51,2 z m 1978,81 c 146,-33 278,-118 363,-235 21,-27 36,-51 34,-53 -2,-2 -87,-45 -189,-96 l -184,-92 -15,23 c -9,13 -34,43 -56,65 -86,88 -260,98 -407,23 -59,-30 -143,-119 -179,-191 -130,-258 -68,-548 135,-633 93,-39 245,-9 328,64 l 43,38 74,-61 c 41,-33 92,-77 114,-97 l 41,-36 -70,-57 c -86,-72 -206,-132 -304,-152 -93,-19 -271,-14 -347,10 -83,26 -171,92 -230,171 -102,136 -139,277 -130,504 7,193 39,304 134,458 101,166 308,317 488,357 85,19 249,14 357,-10 z m 1539,-119 -45,-145 -181,-1 c -99,-1 -191,-4 -204,-8 -23,-6 -23,-7 11,-25 l 35,-19 -37,-81 c -77,-165 -185,-494 -275,-836 l -49,-185 -186,-46 c -102,-26 -186,-45 -188,-44 -5,5 68,254 133,455 67,207 155,426 254,635 34,71 59,130 57,133 -5,4 -378,-36 -407,-44 -14,-4 -9,21 27,142 23,81 49,151 56,155 7,5 27,9 43,9 17,0 138,7 270,15 207,14 508,28 681,33 l 51,2 z m -3591,-219 c 0,-2 -36,-55 -80,-117 -60,-84 -80,-106 -80,-88 0,53 -5,54 -195,51 -99,-2 -175,0 -175,5 0,5 6,17 13,26 10,14 39,18 171,23 175,8 190,14 203,74 5,30 6,30 74,30 38,0 69,-2 69,-4 z m -421,-655 -53,-98 -130,-6 c -72,-3 -132,-5 -133,-4 -1,2 5,26 13,55 l 16,52 h 83 c 107,0 128,8 149,59 15,40 17,41 62,41 h 45 z"
         id="path14" />
      <path
         inkscape:connector-curvature="0"
         d="m 15380,7978 c -8,-13 -74,-122 -147,-243 l -132,-220 100,-3 c 70,-2 108,-7 124,-18 23,-15 24,-15 39,34 23,79 38,227 34,355 -3,108 -4,116 -18,95 z"
         id="path16" />
      <path
         inkscape:connector-curvature="0"
         d="m 12920,7954 c -36,-9 -69,-19 -73,-23 -4,-4 11,-16 33,-26 22,-10 39,-21 37,-24 -40,-72 -137,-300 -137,-323 0,-3 37,-3 83,-1 250,11 398,66 446,167 44,90 17,169 -73,215 -42,22 -65,26 -150,28 -65,1 -124,-3 -166,-13 z"
         id="path18" />
    </g>
    <g
       transform="translate(6.4561523,-24.296157)"
       id="g1199"
       style="fill:url(#linearGradient1211);fill-opacity:1">
      <path
         transform="scale(0.74999999)"
         inkscape:connector-curvature="0"
         id="path1149"
         d="m 202.88958,925.68206 c 0.40254,-1.42646 3.22509,-11.49207 6.27233,-22.36805 3.04725,-10.87596 6.60761,-21.09238 7.91192,-22.70313 1.92688,-2.37959 5.22417,-3.17644 17.58738,-4.25033 8.36875,-0.72691 15.80114,-1.68337 16.51642,-2.12543 0.71529,-0.44208 5.41652,-13.3064 10.44719,-28.58739 11.3935,-34.60855 24.73275,-68.42098 39.23259,-99.44705 6.14378,-13.14618 11.17051,-24.64903 11.17051,-25.5619 0,-1.05626 -1.75137,-1.35537 -4.8166,-0.82262 -12.43801,2.16176 -45.60771,5.8797 -46.29796,5.18945 -0.85935,-0.85935 10.35418,-41.54949 12.61403,-45.77206 0.78378,-1.46449 3.26461,-3.03334 5.51296,-3.48633 7.82527,-1.5766 71.20645,-6.53439 117.29765,-9.17523 l 16.87756,-0.96701 -1.04406,4.25094 c -0.57425,2.33802 -4.05411,13.75448 -7.73303,25.36992 l -6.68897,21.11898 -21.0008,0.0227 c -22.51981,0.0243 -28.02142,1.20843 -20.35979,4.38198 2.50037,1.03568 4.54612,2.28019 4.54612,2.76557 0,0.48538 -3.02158,8.34853 -6.71465,17.47367 -12.53051,30.96152 -42.19246,121.05264 -42.19246,128.14958 0,0.79357 8.94048,0.94228 21.72534,0.36135 20.91326,-0.95026 21.69757,-0.88121 20.98247,1.84728 -0.40857,1.55896 -3.68254,12.2847 -7.2755,23.83502 -7.54328,24.24943 -5.61285,22.71424 -28.5779,22.72686 -15.17284,0.009 -49.41316,2.8454 -88.73228,7.35213 -14.46589,1.65807 -26.68203,3.01467 -27.14698,3.01467 -0.46496,0 -0.51602,-1.1671 -0.11349,-2.59356 z"
         style="fill:url(#linearGradient4500);fill-opacity:1;stroke-width:1.48203361" />
      <path
         transform="scale(0.74999999)"
         inkscape:connector-curvature="0"
         id="path1151"
         d="m 364.07124,859.73157 c 12.96229,-47.25442 25.41668,-81.12099 45.3726,-123.3793 18.70349,-39.60618 17.98651,-37.09297 14.06002,-49.2843 -3.35465,-10.41588 -4.16512,-16.63714 -2.17596,-16.70299 0.61134,-0.0202 11.10675,-2.32959 23.32314,-5.1319 12.21638,-2.80231 22.66279,-4.61977 23.21424,-4.0388 1.56006,1.6436 12.49944,53.25074 16.874,79.60409 2.16491,13.0419 4.19724,23.98225 4.51628,24.31189 0.31904,0.32965 3.37814,-5.67259 6.79799,-13.3383 7.49962,-16.81063 33.78684,-68.63356 39.01728,-76.91909 2.52454,-3.99915 4.8263,-5.94559 7.06139,-5.97136 1.8238,-0.021 9.95594,-0.6838 18.07144,-1.47282 8.1155,-0.78902 15.22739,-0.93854 15.80421,-0.33227 0.57683,0.60627 -5.11676,13.53323 -12.65243,28.72657 -20.38807,41.10627 -32.39197,72.99162 -50.56034,134.30077 l -7.14059,24.09591 -5.29772,1.39644 c -31.52921,8.31092 -43.46334,10.7453 -44.49487,9.07624 -0.61131,-0.98912 -1.54857,-10.955 -2.08281,-22.14639 -1.55407,-32.55515 -7.16253,-75.792 -9.83135,-75.792 -3.31049,0 -24.445,54.91091 -28.47478,73.98215 -1.65012,7.80937 -3.48908,15.19922 -4.08657,16.4219 -1.04232,2.13298 -39.72926,13.02845 -47.02238,13.24299 l -3.24016,0.0953 z"
         style="fill:url(#linearGradient4502);fill-opacity:1;stroke-width:1.48203361" />
      <path
         transform="scale(0.74999999)"
         inkscape:connector-curvature="0"
         id="path1153"
         d="m 593.6143,868.4607 c -18.87072,-5.13723 -33.56272,-18.25873 -42.94194,-38.35165 -7.11939,-15.25176 -8.92923,-24.95716 -8.92923,-47.88365 0,-21.22363 1.27787,-29.00999 7.32944,-44.65994 11.90705,-30.79279 36.92009,-55.8269 65.83812,-65.89358 10.52898,-3.66525 14.1999,-4.19377 29.09275,-4.18861 32.42924,0.0112 49.64485,6.50595 69.28507,26.13829 6.72473,6.72203 12.22678,12.91369 12.22678,13.75924 0,0.84555 -11.21818,7.15379 -24.92928,14.01832 l -24.92927,12.48094 -6.29383,-7.30668 c -10.57162,-12.2729 -22.13365,-16.18876 -38.88257,-13.16885 -25.71851,4.63717 -43.29171,23.56957 -49.63018,53.46884 -5.0877,23.99928 3.47314,49.10779 20.07029,58.86513 13.11718,7.71148 38.98251,4.28262 49.12365,-6.51213 1.85252,-1.97192 4.13777,-3.5853 5.07833,-3.5853 2.18166,0 30.37795,23.28946 30.37795,25.09146 0,2.19915 -19.29488,16.12182 -28.89965,20.85322 -4.89072,2.40921 -12.86709,5.39517 -17.72527,6.63547 -10.57765,2.70048 -35.73218,2.83357 -45.26116,0.23948 z"
         style="fill:url(#linearGradient4504);fill-opacity:1;stroke-width:1.48203361" />
      <path
         transform="scale(0.74999999)"
         inkscape:connector-curvature="0"
         id="path1155"
         d="m 686.98241,870.51177 c 0,-2.99012 16.31966,-57.65785 21.24692,-71.17307 12.36021,-33.90346 48.64282,-119.65732 52.79871,-124.78963 2.09831,-2.59131 5.00652,-3.30082 17.95287,-4.37993 8.49691,-0.70825 16.78277,-1.44582 18.413,-1.63906 3.71051,-0.43983 3.59329,0.14282 -3.95444,19.6561 -19.7662,51.10187 -24.18309,63.48607 -34.40551,96.46713 -6.2085,20.03074 -11.28817,37.62496 -11.28817,39.09827 0,2.53625 1.77699,2.62147 33.40614,1.60213 l 33.40614,-1.07661 -0.89499,3.56592 c -0.49225,1.96126 -3.06432,10.52207 -5.71572,19.02402 l -4.82072,15.45808 -15.46365,0.32568 c -23.09569,0.48643 -55.96414,3.1903 -78.16085,6.42979 -22.90366,3.34265 -22.51973,3.31824 -22.51973,1.43118 z"
         style="fill:url(#linearGradient4506);fill-opacity:1;stroke-width:1.48203361" />
      <path
         transform="scale(0.74999999)"
         inkscape:connector-curvature="0"
         id="path1157"
         d="m 1005.0923,874.50517 c -2.728,-10.86905 -8.18267,-46.27039 -7.24788,-47.03911 0.60833,-0.50026 5.37448,-1.74506 10.59128,-2.76626 19.1296,-3.74455 32.2397,-10.36104 38.2751,-19.31689 6.307,-9.35894 4.3397,-18.04818 -9.2535,-40.872 -11.0172,-18.49845 -14.0345,-27.04178 -14.0967,-39.91339 -0.042,-8.75705 -0.3907,-7.95211 -13.2402,30.58894 -19.73115,59.18233 -33.60108,84.8102 -54.49518,100.69238 -13.62043,10.35327 -22.99118,13.41233 -43.65888,14.25239 -16.93439,0.6883 -17.54992,0.60074 -27.05975,-3.84945 -19.26021,-9.01294 -31.66395,-25.38523 -35.02004,-46.22464 -2.71489,-16.85794 2.47879,-43.41421 16.08239,-82.23227 7.97759,-22.76414 23.03168,-59.18132 26.24051,-63.47809 1.51605,-2.03006 5.74453,-3.21879 16.59585,-4.66551 25.71958,-3.42899 27.15875,-3.52636 27.15875,-1.8375 0,0.88333 -5.70805,15.82309 -12.68456,33.19947 -6.9765,17.37638 -16.04967,41.76624 -20.16259,54.1997 -6.36609,19.24479 -7.59134,24.81001 -8.23995,37.42661 -0.88038,17.12473 0.82029,25.27199 6.36206,30.47821 3.2342,3.03838 5.32265,3.60856 13.21739,3.60856 8.27773,0 10.0435,-0.53915 15.07144,-4.60176 13.32022,-10.76285 22.58418,-30.80493 54.8146,-118.5885 l 13.126,-35.75029 9.63326,-0.91951 c 17.1889,-1.64072 31.1227,-1.17043 31.1227,1.05046 0,1.09507 -1.4029,5.9302 -3.1175,10.74474 -1.7146,4.81454 -4.0254,11.61619 -5.135,15.11478 l -2.0176,6.36107 7.2801,-7.96556 c 4.004,-4.38105 11.1499,-10.00682 15.8798,-12.50171 7.4935,-3.95269 43.8595,-16.70843 47.6349,-16.70843 1.5025,0 18.023,37.45989 18.023,40.86657 0,1.54826 -1.9888,2.1124 -7.4471,2.1124 -13.4714,0 -32.0759,8.60671 -37.973,17.56673 -4.3398,6.59408 -3.2551,12.25679 4.9176,25.67274 16.2409,26.6602 20.3341,38.37465 19.5335,55.90283 -0.7874,17.23799 -9.2154,31.69807 -26.2818,45.09176 -13.6185,10.68783 -27.5516,16.87406 -60.3951,26.81514 -2.4847,0.75208 -3.3493,0.21312 -4.0339,-2.51461 z"
         style="fill:url(#linearGradient4508);fill-opacity:1;stroke-width:1.48203361" />
      <path
         transform="scale(0.74999999)"
         inkscape:connector-curvature="0"
         id="path1159"
         d="m 1093.0596,873.58849 c 0,-4.16222 8.4032,-31.04481 10.8913,-34.84203 1.9434,-2.96605 3.801,-3.53606 13.5661,-4.16274 6.9625,-0.44683 12.0443,-1.52178 13.2119,-2.79473 1.0436,-1.13772 5.3986,-12.40579 9.6777,-25.04012 9.5504,-28.19846 19.9604,-54.18412 31.4142,-78.41658 4.7818,-10.11682 8.4085,-18.67993 8.0593,-19.02915 -0.6002,-0.60018 -30.3946,3.26271 -37.5429,4.86751 -2.4865,0.55821 -3.331,0.0818 -3.3206,-1.87319 0.02,-3.6728 9.7551,-35.95728 11.3078,-37.49823 2.0506,-2.03522 108.228,-9.83252 109.9837,-8.07682 0.3994,0.39943 -1.9626,9.22695 -5.2491,19.6167 l -5.9753,18.89046 -16.1371,0.39167 c -19.7755,0.47998 -21.8465,1.04789 -17.0406,4.67299 l 3.5234,2.6577 -6.0954,14.86473 c -9.8882,24.11411 -32.8344,93.87008 -32.8344,99.81597 0,0.74071 7.6695,1.34674 17.0434,1.34674 9.3738,0 17.0434,0.36185 17.0434,0.80412 0,0.44228 -2.6908,9.07477 -5.9794,19.18332 l -5.9794,18.37919 -6.2474,0.75943 c -3.4361,0.41768 -17.585,1.09197 -31.442,1.49842 -21.2204,0.62245 -43.4189,2.58619 -67.062,5.93252 -3.8805,0.54923 -4.8166,0.17067 -4.8166,-1.94788 z"
         style="fill:url(#linearGradient4510);fill-opacity:1;stroke-width:1.48203361" />
      <path
         transform="scale(0.74999999)"
         inkscape:connector-curvature="0"
         id="path1161"
         d="m 1259.6579,858.24953 c 1.3577,-19.3262 3.7883,-114.74014 3.814,-149.71716 0.025,-34.25821 -2.7208,-30.07629 23.5628,-35.88431 19.8382,-4.38377 25.1059,-4.6481 26.3816,-1.32383 1.0214,2.66189 -1.4244,44.02323 -4.8794,82.51412 -1.2292,13.69294 -2.0297,27.3647 -1.7791,30.38169 0.4384,5.27748 1.0439,4.50219 15.9724,-20.45015 17.4632,-29.18889 39.7385,-62.87235 50.6573,-76.6011 6.6261,-8.33128 7.9978,-9.30697 15.02,-10.68402 8.5533,-1.67729 59.0293,-5.23114 107.0242,-7.53522 17.1175,-0.82176 37.3485,-1.84901 44.9578,-2.28278 l 13.8351,-0.78867 -0.9166,4.11438 c -0.5041,2.26291 -3.136,11.11699 -5.8487,19.67574 l -4.9322,15.56135 -29.4758,0.91078 c -16.2117,0.50094 -34.4143,1.00112 -40.4503,1.11153 -10.9003,0.19938 -10.9562,0.2209 -8.274,3.18473 2.6291,2.90508 2.5368,3.38517 -3.4913,18.15491 -3.4055,8.34401 -6.1846,15.67111 -6.1759,16.28245 0.019,1.31149 21.6914,1.23746 41.2642,-0.14095 7.6068,-0.53571 14.0528,-0.75182 14.3244,-0.48025 0.2715,0.27158 -2.2752,8.37511 -5.6594,18.00786 l -6.1531,17.51408 -28.5492,1.07046 c -15.7021,0.58875 -28.5492,1.17297 -28.5492,1.29827 0,0.12529 -2.6583,9.21407 -5.9072,20.19729 -7.5177,25.41353 -7.5214,25.64946 -0.3915,24.59598 3.0567,-0.45163 18.3676,-1.26116 34.0241,-1.79896 l 28.4664,-0.97782 -3.8092,12.41345 c -2.0951,6.82739 -4.9198,15.41456 -6.2773,19.08259 l -2.468,6.66915 -11.0739,0.32928 c -26.3499,0.78352 -63.1841,3.67137 -81.3657,6.37919 -10.801,1.60862 -20.245,2.92475 -20.9867,2.92475 -2.435,0 -1.4399,-5.12071 5.9285,-30.50567 12.5524,-43.24438 29.0522,-86.82951 44.4599,-117.44317 l 6.212,-12.34277 -8.5965,0.91932 c -4.7281,0.50562 -10.8535,1.27172 -13.6118,1.70244 -4.235,0.66129 -4.8681,0.3996 -4.0693,-1.68202 2.0982,-5.46776 2.8005,-10.34342 1.2762,-8.85894 -0.837,0.81512 -13.0202,22.15641 -27.0737,47.42508 -45.6202,82.02645 -60.1673,104.53169 -70.5592,109.15967 -5.6173,2.50161 -40.9979,11.62606 -45.0808,11.62606 -1.2746,0 -1.4818,-3.66022 -0.7759,-13.70881 z"
         style="fill:url(#linearGradient4512);fill-opacity:1;stroke-width:1.48203361" />
      <path
         transform="scale(0.74999999)"
         inkscape:connector-curvature="0"
         id="path1163"
         d="m 1599.9151,921.03246 c 0,-2.23891 15.8427,-55.56845 23.1639,-77.97377 8.3344,-25.5065 23.2286,-63.45396 33.2818,-84.79594 4.1408,-8.79029 8.7788,-19.10371 10.3069,-22.91871 l 2.7783,-6.93637 -4.9713,0.80673 c -5.945,0.96474 -5.2059,2.73646 -11.1833,-26.80961 -5.4362,-26.87119 -5.508,-28.75182 -1.1346,-29.72286 19.0981,-4.24041 60.6083,-6.70336 85.4868,-5.07224 47.6353,3.12312 75.849,15.26897 87.1157,37.50277 11.0411,21.78855 2.2132,59.83315 -18.7474,80.79379 -9.4727,9.47268 -19.3599,15.55115 -35.2925,21.69703 -5.9096,2.2796 -10.7447,4.6264 -10.7447,5.21512 0,0.58872 5.7935,7.96709 12.8745,16.39636 21.6311,25.75002 47.8704,62.39744 47.8851,66.8793 0,0.6403 -2.8884,2.40392 -6.4233,3.91913 -10.4473,4.47825 -45.4575,16.40629 -48.1491,16.40451 -1.5909,-10e-4 -5.2262,-4.92312 -10.1248,-13.70881 -13.9673,-25.0505 -33.0809,-52.95775 -51.243,-74.81847 -15.595,-18.77088 -14.4042,-19.24585 -22.3643,8.92037 -3.7355,13.21777 -9.5765,34.49095 -12.98,47.27374 l -6.1883,23.24145 -17.2234,3.91971 c -9.4728,2.15584 -21.8918,5.1388 -27.5976,6.62881 -16.1944,4.22897 -18.5254,4.62633 -18.5254,3.15796 z M 1729.593,768.0772 c 31.0546,-3.75423 46.6648,-14.17289 46.6785,-31.15455 0.01,-8.25098 -3.5136,-13.34893 -12.3613,-17.90081 -5.156,-2.65264 -8.6917,-3.16321 -21.7199,-3.13647 -15.1077,0.031 -28.1586,2.24777 -28.1586,4.78287 0,0.68481 1.9795,2.06507 4.399,3.06724 5.0062,2.07366 5.7069,-0.95718 -5.6579,24.47306 -3.2785,7.33607 -6.4095,15.17232 -6.9578,17.4139 -0.9575,3.91459 -0.771,4.07542 4.7214,4.07141 3.1451,-0.002 11.7206,-0.72979 19.0566,-1.61665 z"
         style="fill:url(#linearGradient4514);fill-opacity:1;stroke-width:1.48203361" />
      <path
         transform="scale(0.74999999)"
         inkscape:connector-curvature="0"
         id="path1165"
         d="m 1807.3998,869.19915 c 0,-4.59238 15.8085,-56.67682 23.7662,-78.30252 9.2655,-25.17977 20.5699,-52.15523 28.2958,-67.52113 l 5.887,-11.70877 -8.5965,0.94935 c -4.7281,0.52215 -10.5184,1.31353 -12.8673,1.75863 -4.1674,0.78972 -4.2475,0.68588 -3.3128,-4.29648 1.8122,-9.65965 9.7972,-33.37759 11.7954,-35.03596 2.8,-2.32381 136.6639,-10.23904 138.7016,-8.20129 0.3621,0.36205 -1.9801,9.14759 -5.2047,19.52343 l -5.8631,18.86516 -39.1308,1.11964 c -21.522,0.6158 -39.4676,1.45634 -39.8791,1.86785 -0.4115,0.41152 0.3964,1.58522 1.7955,2.60822 2.3488,1.71752 2.0283,3.0383 -4.1838,17.24243 -3.7001,8.46033 -6.7275,15.95288 -6.7275,16.6501 0,1.48458 21.3977,1.44501 41.4969,-0.0767 7.7437,-0.58628 14.2371,-0.97724 14.4299,-0.8688 0.1927,0.10844 -2.3327,8.21809 -5.6121,18.02143 l -5.9626,17.82426 -20.1873,0.96817 c -11.1031,0.53249 -23.9923,0.96817 -28.6428,0.96817 h -8.4555 l -5.3838,18.31181 c -2.9612,10.0715 -5.8183,20.48393 -6.3493,23.13874 l -0.9654,4.82692 5.7763,-0.85811 c 3.177,-0.47195 18.6037,-1.2988 34.2815,-1.8374 l 28.5052,-0.97929 -2.2599,7.60972 c -1.2429,4.18535 -4.0665,12.77319 -6.2746,19.08409 l -4.0148,11.47434 -10.3743,0.33852 c -28.3157,0.92395 -64.2797,3.70847 -82.0158,6.35009 -23.9422,3.56596 -22.4675,3.55379 -22.4675,0.18542 z"
         style="fill:url(#linearGradient4516);fill-opacity:1;stroke-width:1.48203361" />
      <path
         transform="scale(0.74999999)"
         inkscape:connector-curvature="0"
         id="path1167"
         d="m 1926.7833,868.62377 c 1.5667,-5.1191 27.9981,-59.9084 36.4081,-75.46995 15.9835,-29.57509 46.155,-74.21845 71.7476,-106.16133 l 15.3178,-19.11864 7.8789,-0.9462 c 4.3334,-0.52041 12.2972,-0.952 17.6974,-0.95909 9.8147,-0.0129 9.8188,-0.0111 10.7447,4.61847 1.4486,7.24253 1.0356,80.55003 -0.5373,95.40591 -1.5881,14.99866 -12.6192,77.49883 -14.9538,84.72539 -1.4929,4.62117 -1.8622,4.7797 -23.302,10.00398 -23.0199,5.60931 -26.9721,6.17882 -26.9721,3.8866 0,-0.78171 3.9148,-13.76211 8.6995,-28.84532 4.7848,-15.08322 8.3417,-27.78194 7.9042,-28.21938 -1.0722,-1.07221 -16.5623,-0.98818 -28.6701,0.15554 l -9.8433,0.92981 -6.784,14.2505 c -3.7312,7.83776 -8.6665,19.25236 -10.9673,25.36575 l -4.1834,11.11525 -22.9093,6.19902 c -27.4831,7.43665 -28.6542,7.56819 -27.2756,3.06369 z m 121.7441,-97.36996 c 2.6248,-9.06584 4.995,-40.87606 3.7327,-50.09556 l -1.0658,-7.78386 -18.1602,30.01436 c -9.9882,16.5079 -18.1579,30.51455 -18.1549,31.12589 0,0.61134 5.1739,1.1584 11.491,1.21569 6.3172,0.0573 12.8196,0.67471 14.4499,1.37205 4.5387,1.94147 5.709,1.05347 7.7073,-5.84857 z"
         style="fill:url(#linearGradient4518);fill-opacity:1;stroke-width:1.48203361" />
      <path
         transform="scale(0.74999999)"
         inkscape:connector-curvature="0"
         id="path1169"
         d="m 2170.5468,868.18811 c -23.2092,-6.47898 -42.5069,-29.81929 -48.2938,-58.41089 -3.0497,-15.06753 -2.2906,-47.40047 1.4454,-61.56868 3.1312,-11.87453 12.6611,-30.65011 20.8533,-41.08468 12.8254,-16.33584 35.1887,-31.79056 54.0034,-37.3203 10.1112,-2.97174 37.0913,-3.11465 50.4907,-0.26744 12.8567,2.7319 24.0492,7.90153 34.8278,16.08643 7.7258,5.86672 20.0074,19.58869 20.0074,22.35381 0,0.51799 -11.1708,6.52811 -24.824,13.35582 l -24.8241,12.41401 -6.6224,-7.44518 c -8.6969,-9.77755 -16.9806,-13.41435 -30.4284,-13.35914 -19.0059,0.078 -33.0293,7.32815 -44.6369,23.07729 -15.2967,20.75442 -18.8547,50.52616 -8.5795,71.78853 4.5504,9.41597 15.1881,19.1099 23.4123,21.33513 12.4484,3.36818 31.1117,-1.31901 42.7,-10.7238 l 4.0037,-3.24934 7.8525,6.14851 c 4.3189,3.38169 11.1872,9.15609 15.2628,12.83199 l 7.4101,6.68347 -5.9281,5.24756 c -8.1474,7.21203 -23.7138,16.40884 -34.2235,20.21968 -11.6273,4.21609 -41.7843,5.27181 -53.9087,1.88722 z"
         style="fill:url(#linearGradient4520);fill-opacity:1;stroke-width:1.48203361" />
      <path
         transform="scale(0.74999999)"
         inkscape:connector-curvature="0"
         id="path1171"
         d="m 2306.5545,870.79988 c 0,-1.88623 10.652,-38.12862 17.1599,-58.38488 6.7578,-21.03398 21.5171,-58.29003 33.0686,-83.4729 6.8923,-15.02578 8.3497,-19.37618 6.6213,-19.76504 -2.3802,-0.53548 -45.4981,3.92037 -49.8101,5.14742 -1.7878,0.50875 -2.5962,-0.0987 -2.6021,-1.95538 -0.012,-3.9212 8.9696,-34.0921 10.9353,-36.73205 1.3296,-1.78574 9.2313,-2.69781 38.7214,-4.46953 45.743,-2.74817 100.5739,-5.16919 101.2715,-4.47158 0.2858,0.28576 -2.2296,9.23946 -5.5897,19.89711 l -6.1092,19.37753 h -24.9024 c -13.6963,0 -25.377,0.47466 -25.9571,1.05479 -0.5802,0.58014 0.4067,2.15725 2.1931,3.50469 l 3.2479,2.4499 -6.3276,14.65022 c -8.5384,19.76881 -23.3404,64.80146 -32.5823,99.12614 -4.1699,15.48725 -7.9189,29.27705 -8.331,30.64402 -0.5558,1.84334 -6.5709,3.87085 -23.2849,7.8486 -12.3945,2.94976 -23.7026,5.71105 -25.129,6.13618 -1.4265,0.42512 -2.5936,0.16177 -2.5936,-0.58524 z"
         style="fill:url(#linearGradient4522);fill-opacity:1;stroke-width:1.48203361" />
    </g>
    <text
       xml:space="preserve"
       style="font-style:normal;font-variant:normal;font-weight:normal;font-stretch:normal;font-size:30px;line-height:1.25;font-family:'Adventure Subtitles';-inkscape-font-specification:'Adventure Subtitles';letter-spacing:0px;word-spacing:0px;fill:#ffffff;fill-opacity:1;stroke:none;stroke-width:0.75"
       x="353.85355"
       y="1035.1873"
       id="text1243"><tspan
         sodipodi:role="line"
         id="tspan1241"
         x="353.85355"
         y="1059.9373"
         style="fill:#ffffff;stroke-width:0.75" /></text>
    <text
       xml:space="preserve"
       style="font-style:normal;font-variant:normal;font-weight:normal;font-stretch:normal;font-size:144px;line-height:1.25;font-family:'Adventure Subtitles';-inkscape-font-specification:'Adventure Subtitles';letter-spacing:0px;word-spacing:0px;fill:#000000;fill-opacity:1;stroke:none;stroke-width:0.75"
       x="360.1413"
       y="959.73438"
       id="text1247"><tspan
         sodipodi:role="line"
         id="tspan1245"
         x="360.1413"
         y="1078.5344"
         style="font-size:144px;stroke-width:0.75" /></text>
    <text
       xml:space="preserve"
       style="font-style:normal;font-variant:normal;font-weight:normal;font-stretch:normal;font-size:144px;line-height:1.25;font-family:'Adventure Subtitles';-inkscape-font-specification:'Adventure Subtitles';letter-spacing:0px;word-spacing:0px;fill:#000000;fill-opacity:1;stroke:none;stroke-width:0.75"
       x="363.28516"
       y="936.1554"
       id="text1251"><tspan
         sodipodi:role="line"
         id="tspan1249"
         x="363.28516"
         y="1054.9554"
         style="font-size:144px;stroke-width:0.75" /></text>
    <rect
       style="display:inline;opacity:0.4;fill:#000000;fill-opacity:1;stroke:#000000;stroke-width:6;stroke-linecap:square;stroke-linejoin:round;stroke-miterlimit:4;stroke-dasharray:none;stroke-opacity:1;paint-order:normal"
       id="rect4525"
       width="1445.1494"
       height="152.46988"
       x="268.47961"
       y="754.60876" />
    <g
       aria-label="A SURVIVAL GUIDE "
       style="font-style:normal;font-variant:normal;font-weight:bold;font-stretch:normal;font-size:121.99999237px;line-height:1.25;font-family:'Adventure Subtitles';-inkscape-font-specification:'Adventure Subtitles Bold';letter-spacing:11.27999878px;word-spacing:0px;display:inline;fill:#ffffff;fill-opacity:1;stroke:#000000;stroke-width:6;stroke-linecap:square;stroke-linejoin:round;stroke-miterlimit:4;stroke-dasharray:none;stroke-opacity:1;paint-order:normal"
       id="text2705"
       transform="translate(-2.405838,169.04278)">
      <path
         d="m 390.03488,618.91028 q 10.4248,0 10.4248,10.12696 v 75.65429 H 385.5671 v -35.74219 h -50.63476 v 35.74219 h -14.89258 v -75.65429 q 0,-10.12696 10.42481,-10.12696 z m -4.46778,35.74219 v -19.6582 q 0,-1.78711 -1.48925,-1.78711 H 336.4216 q -1.48926,0 -1.48926,1.78711 v 19.6582 z"
         style="font-style:normal;font-variant:normal;font-weight:bold;font-stretch:normal;font-size:121.99999237px;font-family:'Adventure Subtitles';-inkscape-font-specification:'Adventure Subtitles Bold';letter-spacing:11.27999878px;fill:#ffffff;fill-opacity:1;stroke:#000000;stroke-width:6;stroke-linecap:square;stroke-linejoin:round;stroke-miterlimit:4;stroke-dasharray:none;stroke-opacity:1;paint-order:normal"
         id="path967"
         inkscape:connector-curvature="0" />
      <path
         d="m 561.52064,654.65247 q 10.4248,0 10.4248,10.12695 v 29.78516 q 0,10.12695 -10.4248,10.12695 h -69.99511 v -14.29688 h 64.03808 q 1.48926,0 1.48926,-1.78711 v -17.87109 q 0,-1.78711 -1.48926,-1.78711 h -53.61328 q -10.4248,0 -10.4248,-10.12695 v -29.78515 q 0,-10.12696 10.4248,-10.12696 h 69.99511 v 14.29688 h -64.03808 q -1.48925,0 -1.48925,1.78711 v 17.87109 q 0,1.78711 1.54882,1.78711 z"
         style="font-style:normal;font-variant:normal;font-weight:bold;font-stretch:normal;font-size:121.99999237px;font-family:'Adventure Subtitles';-inkscape-font-specification:'Adventure Subtitles Bold';letter-spacing:11.27999878px;fill:#ffffff;fill-opacity:1;stroke:#000000;stroke-width:6;stroke-linecap:square;stroke-linejoin:round;stroke-miterlimit:4;stroke-dasharray:none;stroke-opacity:1;paint-order:normal"
         id="path969"
         inkscape:connector-curvature="0" />
      <path
         d="m 657.68832,618.91028 h 14.89258 v 75.6543 q 0,10.12695 -10.42481,10.12695 h -59.57031 q -10.4248,0 -10.4248,-10.12695 v -75.6543 h 14.89258 v 69.69726 q 0,1.78711 1.48926,1.78711 h 47.65624 q 1.48926,0 1.48926,-1.78711 z"
         style="font-style:normal;font-variant:normal;font-weight:bold;font-stretch:normal;font-size:121.99999237px;font-family:'Adventure Subtitles';-inkscape-font-specification:'Adventure Subtitles Bold';letter-spacing:11.27999878px;fill:#ffffff;fill-opacity:1;stroke:#000000;stroke-width:6;stroke-linecap:square;stroke-linejoin:round;stroke-miterlimit:4;stroke-dasharray:none;stroke-opacity:1;paint-order:normal"
         id="path971"
         inkscape:connector-curvature="0" />
      <path
         d="m 750.8775,633.20716 h -43.18847 v 21.44531 h 43.18847 q 1.48926,0 1.48926,-1.78711 v -17.87109 q 0,-1.78711 -1.48926,-1.78711 z m -28.8916,35.74218 h -14.29687 v 35.74219 h -14.89258 v -85.78125 h 64.03808 q 10.4248,0 10.4248,10.12696 v 29.78515 q 0,10.12695 -10.4248,10.12695 h -16.44141 l 28.05762,35.74219 h -18.40723 z"
         style="font-style:normal;font-variant:normal;font-weight:bold;font-stretch:normal;font-size:121.99999237px;font-family:'Adventure Subtitles';-inkscape-font-specification:'Adventure Subtitles Bold';letter-spacing:11.27999878px;fill:#ffffff;fill-opacity:1;stroke:#000000;stroke-width:6;stroke-linecap:square;stroke-linejoin:round;stroke-miterlimit:4;stroke-dasharray:none;stroke-opacity:1;paint-order:normal"
         id="path973"
         inkscape:connector-curvature="0" />
      <path
         d="m 819.16629,704.69153 -35.20605,-85.78125 h 17.99023 l 25.73437,62.66797 25.73438,-62.66797 h 17.99023 l -35.20605,85.78125 z"
         style="font-style:normal;font-variant:normal;font-weight:bold;font-stretch:normal;font-size:121.99999237px;font-family:'Adventure Subtitles';-inkscape-font-specification:'Adventure Subtitles Bold';letter-spacing:11.27999878px;fill:#ffffff;fill-opacity:1;stroke:#000000;stroke-width:6;stroke-linecap:square;stroke-linejoin:round;stroke-miterlimit:4;stroke-dasharray:none;stroke-opacity:1;paint-order:normal"
         id="path975"
         inkscape:connector-curvature="0" />
      <path
         d="m 897.04587,704.69153 h -14.89258 v -85.78125 h 14.89258 z"
         style="font-style:normal;font-variant:normal;font-weight:bold;font-stretch:normal;font-size:121.99999237px;font-family:'Adventure Subtitles';-inkscape-font-specification:'Adventure Subtitles Bold';letter-spacing:11.27999878px;fill:#ffffff;fill-opacity:1;stroke:#000000;stroke-width:6;stroke-linecap:square;stroke-linejoin:round;stroke-miterlimit:4;stroke-dasharray:none;stroke-opacity:1;paint-order:normal"
         id="path977"
         inkscape:connector-curvature="0" />
      <path
         d="M 948.95285,704.69153 913.7468,618.91028 h 17.99023 l 25.73437,62.66797 25.73438,-62.66797 h 17.99022 l -35.20604,85.78125 z"
         style="font-style:normal;font-variant:normal;font-weight:bold;font-stretch:normal;font-size:121.99999237px;font-family:'Adventure Subtitles';-inkscape-font-specification:'Adventure Subtitles Bold';letter-spacing:11.27999878px;fill:#ffffff;fill-opacity:1;stroke:#000000;stroke-width:6;stroke-linecap:square;stroke-linejoin:round;stroke-miterlimit:4;stroke-dasharray:none;stroke-opacity:1;paint-order:normal"
         id="path979"
         inkscape:connector-curvature="0" />
      <path
         d="m 1081.935,618.91028 q 10.4248,0 10.4248,10.12696 v 75.65429 h -14.8926 v -35.74219 h -50.6348 v 35.74219 h -14.8926 v -75.65429 q 0,-10.12696 10.4249,-10.12696 z m -4.4678,35.74219 v -19.6582 q 0,-1.78711 -1.4893,-1.78711 h -47.6562 q -1.4893,0 -1.4893,1.78711 v 19.6582 z"
         style="font-style:normal;font-variant:normal;font-weight:bold;font-stretch:normal;font-size:121.99999237px;font-family:'Adventure Subtitles';-inkscape-font-specification:'Adventure Subtitles Bold';letter-spacing:11.27999878px;fill:#ffffff;fill-opacity:1;stroke:#000000;stroke-width:6;stroke-linecap:square;stroke-linejoin:round;stroke-miterlimit:4;stroke-dasharray:none;stroke-opacity:1;paint-order:normal"
         id="path981"
         inkscape:connector-curvature="0" />
      <path
         d="m 1172.1457,704.69153 h -59.5704 v -85.78125 h 14.8926 v 71.48437 h 44.6778 z"
         style="font-style:normal;font-variant:normal;font-weight:bold;font-stretch:normal;font-size:121.99999237px;font-family:'Adventure Subtitles';-inkscape-font-specification:'Adventure Subtitles Bold';letter-spacing:11.27999878px;fill:#ffffff;fill-opacity:1;stroke:#000000;stroke-width:6;stroke-linecap:square;stroke-linejoin:round;stroke-miterlimit:4;stroke-dasharray:none;stroke-opacity:1;paint-order:normal"
         id="path983"
         inkscape:connector-curvature="0" />
      <path
         d="m 1273.7554,704.69153 q -10.4248,0 -10.4248,-10.12695 v -65.52734 q 0,-10.12696 10.4248,-10.12696 h 69.9951 v 14.29688 h -64.0381 q -1.4892,0 -1.4892,1.78711 v 53.61327 q 0,1.78711 1.5488,1.78711 h 47.5967 q 1.4892,0 1.4892,-1.78711 v -17.87109 q 0,-1.78711 -1.4892,-1.78711 h -28.2959 v -14.29687 h 34.2529 q 10.4248,0 10.4248,10.12695 v 29.78516 q 0,10.12695 -10.4248,10.12695 z"
         style="font-style:normal;font-variant:normal;font-weight:bold;font-stretch:normal;font-size:121.99999237px;font-family:'Adventure Subtitles';-inkscape-font-specification:'Adventure Subtitles Bold';letter-spacing:11.27999878px;fill:#ffffff;fill-opacity:1;stroke:#000000;stroke-width:6;stroke-linecap:square;stroke-linejoin:round;stroke-miterlimit:4;stroke-dasharray:none;stroke-opacity:1;paint-order:normal"
         id="path985"
         inkscape:connector-curvature="0" />
      <path
         d="m 1429.4934,618.91028 h 14.8926 v 75.6543 q 0,10.12695 -10.4249,10.12695 h -59.5703 q -10.4248,0 -10.4248,-10.12695 v -75.6543 h 14.8926 v 69.69726 q 0,1.78711 1.4893,1.78711 h 47.6562 q 1.4893,0 1.4893,-1.78711 z"
         style="font-style:normal;font-variant:normal;font-weight:bold;font-stretch:normal;font-size:121.99999237px;font-family:'Adventure Subtitles';-inkscape-font-specification:'Adventure Subtitles Bold';letter-spacing:11.27999878px;fill:#ffffff;fill-opacity:1;stroke:#000000;stroke-width:6;stroke-linecap:square;stroke-linejoin:round;stroke-miterlimit:4;stroke-dasharray:none;stroke-opacity:1;paint-order:normal"
         id="path987"
         inkscape:connector-curvature="0" />
      <path
         d="m 1479.4941,704.69153 h -14.8926 v -85.78125 h 14.8926 z"
         style="font-style:normal;font-variant:normal;font-weight:bold;font-stretch:normal;font-size:121.99999237px;font-family:'Adventure Subtitles';-inkscape-font-specification:'Adventure Subtitles Bold';letter-spacing:11.27999878px;fill:#ffffff;fill-opacity:1;stroke:#000000;stroke-width:6;stroke-linecap:square;stroke-linejoin:round;stroke-miterlimit:4;stroke-dasharray:none;stroke-opacity:1;paint-order:normal"
         id="path989"
         inkscape:connector-curvature="0" />
      <path
         d="m 1557.7907,633.20716 h -43.1884 v 57.18749 h 43.1884 q 1.4893,0 1.4893,-1.78711 v -53.61327 q 0,-1.78711 -1.4893,-1.78711 z m -58.081,71.48437 v -85.78125 h 64.0381 q 10.4248,0 10.4248,10.12696 v 65.52734 q 0,10.12695 -10.4248,10.12695 z"
         style="font-style:normal;font-variant:normal;font-weight:bold;font-stretch:normal;font-size:121.99999237px;font-family:'Adventure Subtitles';-inkscape-font-specification:'Adventure Subtitles Bold';letter-spacing:11.27999878px;fill:#ffffff;fill-opacity:1;stroke:#000000;stroke-width:6;stroke-linecap:square;stroke-linejoin:round;stroke-miterlimit:4;stroke-dasharray:none;stroke-opacity:1;paint-order:normal"
         id="path991"
         inkscape:connector-curvature="0" />
      <path
         d="m 1656.9369,704.69153 h -52.1241 q -10.4248,0 -10.4248,-10.12695 v -65.52734 q 0,-10.12696 10.4248,-10.12696 h 52.1241 v 14.29688 h -46.167 q -1.4893,0 -1.4893,1.78711 v 19.6582 h 47.6563 v 14.29687 h -47.6563 v 19.6582 q 0,1.78711 1.5488,1.78711 h 46.1075 z"
         style="font-style:normal;font-variant:normal;font-weight:bold;font-stretch:normal;font-size:121.99999237px;font-family:'Adventure Subtitles';-inkscape-font-specification:'Adventure Subtitles Bold';letter-spacing:11.27999878px;fill:#ffffff;fill-opacity:1;stroke:#000000;stroke-width:6;stroke-linecap:square;stroke-linejoin:round;stroke-miterlimit:4;stroke-dasharray:none;stroke-opacity:1;paint-order:normal"
         id="path993"
         inkscape:connector-curvature="0" />
    </g>
  </g>
</svg>
