<?xml version="1.0" encoding="UTF-8" standalone="no"?>
<!-- Created with Inkscape (http://www.inkscape.org/) -->

<svg
   xmlns:dc="http://purl.org/dc/elements/1.1/"
   xmlns:cc="http://creativecommons.org/ns#"
   xmlns:rdf="http://www.w3.org/1999/02/22-rdf-syntax-ns#"
   xmlns:svg="http://www.w3.org/2000/svg"
   xmlns="http://www.w3.org/2000/svg"
   xmlns:xlink="http://www.w3.org/1999/xlink"
   xmlns:sodipodi="http://sodipodi.sourceforge.net/DTD/sodipodi-0.dtd"
   xmlns:inkscape="http://www.inkscape.org/namespaces/inkscape"
   width="150mm"
   height="70mm"
   viewBox="0 0 150 70"
   version="1.1"
   id="svg1487"
   sodipodi:docname="wai.svg"
   inkscape:version="0.92.3 (2405546, 2018-03-11)">
  <defs
     id="defs1481">
    <linearGradient
       inkscape:collect="always"
       id="linearGradient2234">
      <stop
         style="stop-color:#ff6600;stop-opacity:1"
         offset="0"
         id="stop2230" />
      <stop
         id="stop2238"
         offset="0.80310762"
         style="stop-color:#ffff00;stop-opacity:1" />
      <stop
         style="stop-color:#ffffff;stop-opacity:1"
         offset="1"
         id="stop2232" />
    </linearGradient>
    <linearGradient
       inkscape:collect="always"
       xlink:href="#linearGradient2234"
       id="linearGradient2236"
       x1="68.119438"
       y1="106.73254"
       x2="67.916245"
       y2="161.96318"
       gradientUnits="userSpaceOnUse" />
  </defs>
  <sodipodi:namedview
     id="base"
     pagecolor="#ffffff"
     bordercolor="#666666"
     borderopacity="1.0"
     inkscape:pageopacity="0.0"
     inkscape:pageshadow="2"
     inkscape:zoom="0.7"
     inkscape:cx="253.35212"
     inkscape:cy="235.59572"
     inkscape:document-units="mm"
     inkscape:current-layer="layer1"
     showgrid="false"
     inkscape:window-width="1920"
     inkscape:window-height="1017"
     inkscape:window-x="-8"
     inkscape:window-y="-8"
     inkscape:window-maximized="1" />
  <metadata
     id="metadata1484">
    <rdf:RDF>
      <cc:Work
         rdf:about="">
        <dc:format>image/svg+xml</dc:format>
        <dc:type
           rdf:resource="http://purl.org/dc/dcmitype/StillImage" />
        <dc:title></dc:title>
      </cc:Work>
    </rdf:RDF>
  </metadata>
  <g
     inkscape:label="Layer 1"
     inkscape:groupmode="layer"
     id="layer1"
     transform="translate(0,-227)">
    <path
       style="fill:#000000;stroke-width:0.20632219"
       d="m 46.848575,274.00156 c -0.285276,-0.22593 -0.577109,-0.64515 -0.648517,-0.93161 -0.155992,-0.62574 -0.08658,-0.62235 -2.216615,-0.10823 -3.271586,0.78965 -4.896579,0.40728 -4.896579,-1.15221 0,-0.39025 -0.07781,-0.70955 -0.172901,-0.70955 -0.0951,0 -0.538753,0.36106 -0.985906,0.80237 -0.736339,0.72671 -1.044819,0.85723 -3.271289,1.38413 -3.265951,0.77289 -4.43873,0.77887 -5.185463,0.0264 -0.487455,-0.49119 -0.561882,-0.72949 -0.555987,-1.78018 0.0059,-1.05973 0.167468,-1.5432 1.277807,-3.82475 0.699051,-1.43643 1.204907,-2.60788 1.124122,-2.60324 -0.08078,0.005 -0.551743,0.66319 -1.046578,1.46344 -1.3053,2.11092 -2.439228,3.48663 -3.071135,3.72597 -0.304084,0.11517 -0.878711,0.52803 -1.276952,0.91746 -0.621617,0.60786 -1.079401,0.79652 -3.235239,1.33333 -1.38114,0.3439 -3.059619,0.62527 -3.729953,0.62527 -1.108535,0 -1.266946,-0.0576 -1.751126,-0.63695 -0.30702,-0.36736 -0.532337,-0.89311 -0.532337,-1.24215 0,-0.76131 -0.132302,-0.75795 -0.93327,0.0237 -0.523558,0.51091 -1.10384,0.74356 -3.094138,1.24052 -1.369176,0.34187 -3.0085271,0.61238 -3.7165921,0.61329 -1.176548,0.001 -1.306773,-0.0461 -1.826617,-0.66813 l -0.559751,-0.66975 0.156499,-3.00491 c 0.08607,-1.6527 0.214073,-6.68911 0.284442,-11.19203 0.115762,-7.4075 0.163235,-8.24128 0.49854,-8.75598 0.454085,-0.69703 0.708951,-0.79741 3.6569371,-1.44031 5.301381,-1.15613 6.814076,-1.16658 7.092673,-0.049 0.15949,0.63979 0.123406,0.63934 2.999945,0.0373 4.038357,-0.84528 5.446586,-1.017 6.223462,-0.75886 0.83752,0.27829 0.938502,0.50381 1.08689,2.4273 l 0.11505,1.49135 0.790737,-0.99989 c 1.304184,-1.64914 1.372045,-1.67393 6.345005,-2.31781 2.220306,-0.28748 3.67734,-0.1585 4.063638,0.35971 0.533879,0.7162 0.220285,2.10366 -0.813262,3.59821 -0.943283,1.36402 -3.65847,6.19387 -3.65847,6.50779 0,0.0941 0.924106,-1.15123 2.053568,-2.76733 2.202698,-3.15173 4.046524,-5.4927 5.203973,-6.6071 0.76503,-0.73658 0.687508,-0.71736 5.182667,-1.28479 3.161916,-0.39914 4.086925,-0.0605 4.332143,1.58583 l 0.134961,0.90611 0.399176,-0.51092 c 0.219546,-0.28101 0.7412,-0.60128 1.159232,-0.71171 1.953872,-0.51614 6.649978,-0.98949 11.799729,-1.18937 3.010561,-0.11685 3.496229,-0.0906 3.958248,0.21422 0.731575,0.48261 0.700462,1.67656 -0.112328,4.31057 -0.607409,1.96843 -0.675956,2.08599 -1.387957,2.38032 -0.411946,0.17029 -0.958657,0.57384 -1.214913,0.89678 -0.256256,0.32293 -0.788306,0.69428 -1.182334,0.8252 -0.394027,0.13093 -0.716414,0.30553 -0.716414,0.38801 0,0.15595 2.338387,-0.0482 2.878726,-0.25139 0.169639,-0.0638 2.723184,-0.21713 5.674546,-0.34079 5.472325,-0.22928 6.22937,-0.17183 6.748904,0.51212 0.176945,0.23295 0.589361,-0.22342 2.018511,-2.23364 2.627429,-3.69569 4.519748,-5.86086 5.337752,-6.1074 1.194527,-0.36003 4.326018,-0.74958 6.094668,-0.75817 1.56751,-0.008 1.74793,0.0342 2.11577,0.49053 l 0.40213,0.49886 2.61356,-0.39535 c 3.247877,-0.49129 9.800747,-0.55279 11.558167,-0.10847 1.33772,0.3382 3.58396,1.32133 3.79152,1.65946 0.10053,0.16378 0.33581,0.0774 0.75367,-0.27656 0.33412,-0.28306 0.95177,-0.56612 1.37254,-0.629 0.42077,-0.0629 1.32021,-0.20605 1.99877,-0.31813 1.80229,-0.29769 8.88948,-0.82615 11.07952,-0.82615 2.44635,0 2.80109,0.21808 2.79743,1.71968 -0.002,0.97338 -0.73443,3.76365 -1.23398,4.70343 -0.10978,0.20653 -0.50817,0.47804 -0.88531,0.60335 -0.37714,0.12531 -0.88341,0.49708 -1.12505,0.82614 -0.24164,0.32907 -0.75787,0.70414 -1.14716,0.83349 -0.66009,0.21933 -0.75998,0.37762 -1.48149,2.34755 -0.75499,2.06134 -1.15078,3.26437 -1.80171,5.47648 -0.29736,1.01053 -0.29532,1.08681 0.0289,1.08594 0.23613,-6.2e-4 0.70683,-0.71148 1.45756,-2.20121 1.8322,-3.63576 6.92051,-11.0556 9.32837,-13.60274 0.85352,-0.90289 1.24884,-1.16579 1.90022,-1.26372 0.45237,-0.068 1.45112,-0.23044 2.21943,-0.36094 0.76832,-0.1305 2.22165,-0.24486 3.22964,-0.25412 2.25616,-0.0207 2.43174,0.11522 2.68284,2.07742 0.27507,2.14941 0.21896,8.18193 -0.0989,10.63768 -0.42012,3.24551 -1.53608,9.32168 -1.82255,9.92346 -0.13811,0.2901 -0.52785,0.65621 -0.8661,0.81357 -0.33824,0.15736 -0.93885,0.59468 -1.33467,0.9718 -0.6025,0.57405 -1.12786,0.78901 -3.22654,1.32021 -3.98156,1.00778 -5.416,0.77582 -5.73332,-0.92713 -0.0733,-0.39359 -0.18209,-0.71561 -0.24167,-0.71561 -0.0596,0 -0.49339,0.35734 -0.96401,0.79409 -0.74382,0.6903 -1.1613,0.87044 -3.1938,1.37811 -2.44835,0.61154 -2.70551,0.62737 -6.68893,0.41181 -1.90306,-0.10299 -3.25356,-0.035 -5.90396,0.29741 -4.70394,0.5899 -5.71226,0.5761 -6.33063,-0.0866 -0.42467,-0.45511 -0.65417,-0.51756 -1.90227,-0.51756 -1.27685,0 -1.475,-0.0571 -1.97387,-0.56931 -0.305,-0.31312 -1.00571,-1.38447 -1.55715,-2.38077 -0.55144,-0.9963 -1.06927,-1.81146 -1.15073,-1.81146 -0.0815,0 -0.26419,0.41746 -0.40608,0.92768 -0.28098,1.01039 -0.45701,1.21803 -1.23483,1.45653 -0.28273,0.0867 -0.791647,0.4706 -1.130927,0.85312 -0.55461,0.62531 -0.88276,0.7582 -3.25166,1.31688 -3.16715,0.74693 -4.39305,0.7927 -5.15116,0.19231 -0.29798,-0.23599 -0.54179,-0.56383 -0.54179,-0.72853 0,-0.32594 0.038,-0.33087 -2.707359,0.35164 -3.031255,0.75359 -4.522269,0.39123 -4.813127,-1.16973 -0.07334,-0.39359 -0.182094,-0.71561 -0.241679,-0.71561 -0.05959,0 -0.496774,0.36048 -0.971527,0.80107 -0.778911,0.72287 -1.131664,0.86645 -3.6129,1.47063 -3.04599,0.7417 -4.047626,0.73889 -4.84316,-0.0136 -0.418836,-0.39616 -0.493847,-0.66291 -0.493847,-1.75619 0,-1.20186 0.118854,-1.53039 1.75637,-4.85484 0.966004,-1.96117 1.72938,-3.58997 1.696392,-3.61956 -0.03299,-0.0296 -0.615161,0.0241 -1.293718,0.11936 -0.678557,0.0952 -3.559151,0.20096 -6.40132,0.23494 -4.684404,0.056 -5.205022,0.0279 -5.568019,-0.3005 -0.532654,-0.48191 -0.608418,-0.46146 -0.766777,0.20702 -0.07418,0.31312 -0.182974,0.73235 -0.241772,0.93161 -0.09012,0.30542 0.03244,0.36277 0.780852,0.36534 2.157003,0.007 2.554796,0.92231 1.71591,3.94646 -0.620902,2.23833 -1.048434,2.97017 -1.854086,3.17375 -0.285109,0.072 -0.831471,0.47496 -1.214138,0.89536 l -0.695759,0.76438 -3.261422,0.15387 c -1.793781,0.0846 -4.319637,0.29772 -5.613013,0.47355 -3.263935,0.44371 -4.558954,0.42105 -5.205629,-0.0911 z m 6.955966,-3.02538 c 1.235434,-0.18194 3.711294,-0.39155 5.501911,-0.4658 l 3.255668,-0.13501 0.597291,-1.86321 c 0.32851,-1.02476 0.598405,-1.98955 0.599768,-2.14397 0.0021,-0.22688 -0.358677,-0.25198 -1.879459,-0.13079 -1.700159,0.13548 -1.86936,0.11696 -1.751714,-0.1917 0.07162,-0.18792 0.278187,-0.92093 0.459031,-1.62891 0.563299,-2.20523 1.944703,-6.3637 2.895258,-8.71565 0.500771,-1.23906 0.884151,-2.27338 0.851957,-2.29849 -0.03219,-0.0251 -0.238159,-0.14293 -0.457697,-0.26183 -0.320526,-0.1736 -0.09774,-0.24338 1.130928,-0.35424 0.841548,-0.0759 1.75053,-0.10884 2.019959,-0.0731 0.491924,0.0652 0.712478,-0.40406 1.776955,-3.78077 0.113109,-0.3588 0.01717,-0.39847 -0.967824,-0.40014 -1.754195,-0.003 -10.30613,0.65975 -10.765657,0.83427 -0.317943,0.12074 -0.555818,0.64605 -0.984572,2.17427 -0.310939,1.10828 -0.523331,2.05735 -0.471985,2.10905 0.05135,0.0517 1.038103,-0.0572 2.192791,-0.24206 1.154688,-0.18482 2.135556,-0.29968 2.179707,-0.25522 0.04415,0.0445 -0.557864,1.51553 -1.337813,3.26906 -1.491678,3.35368 -2.831848,6.88575 -3.418179,9.00873 l -0.34964,1.26598 -1.466967,0.13727 c -0.806833,0.0755 -1.53096,0.20451 -1.609169,0.2867 -0.139879,0.14699 -1.203322,3.70161 -1.203322,4.02217 0,0.23974 0.685957,0.20407 3.202774,-0.16658 z m 63.098319,-0.0857 c 1.80267,-0.22638 4.30297,-0.4116 5.55623,-0.4116 h 2.27866 l 0.54775,-1.81146 c 0.30127,-0.9963 0.61456,-1.98666 0.6962,-2.20081 0.14124,-0.37049 0.053,-0.38214 -1.82128,-0.24066 l -1.9697,0.14868 0.89355,-3.07171 c 0.91222,-3.13585 2.18024,-6.83349 2.95835,-8.62675 0.53847,-1.24099 0.53793,-1.26978 -0.0285,-1.52732 -0.38651,-0.17572 -0.21962,-0.23526 1.01396,-0.36175 0.81213,-0.0833 1.73997,-0.0932 2.06185,-0.022 0.58164,0.12862 0.58932,0.1169 1.2479,-1.90601 0.36446,-1.11949 0.66265,-2.10052 0.66265,-2.18007 0,-0.22239 -1.96298,-0.17333 -6.57994,0.16445 -5.86317,0.42895 -5.46527,0.31899 -5.83661,1.61288 -0.63948,2.22825 -0.82178,3.03661 -0.71016,3.149 0.0632,0.0636 0.98379,-0.0261 2.04571,-0.19953 1.06192,-0.1734 2.03629,-0.31564 2.16527,-0.3161 0.12898,-4.5e-4 -0.34406,1.28013 -1.0512,2.84574 -1.6252,3.59824 -2.56648,6.01424 -3.37598,8.66524 l -0.63889,2.09223 -1.47161,0.13771 c -0.9411,0.0881 -1.55298,0.24972 -1.6973,0.44845 -0.18517,0.25496 -0.4551,-0.0153 -1.50346,-1.50536 -0.70277,-0.99886 -1.79416,-2.40942 -2.42531,-3.13458 -0.63115,-0.72516 -1.11998,-1.3462 -1.08628,-1.38008 0.0337,-0.0339 0.55758,-0.25854 1.16419,-0.49924 2.51606,-0.99839 4.03932,-2.68684 4.66961,-5.17602 1.0812,-4.26988 -1.56606,-6.63955 -7.78685,-6.97029 -2.20279,-0.11712 -7.474977,0.19321 -7.735307,0.45532 -0.0471,0.0475 0.14313,1.181 0.42283,2.51897 0.469947,2.24802 0.542777,2.42894 0.959417,2.38337 0.56772,-0.0621 0.56865,-0.0709 -0.14128,1.34912 -1.029787,2.05988 -2.314157,5.2336 -3.242397,8.01206 -1.18394,3.54382 -2.19231,7.15129 -2.04141,7.30321 0.0664,0.0669 1.29916,-0.15224 2.7394,-0.48695 l 2.618607,-0.60858 0.75836,-2.89472 c 1.05165,-4.01417 1.44262,-5.27549 1.63526,-5.27549 0.45774,0 3.6064,4.26981 5.14666,6.97924 0.56882,1.00059 1.10147,1.89075 1.18366,1.97811 0.0822,0.0874 1.01733,-0.16601 2.07809,-0.56306 1.06076,-0.39706 1.95929,-0.69108 1.99674,-0.65337 0.0375,0.0377 -0.0135,0.29108 -0.11318,0.56307 -0.0997,0.27198 -0.24285,0.7507 -0.31811,1.06382 -0.16918,0.70389 -0.28077,0.6997 4.07387,0.15283 z m -12.83905,-13.54685 c 0,-0.0803 0.33644,-0.93445 0.74765,-1.89816 0.7121,-1.6689 0.72979,-1.76534 0.37199,-2.02875 -0.33842,-0.24914 -0.26884,-0.29962 0.70184,-0.50921 1.31783,-0.28455 1.77318,-0.28891 2.71328,-0.026 1.74703,0.48864 2.1879,1.96829 0.95602,3.20857 -0.37286,0.37539 -1.04371,0.79345 -1.49077,0.92901 -0.95482,0.28953 -4.00001,0.53657 -4.00001,0.32451 z m -67.46396,12.76743 2.139508,-0.56379 0.743717,-1.86321 c 0.409045,-1.02477 0.974393,-2.28244 1.25633,-2.79482 l 0.51261,-0.9316 2.022021,-0.10352 c 1.112114,-0.0569 2.056823,-0.0464 2.099358,0.0235 0.04254,0.0699 -0.383545,1.51208 -0.946841,3.20498 -0.563297,1.6929 -1.000464,3.13907 -0.971482,3.21373 0.02898,0.0747 1.246515,-0.15714 2.705632,-0.51511 2.095464,-0.51408 2.688393,-0.73755 2.821657,-1.06345 0.192009,-0.46957 1.085722,-5.55005 1.547501,-8.79706 0.222441,-1.56412 0.290292,-3.46084 0.24193,-6.7631 -0.03697,-2.52414 -0.113477,-4.62977 -0.170024,-4.67919 -0.05655,-0.0494 -0.935586,-0.0443 -1.953421,0.0114 l -1.850609,0.10123 -1.105571,1.32111 c -3.724983,4.45121 -6.985514,9.53418 -9.915518,15.4577 -1.345979,2.72113 -2.447236,5.08442 -2.447236,5.25176 0,0.3473 0.03715,0.3415 3.270438,-0.51051 z m 9.192494,-9.61032 c -0.225836,-0.12725 -0.869918,-0.15813 -1.589189,-0.0762 -0.936976,0.10673 -1.209449,0.0758 -1.209449,-0.13712 0,-0.28833 3.560739,-6.3226 3.942343,-6.68096 0.284959,-0.2676 0.09544,4.3048 -0.242325,5.84655 -0.269732,1.2312 -0.369643,1.34733 -0.90138,1.04773 z m 34.507278,9.75055 2.544787,-0.64163 0.45818,-1.27334 c 0.251998,-0.70033 0.81285,-1.98649 1.246334,-2.85813 l 0.788154,-1.58479 2.11515,-0.0797 c 1.163333,-0.0438 2.129254,-0.0759 2.146494,-0.0714 0.01723,0.005 -0.433341,1.43336 -1.001287,3.17514 -0.567946,1.74178 -0.973437,3.22646 -0.901091,3.29931 0.125945,0.1268 4.86589,-0.93623 5.2397,-1.17511 0.29833,-0.19065 1.6657,-8.51777 1.89884,-11.56375 0.12417,-1.62226 0.15578,-4.19687 0.0739,-6.01478 l -0.14325,-3.17843 -0.61993,0.12483 c -0.34096,0.0687 -1.20414,0.12483 -1.91816,0.12483 h -1.29824 l -2.061263,2.58269 c -2.281947,2.85921 -6.054269,8.47004 -7.310791,10.87384 -1.163986,2.22677 -4.223936,8.56288 -4.224138,8.74674 -2.05e-4,0.24027 0.24285,0.20041 2.966659,-0.48636 z m 9.663221,-9.73525 c -0.0959,-0.15629 -0.567846,-0.1889 -1.436758,-0.0993 -0.753106,0.0777 -1.344546,0.051 -1.415087,-0.064 -0.06666,-0.10859 0.782616,-1.70364 1.887274,-3.54455 l 2.008471,-3.34712 0.0599,2.14289 c 0.0396,1.41722 -0.0522,2.65118 -0.27106,3.64382 -0.3186,1.44503 -0.5282,1.76425 -0.83271,1.26819 z m 39.480737,9.73525 2.54479,-0.64163 0.45818,-1.27334 c 0.25199,-0.70033 0.81415,-1.9891 1.24922,-2.86391 l 0.79104,-1.59059 2.06131,-0.0656 c 1.13371,-0.0361 2.0611,0.0148 2.06085,0.11308 -2e-4,0.0983 -0.42424,1.52705 -0.94222,3.17504 -0.51797,1.64798 -0.88782,3.05065 -0.82189,3.11704 0.0659,0.0664 1.29613,-0.15562 2.73376,-0.49335 l 2.61387,-0.61405 0.15225,-0.73776 c 0.0837,-0.40576 0.49386,-2.68387 0.9114,-5.06245 0.73528,-4.18867 0.75973,-4.48866 0.77746,-9.53763 0.0101,-2.86711 -0.0267,-5.25405 -0.0817,-5.30431 -0.055,-0.0503 -0.97464,-0.0334 -2.04365,0.0374 l -1.94366,0.12872 -1.80456,2.25285 c -2.08763,2.60624 -5.87445,8.17658 -7.19424,10.5826 -0.96858,1.76574 -4.48905,9.04239 -4.48905,9.27864 0,0.22444 0.27474,0.17807 2.96683,-0.5007 z m 9.66322,-9.73525 c -0.0959,-0.15629 -0.56785,-0.1889 -1.43676,-0.0993 -0.71164,0.0734 -1.34273,0.0539 -1.40242,-0.0433 -0.15275,-0.24883 3.82718,-6.90633 4.01487,-6.71593 0.19884,0.2017 -0.15139,5.18322 -0.44039,6.26378 -0.22193,0.82979 -0.46856,1.02928 -0.7353,0.59475 z m -124.703002,8.94172 2.150772,-0.53156 0.961775,-1.20287 c 0.528977,-0.66158 1.58727,-2.31518 2.351762,-3.67467 0.764493,-1.35948 1.463098,-2.4718 1.552455,-2.4718 0.08936,0 0.125701,0.30278 0.08076,0.67283 -0.04494,0.37006 -0.132168,2.33287 -0.193844,4.36181 -0.104892,3.45062 -0.08881,3.68193 0.248851,3.57978 0.198544,-0.0601 1.378824,-0.35938 2.622845,-0.66515 1.24402,-0.30576 2.434836,-0.70557 2.646258,-0.88847 0.97361,-0.84224 3.586025,-5.21167 8.30616,-13.89257 0.95963,-1.76488 2.130087,-3.76783 2.601018,-4.45101 0.47093,-0.68317 0.934099,-1.36936 1.029261,-1.52485 0.143396,-0.23431 -0.122068,-0.25904 -1.550196,-0.14444 -2.825115,0.2267 -2.704456,0.16343 -4.185011,2.19433 -1.587023,2.17694 -3.090835,4.49157 -5.308007,8.16995 l -1.622207,2.69131 0.124674,-1.03512 c 0.60556,-5.02777 0.958599,-12.73195 0.583431,-12.73195 -0.08279,0 -1.28569,0.25047 -2.673102,0.55659 l -2.52257,0.55658 v 1.84636 1.84635 l -1.720111,2.7209 c -0.94606,1.49649 -2.161445,3.48946 -2.700855,4.42883 -0.539409,0.93937 -1.021873,1.70794 -1.072141,1.70794 -0.05027,0 -0.04044,-0.25619 0.02183,-0.56931 0.133692,-0.67219 0.671457,-7.29638 0.844529,-10.40293 0.06682,-1.19948 0.03694,-2.29878 -0.06668,-2.45273 -0.15443,-0.22942 -0.644941,-0.17535 -2.761347,0.30436 l -2.573559,0.58333 0.09983,1.14481 c 0.113795,1.30495 -0.30549,17.60259 -0.49177,19.11511 l -0.122465,0.99438 0.593439,-0.15229 c 0.326391,-0.0838 1.561286,-0.39148 2.74421,-0.68383 z m 99.536382,-6.94929 c 0.25773,-0.79704 0.77459,-2.17116 1.14858,-3.0536 0.37399,-0.88243 0.61409,-1.60131 0.53356,-1.59751 -0.0805,0.004 -0.42401,0.49224 -0.76329,1.08541 -0.40894,0.71497 -1.04713,1.39299 -1.89337,2.01156 -0.70208,0.51319 -1.28039,1.00474 -1.28515,1.09235 -0.0152,0.28117 1.52872,2.17769 1.66231,2.04187 0.0708,-0.072 0.33963,-0.78304 0.59736,-1.58008 z m -61.520041,-1.8008 c 0.236387,-0.64885 0.704663,-1.79007 1.040614,-2.53604 l 0.610818,-1.35631 h -0.587157 c -0.322935,0 -0.73352,-0.0565 -0.912408,-0.12566 -0.270884,-0.10465 -0.327126,0.0597 -0.336461,0.98336 -0.0062,0.60997 -0.126099,1.87724 -0.266519,2.81617 -0.285006,1.90572 -0.181787,1.95571 0.451113,0.21848 z m 22.775761,-0.49746 2.90088,-0.13255 0.442581,-1.26888 c 0.243419,-0.69788 0.441644,-1.41662 0.440499,-1.59719 -0.0023,-0.35582 0.544293,-0.35451 -7.594474,-0.0182 l -3.377115,0.13953 -0.581133,1.42888 c -0.319623,0.78588 -0.581132,1.52044 -0.581132,1.63237 0,0.12948 0.990911,0.15714 2.724508,0.0761 1.49848,-0.0701 4.029904,-0.18708 5.625386,-0.25998 z m 40.87972,-2.90696 c 0.1959,-0.51399 -0.02,-0.58417 -0.28185,-0.0916 -0.12632,0.23763 -0.1437,0.43178 -0.0387,0.43178 0.10497,0 0.2492,-0.15308 0.32051,-0.34017 z"
       id="path2187"
       inkscape:connector-curvature="0" />
    <g
       id="g2228"
       style="fill-opacity:1;fill:url(#linearGradient2236)">
      <path
         transform="matrix(0.26458333,0,0,0.26458333,0,227)"
         inkscape:connector-curvature="0"
         id="path2207"
         d="m 42.123717,160.06587 c 0.608648,-6.89667 1.333406,-30.85211 1.632873,-53.97139 l 0.297675,-22.980966 8.405366,-1.900077 c 4.622952,-1.045043 9.084607,-1.840538 9.914789,-1.767767 1.332535,0.116805 1.551053,0.369068 1.864666,2.152615 0.465686,2.6484 -0.966788,25.703895 -2.647643,42.613485 -0.28636,2.88081 -0.428971,5.32952 -0.316914,5.44157 0.112056,0.11206 1.865318,-2.58589 3.896136,-5.99545 2.030819,-3.40955 6.489053,-10.68043 9.907188,-16.1575 l 6.214791,-9.958306 0.140241,-7.214285 0.14024,-7.214285 9.836216,-2.119007 c 7.416401,-1.597708 9.941579,-1.970471 10.264499,-1.515229 0.93819,1.322613 -0.5363,31.493042 -2.222263,45.471092 -0.295944,2.45367 -0.45072,4.54859 -0.343936,4.65537 0.106783,0.10678 1.432749,-1.89818 2.946579,-4.45547 10.70735,-18.08778 24.993,-39.31336 27.80899,-41.318518 1.68168,-1.197463 4.64458,-1.781797 11.43518,-2.255212 3.89007,-0.2712 5.17704,-0.21027 5.17704,0.2451 0,0.333312 -1.44206,2.805898 -3.20457,5.494635 -3.91763,5.976385 -5.40783,8.552306 -14.22368,24.586585 -8.44093,15.35237 -17.6283,31.32928 -21.34729,37.12311 -4.42348,6.89135 -5.8284,8.38357 -9.015943,9.57618 -3.699391,1.38412 -15.75789,4.5623 -17.317859,4.56435 l -1.217188,0.002 0.339541,-13.51079 c 0.186748,-7.43093 0.486251,-14.73961 0.665561,-16.24151 0.240824,-2.01713 0.172179,-2.63565 -0.262679,-2.3669 -0.323785,0.20012 -2.554592,3.70178 -4.957348,7.7815 -4.712197,8.00097 -9.272131,14.86326 -11.904853,17.91573 -1.602175,1.85762 -1.913652,1.97603 -10.992807,4.17901 -5.139151,1.24697 -9.770659,2.39993 -10.292241,2.56212 -0.8879,0.27611 -0.92743,0.0581 -0.620357,-3.42139 z"
         style="opacity:1;fill:url(#linearGradient2236);fill-opacity:1;stroke:none;stroke-width:2.97893977;stroke-linecap:square;stroke-linejoin:round;stroke-miterlimit:4;stroke-dasharray:none;stroke-opacity:1;paint-order:normal" />
      <path
         transform="matrix(0.26458333,0,0,0.26458333,0,227)"
         inkscape:connector-curvature="0"
         id="path2209"
         d="m 125.7673,165.26607 c 0,-0.30822 1.50021,-3.80424 3.33381,-7.76891 13.20396,-28.55018 26.59303,-50.37571 43.50571,-70.918708 l 4.21633,-5.12136 7.07553,-0.366348 c 3.89155,-0.201492 7.23429,-0.207646 7.42831,-0.01368 0.19402,0.19397 0.3518,9.481968 0.35063,20.639996 l -0.002,20.28733 -1.93024,11.61675 c -3.0007,18.05904 -4.29189,24.15214 -5.27515,24.89319 -1.92967,1.45432 -19.30933,5.82981 -20.08305,5.05608 -0.17979,-0.17978 1.16074,-5.06 2.97893,-10.84493 1.8182,-5.78492 3.45474,-11.14307 3.63676,-11.907 l 0.33093,-1.38896 h -5.5401 c -3.04705,0 -6.57112,0.14131 -7.83126,0.31403 l -2.29115,0.31405 -2.79497,5.87314 c -1.53723,3.23023 -3.613,7.93274 -4.61281,10.45002 l -1.81785,4.57687 -8.39626,2.17384 c -9.60287,2.48621 -12.28208,2.95185 -12.28208,2.1346 z m 50.03796,-40.61003 c 0.97519,-3.6128 1.45854,-7.86569 1.80822,-15.9099 0.20244,-4.65694 0.14892,-7.70242 -0.13536,-7.70242 -0.78073,0 -14.84025,23.56428 -14.84025,24.87281 0,0.21992 2.26884,0.35373 5.04187,0.29736 2.77304,-0.0564 5.1974,0.053 5.38748,0.24312 1.01448,1.01447 2.18609,0.24383 2.73804,-1.80097 z"
         style="opacity:1;fill:url(#linearGradient2236);fill-opacity:1;stroke:none;stroke-width:2.97893977;stroke-linecap:square;stroke-linejoin:round;stroke-miterlimit:4;stroke-dasharray:none;stroke-opacity:1;paint-order:normal" />
      <path
         transform="matrix(0.26458333,0,0,0.26458333,0,227)"
         inkscape:connector-curvature="0"
         id="path2211"
         d="m 191.57998,166.87829 c -0.60563,-1.57823 3.51278,-15.07494 4.74418,-15.54747 0.46473,-0.17833 3.17097,-0.57822 6.01387,-0.88864 l 5.16891,-0.56439 0.32917,-1.75462 c 0.99146,-5.28497 6.56831,-20.24929 14.19141,-38.07974 2.33748,-5.46736 4.24996,-10.183514 4.24996,-10.480337 0,-0.711351 -0.11916,-0.704627 -8.5462,0.482287 -3.99074,0.56208 -7.37346,0.90441 -7.51714,0.76073 -0.7062,-0.7062 3.46863,-14.90361 4.67751,-15.906893 1.14957,-0.954056 31.09784,-3.55347 40.94011,-3.55347 3.74287,0 4.28654,0.111977 4.29149,0.883884 0.008,1.298968 -3.99255,12.83587 -4.86055,14.015866 -0.65033,0.884105 -1.52897,1.047665 -7.04146,1.310781 -6.3865,0.304835 -7.74293,0.641987 -6.15592,1.530118 0.48382,0.270761 0.87967,0.804962 0.87967,1.187114 0,0.38215 -1.33415,4.17787 -2.96479,8.43493 -3.90036,10.18259 -7.6965,21.54753 -10.45617,31.30383 -1.23002,4.3485 -2.2364,8.04764 -2.2364,8.22031 0,0.17267 3.06834,0.15996 6.81853,-0.0282 l 6.81853,-0.34219 -0.0226,1.21325 c -0.0124,0.66728 -0.98031,4.28159 -2.15089,8.03178 l -2.12831,6.81853 -6.81422,0.35036 c -11.5734,0.59507 -21.38757,1.41536 -29.1615,2.43737 -9.07873,1.19355 -8.67529,1.18622 -9.06722,0.16484 z"
         style="opacity:1;fill:url(#linearGradient2236);fill-opacity:1;stroke:none;stroke-width:2.97893977;stroke-linecap:square;stroke-linejoin:round;stroke-miterlimit:4;stroke-dasharray:none;stroke-opacity:1;paint-order:normal" />
      <path
         transform="matrix(0.26458333,0,0,0.26458333,0,227)"
         inkscape:connector-curvature="0"
         id="path2213"
         d="m 292.68114,164.30453 c 0.53631,-2.13942 15.47371,-32.31867 18.482,-37.34071 7.02977,-11.73548 17.73444,-27.149649 26.80574,-38.598867 l 5.44346,-6.870392 6.2086,-0.303496 c 3.41473,-0.166923 6.70543,-0.450392 7.31267,-0.629931 0.96541,-0.285436 1.15021,-0.08222 1.47144,1.618049 0.20205,1.069466 0.37416,8.876656 0.38247,17.34931 0.0159,16.153327 -0.17362,18.492717 -2.96541,36.618027 -1.55015,10.06412 -3.73246,21.58071 -4.24723,22.41362 -0.57929,0.93731 -19.51187,5.50599 -20.15434,4.86352 -0.345,-0.345 0.75138,-4.35382 3.99158,-14.59491 1.66031,-5.24763 2.94421,-9.61567 2.85311,-9.70677 -0.0911,-0.0911 -3.64887,-0.0226 -7.90618,0.15212 l -7.74055,0.31774 -3.1351,6.44106 c -1.72431,3.54258 -3.77301,8.22221 -4.55266,10.39917 -0.77965,2.17696 -1.58669,4.14795 -1.79341,4.37996 -0.50717,0.56923 -17.54152,4.8531 -19.36066,4.86891 -1.32438,0.0115 -1.41493,-0.10226 -1.09553,-1.37641 z m 49.20183,-38.3858 c 1.33153,-3.24089 2.07712,-9.52886 2.07143,-17.46956 l -0.006,-8.16306 -5.5928,9.34391 c -5.20708,8.69948 -9.04271,15.68657 -9.04271,16.47243 0,0.18436 2.03237,0.21932 4.51638,0.0777 3.14215,-0.17916 4.87108,-0.0619 5.6821,0.38549 1.65957,0.91541 1.73841,0.89391 2.37145,-0.6469 z"
         style="opacity:1;fill:url(#linearGradient2236);fill-opacity:1;stroke:none;stroke-width:2.97893977;stroke-linecap:square;stroke-linejoin:round;stroke-miterlimit:4;stroke-dasharray:none;stroke-opacity:1;paint-order:normal" />
      <path
         transform="matrix(0.26458333,0,0,0.26458333,0,227)"
         inkscape:connector-curvature="0"
         id="path2215"
         d="m 252.80312,126.31233 c -0.24476,-0.39603 3.44974,-10.83281 4.10257,-11.58956 0.24463,-0.28356 28.78159,-1.50109 35.91559,-1.53233 5.56136,-0.0244 5.6821,-7.7e-4 5.6821,1.11029 0,1.7056 -3.05226,10.5272 -3.71561,10.73881 -0.73337,0.23395 -34.37206,1.77766 -38.55472,1.76931 -1.7198,-0.003 -3.26327,-0.22687 -3.42993,-0.49652 z"
         style="opacity:1;fill:url(#linearGradient2236);fill-opacity:1;stroke:none;stroke-width:2.97893977;stroke-linecap:square;stroke-linejoin:round;stroke-miterlimit:4;stroke-dasharray:none;stroke-opacity:1;paint-order:normal" />
      <path
         transform="matrix(0.26458333,0,0,0.26458333,0,227)"
         inkscape:connector-curvature="0"
         id="path2217"
         d="m 426.77348,167.1968 c -0.62041,-0.38343 -0.59822,-0.92774 0.15812,-3.87886 0.48389,-1.88806 0.87789,-3.59363 0.87555,-3.79016 -0.003,-0.19653 -2.86014,0.65579 -6.35069,1.89404 -3.49055,1.23825 -6.96992,2.25136 -7.73194,2.25136 -1.22586,0 -1.73021,-0.59644 -4.37771,-5.17703 -8.24362,-14.26278 -19.52236,-29.31038 -20.89651,-27.87923 -0.60971,0.635 -2.43693,6.76507 -5.85643,19.64753 -1.54493,5.82032 -2.85775,10.62022 -2.91736,10.66646 -0.36113,0.28009 -17.09208,3.78416 -18.54367,3.88372 -1.68245,0.11539 -1.76071,0.0481 -1.62147,-1.39399 0.21836,-2.26178 3.28775,-12.93665 6.75302,-23.48605 3.66646,-11.16186 7.98208,-22.18163 12.07431,-30.83128 1.64846,-3.48429 2.99719,-6.49581 2.99719,-6.69226 0,-0.19645 -0.57981,-0.35718 -1.28846,-0.35718 -0.97734,0 -1.45278,-0.39636 -1.96897,-1.64149 -0.91575,-2.208923 -3.41597,-14.771557 -3.21564,-16.157318 0.21771,-1.505999 1.56825,-1.732512 14.61654,-2.451482 29.09355,-1.603076 43.85824,4.493559 44.76056,18.48253 0.47437,7.35431 -2.51878,15.1071 -7.92386,20.52425 -2.72878,2.73487 -4.36358,3.84006 -8.88362,6.00571 -3.04669,1.45973 -5.62038,2.72195 -5.7193,2.80495 -0.0989,0.083 1.74075,2.49432 4.08818,5.3585 2.34744,2.86419 5.92993,7.48046 7.9611,10.25838 5.54088,7.57796 5.385,7.43782 7.2184,6.48974 0.84028,-0.43453 3.71547,-1.03284 6.3893,-1.32958 l 4.86152,-0.53953 1.67641,-5.59332 c 2.67665,-8.9306 5.85002,-17.35256 11.43281,-30.34204 2.86542,-6.66701 5.36663,-12.74687 5.55823,-13.51079 0.42407,-1.690814 0.0484,-1.727258 -6.57968,-0.638245 -2.50012,0.410785 -5.51164,0.750845 -6.69226,0.755695 -2.52109,0.0104 -2.60539,-0.31391 -1.35742,-5.22158 2.22437,-8.747461 2.72925,-9.966278 4.42121,-10.673224 1.85925,-0.776845 8.60644,-1.473605 24.55005,-2.535202 15.47706,-1.030532 19.73706,-1.010363 19.73706,0.09345 0,1.1335 -3.45632,12.17096 -4.36083,13.925957 -0.70852,1.374702 -0.76888,1.389259 -5.87993,1.418068 -2.84024,0.01601 -6.0732,0.196788 -7.18437,0.401733 -1.93525,0.356939 -1.97246,0.398988 -0.88388,0.998815 1.52609,0.840907 1.44582,1.648853 -0.68877,6.932223 -3.7519,9.28642 -9.51558,26.91706 -13.65709,41.77592 -0.23262,0.83461 0.21496,0.87073 6.85909,0.55357 5.32905,-0.25439 7.10796,-0.18966 7.10796,0.25864 0,0.62513 -4.42973,15.12383 -4.80745,15.73499 -0.11927,0.19299 -5.27989,0.47658 -11.46803,0.6302 -6.3624,0.15796 -14.76257,0.71564 -19.3324,1.28346 -11.97413,1.48786 -13.11977,1.57764 -13.90887,1.08995 z M 405.282,113.93354 c 4.98784,-0.88882 8.81005,-3.29388 10.37615,-6.52901 1.28391,-2.65218 1.29186,-3.65736 0.0452,-5.70202 -2.09754,-3.440062 -7.05817,-5.025907 -12.89271,-4.121621 -1.93961,0.300618 -4.07199,0.753945 -4.73861,1.007395 -1.13213,0.430436 -1.1577,0.520868 -0.38777,1.371629 0.45334,0.500947 0.82427,1.189967 0.82427,1.531147 0,0.34119 -1.13643,3.36623 -2.52539,6.72233 -1.38896,3.35609 -2.52538,6.1842 -2.52538,6.28469 0,0.46621 8.25047,0.0723 11.82428,-0.56454 z"
         style="opacity:1;fill:url(#linearGradient2236);fill-opacity:1;stroke:none;stroke-width:2.97893977;stroke-linecap:square;stroke-linejoin:round;stroke-miterlimit:4;stroke-dasharray:none;stroke-opacity:1;paint-order:normal" />
      <path
         transform="matrix(0.26458333,0,0,0.26458333,0,227)"
         inkscape:connector-curvature="0"
         id="path2219"
         d="m 478.15249,164.8096 c 0.72343,-2.02787 8.18445,-17.71044 12.55522,-26.39023 5.04207,-10.01293 11.44206,-20.43836 20.3835,-33.20424 6.12885,-8.750282 13.96151,-19.002859 16.7168,-21.881489 l 1.76777,-1.846899 7.01453,-0.354314 c 4.33173,-0.218802 7.20095,-0.1679 7.50194,0.133088 0.30499,0.304987 0.39852,8.114135 0.24991,20.865674 -0.18439,15.82129 -0.42414,21.45125 -1.07215,25.1765 -4.1255,23.71662 -5.54361,31.14656 -6.04216,31.6567 -0.47249,0.48349 -9.15817,2.58861 -18.4585,4.47373 l -1.71505,0.34763 0.31752,-1.98567 c 0.17464,-1.09212 1.68509,-6.48685 3.35655,-11.98829 1.67147,-5.50144 3.03903,-10.08804 3.03903,-10.19245 0,-0.1044 -3.48899,-0.18982 -7.7533,-0.18982 h -7.75331 l -3.03223,6.43972 c -1.66772,3.54185 -3.77711,8.42775 -4.68752,10.85757 -1.56372,4.17346 -1.75638,4.4448 -3.48287,4.9052 -6.8837,1.83568 -16.65027,4.06147 -17.82137,4.06147 -1.11639,0 -1.33582,-0.17887 -1.08431,-0.88388 z m 49.66486,-38.5295 c 0.78061,-1.45859 1.89696,-10.66507 2.2639,-18.67039 l 0.31256,-6.81853 -1.30185,1.51523 c -2.51274,2.92458 -13.91085,22.4247 -13.91085,23.79895 0,0.18793 2.00809,0.2116 4.46243,0.0526 3.22402,-0.20887 4.80093,-0.1032 5.68211,0.38079 1.68815,0.92722 1.86698,0.90866 2.4917,-0.25864 z"
         style="opacity:1;fill:url(#linearGradient2236);fill-opacity:1;stroke:none;stroke-width:2.97893977;stroke-linecap:square;stroke-linejoin:round;stroke-miterlimit:4;stroke-dasharray:none;stroke-opacity:1;paint-order:normal" />
    </g>
  </g>
</svg>
