<svg id="Layer_1" data-name="Layer 1" xmlns="http://www.w3.org/2000/svg" viewBox="0 0 178.65 228.41"><defs><style>.cls-1{fill:#363f44;}.cls-2{fill:none;stroke:#363f44;stroke-linejoin:round;stroke-width:1.64px;}</style></defs><title>Tips &amp;amp; Tricks</title><path class="cls-1" d="M729,423.18c-12.67,5.46-29.87,8.26-47,8.26s-34.32-2.8-47-8.26L627,475.37a10.13,10.13,0,0,0,1.29,6.79c3.13,5.12,14.88,13.78,37.1,16.73,7.9,1.05,25.42,1.05,33.32,0,22.22-2.95,34-11.61,37.09-16.73a10.08,10.08,0,0,0,1.3-6.79Z" transform="translate(-593.55 -271.27)"/><path class="cls-1" d="M657,348.13l9.76-5.45s9.38,6.39,9.38,50.13h-2.6S673.29,361,657,348.13Z" transform="translate(-593.55 -271.27)"/><path class="cls-1" d="M625.19,359.29l6.15-6.78s31,6.69,31,44.48h-2.61S661,371.28,625.19,359.29Z" transform="translate(-593.55 -271.27)"/><path class="cls-1" d="M710.18,351.23l-4.44-8.49s-14.89,9.4-15.56,50.07h2.61S692,362.27,710.18,351.23Z" transform="translate(-593.55 -271.27)"/><path class="cls-1" d="M717.45,381.46a37,37,0,0,0-5.74,12.18c4.8,2,7.65,4.52,7.65,7.25,0,6.6-16.7,11.95-37.3,11.95s-37.3-5.35-37.3-11.95c0-2.83,3-5.42,8.15-7.46a29.85,29.85,0,0,0-5.25-12.25c-15.59,4.34-25.79,11.55-25.79,19.71,0,13.26,26.94,24,60.19,24s60.19-10.75,60.19-24C742.25,392.9,732.48,385.83,717.45,381.46Z" transform="translate(-593.55 -271.27)"/><path class="cls-1" d="M737.45,362.26l-4.82-8.52s-29.78,1.78-30.47,45.21h2.61S705.32,366.62,737.45,362.26Z" transform="translate(-593.55 -271.27)"/><polygon class="cls-1" points="143.18 59.8 129.74 60.38 122.6 71.78 117.89 59.18 104.85 55.91 115.38 47.54 114.46 34.12 125.67 41.55 138.15 36.53 134.54 49.49 143.18 59.8"/><polygon class="cls-1" points="107.28 26.98 102.29 25.36 98.12 28.55 98.12 23.3 93.8 20.33 98.79 18.7 100.28 13.67 103.37 17.92 108.61 17.79 105.53 22.03 107.28 26.98"/><polygon class="cls-1" points="176.11 88.82 166.16 85.66 157.91 92.08 157.84 81.63 149.19 75.77 159.1 72.47 162.01 62.44 168.21 70.85 178.65 70.51 172.56 79 176.11 88.82"/><polygon class="cls-1" points="99.65 75.22 94.23 72.79 89.16 75.89 89.79 69.98 85.28 66.12 91.09 64.89 93.37 59.41 96.33 64.56 102.25 65.03 98.27 69.44 99.65 75.22"/><polygon class="cls-1" points="19.25 89.11 12.56 87 7.03 91.32 6.97 84.3 1.15 80.38 7.81 78.15 9.75 71.41 13.92 77.05 20.93 76.81 16.86 82.52 19.25 89.11"/><polygon class="cls-2" points="16.06 46.07 12.57 50.12 13.93 55.29 9.01 53.23 4.52 56.12 4.95 50.79 0.82 47.41 6.01 46.19 7.95 41.21 10.72 45.77 16.06 46.07"/><polygon class="cls-2" points="167.95 46.21 162.72 47.32 160.68 52.26 158.01 47.63 152.68 47.22 156.25 43.24 155 38.05 159.88 40.22 164.44 37.43 163.88 42.74 167.95 46.21"/><polygon class="cls-2" points="75.53 10.78 73.47 8.7 70.6 9.22 71.94 6.62 70.55 4.04 73.44 4.51 75.46 2.4 75.91 5.29 78.54 6.56 75.93 7.88 75.53 10.78"/><path class="cls-1" d="M634.14,294.23a23.3,23.3,0,1,0,31.55,9.49A23.28,23.28,0,0,0,634.14,294.23Zm20.63,38.39A20.29,20.29,0,1,1,663,305.14,20.29,20.29,0,0,1,654.77,332.62Zm-1.76-31a1.5,1.5,0,0,1-.13,2.12,71.72,71.72,0,0,1-6.58,5.36c5.15,9.48,7.31,11,10.08,13.36a1.88,1.88,0,1,1-2.43,2.86,29.67,29.67,0,0,1-5.89-6.14l-.8.43a30,30,0,0,1,1.87,8.3,1.88,1.88,0,1,1-3.73.45c-.44-3.61-.51-6.25-5.57-15.78a73.45,73.45,0,0,1-8.1,2.53,1.5,1.5,0,1,1-.78-2.9c9.81-2.63,12.32-4,19.93-10.72a1.51,1.51,0,0,1,2.13.13ZM636.39,306a3.59,3.59,0,1,1,4.86,1.46,3.59,3.59,0,0,1-4.86-1.46Z" transform="translate(-593.55 -271.27)"/><path class="cls-1" d="M736.85,273.51a13.25,13.25,0,1,0,3.66,18.39A13.25,13.25,0,0,0,736.85,273.51Zm-13.78,20.62a11.55,11.55,0,1,1,16-3.19A11.55,11.55,0,0,1,723.07,294.13ZM738.18,285a.85.85,0,0,1-1.1.5,41.62,41.62,0,0,1-4.45-1.87c-3.39,5.12-3.57,6.61-4,8.63a1.07,1.07,0,1,1-2.09-.46,17.06,17.06,0,0,1,1.52-4.6l-.43-.29a17,17,0,0,1-3.67,3.16,1.07,1.07,0,1,1-1.23-1.75c1.7-1.19,3-1.93,6.44-7a40.41,40.41,0,0,1-3.43-3.39A.86.86,0,1,1,727,276.7c3.94,4.23,5.28,5.13,10.71,7.16a.85.85,0,0,1,.5,1.1Zm-6.64-7.17a2,2,0,1,1,.56,2.83,2,2,0,0,1-.56-2.83Z" transform="translate(-593.55 -271.27)"/></svg>