<svg id="Layer_1" data-name="Layer 1" xmlns="http://www.w3.org/2000/svg" viewBox="0 0 238.79 198.58"><defs><style>.cls-1{fill:#363f44;}</style></defs><title>Tools</title><path class="cls-1" d="M797,285.09H570.13a6,6,0,0,0-6,6V444.33a6,6,0,0,0,6,6H797a6,6,0,0,0,6-6V291.07A6,6,0,0,0,797,285.09Zm-3.91,134.59a1.37,1.37,0,0,1-1.37,1.38H575.42a1.38,1.38,0,0,1-1.38-1.38v-123a1.38,1.38,0,0,1,1.38-1.37H791.68a1.37,1.37,0,0,1,1.37,1.37Z" transform="translate(-564.15 -285.09)"/><path class="cls-1" d="M723.67,481.1a2.83,2.83,0,0,0,0-.29h0a2.34,2.34,0,0,0-.09-.46,1.21,1.21,0,0,0,0-.14l-.12-.28-.09-.15-.16-.23a.69.69,0,0,0-.11-.13,1.26,1.26,0,0,0-.2-.2l-.12-.12-.25-.17a.91.91,0,0,0-.13-.08,2,2,0,0,0-.41-.2h0a2.77,2.77,0,0,0-.41-.12,19.86,19.86,0,0,1-3.39-1.21c-3.07-1.38-7.67-4.66-8-13.63v-4.56a2.39,2.39,0,0,0-2.39-2.38H659.33a2.39,2.39,0,0,0-2.39,2.38v4.56c-.31,9-4.91,12.25-8,13.63a19.86,19.86,0,0,1-3.39,1.21,2.77,2.77,0,0,0-.41.12h0a2,2,0,0,0-.41.2.91.91,0,0,0-.13.08l-.25.17-.12.12a1.26,1.26,0,0,0-.2.2.69.69,0,0,0-.11.13l-.16.23-.09.15-.12.28a1.21,1.21,0,0,0-.05.14,2.34,2.34,0,0,0-.09.46h0a2.83,2.83,0,0,0,0,.29,2.16,2.16,0,0,0,.09.62,2.61,2.61,0,0,0,2.51,2h75.06a2.61,2.61,0,0,0,2.42-1.67A2.5,2.5,0,0,0,723.67,481.1Z" transform="translate(-564.15 -285.09)"/><path class="cls-1" d="M621.54,338a11.64,11.64,0,0,1,.78-4.62,6.26,6.26,0,0,1,2.26-2.79,8.75,8.75,0,0,1,3.5-1.38,25.22,25.22,0,0,1,4.58-.38h3v6.41h-3.09c-1.53,0-2.53.45-3,1.34a7.06,7.06,0,0,0-.71,3.3v10.65a11.61,11.61,0,0,1-.78,4.45,5,5,0,0,1-3.33,2.76,5.2,5.2,0,0,1,3.2,2.46,8.1,8.1,0,0,1,.91,3.87v11.52a7.07,7.07,0,0,0,.71,3.31c.47.89,1.47,1.34,3,1.34h3.09v6.4h-3a25.27,25.27,0,0,1-4.58-.37,8.75,8.75,0,0,1-3.5-1.38,6.32,6.32,0,0,1-2.26-2.79,11.64,11.64,0,0,1-.78-4.62V366.19a6.62,6.62,0,0,0-1-3.91,4,4,0,0,0-3.41-1.35h-.4v-6.46h.4a4,4,0,0,0,3.37-1.32,5.6,5.6,0,0,0,1-3.54Z" transform="translate(-564.15 -285.09)"/><path class="cls-1" d="M745.55,349.61a5.66,5.66,0,0,0,1,3.54,4,4,0,0,0,3.37,1.32h.4v6.46h-.4a3.91,3.91,0,0,0-3.4,1.35,6.54,6.54,0,0,0-1,3.91v11.25a11.64,11.64,0,0,1-.78,4.62,6.3,6.3,0,0,1-2.25,2.79,8.87,8.87,0,0,1-3.54,1.38,25.48,25.48,0,0,1-4.55.37h-3v-6.4h3.1c1.52,0,2.52-.45,3-1.34a7.08,7.08,0,0,0,.7-3.31V364a8.22,8.22,0,0,1,.91-3.87,5.22,5.22,0,0,1,3.2-2.46,5.07,5.07,0,0,1-3.33-2.76,11.61,11.61,0,0,1-.78-4.45V339.84a7.06,7.06,0,0,0-.7-3.3c-.48-.89-1.48-1.34-3-1.34h-3.1v-6.41h3a25.43,25.43,0,0,1,4.55.38,8.87,8.87,0,0,1,3.54,1.38,6.25,6.25,0,0,1,2.25,2.79,11.64,11.64,0,0,1,.78,4.62Z" transform="translate(-564.15 -285.09)"/><path class="cls-1" d="M648.37,371.46c0-2,.23-2.32,2-2.7,2.24-.46,2.19-.25,2.45-2.5a14,14,0,0,1,.57-2.49,1.3,1.3,0,0,0-.55-1.6c-.55-.36-1.1-.72-1.63-1.1a1.54,1.54,0,0,1-.62-1.87,12.28,12.28,0,0,1,3.26-5.05,1.62,1.62,0,0,1,2.21-.2c.52.31,1,.68,1.52,1a1.34,1.34,0,0,0,1.75-.08,17.7,17.7,0,0,1,3-2,1.16,1.16,0,0,0,.66-1.45c-.15-.62-.26-1.24-.36-1.87a1.65,1.65,0,0,1,1-1.91,12.35,12.35,0,0,1,5.89-1.17,1.6,1.6,0,0,1,1.52,1.28c.18.65.31,1.32.43,2a1.21,1.21,0,0,0,1.18,1.09,20.07,20.07,0,0,1,3.44.65c1,.27,1.29.13,1.85-.7.3-.44.58-.9.9-1.33a1.6,1.6,0,0,1,2-.69,12.26,12.26,0,0,1,5,3.31,1.59,1.59,0,0,1,.18,2.09c-.36.58-.75,1.14-1.13,1.71a1.11,1.11,0,0,0,.08,1.47,20.16,20.16,0,0,1,2.07,3.1,1.29,1.29,0,0,0,1.58.72c.54-.14,1.09-.24,1.65-.34a1.69,1.69,0,0,1,2.08,1.06,12.77,12.77,0,0,1,1.17,5.54,1.74,1.74,0,0,1-1.53,1.86c-.61.15-1.24.25-1.86.38a1.15,1.15,0,0,0-1,1.1,20.93,20.93,0,0,1-.68,3.51c-.29,1-.16,1.3.73,1.89.45.29.9.58,1.34.89a1.55,1.55,0,0,1,.67,2,12.45,12.45,0,0,1-3.23,5,1.63,1.63,0,0,1-2.2.22c-.54-.33-1.06-.7-1.59-1.05a1.3,1.3,0,0,0-1.63.06,22.54,22.54,0,0,1-3.23,2.13,1.17,1.17,0,0,0-.54,1.39c.1.6.24,1.2.35,1.79a1.65,1.65,0,0,1-1,2,13.06,13.06,0,0,1-5.47,1.17,1.77,1.77,0,0,1-2-1.62c-.14-.6-.25-1.2-.38-1.79a1.14,1.14,0,0,0-1.12-1,18.25,18.25,0,0,1-3.37-.65c-1-.29-1.38-.15-2,.73-.3.44-.59.9-.9,1.33a1.57,1.57,0,0,1-1.91.68,11.83,11.83,0,0,1-5.18-3.44,1.56,1.56,0,0,1-.12-2c.34-.57.72-1.11,1.08-1.65a1.26,1.26,0,0,0-.1-1.67,16.64,16.64,0,0,1-2-3,1.26,1.26,0,0,0-1.57-.72c-.52.12-1,.22-1.58.32a1.78,1.78,0,0,1-2.26-1.23A11.86,11.86,0,0,1,648.37,371.46Zm32.25-2.38a9.65,9.65,0,1,0-9.66,9.68A9.64,9.64,0,0,0,680.62,369.08Z" transform="translate(-564.15 -285.09)"/><path class="cls-1" d="M718.71,342.21a11.82,11.82,0,0,1-.27,3.15,1.55,1.55,0,0,1-1.8,1.43h-.8a1.43,1.43,0,0,0-1.51.94,16.77,16.77,0,0,1-2.4,4.08,1.52,1.52,0,0,0-.07,1.73c.16.33.37.63.53,1a1.46,1.46,0,0,1-.35,1.86,16.1,16.1,0,0,1-5.54,3.2,1.52,1.52,0,0,1-2-.81c-.12-.21-.24-.42-.34-.64a1.52,1.52,0,0,0-1.66-.93,16.85,16.85,0,0,1-4.81-.07,1.35,1.35,0,0,0-1.29.55,1.57,1.57,0,0,0-.24.37c-.71,1.67-1.44,1.9-3.35,1.06a17.18,17.18,0,0,1-4.29-2.63c-1-.82-1.1-1.42-.39-2.46a2.18,2.18,0,0,0-.12-3,11.19,11.19,0,0,1-1.84-3.31,1.7,1.7,0,0,0-1.73-1.19c-2.13-.08-2.24-.16-2.54-2.32A14.84,14.84,0,0,1,682,339a1.53,1.53,0,0,1,1.78-1.44h.88a1.4,1.4,0,0,0,1.43-.93,16.43,16.43,0,0,1,2.33-4,1.52,1.52,0,0,0,.13-1.84c-1.36-2.21-.58-2.59.91-3.7a15.75,15.75,0,0,1,4.39-2.3,1.49,1.49,0,0,1,2.09.78l0,.06c.53,1.47,1.61,1.56,3,1.43a19.25,19.25,0,0,1,3.49.12,1.66,1.66,0,0,0,1.79-.81l.19-.32c.84-1.41,1.26-1.57,2.79-1A17,17,0,0,1,712,327.9a1.6,1.6,0,0,1,.43,2.32c-.17.3-.36.58-.5.89a1.49,1.49,0,0,0,.15,1.65,15.58,15.58,0,0,1,2.23,3.93,1.59,1.59,0,0,0,1.64,1.1h.81a1.48,1.48,0,0,1,1.65,1.32A11.61,11.61,0,0,1,718.71,342.21Zm-10.15-.07a8.33,8.33,0,1,0-8.35,8.37A8.34,8.34,0,0,0,708.56,342.14Z" transform="translate(-564.15 -285.09)"/></svg>