<?xml version="1.0" encoding="UTF-8" standalone="no"?>
<!-- Created with Inkscape (http://www.inkscape.org/) -->

<svg
   xmlns:dc="http://purl.org/dc/elements/1.1/"
   xmlns:cc="http://creativecommons.org/ns#"
   xmlns:rdf="http://www.w3.org/1999/02/22-rdf-syntax-ns#"
   xmlns:svg="http://www.w3.org/2000/svg"
   xmlns="http://www.w3.org/2000/svg"
   xmlns:sodipodi="http://sodipodi.sourceforge.net/DTD/sodipodi-0.dtd"
   xmlns:inkscape="http://www.inkscape.org/namespaces/inkscape"
   width="280mm"
   height="310mm"
   viewBox="0 0 280 310"
   version="1.1"
   id="svg5199"
   inkscape:version="0.92.3 (2405546, 2018-03-11)"
   sodipodi:docname="entitytweet.svg">
  <defs
     id="defs5193" />
  <sodipodi:namedview
     id="base"
     pagecolor="#ffffff"
     bordercolor="#666666"
     borderopacity="1.0"
     inkscape:pageopacity="0.0"
     inkscape:pageshadow="2"
     inkscape:zoom="0.98994949"
     inkscape:cx="-30.633649"
     inkscape:cy="561.20903"
     inkscape:document-units="mm"
     inkscape:current-layer="layer1"
     showgrid="false"
     inkscape:window-width="3440"
     inkscape:window-height="1377"
     inkscape:window-x="-8"
     inkscape:window-y="-8"
     inkscape:window-maximized="1" />
  <metadata
     id="metadata5196">
    <rdf:RDF>
      <cc:Work
         rdf:about="">
        <dc:format>image/svg+xml</dc:format>
        <dc:type
           rdf:resource="http://purl.org/dc/dcmitype/StillImage" />
        <dc:title></dc:title>
      </cc:Work>
    </rdf:RDF>
  </metadata>
  <g
     inkscape:label="Layer 1"
     inkscape:groupmode="layer"
     id="layer1"
     transform="translate(0,13)">
    <path
       id="path826"
       transform="scale(0.26458333)"
       style="fill:#ffffff;stroke-width:1.84117436"
       d="m 374.13672,199.49023 c 0.15229,0.12201 -0.0379,-0.0305 0.11719,0.0937 -0.57726,-0.15099 0.64391,0.17738 0.125,-0.0215 -0.071,-0.0272 -0.16215,-0.0479 -0.24219,-0.0723 z m -33.41992,43.24024 c -102.41123,-0.01 -107.37651,0.40185 -129.67188,10.76367 -15.43992,7.17577 -37.3016,26.70479 -46.43164,41.47656 -3.91043,6.32672 -8.98095,17.42891 -11.26758,24.67383 -4.02171,12.74211 -4.19632,17.50045 -5.35547,145.60742 -0.65916,72.8391 -0.5818,136.06595 0.17188,140.50391 1.6914,9.95992 10.87285,22.63766 19.77734,27.30859 15.3941,8.07493 34.60707,6.14136 46.46485,-4.67773 13.62453,-12.43121 13.05664,-6.52098 13.05664,-135.9707 0,-106.12351 0.29084,-116.95393 3.23047,-119.8418 3.96607,-3.89631 11.06475,-4.10569 15.17968,-0.44727 2.76741,2.46009 3.06836,33.90643 3.06836,320.21289 0,219.31798 0.64773,320.16576 2.09375,326.16016 3.62709,15.0359 19.12142,29.5832 35.46875,33.3008 9.89921,2.2511 32.67014,0.1961 41.91602,-3.7832 9.64885,-4.1526 19.16937,-13.2518 24.22851,-23.1543 3.40805,-6.6709 3.61291,-14.6464 3.64844,-145.50588 0.0422,-136.10732 0.10984,-138.50659 3.94922,-141.91992 4.59743,-4.08737 9.50645,-4.42212 14.75977,-1.00781 3.6858,2.3955 3.81819,6.45524 4.76757,147.12695 l 0.97461,144.66606 4.4336,7.375 c 6.09641,10.1459 16.88209,16.1422 31.07422,17.2753 15.17809,1.212 26.47838,-1.7537 34.76953,-9.125 13.87725,-12.3374 12.99139,-1.4664 12.78125,-156.94917 -0.1914,-141.46152 0.14842,-149.14258 6.59179,-149.46875 1.17003,-0.0593 24.11412,-0.015 50.98633,0.0977 26.87222,0.11305 50.37761,-0.3122 52.23438,-0.94531 4.69081,-1.60025 4.30751,-8.70591 -1.33203,-24.73047 -4.59784,-13.0645 -7.60953,-22.19693 -28.46485,-86.28906 -5.59245,-17.18668 -11.77392,-35.93517 -13.73633,-41.66406 -1.96252,-5.72886 -6.37495,-19.00883 -9.80468,-29.51172 -3.42981,-10.50297 -8.28336,-25.34587 -10.78711,-32.98438 -2.50383,-7.63853 -6.82638,-20.92034 -9.60547,-29.51367 -2.77897,-8.59336 -7.15932,-21.87314 -9.73242,-29.51172 -6.02801,-17.89451 -12.82956,-38.57081 -20.56055,-62.49609 -3.39383,-10.50293 -7.60788,-22.84478 -9.36328,-27.42578 -3.74563,-9.77518 -1.97289,-13.92985 6.31641,-14.80469 7.81061,-0.82424 12.07593,3.67255 16.77929,17.6836 2.28828,6.81678 5.77193,17.08161 7.74024,22.81054 1.96826,5.72886 6.36697,19.00883 9.77539,29.51172 6.52807,20.11665 11.99302,36.08116 20.20703,59.02539 2.73456,7.63858 5.82673,17.01282 6.87109,20.83203 1.04444,3.81929 5.92211,18.63807 10.83985,32.93164 4.91773,14.29357 8.9414,26.80521 8.9414,27.80274 0,0.9976 1.85019,4.9273 4.11133,8.73242 15.86343,26.69639 47.96206,29.21384 65.69727,5.15234 7.97268,-10.81651 8.40999,-21.57448 1.64453,-40.57617 -2.58709,-7.26603 -6.63891,-19.06936 -9.00391,-26.23047 -4.38648,-13.28235 -23.16509,-67.46047 -28.28125,-81.59375 -1.55539,-4.29672 -5.95817,-17.18674 -9.7832,-28.64453 -16.73685,-50.13447 -29.78723,-86.98358 -33.80078,-95.4414 -15.66902,-33.02017 -53.9667,-60.27273 -91.47461,-65.09376 -7.33769,-0.94308 -55.07966,-1.71774 -106.09375,-1.72265 z"
       inkscape:connector-curvature="0" />
    <text
       xml:space="preserve"
       style="font-style:normal;font-variant:normal;font-weight:normal;font-stretch:normal;font-size:10.58333302px;line-height:1.25;font-family:'Scary Halloween Font';-inkscape-font-specification:'Scary Halloween Font';letter-spacing:0px;word-spacing:0px;fill:#ffffff;fill-opacity:1;stroke:none;stroke-width:0.26458332;"
       x="139.85118"
       y="47.724701"
       id="text15518"><tspan
         sodipodi:role="line"
         id="tspan15516"
         x="139.85118"
         y="57.277824"
         style="fill:#ffffff;stroke-width:0.26458332;" /></text>
    <text
       xml:space="preserve"
       style="font-style:normal;font-variant:normal;font-weight:normal;font-stretch:normal;font-size:10.58333302px;line-height:1.25;font-family:'Scary Halloween Font';-inkscape-font-specification:'Scary Halloween Font';letter-spacing:0px;word-spacing:0px;fill:#ffffff;fill-opacity:1;stroke:none;stroke-width:0.26458332;"
       x="126.62202"
       y="41.86607"
       id="text15522"><tspan
         sodipodi:role="line"
         id="tspan15520"
         x="126.62202"
         y="51.419193"
         style="fill:#ffffff;stroke-width:0.26458332;" /></text>
    <text
       xml:space="preserve"
       style="font-style:normal;font-variant:normal;font-weight:normal;font-stretch:normal;font-size:10.58333302px;line-height:1.25;font-family:'Scary Halloween Font';-inkscape-font-specification:'Scary Halloween Font';letter-spacing:0px;word-spacing:0px;fill:#ffffff;fill-opacity:1;stroke:none;stroke-width:0.26458332;"
       x="153.45833"
       y="46.212795"
       id="text15526"><tspan
         sodipodi:role="line"
         id="tspan15524"
         x="153.45833"
         y="46.212795"
         style="fill:#ffffff;stroke-width:0.26458332;">&lt;</tspan></text>
    <path
       style="fill:#ffffff;stroke-width:0.45347792"
       d="m 149.24862,56.59904 c 2.97913,-1.442478 0.21909,-3.974151 -2.8367,-2.602013 -1.15432,0.518344 -1.43067,0.905614 -1.3003,1.822286 0.13167,0.925867 0.44575,1.185776 1.53502,1.270263 0.7532,0.05847 1.9241,-0.162302 2.60198,-0.490536 z m -3.57636,-0.95654 c -0.0952,-0.342981 0.45558,-0.783464 1.31562,-1.052014 1.20924,-0.37758 1.62058,-0.36532 2.25163,0.06708 0.66428,0.45523 0.64236,0.61805 -0.15693,1.165842 -1.10809,0.75938 -3.17958,0.649454 -3.41026,-0.180975 z m 13.05229,-4.511993 c 0.45855,-0.587177 0.4437,-1.064863 -0.059,-1.896494 -0.59085,-0.977535 -0.90813,-1.097953 -2.63048,-0.998295 -1.67636,0.09702 -2.03046,0.286091 -2.45725,1.312277 -0.75061,1.804875 -0.19358,2.367379 2.34466,2.367379 1.66011,0 2.33719,-0.189663 2.80201,-0.784867 z m -4.40889,-0.641662 c 0,-1.941372 2.30485,-2.640349 3.379,-1.024712 0.76729,1.154053 -0.15486,2.075841 -2.0766,2.075841 -1.06126,0 -1.3024,-0.194625 -1.3024,-1.051129 z m 53.68314,-3.579089 c 3.6273,-0.578288 6.96431,-1.725976 9.56054,-3.288165 l 1.92197,-1.15647 2.61251,0.587707 c 6.15235,1.384044 13.44006,1.090951 19.18496,-0.771558 1.61537,-0.52372 4.30048,-1.864465 5.96693,-2.979452 2.16979,-1.451756 3.45492,-2.02725 4.52708,-2.02725 4.69241,0 10.23133,-2.836401 11.58488,-5.932475 0.81473,-1.863569 0.28319,-4.578102 -1.13908,-5.817244 l -1.05117,-0.915811 2.14721,-1.546876 c 4.26708,-3.074065 4.31549,-7.286706 0.11863,-10.317154 -1.72754,-1.247406 -5.06371,-2.499609 -6.65951,-2.499609 -0.95231,0 -1.11741,-0.239704 -1.11741,-1.6224506 0,-7.99078836 -14.59385,-13.9150243 -26.93044,-10.93213 -1.97305,0.4770618 -2.08303,0.4549987 -4.04175,-0.8109932 -5.28296,-3.4145415 -12.70348,-4.1851113 -19.74531,-2.0504118 l -2.56414,0.7773104 -1.42608,-0.977317 C 196.40135,-8.486883 188.65139,-8.9461821 183.27785,-6.4178468 L 181.29,-5.482534 179.31269,-6.4021118 c -2.58783,-1.2035008 -6.93253,-1.8953694 -10.22447,-1.6281799 -5.09007,0.4131372 -10.24456,2.9104739 -11.63043,5.6349009 -0.37654,0.7402444 -1.26046,1.2817647 -2.85859,1.7512206 -6.4132,1.8839406 -10.22751,6.5884079 -8.60562,10.613923 0.49933,1.2393422 0.37389,1.6189142 -1.17422,3.5532962 -1.54232,1.927132 -1.73212,2.49659 -1.7227,5.168968 0.008,2.520238 0.24454,3.305129 1.46521,4.880261 2.57687,3.325251 6.7732,5.670267 12.0615,6.740341 2.05259,0.415361 2.35255,0.636381 3.1562,2.325848 1.32076,2.776493 4.16037,5.34557 5.94097,5.374981 0.39766,0.0071 1.77316,0.507087 3.05671,1.112288 3.11811,1.470216 7.5896,1.8349 12.31847,1.00466 1.89023,-0.331865 3.53511,-0.603397 3.65529,-0.603397 0.12008,0 0.69494,0.633504 1.27724,1.407773 3.40492,4.527554 13.62167,7.306039 21.97061,5.974984 z m -12.63135,-1.850213 c -4.22796,-1.281403 -6.99345,-3.074396 -8.81759,-5.716819 -0.85648,-1.240722 -1.55744,-2.467026 -1.55769,-2.725108 -10e-4,-1.018817 -1.03709,-0.396441 -1.19823,0.719713 -0.14079,0.974564 -0.51737,1.274023 -2.08893,1.660751 -2.71946,0.669212 -7.91325,0.641014 -10.0147,-0.05434 -5.00851,-1.657333 -7.38106,-2.795578 -8.8832,-4.261786 -1.52384,-1.48738 -1.64483,-1.847608 -1.65388,-4.924844 -0.006,-1.826047 -0.17226,-3.431464 -0.37091,-3.567572 -0.34244,-0.234694 -1.52703,2.142481 -1.53353,3.077437 -0.008,1.165912 -7.74613,-1.331433 -10.56316,-3.409125 -4.07248,-3.00363 -5.34878,-7.496998 -3.1324,-11.027837 1.31912,-2.101387 1.66829,-2.275949 2.75604,-1.377749 1.40353,1.158981 1.56403,-0.08311 0.24199,-1.872811 -1.63305,-2.2106061 -1.75324,-4.6415026 -0.33522,-6.7806381 1.64662,-2.4839888 7.3126,-5.39859924 8.32101,-4.2803858 0.55275,0.6129163 1.61312,0.0729344 1.61312,-0.82147417 0,-1.14915783 1.96456,-3.51953073 3.78885,-4.57151733 2.73406,-1.5766001 6.15467,-2.2770047 10.06878,-2.0616886 4.11131,0.226165 6.27196,0.9291264 9.19049,2.9901006 2.15147,1.5192935 3.54972,1.6979691 2.26631,0.2895931 -1.07825,-1.1832095 -0.81221,-1.4768991 2.21187,-2.4417571 6.14544,-1.9607498 13.19161,-0.5474545 16.03099,3.2154379 1.02196,1.3543383 2.41569,1.5124846 2.05897,0.2336281 -0.20812,-0.7461126 0.16149,-1.016156 2.40406,-1.7559218 5.33468,-1.7598567 12.37226,-1.0187694 17.16636,1.807682 l 1.91725,1.130359 -1.54549,0.8366127 c -1.03033,0.55773751 -1.36289,0.96174227 -0.9977,1.21201314 0.3652,0.25027204 1.02764,0.11677515 1.98734,-0.40059912 2.49667,-1.34586842 6.76688,-2.13099092 11.5116,-2.11650422 5.57323,0.017022 10.06464,1.30138749 13.59437,3.8874478 3.2168,2.3568164 4.40224,4.5811544 4.11112,7.7141541 -0.16149,1.7368918 -0.0373,2.4564518 0.42385,2.4564518 0.35865,0 0.78689,-0.240706 0.95161,-0.534908 0.42881,-0.765805 3.59413,-0.04173 6.16411,1.410014 6.41964,3.626407 3.57208,10.077168 -5.10971,11.575334 -1.3286,0.229259 -2.28038,0.595676 -2.15849,0.830971 0.23714,0.457776 0.70643,0.464389 3.77162,0.05305 1.88931,-0.253519 2.10481,-0.185996 3.14774,0.986353 2.62259,2.948013 0.62025,6.874928 -4.47456,8.775253 -2.28977,0.854064 -3.18117,0.973386 -6.47278,0.866312 -2.78574,-0.09065 -3.81695,0.0024 -3.81606,0.345092 6.8e-4,0.258093 0.24774,0.469258 0.54902,0.469258 1.26788,0 0.38518,1.16728 -1.81857,2.404818 -4.12136,2.314379 -8.08942,3.318202 -13.74563,3.477273 -3.80196,0.107038 -5.6248,-0.01886 -7.71675,-0.532808 -2.72797,-0.670108 -2.88192,-0.816377 -2.17313,-2.06449 0.77416,-1.363178 -1.19409,-0.61983 -3.17606,1.199533 -4.91675,4.513325 -14.86241,6.110278 -22.8941,3.676048 z m -27.49407,1.351543 c 1.01271,-0.280043 0.83078,-2.55631 -0.27389,-3.427232 -0.52724,-0.415668 -1.85976,-0.861384 -2.96115,-0.990455 -1.72858,-0.202582 -2.15951,-0.09784 -3.14979,0.764803 -1.26989,1.106382 -1.50407,2.755981 -0.4899,3.451021 0.63987,0.438514 5.50263,0.581294 6.87473,0.201863 z m -5.57,-0.354663 c -1.23319,-0.324309 -1.08237,-2.149708 0.24568,-2.973358 1.4494,-0.898919 3.71906,-0.403514 4.89654,1.0688 0.77776,0.97249 0.76144,1.087945 -0.2247,1.590528 -1.10274,0.561997 -3.41349,0.709563 -4.91752,0.31403 z"
       id="path856"
       inkscape:connector-curvature="0" />
    <path
       inkscape:connector-curvature="0"
       d="m 76.006624,46.593073 v -24.1035 c 0,-4.017251 2.895714,-6.025875 7.721899,-6.025875 h 21.235237 c 4.82619,0 7.7219,2.008624 7.7219,6.025875 v 24.1035 c 0,4.01725 -2.89571,6.025875 -7.7219,6.025875 H 83.728523 c -4.826185,0 -7.721899,-2.008625 -7.721899,-6.025875 z m 5.308797,-8.034499 c 4.826203,6.52803 11.582857,8.988595 22.200489,8.988595 V 45.58876 c -8.204531,0 -15.443816,-3.012938 -19.787387,-9.038813 z m 0,-10.043126 1.689182,1.25539 c 0.72392,-1.506469 2.171777,-2.761859 4.102247,-2.761859 1.930488,0 3.137039,1.004313 4.102265,2.761859 l 1.689163,-1.25539 C 91.933052,26.255745 90.002564,24.24712 87.10685,24.24712 c -2.895715,0 -4.826185,2.008625 -5.791429,4.268328 z m 15.926428,-0.502156 c 0,2.761859 1.496123,5.021562 3.378341,5.021562 1.88221,0 3.37833,-2.259703 3.37833,-5.021562 0,-2.76186 -1.49612,-5.021563 -3.37833,-5.021563 -1.882218,0 -3.378341,2.259703 -3.378341,5.021563 z"
       id="path874"
       style="fill:#ffffff;stroke-width:0.49229071" />
    <path
       style="fill:#ffffff;stroke-width:0.06895911"
       d=""
       id="path6418"
       inkscape:connector-curvature="0" />
    <path
       style="fill:#ffffff;stroke-width:0.06895911"
       d=""
       id="path6416"
       inkscape:connector-curvature="0" />
    <path
       style="fill:#ffffff;stroke-width:0.10816167"
       d="m 195.376,35.288413 c -2.59889,-0.16728 -5.46794,-0.74216 -7.99563,-1.60211 -1.50417,-0.51173 -4.55315,-1.83459 -4.76881,-2.06903 -0.19909,-0.21643 -0.16249,-0.82265 0.0619,-1.02509 0.16313,-0.14718 0.52307,-0.18829 2.15789,-0.24646 3.18692,-0.11339 5.26052,-0.5108 7.22846,-1.38536 l 1.05306,-0.46798 -1.05306,-0.67166 c -3.03531,-1.93598 -5.09536,-3.94814 -5.50664,-5.37864 -0.26494,-0.92148 0.15987,-1.39635 1.12895,-1.26197 l 0.47781,0.0663 -0.74972,-0.70803 c -1.99699,-1.88596 -3.47788,-4.34764 -3.80606,-6.32679 -0.072,-0.43419 -0.0499,-0.50902 0.22345,-0.75561 0.24729,-0.22311 0.3705,-0.26186 0.66668,-0.2097 0.19984,0.0352 0.59922,0.0915 0.88753,0.12513 l 0.5242,0.0611 -0.42307,-0.78252 c -0.8373,-1.5487 -1.25212,-3.1654399 -1.25074,-4.8745999 0.001,-1.75953 0.47704,-3.18655 1.16155,-3.48508 0.45387,-0.19794 0.83802,-0.0142 1.12603,0.53861 0.39875,0.76535 2.61844,2.49771 5.05634,3.94623 2.41419,1.4344299 5.40395,2.5680199 7.74397,2.9361799 1.27327,0.20032 4.61141,0.22093 4.61093,0.0285 -2.2e-4,-0.0706 -0.0561,-0.53868 -0.12425,-1.0401 -0.22845,-1.6805499 0.2622,-3.9439199 1.17203,-5.4066299 0.88803,-1.42765 2.15723,-2.54066 3.74937,-3.28798 1.29464,-0.607672 2.38455,-0.837522 3.9714,-0.837522 2.02804,0 3.80872,0.502378 5.68669,1.604362 0.63664,0.37358 1.13012,0.58526 1.47238,0.63156 0.74794,0.1012 3.07352,-0.0321 4.45452,-0.25522 1.2317,-0.19905 1.39923,-0.19228 1.73802,0.0702 0.36938,0.28623 0.23876,0.7043 -0.59784,1.91343 -0.43841,0.63363 -0.79711,1.18158 -0.79711,1.21765 0,0.0361 0.44304,0.0789 0.98452,0.0953 0.91561,0.0276 1.00034,0.0488 1.2105,0.30327 0.15254,0.18467 0.20291,0.35653 0.15497,0.52883 -0.0391,0.14038 -0.68808,0.87255 -1.44227,1.62704 -2.18718,2.1880299 -2.26297,2.3264999 -2.95998,5.4080099 -0.8486,3.7517 -1.49804,5.59557 -2.84829,8.08673 -3.09792,5.71555 -8.29423,9.90036 -14.63949,11.78981 -3.1639,0.94212 -6.44134,1.31222 -9.74019,1.09989 z m 5.65158,-1.73667 c 7.58485,-1.13787 13.72847,-5.36426 17.26443,-11.87674 1.10531,-2.03575 1.90113,-4.29109 2.6026,-7.3757 0.80655,-3.54675 0.98936,-3.94187 2.55075,-5.5132099 l 0.86773,-0.87326 -0.86274,-0.0514 c -0.68049,-0.0405 -0.89682,-0.0935 -1.02409,-0.25079 -0.30525,-0.37726 -0.18732,-0.74647 0.57851,-1.8112 l 0.73987,-1.02863 -0.88221,0.0813 c -1.25761,0.11591 -3.18553,0.0827 -3.78597,-0.0651 -0.28184,-0.0694 -0.89675,-0.35173 -1.36648,-0.62739 -2.38264,-1.39824 -4.59644,-1.83508 -6.76451,-1.33481 -1.29197,0.29812 -2.15417,0.75459 -3.20583,1.69724 -1.92455,1.72505 -2.688,4.10846 -2.15566,6.7296999 0.10902,0.5368 0.22141,1.09242 0.24976,1.23472 0.0356,0.17888 -0.0374,0.3453 -0.23675,0.53936 l -0.28829,0.28066 h -2.80591 c -2.34432,0 -2.98681,-0.0333 -3.90559,-0.2025 -4.1217,-0.75899 -8.25718,-2.84657 -11.76275,-5.9377899 l -0.87,-0.76716 -0.0808,0.53038 c -0.25421,1.66753 0.49575,4.3161599 1.70504,6.0217099 0.23576,0.3325 0.45359,0.77228 0.48406,0.97727 0.0465,0.31285 0.007,0.40712 -0.24645,0.58694 -0.3323,0.23583 -1.19634,0.43494 -1.8874,0.43494 h -0.44483 l 0.16221,0.41479 c 0.29163,0.74572 1.12161,2.0867 1.77808,2.87278 0.6458,0.77331 2.5167,2.47987 3.09059,2.81913 0.17622,0.10417 0.35508,0.33911 0.42023,0.55196 0.20838,0.68091 -0.21651,0.93543 -1.85087,1.10874 l -0.6422,0.0681 0.22941,0.26878 c 1.06654,1.24953 4.03303,3.48755 5.749,4.33723 0.9092,0.4502 1.13378,0.71596 1.00282,1.18672 -0.16147,0.58041 -3.00904,2.03991 -4.96609,2.54533 -1.10161,0.28449 -2.78841,0.57171 -3.36059,0.57221 -0.20355,2.1e-4 -0.37009,0.042 -0.37009,0.093 0,0.0972 0.13646,0.14829 1.70809,0.63983 2.13076,0.66642 4.37922,1.12678 6.43383,1.31729 1.51586,0.14056 4.55707,0.0444 6.14914,-0.19446 z"
       id="path6431"
       inkscape:connector-curvature="0" />
  </g>
</svg>
