<?xml version="1.0" encoding="UTF-8" standalone="no"?>
<!-- Created with Inkscape (http://www.inkscape.org/) -->

<svg
   xmlns:dc="http://purl.org/dc/elements/1.1/"
   xmlns:cc="http://creativecommons.org/ns#"
   xmlns:rdf="http://www.w3.org/1999/02/22-rdf-syntax-ns#"
   xmlns:svg="http://www.w3.org/2000/svg"
   xmlns="http://www.w3.org/2000/svg"
   xmlns:sodipodi="http://sodipodi.sourceforge.net/DTD/sodipodi-0.dtd"
   xmlns:inkscape="http://www.inkscape.org/namespaces/inkscape"
   width="210mm"
   height="297mm"
   viewBox="0 0 210 297"
   version="1.1"
   id="svg5199"
   inkscape:version="0.92.3 (2405546, 2018-03-11)"
   sodipodi:docname="entityChoice.svg">
  <defs
     id="defs5193" />
  <sodipodi:namedview
     id="base"
     pagecolor="#ffffff"
     bordercolor="#666666"
     borderopacity="1.0"
     inkscape:pageopacity="0.0"
     inkscape:pageshadow="2"
     inkscape:zoom="0.98994949"
     inkscape:cx="137.55675"
     inkscape:cy="884.45785"
     inkscape:document-units="mm"
     inkscape:current-layer="layer1"
     showgrid="false"
     inkscape:window-width="3440"
     inkscape:window-height="1377"
     inkscape:window-x="-8"
     inkscape:window-y="-8"
     inkscape:window-maximized="1" />
  <metadata
     id="metadata5196">
    <rdf:RDF>
      <cc:Work
         rdf:about="">
        <dc:format>image/svg+xml</dc:format>
        <dc:type
           rdf:resource="http://purl.org/dc/dcmitype/StillImage" />
        <dc:title></dc:title>
      </cc:Work>
    </rdf:RDF>
  </metadata>
  <g
     inkscape:label="Layer 1"
     inkscape:groupmode="layer"
     id="layer1">
    <path
       id="path826"
       transform="scale(0.26458333)"
       style="fill:#ffffff;stroke-width:1.84117436"
       d="m 374.13672,199.49023 c 0.15229,0.12201 -0.0379,-0.0305 0.11719,0.0937 -0.57726,-0.15099 0.64391,0.17738 0.125,-0.0215 -0.071,-0.0272 -0.16215,-0.0479 -0.24219,-0.0723 z m -33.41992,43.24024 c -102.41123,-0.01 -107.37651,0.40185 -129.67188,10.76367 -15.43992,7.17577 -37.3016,26.70479 -46.43164,41.47656 -3.91043,6.32672 -8.98095,17.42891 -11.26758,24.67383 -4.02171,12.74211 -4.19632,17.50045 -5.35547,145.60742 -0.65916,72.8391 -0.5818,136.06595 0.17188,140.50391 1.6914,9.95992 10.87285,22.63766 19.77734,27.30859 15.3941,8.07493 34.60707,6.14136 46.46485,-4.67773 13.62453,-12.43121 13.05664,-6.52098 13.05664,-135.9707 0,-106.12351 0.29084,-116.95393 3.23047,-119.8418 3.96607,-3.89631 11.06475,-4.10569 15.17968,-0.44727 2.76741,2.46009 3.06836,33.90643 3.06836,320.21289 0,219.31798 0.64773,320.16576 2.09375,326.16016 3.62709,15.0359 19.12142,29.5832 35.46875,33.3008 9.89921,2.2511 32.67014,0.1961 41.91602,-3.7832 9.64885,-4.1526 19.16937,-13.2518 24.22851,-23.1543 3.40805,-6.6709 3.61291,-14.6464 3.64844,-145.50588 0.0422,-136.10732 0.10984,-138.50659 3.94922,-141.91992 4.59743,-4.08737 9.50645,-4.42212 14.75977,-1.00781 3.6858,2.3955 3.81819,6.45524 4.76757,147.12695 l 0.97461,144.66606 4.4336,7.375 c 6.09641,10.1459 16.88209,16.1422 31.07422,17.2753 15.17809,1.212 26.47838,-1.7537 34.76953,-9.125 13.87725,-12.3374 12.99139,-1.4664 12.78125,-156.94917 -0.1914,-141.46152 0.14842,-149.14258 6.59179,-149.46875 1.17003,-0.0593 24.11412,-0.015 50.98633,0.0977 26.87222,0.11305 50.37761,-0.3122 52.23438,-0.94531 4.69081,-1.60025 4.30751,-8.70591 -1.33203,-24.73047 -4.59784,-13.0645 -7.60953,-22.19693 -28.46485,-86.28906 -5.59245,-17.18668 -11.77392,-35.93517 -13.73633,-41.66406 -1.96252,-5.72886 -6.37495,-19.00883 -9.80468,-29.51172 -3.42981,-10.50297 -8.28336,-25.34587 -10.78711,-32.98438 -2.50383,-7.63853 -6.82638,-20.92034 -9.60547,-29.51367 -2.77897,-8.59336 -7.15932,-21.87314 -9.73242,-29.51172 -6.02801,-17.89451 -12.82956,-38.57081 -20.56055,-62.49609 -3.39383,-10.50293 -7.60788,-22.84478 -9.36328,-27.42578 -3.74563,-9.77518 -1.97289,-13.92985 6.31641,-14.80469 7.81061,-0.82424 12.07593,3.67255 16.77929,17.6836 2.28828,6.81678 5.77193,17.08161 7.74024,22.81054 1.96826,5.72886 6.36697,19.00883 9.77539,29.51172 6.52807,20.11665 11.99302,36.08116 20.20703,59.02539 2.73456,7.63858 5.82673,17.01282 6.87109,20.83203 1.04444,3.81929 5.92211,18.63807 10.83985,32.93164 4.91773,14.29357 8.9414,26.80521 8.9414,27.80274 0,0.9976 1.85019,4.9273 4.11133,8.73242 15.86343,26.69639 47.96206,29.21384 65.69727,5.15234 7.97268,-10.81651 8.40999,-21.57448 1.64453,-40.57617 -2.58709,-7.26603 -6.63891,-19.06936 -9.00391,-26.23047 -4.38648,-13.28235 -23.16509,-67.46047 -28.28125,-81.59375 -1.55539,-4.29672 -5.95817,-17.18674 -9.7832,-28.64453 -16.73685,-50.13447 -29.78723,-86.98358 -33.80078,-95.4414 -15.66902,-33.02017 -53.9667,-60.27273 -91.47461,-65.09376 -7.33769,-0.94308 -55.07966,-1.71774 -106.09375,-1.72265 z" />
    <path
       inkscape:connector-curvature="0"
       d="M 76.807448,48.861897 V 25.170671 c 0,-3.948539 2.873961,-5.922807 7.6639,-5.922807 h 21.075722 c 4.78995,0 7.66391,1.974268 7.66391,5.922807 v 23.691226 c 0,3.948539 -2.87396,5.922807 -7.66391,5.922807 H 84.471348 c -4.789939,0 -7.6639,-1.974268 -7.6639,-5.922807 z m 5.268931,-17.768419 1.676478,1.233916 c 0.718491,-1.480701 2.155473,-2.714618 4.071446,-2.714618 1.915974,0 3.113459,0.987132 4.071446,2.714618 l 1.676479,-1.233916 c -0.957988,-2.221054 -2.873963,-4.195324 -5.747925,-4.195324 -2.873962,0 -4.789936,1.97427 -5.747924,4.195324 z m 12.932829,21.174033 c 5.795822,-0.493566 8.669792,-2.072982 8.669792,-3.849824 0,-0.987135 -0.91009,-2.072983 -2.68237,-3.060117 1.77228,-0.987134 2.68237,-2.072983 2.68237,-3.060116 0,-1.776842 -2.87397,-3.356258 -8.669792,-3.849824 v 2.221052 c 4.119345,0.345496 5.508432,1.135203 5.508432,1.974269 0,0.937776 -1.820181,1.974267 -3.35296,1.974267 v 1.480702 c 1.532779,0 3.35296,0.987136 3.35296,1.924913 0,0.839064 -1.389087,1.678129 -5.508432,2.023626 z m 2.873963,-21.667603 c 0,2.714622 1.48488,4.935674 3.352959,4.935674 1.86808,0 3.35296,-2.221052 3.35296,-4.935674 0,-2.714618 -1.48488,-4.935671 -3.35296,-4.935671 -1.868079,0 -3.352959,2.221053 -3.352959,4.935671 z M 116.08495,19.494646 c 0,-2.566548 2.05967,-4.688887 4.55044,-4.688887 2.49076,0 4.55043,2.122339 4.55043,4.688887 0,-2.566548 2.05967,-4.688887 4.55044,-4.688887 2.49078,0 4.55044,2.122339 4.55044,4.688887 0,2.221053 -0.95797,3.208187 -2.15547,4.442105 l -6.94541,7.156727 -6.94542,-7.156727 c -1.19748,-1.233918 -2.15545,-2.221052 -2.15545,-4.442105 z"
       id="path888"
       style="fill:#ffffff;stroke-width:0.48622581" />
    <text
       xml:space="preserve"
       style="font-style:normal;font-variant:normal;font-weight:normal;font-stretch:normal;font-size:10.58333302px;line-height:1.25;font-family:'Scary Halloween Font';-inkscape-font-specification:'Scary Halloween Font';letter-spacing:0px;word-spacing:0px;fill:#000000;fill-opacity:1;stroke:none;stroke-width:0.26458332"
       x="139.85118"
       y="47.724701"
       id="text15518"><tspan
         sodipodi:role="line"
         id="tspan15516"
         x="139.85118"
         y="57.277824"
         style="stroke-width:0.26458332" /></text>
    <text
       xml:space="preserve"
       style="font-style:normal;font-variant:normal;font-weight:normal;font-stretch:normal;font-size:10.58333302px;line-height:1.25;font-family:'Scary Halloween Font';-inkscape-font-specification:'Scary Halloween Font';letter-spacing:0px;word-spacing:0px;fill:#000000;fill-opacity:1;stroke:none;stroke-width:0.26458332"
       x="126.62202"
       y="41.86607"
       id="text15522"><tspan
         sodipodi:role="line"
         id="tspan15520"
         x="126.62202"
         y="51.419193"
         style="stroke-width:0.26458332" /></text>
    <text
       xml:space="preserve"
       style="font-style:normal;font-variant:normal;font-weight:normal;font-stretch:normal;font-size:10.58333302px;line-height:1.25;font-family:'Scary Halloween Font';-inkscape-font-specification:'Scary Halloween Font';letter-spacing:0px;word-spacing:0px;fill:#000000;fill-opacity:1;stroke:none;stroke-width:0.26458332"
       x="153.45833"
       y="46.212795"
       id="text15526"><tspan
         sodipodi:role="line"
         id="tspan15524"
         x="153.45833"
         y="46.212795"
         style="stroke-width:0.26458332">&lt;</tspan></text>
    <text
       xml:space="preserve"
       style="font-style:normal;font-variant:normal;font-weight:normal;font-stretch:normal;font-size:9.06447983px;line-height:1.25;font-family:'Scary Halloween Font';-inkscape-font-specification:'Scary Halloween Font';letter-spacing:0px;word-spacing:0px;fill:#ffffff;fill-opacity:1;stroke:none;stroke-width:0.22661199;"
       x="110.07843"
       y="-94.482544"
       id="text15534"
       transform="matrix(0.72328011,0.68850237,-0.67309929,0.7418558,0,0)"><tspan
         sodipodi:role="line"
         id="tspan15532"
         x="110.07843"
         y="-94.482544"
         style="font-style:normal;font-variant:normal;font-weight:bold;font-stretch:normal;font-size:9.06447983px;font-family:Verdana;-inkscape-font-specification:'Verdana, Bold';font-variant-ligatures:normal;font-variant-caps:normal;font-variant-numeric:normal;font-feature-settings:normal;text-align:start;writing-mode:lr-tb;text-anchor:start;stroke-width:0.22661199;fill:#ffffff;">&lt;FANCY TAGS /&gt;</tspan></text>
  </g>
</svg>
