<?xml version="1.0" encoding="UTF-8" standalone="no"?>
<!-- Created with Inkscape (http://www.inkscape.org/) -->

<svg
   xmlns:dc="http://purl.org/dc/elements/1.1/"
   xmlns:cc="http://creativecommons.org/ns#"
   xmlns:rdf="http://www.w3.org/1999/02/22-rdf-syntax-ns#"
   xmlns:svg="http://www.w3.org/2000/svg"
   xmlns="http://www.w3.org/2000/svg"
   xmlns:sodipodi="http://sodipodi.sourceforge.net/DTD/sodipodi-0.dtd"
   xmlns:inkscape="http://www.inkscape.org/namespaces/inkscape"
   width="210mm"
   height="297mm"
   viewBox="0 0 210 297"
   version="1.1"
   id="svg5199"
   inkscape:version="0.92.3 (2405546, 2018-03-11)"
   sodipodi:docname="entitysun.svg">
  <defs
     id="defs5193" />
  <sodipodi:namedview
     id="base"
     pagecolor="#ffffff"
     bordercolor="#666666"
     borderopacity="1.0"
     inkscape:pageopacity="0.0"
     inkscape:pageshadow="2"
     inkscape:zoom="0.49497475"
     inkscape:cx="39.954663"
     inkscape:cy="652.52238"
     inkscape:document-units="mm"
     inkscape:current-layer="layer1"
     showgrid="false"
     inkscape:window-width="3440"
     inkscape:window-height="1377"
     inkscape:window-x="-8"
     inkscape:window-y="-8"
     inkscape:window-maximized="1" />
  <metadata
     id="metadata5196">
    <rdf:RDF>
      <cc:Work
         rdf:about="">
        <dc:format>image/svg+xml</dc:format>
        <dc:type
           rdf:resource="http://purl.org/dc/dcmitype/StillImage" />
        <dc:title></dc:title>
      </cc:Work>
    </rdf:RDF>
  </metadata>
  <g
     inkscape:label="Layer 1"
     inkscape:groupmode="layer"
     id="layer1">
    <path
       id="path826"
       transform="scale(0.26458333)"
       style="fill:#ffffff;stroke-width:1.84117436"
       d="m 374.13672,199.49023 c 0.15229,0.12201 -0.0379,-0.0305 0.11719,0.0937 -0.57726,-0.15099 0.64391,0.17738 0.125,-0.0215 -0.071,-0.0272 -0.16215,-0.0479 -0.24219,-0.0723 z m -33.41992,43.24024 c -102.41123,-0.01 -107.37651,0.40185 -129.67188,10.76367 -15.43992,7.17577 -37.3016,26.70479 -46.43164,41.47656 -3.91043,6.32672 -8.98095,17.42891 -11.26758,24.67383 -4.02171,12.74211 -4.19632,17.50045 -5.35547,145.60742 -0.65916,72.8391 -0.5818,136.06595 0.17188,140.50391 1.6914,9.95992 10.87285,22.63766 19.77734,27.30859 15.3941,8.07493 34.60707,6.14136 46.46485,-4.67773 13.62453,-12.43121 13.05664,-6.52098 13.05664,-135.9707 0,-106.12351 0.29084,-116.95393 3.23047,-119.8418 3.96607,-3.89631 11.06475,-4.10569 15.17968,-0.44727 2.76741,2.46009 3.06836,33.90643 3.06836,320.21289 0,219.31798 0.64773,320.16576 2.09375,326.16016 3.62709,15.0359 19.12142,29.5832 35.46875,33.3008 9.89921,2.2511 32.67014,0.1961 41.91602,-3.7832 9.64885,-4.1526 19.16937,-13.2518 24.22851,-23.1543 3.40805,-6.6709 3.61291,-14.6464 3.64844,-145.50588 0.0422,-136.10732 0.10984,-138.50659 3.94922,-141.91992 4.59743,-4.08737 9.50645,-4.42212 14.75977,-1.00781 3.6858,2.3955 3.81819,6.45524 4.76757,147.12695 l 0.97461,144.66606 4.4336,7.375 c 6.09641,10.1459 16.88209,16.1422 31.07422,17.2753 15.17809,1.212 26.47838,-1.7537 34.76953,-9.125 13.87725,-12.3374 12.99139,-1.4664 12.78125,-156.94917 -0.1914,-141.46152 0.14842,-149.14258 6.59179,-149.46875 1.17003,-0.0593 24.11412,-0.015 50.98633,0.0977 26.87222,0.11305 50.37761,-0.3122 52.23438,-0.94531 4.69081,-1.60025 4.30751,-8.70591 -1.33203,-24.73047 -4.59784,-13.0645 -7.60953,-22.19693 -28.46485,-86.28906 -5.59245,-17.18668 -11.77392,-35.93517 -13.73633,-41.66406 -1.96252,-5.72886 -6.37495,-19.00883 -9.80468,-29.51172 -3.42981,-10.50297 -8.28336,-25.34587 -10.78711,-32.98438 -2.50383,-7.63853 -6.82638,-20.92034 -9.60547,-29.51367 -2.77897,-8.59336 -7.15932,-21.87314 -9.73242,-29.51172 -6.02801,-17.89451 -12.82956,-38.57081 -20.56055,-62.49609 -3.39383,-10.50293 -7.60788,-22.84478 -9.36328,-27.42578 -3.74563,-9.77518 -1.97289,-13.92985 6.31641,-14.80469 7.81061,-0.82424 12.07593,3.67255 16.77929,17.6836 2.28828,6.81678 5.77193,17.08161 7.74024,22.81054 1.96826,5.72886 6.36697,19.00883 9.77539,29.51172 6.52807,20.11665 11.99302,36.08116 20.20703,59.02539 2.73456,7.63858 5.82673,17.01282 6.87109,20.83203 1.04444,3.81929 5.92211,18.63807 10.83985,32.93164 4.91773,14.29357 8.9414,26.80521 8.9414,27.80274 0,0.9976 1.85019,4.9273 4.11133,8.73242 15.86343,26.69639 47.96206,29.21384 65.69727,5.15234 7.97268,-10.81651 8.40999,-21.57448 1.64453,-40.57617 -2.58709,-7.26603 -6.63891,-19.06936 -9.00391,-26.23047 -4.38648,-13.28235 -23.16509,-67.46047 -28.28125,-81.59375 -1.55539,-4.29672 -5.95817,-17.18674 -9.7832,-28.64453 -16.73685,-50.13447 -29.78723,-86.98358 -33.80078,-95.4414 -15.66902,-33.02017 -53.9667,-60.27273 -91.47461,-65.09376 -7.33769,-0.94308 -55.07966,-1.71774 -106.09375,-1.72265 z" />
    <path
       style="fill:#ffffff;stroke-width:0.26458332"
       d="m 176.77392,54.008556 c 0.29882,-2.758114 0.44602,-3.505729 0.69026,-3.505729 0.28334,0 0.30018,0.792213 0.0689,3.241146 -0.12202,1.291931 -0.27314,1.785938 -0.54633,1.785938 -0.30247,0 -0.34484,-0.302858 -0.21283,-1.521355 z m 11.17198,-1.574987 c -0.22866,-1.702988 -0.35707,-3.19127 -0.28537,-3.307292 0.35383,-0.572505 0.5641,0.0082 0.85776,2.368738 0.17651,1.418828 0.38514,2.907109 0.46363,3.307291 0.10265,0.523322 0.0356,0.727605 -0.23878,0.727605 -0.28686,0 -0.48463,-0.768118 -0.79724,-3.096342 z m -22.41122,0.265652 c 0,-0.72557 1.76498,-5.371394 2.04063,-5.371394 0.46024,0 0.45852,0.01003 -0.5094,2.962982 -0.49106,1.498163 -0.99385,2.593268 -1.19062,2.593268 -0.18734,0 -0.34061,-0.08319 -0.34061,-0.184856 z m 31.53314,-5.702123 c -2.594,-2.48947 -3.0633,-3.038004 -2.69356,-3.148327 0.0728,-0.02172 1.50151,1.286936 3.175,2.908101 1.67349,1.621169 2.88559,2.948618 2.69356,2.94989 -0.19203,0.0013 -1.62078,-1.218075 -3.175,-2.709664 z m -43.00553,0.655167 c -0.22736,-0.367882 4.46775,-5.592588 4.82647,-5.370886 0.20353,0.125789 -0.47672,1.091819 -1.98391,2.817374 -2.39757,2.744946 -2.60763,2.933639 -2.84256,2.553512 z m 22.18061,-1.658438 c -9.74804,-1.274759 -17.28929,-7.781366 -18.07986,-15.599333 -0.64279,-6.356531 2.40044,-12.411627 8.13085,-16.177923 2.92902,-1.925091 5.56296,-2.70637 9.16266,-2.717833 2.47067,-0.0079 3.27021,0.103556 5.29167,0.737445 6.76575,2.121607 11.70477,6.067324 14.28415,11.411437 1.38286,2.865082 1.98772,5.42626 1.98772,8.416639 0,4.321836 -1.0796,7.322137 -3.50885,9.751388 -3.32873,3.328728 -10.49845,5.063484 -17.26834,4.17818 z m 10.13278,-1.29114 c 4.98139,-1.239205 8.06748,-3.863472 9.33585,-7.938762 0.63498,-2.040173 0.69363,-6.503902 0.11756,-8.947133 -1.62088,-6.874528 -7.02686,-12.208843 -14.94858,-14.750422 -6.36384,-2.041752 -12.26334,-0.586269 -17.09135,4.216658 -2.59867,2.58517 -4.11306,5.379464 -4.79493,8.847393 -1.70144,8.653434 5.32641,16.906076 16.15582,18.971411 2.6761,0.510371 8.38559,0.307361 11.22563,-0.399145 z m -10.9851,-8.631594 c -5.50975,-1.483649 -9.53361,-6.838619 -10.03621,-13.356235 -0.15674,-2.032577 -0.14187,-2.109947 0.40567,-2.109947 0.45133,0 0.56839,0.158669 0.56839,0.770475 0,1.658231 0.83472,4.995769 1.71086,6.840674 2.92381,6.156709 9.58,8.735055 15.41932,5.972837 1.93556,-0.915596 4.01661,-2.681208 5.22049,-4.429186 1.07941,-1.567258 1.12673,-1.60231 1.68521,-1.248359 0.57689,0.365617 -0.31285,1.770247 -2.47198,3.902516 -1.98999,1.965233 -4.20056,3.252899 -6.49001,3.780449 -1.64063,0.378047 -4.35696,0.322368 -6.01174,-0.123224 z m 9.45868,-13.859478 c 0,-0.73428 -1.24054,-1.606704 -2.28464,-1.606704 -0.61504,0 -0.89036,-0.122722 -0.89036,-0.396875 0,-0.479831 1.12791,-0.529562 2.34981,-0.103606 0.89003,0.310268 1.76089,1.601024 1.51409,2.244153 -0.21065,0.548956 -0.6889,0.45387 -0.6889,-0.136968 z m -8.36314,-2.826221 c -0.70851,-0.772802 -0.99272,-0.897149 -2.05052,-0.897149 -1.34167,0 -1.64843,-0.413565 -0.51734,-0.697452 0.98582,-0.247424 2.70187,0.414683 3.35246,1.293483 0.83066,1.122042 0.19255,1.366939 -0.7846,0.301118 z m -31.70886,18.966629 c -0.0831,-0.134503 1.33227,-1.266904 3.14532,-2.516447 3.56156,-2.454597 4.26452,-2.841945 4.06901,-2.242097 -0.11363,0.348644 -6.48103,4.968753 -6.88036,4.992311 -0.10055,0.0059 -0.25084,-0.09926 -0.33397,-0.233767 z m 56.27773,-4.801647 c -0.32743,-0.125627 -0.59532,-0.351312 -0.59532,-0.501523 0,-0.340016 0.79269,-0.349314 1.32071,-0.01548 0.59221,0.374407 0.001,0.795745 -0.72539,0.517015 z m -54.04115,-8.712132 c 0,-0.16282 1.32292,-0.264583 3.43959,-0.264583 2.11666,0 3.43958,0.101763 3.43958,0.264583 0,0.162821 -1.32292,0.264584 -3.43958,0.264584 -2.11667,0 -3.43959,-0.101763 -3.43959,-0.264584 z m 50.8,-1.916005 c 0,-0.306001 0.68229,-0.41838 3.37344,-0.555632 4.5212,-0.230587 5.62239,-0.218385 5.62239,0.0623 0,0.130072 -1.10132,0.311295 -2.44739,0.402717 -1.34607,0.09142 -3.37013,0.235517 -4.49792,0.32021 -1.68552,0.126578 -2.05052,0.08571 -2.05052,-0.229594 z m -42.33333,-6.550661 c -0.54492,-0.174515 -0.56823,-0.215769 -0.13229,-0.234158 0.29104,-0.01228 0.70776,0.09309 0.92604,0.234158 0.46359,0.299593 0.14173,0.299593 -0.79375,0 z m -3.70417,-0.802111 c -1.0914,-0.265387 -2.0798,-0.389756 -2.19643,-0.276375 -0.33474,0.325406 -1.50773,-10e-4 -1.50773,-0.419556 0,-0.434837 0.35198,-0.3882 4.23333,0.560917 1.38245,0.338053 2.27542,0.615293 1.98437,0.616089 -0.29104,7.93e-4 -1.42213,-0.215689 -2.51354,-0.481075 z m 41.92825,0.259657 c -0.21881,-0.354033 -0.51777,-0.115688 2.91238,-2.321862 1.80644,-1.161852 2.97072,-1.760184 3.08025,-1.58296 0.13949,0.225695 -2.83333,2.387803 -5.50312,4.00237 -0.17184,0.103925 -0.39213,0.06003 -0.48951,-0.09755 z M 183.64682,11.32538 c -0.20394,-0.329974 0.48335,-1.17896 3.36996,-4.1628154 1.48501,-1.5350344 2.48805,-2.3808362 2.64148,-2.2273995 0.15344,0.1534366 -0.91154,1.4612437 -2.8046,3.4440805 -1.67859,1.7581924 -3.12166,3.0839524 -3.20684,2.9461344 z M 162.52657,8.9908606 c -1.70566,-2.3238627 -2.09017,-3.094055 -1.43575,-2.8759142 0.61221,0.2040694 3.7337,4.7226176 3.455,5.0013196 -0.17674,0.176743 -0.84847,-0.530301 -2.01925,-2.1254054 z m 11.21019,-3.0703245 c 0,-2.9986111 0.0637,-3.5718749 0.39687,-3.5718749 0.33318,0 0.39688,0.5732638 0.39688,3.5718749 0,2.9986105 -0.0637,3.5718745 -0.39688,3.5718745 -0.33318,0 -0.39687,-0.573264 -0.39687,-3.5718745 z"
       id="path6391"
       inkscape:connector-curvature="0" />
    <path
       inkscape:connector-curvature="0"
       d="M 75.800152,46.776426 V 19.102641 c 0,-4.612295 3.116504,-6.918446 8.310678,-6.918446 h 22.85436 c 5.19417,0 8.31068,2.306151 8.31068,6.918446 v 27.673785 c 0,4.612298 -3.11651,6.918446 -8.31068,6.918446 H 84.11083 c -5.194174,0 -8.310678,-2.306148 -8.310678,-6.918446 z m 3.116504,-27.097246 1.038836,10.377669 11.946599,1.153073 2.337378,-7.494983 h 2.597088 l 2.337379,7.494983 11.946594,-1.153073 1.03883,-10.377669 z m 7.79126,28.192666 c 11.427181,0 18.699024,-2.825032 23.893194,-10.320014 l -2.59709,-2.30615 c -4.67475,6.918446 -12.466008,10.377669 -21.296104,10.377669 z"
       id="path922"
       style="fill:#ffffff;stroke-width:0.54723245" />
  </g>
</svg>
