<?xml version="1.0" encoding="UTF-8" standalone="no"?>
<!-- Created with Inkscape (http://www.inkscape.org/) -->

<svg
   xmlns:dc="http://purl.org/dc/elements/1.1/"
   xmlns:cc="http://creativecommons.org/ns#"
   xmlns:rdf="http://www.w3.org/1999/02/22-rdf-syntax-ns#"
   xmlns:svg="http://www.w3.org/2000/svg"
   xmlns="http://www.w3.org/2000/svg"
   xmlns:sodipodi="http://sodipodi.sourceforge.net/DTD/sodipodi-0.dtd"
   xmlns:inkscape="http://www.inkscape.org/namespaces/inkscape"
   width="210mm"
   height="150mm"
   viewBox="0 0 210 150"
   version="1.1"
   id="svg8"
   inkscape:version="0.92.3 (2405546, 2018-03-11)"
   sodipodi:docname="test.svg">
  <defs
     id="defs2" />
  <sodipodi:namedview
     id="base"
     pagecolor="#ffffff"
     bordercolor="#666666"
     borderopacity="1.0"
     inkscape:pageopacity="0.0"
     inkscape:pageshadow="2"
     inkscape:zoom="1.979899"
     inkscape:cx="314.23747"
     inkscape:cy="269.6446"
     inkscape:document-units="mm"
     inkscape:current-layer="layer1"
     showgrid="false"
     inkscape:window-width="3440"
     inkscape:window-height="1377"
     inkscape:window-x="-8"
     inkscape:window-y="-8"
     inkscape:window-maximized="1" />
  <metadata
     id="metadata5">
    <rdf:RDF>
      <cc:Work
         rdf:about="">
        <dc:format>image/svg+xml</dc:format>
        <dc:type
           rdf:resource="http://purl.org/dc/dcmitype/StillImage" />
        <dc:title></dc:title>
      </cc:Work>
    </rdf:RDF>
  </metadata>
  <g
     inkscape:label="Layer 1"
     inkscape:groupmode="layer"
     id="layer1"
     transform="translate(0,-147)">
    <g
       aria-label="Killing
Accessibility
With
Five
Words"
       transform="scale(1.0019609,0.99804298)"
       style="font-style:normal;font-variant:normal;font-weight:normal;font-stretch:normal;font-size:22.82824326px;line-height:1.25;font-family:'Scary Halloween Font';-inkscape-font-specification:'Scary Halloween Font';text-align:center;letter-spacing:0px;word-spacing:0px;text-anchor:middle;fill:#860000;fill-opacity:1;stroke:#ffffff;stroke-width:1.07849979;stroke-miterlimit:4;stroke-dasharray:none;stroke-opacity:1"
       id="text817">
      <path
         d="m 58.324158,154.42643 h 0.312105 q 0.234078,0 0.980901,0.44586 h 2.898117 q 0.178345,0 0.178345,2.80895 -0.04459,0.82485 -0.04459,1.02548 0.08917,0.5016 0.222932,1.73887 1.21498,-1.42676 1.382179,-1.42676 0.49045,0 0.757969,-0.6688 2.452252,-3.47774 2.496839,-3.47774 0.07803,-0.0446 0.178346,-0.0446 h 1.60511 q 1.003195,0 2.853531,-0.0446 0.267518,0.0557 0.267518,0.13376 v 0.0446 q -0.222932,0 -0.312105,1.69428 -0.267518,0.20064 -0.267518,0.71338 v 1.33759 q -0.222932,0.30096 -0.222932,0.71339 -0.144906,0.0892 -0.267519,0.0892 -0.267518,-0.17835 -0.267518,-0.44586 v -1.07008 h -0.04459 q 0,0.27867 -0.891728,0.89173 l -0.04459,0.31211 v 0.3121 l -0.62421,0.53504 q -0.08917,0.54618 -0.08917,2.09556 v 0.44586 q 0.211786,4.68158 0.356692,4.68158 2.496839,4.26914 2.496839,4.68157 v 0.17834 q 0,0.49046 -0.401278,0.49046 -0.05573,0 -0.490451,-0.40128 h -0.312105 v 0.44586 q 0,0.88058 -0.535036,1.20384 h -0.222933 q -0.345544,0 -0.713382,-0.71339 0,-0.39013 -0.579624,-1.38218 -0.579623,0.93632 -0.891728,0.93632 h -0.267518 q -0.423571,0 -1.025488,-0.89173 l -0.08917,-0.0446 -0.267518,0.0446 q -0.936315,-0.62421 -0.936315,-1.60511 -0.222932,-0.60192 -0.624209,-1.9618 -0.757969,-0.59077 -0.757969,-1.56053 0,-0.71338 -0.579624,-1.11466 -0.668796,0.14491 -0.668796,0.57963 -0.08917,0.42357 -0.08917,0.66879 v 0.13376 q 0,0.28981 0.08917,0.62421 0,0.1672 -0.445864,1.73887 v 1.47135 q 0,1.9618 -0.668796,1.9618 -0.245226,0 -0.668797,-0.89172 l -0.312104,-0.0892 q -0.178346,0 -0.222932,1.47136 -0.178346,0.57962 -0.579624,0.57962 -0.356691,0 -0.713382,-0.71338 l -0.08917,-0.26752 0.04459,-0.26752 v -0.0892 q 0,-0.0892 -0.08917,-0.0892 -0.200639,0.44587 -0.49045,0.44587 -0.62421,0 -1.159247,-1.15925 v -0.3121 q 0,-0.0334 0.08917,-0.89173 -0.445864,-1.15925 -0.445864,-2.94271 0.312105,-1.18154 0.49045,-2.14014 l -0.04459,-0.40128 q 0,-0.30096 0.312105,-1.73887 0,-0.56848 -0.356692,-1.15925 -0.267518,-0.79141 -0.267518,-1.33759 0,-0.30096 0.713383,-2.49684 v -0.40128 q 0,-0.82485 -0.445865,-1.20383 0.08917,-0.9809 0.08917,-1.42677 -0.08917,-0.16719 -0.08917,-0.35669 0,-0.44586 0.802556,-0.44586 z m 9.273974,7.98097 v 0.0446 q 0,0.81371 0.579623,1.87263 l 0.668796,0.44587 h 0.04459 v -0.17835 q 0,-1.87263 -0.08917,-4.05736 h -0.04459 q -0.245225,0 -0.312104,0.80255 -0.1672,0.22294 -0.757969,0.6688 -0.08917,0.28981 -0.08917,0.40128 z"
         style="text-align:center;text-anchor:middle;fill:#860000;fill-opacity:1;stroke:#ffffff;stroke-width:1.07849979;stroke-miterlimit:4;stroke-dasharray:none;stroke-opacity:1"
         id="path826" />
      <path
         d="m 74.687371,154.42643 h 0.222932 q 0.200639,0 1.203833,0.3121 h 2.85353 q 0.06688,0 0.13376,0.22294 -0.08917,3.19907 -0.13376,3.9236 0,0.63536 0.757969,1.78346 0.08917,0.3121 0.08917,0.53503 v 0.17835 q 0,0.85829 -0.802555,1.51594 -0.08917,0.0446 -0.13376,0.0446 l -0.08917,2.09557 q 0.06688,0.39013 0.579623,1.02548 l 0.04459,0.26752 v 0.0446 q -0.122612,0.91402 -0.624209,1.47135 v 0.13376 q 0,1.22612 -0.08917,3.43315 -0.334398,0.0446 -1.070074,0.71338 -0.222932,0.13376 -0.312105,0.13376 -0.133759,0 -0.579623,-0.22293 -0.111466,0 -0.356692,2.09556 -0.300958,0.40128 -0.579623,0.40128 h -0.178346 q -0.378984,0 -0.535037,-0.66879 0.08917,-1.03664 0.08917,-1.29301 v -0.17835 q 0,-0.0892 -0.668796,-0.26752 -0.390131,-0.1449 -0.535037,-0.75796 -0.133759,-0.5016 -0.133759,-0.75797 0,-0.078 0.08917,-0.49045 l -0.04459,-0.0892 0.04459,-0.22293 q -0.222932,-0.79141 -0.222932,-1.24842 0,-0.51274 0.04459,-1.20383 -0.04459,-0.24523 -0.04459,-0.40128 l 0.356691,-1.73887 v -0.13376 q 0,-0.11146 -0.133759,-0.57962 0.08917,-1.11466 0.401277,-2.9427 v -1.15925 q 0,-0.13376 -0.401277,-1.11466 -0.04459,-0.17835 -0.04459,-0.35669 v -0.49045 q -0.445864,-1.04778 -0.445864,-1.51594 v -0.22293 q 0,-0.59077 0.490451,-1.24842 0,-0.9809 0.445864,-0.9809 0.05573,-0.0446 0.312105,-0.0446 z"
         style="text-align:center;text-anchor:middle;fill:#860000;fill-opacity:1;stroke:#ffffff;stroke-width:1.07849979;stroke-miterlimit:4;stroke-dasharray:none;stroke-opacity:1"
         id="path828" />
      <path
         d="m 81.954956,154.73853 h 4.458641 q 0.08917,0.0112 0.08917,0.0892 -0.04459,5.08285 -0.04459,7.13382 0.08917,2.6306 0.08917,3.21022 0,1.20384 1.649698,2.00639 0.891728,-0.53503 1.961802,-0.53503 0.401277,0.12261 0.668796,0.49045 0.300958,0.56847 0.535037,0.75797 h 1.471351 q 0.08917,0.0111 0.08917,0.0892 v 3.38857 q 0,0.72453 -0.980901,1.02548 -0.178345,0.0557 -0.178345,0.40128 v 0.57962 q -0.156053,0.93632 -0.62421,0.93632 h -0.08917 q -0.62421,-0.13376 -0.62421,-1.07007 v -0.75797 q 0,-0.24523 -0.178345,-0.31211 h -0.08917 l -1.24842,0.57962 -0.49045,0.0892 q -0.613064,0 -1.382179,-0.75797 h -0.222932 q -0.757969,0.10032 -0.757969,0.35669 -0.189493,0.80256 -0.490451,0.80256 -1.070074,-0.27867 -1.070074,-0.98091 v -0.0892 q -0.646503,-0.26752 -0.802555,-0.26752 -0.780262,0.49045 -0.891728,0.49045 -1.070074,0 -1.783457,-1.11466 0.401278,-2.25161 0.401278,-2.58601 -0.178346,-0.54618 -0.222932,-1.51594 -0.189493,-0.25637 -0.267519,-0.62421 0,-0.26752 0.222932,-1.56052 v -0.0892 q 0,-0.3567 -0.312105,-1.38218 v -0.17835 q 0.222933,-0.80255 0.222933,-1.11466 v -0.0446 l -0.178346,-0.80255 0.445864,-1.33759 q 0.04459,-0.30096 0.04459,-0.49045 0,-0.31211 -0.04459,-1.15925 0.144906,-1.91722 0.445864,-2.27391 0.04459,-0.078 0.04459,-0.22293 v -0.89173 q 0.03344,-0.26752 0.133759,-0.26752 z"
         style="text-align:center;text-anchor:middle;fill:#860000;fill-opacity:1;stroke:#ffffff;stroke-width:1.07849979;stroke-miterlimit:4;stroke-dasharray:none;stroke-opacity:1"
         id="path830" />
      <path
         d="m 95.063362,154.73853 h 4.458641 q 0.08917,0.0112 0.08917,0.0892 -0.04459,5.08285 -0.04459,7.13382 0.08917,2.6306 0.08917,3.21022 0,1.20384 1.649698,2.00639 0.89173,-0.53503 1.9618,-0.53503 0.40128,0.12261 0.6688,0.49045 0.30096,0.56847 0.53503,0.75797 h 1.47136 q 0.0892,0.0111 0.0892,0.0892 v 3.38857 q 0,0.72453 -0.9809,1.02548 -0.17835,0.0557 -0.17835,0.40128 v 0.57962 q -0.15605,0.93632 -0.62421,0.93632 h -0.0892 q -0.62421,-0.13376 -0.62421,-1.07007 v -0.75797 q 0,-0.24523 -0.17835,-0.31211 h -0.0892 l -1.24842,0.57962 -0.49045,0.0892 q -0.61306,0 -1.38218,-0.75797 h -0.222929 q -0.757969,0.10032 -0.757969,0.35669 -0.189492,0.80256 -0.490451,0.80256 -1.070074,-0.27867 -1.070074,-0.98091 v -0.0892 q -0.646503,-0.26752 -0.802555,-0.26752 -0.780262,0.49045 -0.891728,0.49045 -1.070074,0 -1.783457,-1.11466 0.401278,-2.25161 0.401278,-2.58601 -0.178346,-0.54618 -0.222932,-1.51594 -0.189492,-0.25637 -0.267519,-0.62421 0,-0.26752 0.222932,-1.56052 v -0.0892 q 0,-0.3567 -0.312104,-1.38218 v -0.17835 q 0.222932,-0.80255 0.222932,-1.11466 v -0.0446 l -0.178346,-0.80255 0.445864,-1.33759 q 0.04459,-0.30096 0.04459,-0.49045 0,-0.31211 -0.04459,-1.15925 0.144906,-1.91722 0.445864,-2.27391 0.04459,-0.078 0.04459,-0.22293 v -0.89173 q 0.03344,-0.26752 0.133759,-0.26752 z"
         style="text-align:center;text-anchor:middle;fill:#860000;fill-opacity:1;stroke:#ffffff;stroke-width:1.07849979;stroke-miterlimit:4;stroke-dasharray:none;stroke-opacity:1"
         id="path832" />
      <path
         d="m 108.30553,154.42643 h 0.22293 q 0.20064,0 1.20383,0.3121 h 2.85353 q 0.0669,0 0.13376,0.22294 -0.0892,3.19907 -0.13376,3.9236 0,0.63536 0.75797,1.78346 0.0892,0.3121 0.0892,0.53503 v 0.17835 q 0,0.85829 -0.80255,1.51594 -0.0892,0.0446 -0.13376,0.0446 l -0.0892,2.09557 q 0.0669,0.39013 0.57962,1.02548 l 0.0446,0.26752 v 0.0446 q -0.12262,0.91402 -0.62421,1.47135 v 0.13376 q 0,1.22612 -0.0892,3.43315 -0.33439,0.0446 -1.07007,0.71338 -0.22293,0.13376 -0.3121,0.13376 -0.13376,0 -0.57963,-0.22293 -0.11146,0 -0.35669,2.09556 -0.30096,0.40128 -0.57962,0.40128 h -0.17835 q -0.37898,0 -0.53504,-0.66879 0.0892,-1.03664 0.0892,-1.29301 v -0.17835 q 0,-0.0892 -0.6688,-0.26752 -0.39013,-0.1449 -0.53504,-0.75796 -0.13375,-0.5016 -0.13375,-0.75797 0,-0.078 0.0892,-0.49045 l -0.0446,-0.0892 0.0446,-0.22293 q -0.22293,-0.79141 -0.22293,-1.24842 0,-0.51274 0.0446,-1.20383 -0.0446,-0.24523 -0.0446,-0.40128 l 0.35669,-1.73887 v -0.13376 q 0,-0.11146 -0.13376,-0.57962 0.0892,-1.11466 0.40128,-2.9427 v -1.15925 q 0,-0.13376 -0.40128,-1.11466 -0.0446,-0.17835 -0.0446,-0.35669 v -0.49045 q -0.44586,-1.04778 -0.44586,-1.51594 v -0.22293 q 0,-0.59077 0.49045,-1.24842 0,-0.9809 0.44586,-0.9809 0.0557,-0.0446 0.31211,-0.0446 z"
         style="text-align:center;text-anchor:middle;fill:#860000;fill-opacity:1;stroke:#ffffff;stroke-width:1.07849979;stroke-miterlimit:4;stroke-dasharray:none;stroke-opacity:1"
         id="path834" />
      <path
         d="m 129.97452,154.1812 q 1.69429,0.44587 1.69429,0.9809 -0.0892,0.79141 -0.0892,0.98091 v 0.3121 q 0,0.36784 0.0892,1.33759 0,0.21179 -0.17835,0.93632 0.57962,0.65765 0.57962,0.9809 v 0.13376 q -0.53503,1.24842 -0.53503,1.87263 v 0.40128 q 0.17834,0.99204 0.17834,1.15924 v 0.57963 q 0,1.81689 -0.3121,2.40766 l -0.0446,0.22293 q 0,0.73568 0.40128,1.38218 0.0892,0.20064 0.0892,0.57963 v 1.64969 q 0.0892,0.31211 0.0892,0.35669 v 0.13376 q 0,0.31211 -0.3567,1.07008 -0.15605,3.52232 -0.62421,3.87902 h -0.0446 q -0.69109,0 -0.84714,-2.36308 0,-0.26752 -0.84715,-0.71339 -0.22293,0.55733 -0.66879,0.80256 H 128.414 q -0.52389,0 -1.24842,-0.84714 -0.24523,-0.0446 -0.35669,-0.0446 -0.23408,0 -0.35669,0.22293 v 0.44587 q -0.23408,0.3121 -0.40128,0.3121 -0.89173,-0.52389 -0.89173,-0.9809 -0.49045,-0.35669 -0.84714,-1.60511 -0.84714,-1.33759 -0.84714,-1.51594 0,-0.36784 -0.9809,-1.293 0,-0.078 -0.53504,-0.80256 -0.17835,0.23408 -0.17835,0.49045 v 2.00639 q 0,0.32325 -0.13376,0.35669 h -0.17834 q -0.28981,0 -0.40128,-1.29301 0.0892,-0.83599 0.0892,-1.07007 v -0.0892 l -0.26751,-3.52233 q -0.31211,-0.78026 -0.31211,-1.42676 -1.24842,-2.27391 -1.42676,-2.71978 h -0.0892 v 0.0446 q 0.0892,3.07646 0.44587,3.07646 0.0892,0.17835 0.0892,0.31211 0,1.293 -0.17835,4.72616 0.1895,2.40766 0.31211,2.40766 0.12261,0.078 0.44586,1.15925 -0.3121,0.74682 -0.80255,0.9809 l -0.17835,0.0446 v 0.53504 q 0,0.23407 -0.35669,0.53503 -0.49045,0 -0.57962,-0.66879 v -0.13376 h -0.0446 q -0.57962,0 -0.57962,1.24842 -0.1895,1.11466 -0.71339,1.11466 -0.89172,-0.46816 -0.89172,-2.09556 v -0.22294 l -0.0446,-0.3121 q -0.56848,0.40128 -0.80256,0.40128 h -0.0892 q -0.53504,-0.1895 -0.53504,-1.15925 v -1.02549 q 0,-0.60191 0.53504,-2.18473 v -0.22293 q -0.40128,-0.82485 -0.40128,-1.29301 0.17835,-1.4825 0.17835,-1.69428 -0.26752,-1.1481 -0.26752,-1.60511 v -0.13376 q 0,-0.30096 0.13376,-0.80256 -0.26752,-1.17039 -0.26752,-1.33759 v -0.44587 q 0.31211,-0.8137 0.31211,-0.9809 0,-0.20064 -0.0446,-1.33759 0,-0.14491 0.35669,-0.93631 V 154.85 q 0.0112,-0.0892 0.0892,-0.0892 h 5.61789 q 0.5016,0 0.84714,1.02548 0.0557,0.0112 3.83444,7.13383 l 0.62421,0.6688 h 0.3121 q 0.31211,0 0.31211,-0.17835 0,-0.56848 0.44586,-1.38218 v -0.0892 q 0,-1.87263 -0.26752,-1.87263 v -0.0446 l 0.0446,-0.62421 q -0.35669,-0.50159 -0.35669,-0.71338 l 0.13376,-0.9809 q -0.0446,-0.53504 -0.0892,-0.57962 0,-0.13376 0.49045,-0.71339 v -1.51593 q 0.0112,-0.0892 0.0892,-0.0892 h 1.78345 q 0.3344,0 0.9809,-0.62421 z"
         style="text-align:center;text-anchor:middle;fill:#860000;fill-opacity:1;stroke:#ffffff;stroke-width:1.07849979;stroke-miterlimit:4;stroke-dasharray:none;stroke-opacity:1"
         id="path836" />
      <path
         d="m 140.98737,154.5156 h 0.89173 q 2.50798,0 4.99368,1.07008 0.26751,0.36783 0.26751,0.84714 v 0.0892 q 0,0.11147 -0.40127,1.20383 0.0446,0.81371 0.0446,1.02549 0,0.70224 -0.66879,1.29301 l -0.26752,0.71338 v 0.35669 l 0.0446,0.31211 h 0.3121 q 0.37898,0 1.20383,0.0446 0,0.0669 0.13376,0.13376 0.26752,7.12268 0.26752,8.60518 -0.57962,0.75797 -0.57962,1.47135 0,1.47135 -0.49045,1.47135 -0.47931,0 -1.3376,-1.87263 -0.17834,-0.3121 -0.22293,-0.3121 h -0.13376 q -0.36783,0 -1.42676,0.89173 -0.74682,0.35669 -1.07008,0.35669 -0.21178,0 -2.18473,-0.57963 h -0.0446 q -0.21178,0 -1.15924,1.69429 -0.0557,0.3121 -0.17835,0.3121 h -0.35669 q -0.27866,0 -0.53504,-1.33759 -0.34554,-0.73568 -1.02548,-1.07007 -0.78027,-0.86944 -1.11466,-1.91722 -0.25638,-0.3121 -0.98091,-0.53504 -1.60511,-1.48249 -1.60511,-2.80894 -0.26752,-0.96975 -0.26752,-1.69428 v -0.71339 l 0.13376,-0.44586 v -1.07007 q 0,-5.06056 4.50323,-6.95548 1.78346,-0.57963 3.25481,-0.57963 z m -3.07646,8.11473 q 0,3.53347 2.40766,4.5924 h 0.0892 q 0.13376,-0.44586 0.13376,-1.02549 v -0.71338 q 0,-0.23408 -0.57963,-0.80256 v -0.13376 q 0.17835,-1.18154 0.17835,-1.51593 v -1.20384 q 0.0669,-0.44586 0.40128,-0.44586 h 0.44586 q 1.53823,0 4.19112,0.0446 0.0892,-0.0446 0.13376,-0.0446 0,-0.89173 -0.9809,-2.18473 -0.67994,-0.31211 -1.82804,-0.31211 -0.75797,0.40128 -1.20384,0.40128 h -0.0446 q -0.3344,0 -1.29301,-0.80256 -2.05097,0.89173 -2.05097,4.14654 z m 3.6115,2.89812 v 0.35669 q 0.12261,1.60511 0.75797,1.60511 1.24842,-0.18949 1.24842,-0.71338 v -0.31211 q 0,-0.78026 -1.20384,-1.11466 h -0.22293 q -0.57962,0.0334 -0.57962,0.17835 z"
         style="text-align:center;text-anchor:middle;fill:#860000;fill-opacity:1;stroke:#ffffff;stroke-width:1.07849979;stroke-miterlimit:4;stroke-dasharray:none;stroke-opacity:1"
         id="path838" />
      <path
         d="m 25.129574,183.25154 h 0.222932 q 0.245225,0 0.891728,0.13376 3.522327,-0.0446 4.458641,-0.0446 0.178346,0.1672 1.605111,5.08285 0.08917,0.18949 1.293006,4.19112 0.891728,0.35669 0.891728,1.60511 0,0.25637 0.04459,0.71338 -0.04459,0.24523 -0.04459,0.49046 0.04459,0.34554 1.337593,4.54781 v 0.17835 q 0,0.84714 -0.579624,0.84714 l -0.222932,0.0446 q -0.122612,0 -0.847142,-0.93631 -0.390131,-0.17835 -0.847141,-0.17835 -0.05573,0 -0.802556,0.22294 h -0.222932 v 0.35669 q 0,0.46815 -0.847142,1.11466 h -0.178345 q -0.468158,0 -0.713383,-1.20384 v -0.22293 q 0,-0.18949 0.08917,-0.9809 0,-0.25637 -0.356691,-1.02549 v -0.66879 q 0,-0.39013 -0.713383,-0.89173 -1.025488,0.12261 -1.025488,0.44586 -0.312104,0.40128 -0.936314,0.57963 -0.323252,0 -1.025488,-0.84715 l -0.08917,-0.0446 q -0.980901,0 -0.980901,0.89173 0,0.57962 -0.535037,0.57962 -0.49045,0 -1.025487,2.00639 0,0.84714 -0.490451,0.84714 h -0.222932 q -0.579623,0 -0.802555,-1.11466 -0.791409,0.57962 -1.11466,0.57962 h -0.04459 q -0.378984,-0.0223 -1.11466,-0.75797 h -0.08917 q -0.144906,0 -0.445864,1.11466 l -0.222932,0.13376 q -0.356691,0 -0.445864,-0.66879 v -0.75797 q 0.62421,-1.32645 4.414055,-12.08292 0.133759,-0.15605 0.133759,-0.44586 v -0.62421 q 0,-0.99205 0.535037,-2.58602 0.434717,-0.62421 1.070074,-0.62421 z m 2.273907,4.68158 q -1.426765,4.5924 -1.426765,5.03826 h 1.159246 q 0.378985,0 0.579624,-0.0892 0.04459,-1.41562 0.04459,-2.09556 v -0.26752 q 0,-1.30415 -0.312105,-1.69428 v -0.0892 q 0.133759,-0.63535 0.133759,-0.75797 l -0.08917,-0.0446 z m 1.025487,1.91721 -0.04459,0.44587 q 0,0.41242 -0.04459,1.78345 -0.133759,0.22294 -0.133759,0.44587 v 0.40128 q 0.390131,0.0446 0.490451,0.0446 0.535037,-0.0223 0.535037,-0.13376 -0.668797,-2.98729 -0.802556,-2.98729 z"
         style="text-align:center;text-anchor:middle;fill:#860000;fill-opacity:1;stroke:#ffffff;stroke-width:1.07849979;stroke-miterlimit:4;stroke-dasharray:none;stroke-opacity:1"
         id="path840" />
      <path
         d="m 44.925942,183.45218 h 0.757969 q 2.285053,0 4.681573,1.11466 v 0.0892 q 0,0.62421 -0.133759,1.9618 0.04459,0.57962 0.04459,0.93631 -0.144906,4.19113 -0.535037,4.19113 h -0.133759 q -0.289812,-0.12262 -0.535037,-1.15925 -0.256372,0 -0.356691,-1.6497 -0.10032,-0.13376 -0.936315,-0.44586 -0.289812,-0.44587 -0.356691,-0.44587 -0.378985,0.22294 -0.535037,0.22294 h -0.222932 q -0.234079,0 -0.891728,-0.35669 -0.980902,1.34873 -0.980902,2.58601 0,0.67994 -0.04459,1.87263 0.04459,1.17039 0.04459,2.31849 l 0.04459,0.0892 q -0.08917,0.22293 -0.08917,1.02549 v 0.71338 l 0.222932,0.0446 h 0.579624 q 1.471351,0 4.057363,-0.9809 0.133759,1.42676 0.312105,1.42676 0.178346,0.47931 0.178346,0.89173 v 0.0446 q 0,0.36784 -0.445865,0.93631 l -0.04459,0.44587 q 0.04459,0.49045 0.04459,0.89172 0,0.75797 -0.535036,0.75797 -0.378985,0 -1.025488,-0.57962 h -0.04459 q -0.256372,0 -1.070074,-0.0446 -0.401278,0 -1.471352,1.11466 l -0.312105,0.0446 h -0.222932 q -0.401278,0 -1.426765,-0.57962 -0.312105,-0.13376 -0.579623,-0.13376 -0.390132,0.22293 -0.62421,0.22293 h -0.178346 q -0.312105,0 -1.382179,-1.11466 -0.401277,0.0892 -0.445864,0.0892 -1.281859,0 -1.605111,-0.93631 -0.256371,-0.9809 -0.49045,-0.9809 -0.178346,0 -1.070074,-2.05098 -0.08917,-0.3344 -0.08917,-0.62421 v -0.26752 q 0,-0.18949 0.08917,-0.9809 0,-0.22293 -0.312105,-1.38218 0,-0.10032 0.04459,-0.17834 -0.04459,-0.62421 -0.04459,-1.07008 v -0.17834 q 0,-1.51594 1.694284,-4.63699 1.426765,-2.03983 3.923604,-2.85353 1.337592,-0.40128 2.452253,-0.40128 z m -3.165636,8.38225 v 0.49045 q 0,2.97614 1.87263,3.9236 0.323251,0.13376 0.579623,0.17835 v -0.0446 q 0,-0.72453 0.08917,-2.14014 0,-1.05893 -0.757969,-2.00639 -0.04459,-0.24523 -0.04459,-0.35669 0.445864,-1.30416 0.445864,-1.6497 0,-0.47931 -0.668797,-1.9618 l -0.267518,-0.22294 q -1.24842,1.32645 -1.24842,3.78985 z"
         style="text-align:center;text-anchor:middle;fill:#860000;fill-opacity:1;stroke:#ffffff;stroke-width:1.07849979;stroke-miterlimit:4;stroke-dasharray:none;stroke-opacity:1"
         id="path842" />
      <path
         d="m 59.461111,183.45218 h 0.757969 q 2.285054,0 4.681574,1.11466 v 0.0892 q 0,0.62421 -0.13376,1.9618 0.04459,0.57962 0.04459,0.93631 -0.144906,4.19113 -0.535037,4.19113 h -0.133759 q -0.289812,-0.12262 -0.535037,-1.15925 -0.256372,0 -0.356692,-1.6497 -0.100319,-0.13376 -0.936314,-0.44586 -0.289812,-0.44587 -0.356692,-0.44587 -0.378984,0.22294 -0.535037,0.22294 h -0.222932 q -0.234078,0 -0.891728,-0.35669 -0.980901,1.34873 -0.980901,2.58601 0,0.67994 -0.04459,1.87263 0.04459,1.17039 0.04459,2.31849 l 0.04459,0.0892 q -0.08917,0.22293 -0.08917,1.02549 v 0.71338 l 0.222932,0.0446 h 0.579623 q 1.471352,0 4.057364,-0.9809 0.133759,1.42676 0.312105,1.42676 0.178345,0.47931 0.178345,0.89173 v 0.0446 q 0,0.36784 -0.445864,0.93631 l -0.04459,0.44587 q 0.04459,0.49045 0.04459,0.89172 0,0.75797 -0.535037,0.75797 -0.378984,0 -1.025487,-0.57962 h -0.04459 q -0.256372,0 -1.070074,-0.0446 -0.401277,0 -1.471351,1.11466 l -0.312105,0.0446 h -0.222932 q -0.401278,0 -1.426765,-0.57962 -0.312105,-0.13376 -0.579624,-0.13376 -0.390131,0.22293 -0.62421,0.22293 h -0.178345 q -0.312105,0 -1.382179,-1.11466 -0.401278,0.0892 -0.445864,0.0892 -1.28186,0 -1.605111,-0.93631 -0.256372,-0.9809 -0.490451,-0.9809 -0.178345,0 -1.070073,-2.05098 -0.08917,-0.3344 -0.08917,-0.62421 v -0.26752 q 0,-0.18949 0.08917,-0.9809 0,-0.22293 -0.312105,-1.38218 0,-0.10032 0.04459,-0.17834 -0.04459,-0.62421 -0.04459,-1.07008 v -0.17834 q 0,-1.51594 1.694283,-4.63699 1.426766,-2.03983 3.923605,-2.85353 1.337592,-0.40128 2.452252,-0.40128 z m -3.165635,8.38225 v 0.49045 q 0,2.97614 1.872629,3.9236 0.323252,0.13376 0.579624,0.17835 v -0.0446 q 0,-0.72453 0.08917,-2.14014 0,-1.05893 -0.757969,-2.00639 -0.04459,-0.24523 -0.04459,-0.35669 0.445864,-1.30416 0.445864,-1.6497 0,-0.47931 -0.668796,-1.9618 l -0.267518,-0.22294 q -1.24842,1.32645 -1.24842,3.78985 z"
         style="text-align:center;text-anchor:middle;fill:#860000;fill-opacity:1;stroke:#ffffff;stroke-width:1.07849979;stroke-miterlimit:4;stroke-dasharray:none;stroke-opacity:1"
         id="path844" />
      <path
         d="m 67.219148,182.76109 h 0.133759 q 0.156053,0 0.668797,0.44587 0.06688,0.0446 0.49045,0.0892 0.880582,-0.0446 1.159247,-0.0446 0.613063,0.0446 0.757969,0.0446 0.144906,0 1.025487,-0.49045 h 0.04459 q 1.783456,0.10032 1.783456,0.40128 0.167199,0.0892 0.356692,0.0892 h 2.363079 q 0.401278,0 0.401278,0.31211 v 3.12105 q -0.62421,0.71338 -0.668796,0.71338 h -0.04459 q -0.144906,0 -0.579624,-0.35669 -0.245225,0.80255 -0.802555,0.80255 -0.111466,0 -0.668796,-0.44586 -0.278666,0 -0.980902,-0.49045 -0.245225,-0.0446 -0.401277,-0.0446 h -0.04459 q -0.601916,0.53504 -1.025487,0.57962 0.04459,0.24523 0.08917,1.24842 h 0.04459 q 0.724529,0 2.140148,0.62421 h 2.095561 q 0.312105,0 0.490451,0.0892 0.04459,1.85033 0.04459,2.76435 v 1.02549 q 0,0.35669 -0.713382,0.80256 0,0.13376 -0.04459,0.13376 l 0.04459,0.22293 v 1.11466 q 0.01115,0.44586 0.08917,0.44586 1.070074,0 1.070074,0.13376 l 0.04459,0.26752 v 3.21022 q -0.267519,1.03664 -0.267519,1.51594 v 0.35669 l 0.04459,0.31211 q -0.178346,0.0892 -0.490451,0.0892 -0.300958,-0.42357 -0.401278,-1.38218 -0.167199,-0.62421 -0.312104,-0.62421 -0.512744,0 -1.471352,1.11466 -0.144906,0.0892 -0.267519,0.0892 -0.802555,0 -1.471351,-0.93631 h -0.04459 q -0.245225,0 -0.936314,0.71338 -0.222932,0.13376 -0.445864,0.13376 h -0.04459 q -0.278665,0 -1.203833,-0.57962 h -0.04459 q -0.300959,0.80255 -0.62421,0.80255 -0.07803,0.0446 -0.178346,0.0446 -0.300958,-0.0557 -0.802555,-0.9809 h -0.04459 q -0.222932,0.13376 -0.356691,0.13376 h -0.133759 q -0.780262,0 -1.11466,-0.9809 -0.04459,-0.30096 -0.04459,-0.49045 v -0.0892 q 0,-0.43471 0.535037,-1.51594 v -3.61149 q 0,-1.10352 -0.04459,-3.07647 -0.490451,-0.54618 -0.490451,-0.89173 v -0.3121 q 0.312105,-2.36308 0.312105,-2.80894 0,-0.12262 -0.133759,-2.22932 0,-0.0892 0.08917,-0.31211 -0.04459,-0.30096 -0.04459,-0.49045 0,-0.4793 1.070074,-0.80256 z m 3.879018,10.16571 v 1.91721 q 0,1.11466 1.426765,1.11466 h 2.229321 q 0.08917,-0.85829 0.08917,-1.293 0,-1.3376 -0.445864,-1.3376 0,-0.10032 -0.445865,-0.3121 -0.813702,0.62421 -1.248419,0.62421 -0.568477,0 -1.11466,-0.71338 z"
         style="text-align:center;text-anchor:middle;fill:#860000;fill-opacity:1;stroke:#ffffff;stroke-width:1.07849979;stroke-miterlimit:4;stroke-dasharray:none;stroke-opacity:1"
         id="path846" />
      <path
         d="m 84.295745,183.42989 h 0.624209 q 2.686332,0 5.394956,1.24842 v 0.0446 l -0.356691,0.84714 q 0.133759,0.28981 0.133759,0.40128 v 0.0892 q 0,0.22293 -0.668796,1.15925 v 1.42676 q 0,1.47135 -0.356691,1.47135 h -0.04459 q -0.735675,0 -1.025487,-1.78345 -0.07803,-0.53504 -0.535037,-0.53504 -0.679943,0 -1.605111,-0.53504 h -0.267518 q -0.289812,0.40128 -0.401278,0.44587 h -0.133759 q -0.111466,0 -0.802556,-0.22294 -1.248419,0.39014 -1.248419,0.75797 v 0.13376 q 0,0.82485 3.656086,2.36308 2.82009,1.41562 3.299394,3.03188 0.423571,1.47135 0.668796,1.56052 0.13376,0.1672 0.13376,0.31211 v 0.13376 q 0,0.22293 -0.535037,1.02548 0,0.40128 -0.445865,4.81534 0.04459,0.30096 0.04459,0.49045 l -0.222932,0.17834 h -0.08917 q -0.401278,-0.12261 -0.535037,-2.00639 h -0.04459 q 0,0.13376 -0.08917,0.13376 H 88.7098 q -0.13376,-0.0446 -0.13376,-0.26751 v -0.13376 h -0.08917 q 0,0.99204 -0.401277,1.24842 -0.222932,0 -0.490451,1.293 -0.167199,0.39013 -0.267518,0.40128 h -0.13376 q -0.445864,-0.34555 -0.445864,-0.6688 l 0.13376,-0.71338 q 0,-0.39013 -0.401278,-0.80255 -0.902875,0.1449 -1.515938,0.57962 -0.378985,0.0892 -1.560525,0.44586 -1.393325,0 -1.73887,-0.26752 -0.312105,-0.49045 -0.356691,-0.49045 -1.515938,0.34555 -1.515938,0.84715 0.04459,0.55733 0.04459,0.62421 -0.133759,0.3121 -0.445864,0.3121 -0.367838,0 -0.713382,-0.89173 0,-1.35988 -0.713383,-2.05097 -0.133759,-0.1672 -0.133759,-0.40128 v -0.71338 q 0,-0.1672 -0.222932,-0.40128 0.256372,-0.45701 0.356691,-0.71338 -0.267518,-0.72453 -0.267518,-0.84715 v -0.17834 q 0,-0.32325 0.49045,-0.44587 0,-0.26751 0.178346,-0.26751 2.608305,1.15924 3.388567,1.15924 0,0.0557 0.267519,0.0892 v -0.0446 q 0,-0.37899 0.04459,-2.71977 0,-0.46816 -0.445864,-0.80256 h -0.178346 q -0.869435,0 -1.471351,-0.9809 -0.167199,-0.18949 -0.713383,-0.35669 -0.01115,-0.10032 -0.62421,-0.40128 -0.802555,-1.11466 -0.802555,-1.78345 l 0.04459,-0.40128 -0.08917,-0.17835 q 0.367838,-2.15129 1.159247,-3.52232 0.769116,-1.40448 3.121049,-2.22932 1.304153,-0.31211 2.229321,-0.31211 z m -1.337593,10.70074 q -0.04459,0.36784 -0.222932,3.12105 l 0.936315,0.0892 q 1.627404,0 1.872629,-1.02549 0,-0.10032 0.04459,-0.17834 0,-0.71338 -0.713383,-1.07008 l -0.08917,0.0446 h -0.04459 q -0.222932,-0.42357 -0.62421,-0.49045 -0.835995,-0.49045 -1.159247,-0.49045 z"
         style="text-align:center;text-anchor:middle;fill:#860000;fill-opacity:1;stroke:#ffffff;stroke-width:1.07849979;stroke-miterlimit:4;stroke-dasharray:none;stroke-opacity:1"
         id="path848" />
      <path
         d="m 98.474227,183.42989 h 0.62421 q 2.686333,0 5.394953,1.24842 v 0.0446 l -0.35669,0.84714 q 0.13376,0.28981 0.13376,0.40128 v 0.0892 q 0,0.22293 -0.6688,1.15925 v 1.42676 q 0,1.47135 -0.35669,1.47135 h -0.0446 q -0.73568,0 -1.02549,-1.78345 -0.078,-0.53504 -0.53504,-0.53504 -0.67994,0 -1.60511,-0.53504 h -0.267517 q -0.289812,0.40128 -0.401278,0.44587 h -0.133759 q -0.111466,0 -0.802556,-0.22294 -1.248419,0.39014 -1.248419,0.75797 v 0.13376 q 0,0.82485 3.656089,2.36308 2.82009,1.41562 3.29939,3.03188 0.42357,1.47135 0.6688,1.56052 0.13376,0.1672 0.13376,0.31211 v 0.13376 q 0,0.22293 -0.53504,1.02548 0,0.40128 -0.44586,4.81534 0.0446,0.30096 0.0446,0.49045 l -0.22293,0.17834 h -0.0892 q -0.40128,-0.12261 -0.53504,-2.00639 h -0.0446 q 0,0.13376 -0.0892,0.13376 h -0.13376 q -0.13376,-0.0446 -0.13376,-0.26751 v -0.13376 h -0.0892 q 0,0.99204 -0.40128,1.24842 -0.22293,0 -0.49045,1.293 -0.1672,0.39013 -0.26752,0.40128 h -0.13376 q -0.44586,-0.34555 -0.44586,-0.6688 l 0.13376,-0.71338 q 0,-0.39013 -0.40128,-0.80255 -0.902874,0.1449 -1.515937,0.57962 -0.378985,0.0892 -1.560525,0.44586 -1.393325,0 -1.73887,-0.26752 -0.312104,-0.49045 -0.356691,-0.49045 -1.515938,0.34555 -1.515938,0.84715 0.04459,0.55733 0.04459,0.62421 -0.133759,0.3121 -0.445864,0.3121 -0.367838,0 -0.713382,-0.89173 0,-1.35988 -0.713383,-2.05097 -0.133759,-0.1672 -0.133759,-0.40128 v -0.71338 q 0,-0.1672 -0.222932,-0.40128 0.256372,-0.45701 0.356691,-0.71338 -0.267518,-0.72453 -0.267518,-0.84715 v -0.17834 q 0,-0.32325 0.49045,-0.44587 0,-0.26751 0.178346,-0.26751 2.608305,1.15924 3.388567,1.15924 0,0.0557 0.267519,0.0892 v -0.0446 q 0,-0.37899 0.04459,-2.71977 0,-0.46816 -0.445864,-0.80256 h -0.178346 q -0.869435,0 -1.471351,-0.9809 -0.167199,-0.18949 -0.713383,-0.35669 -0.01115,-0.10032 -0.62421,-0.40128 -0.802555,-1.11466 -0.802555,-1.78345 l 0.04459,-0.40128 -0.08917,-0.17835 q 0.367838,-2.15129 1.159247,-3.52232 0.769116,-1.40448 3.121049,-2.22932 1.304153,-0.31211 2.229321,-0.31211 z m -1.337593,10.70074 q -0.04459,0.36784 -0.222932,3.12105 l 0.936315,0.0892 q 1.627404,0 1.872629,-1.02549 0,-0.10032 0.04459,-0.17834 0,-0.71338 -0.713383,-1.07008 l -0.08917,0.0446 h -0.04459 q -0.222932,-0.42357 -0.62421,-0.49045 -0.835995,-0.49045 -1.159247,-0.49045 z"
         style="text-align:center;text-anchor:middle;fill:#860000;fill-opacity:1;stroke:#ffffff;stroke-width:1.07849979;stroke-miterlimit:4;stroke-dasharray:none;stroke-opacity:1"
         id="path850" />
      <path
         d="m 107.21316,182.96173 h 0.22293 q 0.20064,0 1.20383,0.31211 h 2.85353 q 0.0669,0 0.13376,0.22293 -0.0892,3.19908 -0.13376,3.9236 0,0.63536 0.75797,1.78346 0.0892,0.31211 0.0892,0.53504 v 0.17834 q 0,0.85829 -0.80256,1.51594 -0.0892,0.0446 -0.13376,0.0446 l -0.0892,2.09556 q 0.0669,0.39013 0.57962,1.02549 l 0.0446,0.26752 v 0.0446 q -0.12261,0.91402 -0.62421,1.47135 v 0.13376 q 0,1.22613 -0.0892,3.43316 -0.3344,0.0446 -1.07008,0.71338 -0.22293,0.13376 -0.3121,0.13376 -0.13376,0 -0.57963,-0.22293 -0.11146,0 -0.35669,2.09556 -0.30096,0.40128 -0.57962,0.40128 h -0.17835 q -0.37898,0 -0.53503,-0.6688 0.0892,-1.03663 0.0892,-1.29301 v -0.17834 q 0,-0.0892 -0.6688,-0.26752 -0.39013,-0.14491 -0.53503,-0.75797 -0.13376,-0.5016 -0.13376,-0.75797 0,-0.078 0.0892,-0.49045 l -0.0446,-0.0892 0.0446,-0.22293 q -0.22293,-0.79141 -0.22293,-1.24842 0,-0.51275 0.0446,-1.20384 -0.0446,-0.24522 -0.0446,-0.40127 l 0.35669,-1.73887 v -0.13376 q 0,-0.11147 -0.13376,-0.57963 0.0892,-1.11466 0.40128,-2.9427 v -1.15925 q 0,-0.13376 -0.40128,-1.11466 -0.0446,-0.17834 -0.0446,-0.35669 v -0.49045 q -0.44586,-1.04778 -0.44586,-1.51594 v -0.22293 q 0,-0.59077 0.49045,-1.24842 0,-0.9809 0.44586,-0.9809 0.0557,-0.0446 0.31211,-0.0446 z"
         style="text-align:center;text-anchor:middle;fill:#860000;fill-opacity:1;stroke:#ffffff;stroke-width:1.07849979;stroke-miterlimit:4;stroke-dasharray:none;stroke-opacity:1"
         id="path852" />
      <path
         d="m 120.63367,183.25154 q 4.13539,0 5.35037,2.45226 0.18949,0.35669 0.26752,1.73887 0,1.93951 -0.49045,2.67518 -0.31211,0.84714 -0.71339,0.84714 h -0.0892 l -0.80255,-0.26751 q -0.44587,0.17834 -0.53504,0.17834 v 0.0892 q 1.42676,0.3567 2.09556,1.24842 0.71338,0.92517 0.71338,2.22932 v 0.44587 q 0,0.85829 -0.57962,2.22932 0,0.95861 -0.57962,1.24842 -0.80256,0.56848 -0.80256,0.75797 -0.75797,1.75001 -0.75797,1.87263 -0.12261,0.62421 -0.57962,0.62421 h -0.17835 q -0.57962,0 -0.89173,-0.9809 0.0446,-0.52389 0.0446,-0.75797 -0.0892,-0.14491 -0.0892,-0.22294 h -0.13376 q 0,0.45702 -0.6688,0.62421 h -0.22293 q -0.72453,0 -1.29301,-0.35669 h -0.0446 q -0.0669,0 -1.07008,0.6688 l -0.22293,0.0446 q -1.57167,-0.84715 -1.9618,-0.84715 -0.76912,0 -1.02549,0.62421 -0.21178,0.53504 -0.75797,0.53504 h -0.3121 q -0.51275,0 -0.75797,-0.9809 l 0.17834,-9.14021 q -0.0892,-0.47931 -0.0892,-0.62421 v -0.13376 l 0.17835,-1.20384 q -0.35669,-1.73887 -0.35669,-2.31849 -0.078,0 -0.0892,-0.31211 v -0.17834 q 0,-0.1672 0.49045,-1.20383 0.0446,-0.6688 0.0446,-0.98091 v -0.40127 l 0.0892,-0.13376 q 3.2994,-0.0892 6.64338,-0.0892 z m -2.31849,4.2803 v 1.29301 q 0,0.22293 -0.0446,0.66879 0.24522,0 0.49045,0.0446 2.129,0 2.49684,-0.62421 0.3121,-0.36784 0.3121,-1.02549 0,-0.44586 -0.3121,-0.71338 -0.42357,0.53504 -0.84714,0.53504 h -0.13376 q -0.36784,0 -0.93632,-0.9809 l -0.0892,-0.0446 h -0.0892 q -0.0892,0 -0.35669,0.62421 -0.24523,0.22293 -0.49045,0.22293 z m -0.13376,5.84082 q -0.0446,1.35989 -0.0446,2.00639 v 0.75797 h 1.60511 v -0.0446 q 0,-0.43472 0.0446,-0.44586 -0.0446,-0.49045 -0.0446,-0.84714 v -1.11466 l -0.22293,0.0446 h -0.17835 q -0.0892,0 -0.80255,-0.40128 h -0.0446 z m 2.49684,0.0446 q -0.31211,0.76911 -0.31211,2.58601 0.0446,0 0.0446,0.0446 0.74682,0 1.20383,-0.93632 v -0.0446 q -0.62421,-0.76911 -0.62421,-1.293 -0.17835,-0.32325 -0.3121,-0.35669 z"
         style="text-align:center;text-anchor:middle;fill:#860000;fill-opacity:1;stroke:#ffffff;stroke-width:1.07849979;stroke-miterlimit:4;stroke-dasharray:none;stroke-opacity:1"
         id="path854" />
      <path
         d="m 128.70381,182.96173 h 0.22293 q 0.20064,0 1.20384,0.31211 h 2.85353 q 0.0669,0 0.13376,0.22293 -0.0892,3.19908 -0.13376,3.9236 0,0.63536 0.75797,1.78346 0.0892,0.31211 0.0892,0.53504 v 0.17834 q 0,0.85829 -0.80256,1.51594 -0.0892,0.0446 -0.13375,0.0446 l -0.0892,2.09556 q 0.0669,0.39013 0.57963,1.02549 l 0.0446,0.26752 v 0.0446 q -0.12261,0.91402 -0.62421,1.47135 v 0.13376 q 0,1.22613 -0.0892,3.43316 -0.3344,0.0446 -1.07007,0.71338 -0.22294,0.13376 -0.31211,0.13376 -0.13376,0 -0.57962,-0.22293 -0.11147,0 -0.35669,2.09556 -0.30096,0.40128 -0.57963,0.40128 h -0.17834 q -0.37899,0 -0.53504,-0.6688 0.0892,-1.03663 0.0892,-1.29301 v -0.17834 q 0,-0.0892 -0.66879,-0.26752 -0.39013,-0.14491 -0.53504,-0.75797 -0.13376,-0.5016 -0.13376,-0.75797 0,-0.078 0.0892,-0.49045 l -0.0446,-0.0892 0.0446,-0.22293 q -0.22293,-0.79141 -0.22293,-1.24842 0,-0.51275 0.0446,-1.20384 -0.0446,-0.24522 -0.0446,-0.40127 l 0.35669,-1.73887 v -0.13376 q 0,-0.11147 -0.13376,-0.57963 0.0892,-1.11466 0.40128,-2.9427 v -1.15925 q 0,-0.13376 -0.40128,-1.11466 -0.0446,-0.17834 -0.0446,-0.35669 v -0.49045 q -0.44587,-1.04778 -0.44587,-1.51594 v -0.22293 q 0,-0.59077 0.49045,-1.24842 0,-0.9809 0.44587,-0.9809 0.0557,-0.0446 0.3121,-0.0446 z"
         style="text-align:center;text-anchor:middle;fill:#860000;fill-opacity:1;stroke:#ffffff;stroke-width:1.07849979;stroke-miterlimit:4;stroke-dasharray:none;stroke-opacity:1"
         id="path856" />
      <path
         d="m 135.9714,183.27384 h 4.45864 q 0.0892,0.0111 0.0892,0.0892 -0.0446,5.08285 -0.0446,7.13383 0.0892,2.6306 0.0892,3.21022 0,1.20383 1.6497,2.00639 0.89172,-0.53504 1.9618,-0.53504 0.40128,0.12261 0.66879,0.49045 0.30096,0.56848 0.53504,0.75797 h 1.47135 q 0.0892,0.0112 0.0892,0.0892 v 3.38857 q 0,0.72453 -0.98091,1.02549 -0.17834,0.0557 -0.17834,0.40128 v 0.57962 q -0.15605,0.93631 -0.62421,0.93631 h -0.0892 q -0.62421,-0.13376 -0.62421,-1.07007 v -0.75797 q 0,-0.24522 -0.17835,-0.3121 h -0.0892 l -1.24842,0.57962 -0.49045,0.0892 q -0.61307,0 -1.38218,-0.75797 h -0.22293 q -0.75797,0.10032 -0.75797,0.35669 -0.18949,0.80256 -0.49045,0.80256 -1.07008,-0.27867 -1.07008,-0.9809 v -0.0892 q -0.6465,-0.26752 -0.80255,-0.26752 -0.78026,0.49045 -0.89173,0.49045 -1.07007,0 -1.78346,-1.11466 0.40128,-2.25162 0.40128,-2.58601 -0.17834,-0.54619 -0.22293,-1.51594 -0.18949,-0.25637 -0.26752,-0.62421 0,-0.26752 0.22293,-1.56053 v -0.0892 q 0,-0.35669 -0.3121,-1.38218 v -0.17834 q 0.22293,-0.80256 0.22293,-1.11466 v -0.0446 l -0.17835,-0.80256 0.44587,-1.33759 q 0.0446,-0.30096 0.0446,-0.49045 0,-0.3121 -0.0446,-1.15925 0.1449,-1.91721 0.44586,-2.2739 0.0446,-0.078 0.0446,-0.22294 v -0.89172 q 0.0334,-0.26752 0.13376,-0.26752 z"
         style="text-align:center;text-anchor:middle;fill:#860000;fill-opacity:1;stroke:#ffffff;stroke-width:1.07849979;stroke-miterlimit:4;stroke-dasharray:none;stroke-opacity:1"
         id="path858" />
      <path
         d="m 149.21356,182.96173 h 0.22294 q 0.20063,0 1.20383,0.31211 h 2.85353 q 0.0669,0 0.13376,0.22293 -0.0892,3.19908 -0.13376,3.9236 0,0.63536 0.75797,1.78346 0.0892,0.31211 0.0892,0.53504 v 0.17834 q 0,0.85829 -0.80255,1.51594 -0.0892,0.0446 -0.13376,0.0446 l -0.0892,2.09556 q 0.0669,0.39013 0.57963,1.02549 l 0.0446,0.26752 v 0.0446 q -0.12261,0.91402 -0.62421,1.47135 v 0.13376 q 0,1.22613 -0.0892,3.43316 -0.3344,0.0446 -1.07007,0.71338 -0.22294,0.13376 -0.31211,0.13376 -0.13376,0 -0.57962,-0.22293 -0.11147,0 -0.35669,2.09556 -0.30096,0.40128 -0.57963,0.40128 h -0.17834 q -0.37899,0 -0.53504,-0.6688 0.0892,-1.03663 0.0892,-1.29301 v -0.17834 q 0,-0.0892 -0.66879,-0.26752 -0.39013,-0.14491 -0.53504,-0.75797 -0.13376,-0.5016 -0.13376,-0.75797 0,-0.078 0.0892,-0.49045 l -0.0446,-0.0892 0.0446,-0.22293 q -0.22293,-0.79141 -0.22293,-1.24842 0,-0.51275 0.0446,-1.20384 -0.0446,-0.24522 -0.0446,-0.40127 l 0.35669,-1.73887 v -0.13376 q 0,-0.11147 -0.13376,-0.57963 0.0892,-1.11466 0.40128,-2.9427 v -1.15925 q 0,-0.13376 -0.40128,-1.11466 -0.0446,-0.17834 -0.0446,-0.35669 v -0.49045 q -0.44587,-1.04778 -0.44587,-1.51594 v -0.22293 q 0,-0.59077 0.49045,-1.24842 0,-0.9809 0.44587,-0.9809 0.0557,-0.0446 0.3121,-0.0446 z"
         style="text-align:center;text-anchor:middle;fill:#860000;fill-opacity:1;stroke:#ffffff;stroke-width:1.07849979;stroke-miterlimit:4;stroke-dasharray:none;stroke-opacity:1"
         id="path860" />
      <path
         d="m 158.13084,182.7388 h 0.35669 q 0.15605,0 0.9809,0.49045 h 9.45232 q 0.13376,0 0.13376,0.49045 v 1.02549 q 0,0.21179 0.49045,1.07007 l 0.0446,0.44587 v 0.93631 q 0,0.44587 -0.3567,0.44587 h -0.13375 q -0.45702,0 -0.84715,-0.40128 -0.20064,0.13376 -0.26751,0.13376 -0.0446,0.66879 -0.0446,0.9809 0,0.65765 0.0446,1.15925 -0.22294,1.98409 -0.22294,3.9236 v 0.17835 q 0,0.0669 -0.13376,0.13376 -0.26751,-0.0892 -0.26751,-0.3567 v -0.49045 q -0.0892,-3.83443 -0.0892,-4.28029 0,-0.75797 -0.49045,-0.75797 l -0.35669,-0.17835 q -0.9809,0.75797 -0.9809,1.29301 -0.31211,0.85829 -0.57962,1.11466 0,0.13376 -0.0446,0.13376 l 0.0446,0.0892 v 0.84714 q 0,0.67995 0.66879,3.25481 0.0892,1.04778 0.0892,1.69428 -0.1672,0.40128 -0.6688,0.40128 0.11147,2.40767 0.35669,2.40767 0.6688,0.60192 0.6688,1.38218 -0.11147,1.47135 -0.75797,1.47135 h -0.0892 q -0.46815,-0.0892 -0.49045,-0.0892 -0.0446,0.60191 -0.0446,0.89172 0,0.23408 0.0446,0.75797 -0.17834,0.51275 -0.17834,0.57963 0.0446,0.45701 0.0446,0.53503 l -0.22293,0.17835 h -0.26752 q -0.89172,0 -0.89172,-1.51594 0,-1.24842 -0.26752,-1.24842 -0.27867,-0.0892 -0.35669,-0.0892 -0.25638,0.35669 -0.53504,0.35669 h -0.0446 q -0.23408,0 -1.02548,-0.35669 v 0.93631 q 0,1.02549 -0.62421,1.02549 -0.98091,-0.10032 -0.98091,-0.84714 v -0.0446 q 0.0892,-0.44586 0.0892,-0.80255 0,-0.13376 -0.49045,-0.84714 -0.17835,-0.94747 -0.17835,-1.78346 0.80256,-4.2803 0.80256,-4.99368 v -0.0446 q 0,-2.42995 -0.0446,-5.08285 0.0446,-0.75797 0.0446,-1.51593 0,-0.25638 -0.49045,-0.40128 -0.28982,0.13376 -0.40128,0.13376 h -0.0446 q -0.10032,0 -0.71338,-0.26752 -0.39013,0.53504 -0.9809,0.53504 -0.40128,0 -1.33759,-0.62421 -0.17835,-0.28982 -0.17835,-0.44587 0,-1.77231 0.44586,-3.38857 l 0.13376,-0.0892 h 0.53504 z"
         style="text-align:center;text-anchor:middle;fill:#860000;fill-opacity:1;stroke:#ffffff;stroke-width:1.07849979;stroke-miterlimit:4;stroke-dasharray:none;stroke-opacity:1"
         id="path862" />
      <path
         d="m 181.2712,182.71651 h 0.0892 q 1.13695,0.35669 1.47135,0.35669 2.01754,-0.0446 2.36308,-0.0446 0.75797,0.13376 0.75797,0.62421 v 0.13376 q -0.30096,0.22293 -0.66879,0.9809 -0.62421,0.28981 -0.62421,1.3376 -0.0669,0 -0.13376,0.40127 0.17834,0.55733 0.17834,0.75797 -0.3121,1.82804 -0.57962,1.82804 h -0.0446 q -0.26752,0 -0.80255,-0.57962 l -0.0892,-0.0446 q -0.28981,0 -0.35669,0.40127 v 0.9809 q -0.34554,0.71339 -0.35669,1.07008 -0.49045,1.56052 -0.84714,1.56052 h -0.13376 l -0.3121,-0.0446 -0.80256,3.52232 v 0.31211 q 0,0.1449 0.40128,1.02548 0.26752,1.1704 0.26752,1.6497 -0.0669,1.11466 -0.17835,1.11466 -0.57962,0.36784 -0.57962,0.80256 v 0.57962 q 0,0.59077 -0.40128,0.84714 h -0.17835 q -0.26751,0 -0.35669,-1.02548 -0.32325,-1.38218 -0.66879,-1.38218 -0.23408,0 -1.15925,-0.26752 -0.62421,0 -0.62421,0.35669 v 0.0446 q 0,0.39013 0.0446,0.89172 -0.0557,0.53504 -0.44587,0.53504 h -0.17834 q -0.71339,0 -0.80256,-0.93631 -0.0446,0 -0.0446,-0.57963 V 199.481 q 0,-0.12261 -0.49045,-1.15925 -0.0892,-0.18949 -0.0892,-0.71338 0.17835,-1.87263 0.62421,-1.87263 0.17835,-0.12261 0.17835,-0.22293 -0.70224,-3.14334 -1.29301,-3.83443 -0.3121,-1.59397 -0.49045,-2.09556 h -0.0446 q -0.22293,0.33439 -0.3121,1.87262 0.0446,0.23408 0.0446,0.26752 -0.0557,0.17835 -0.22294,0.26752 h -0.0446 q -0.35669,0 -0.35669,-1.47135 v -1.33759 q -0.0557,-1.32645 -0.3567,-1.47135 -1.07007,-0.39013 -1.07007,-1.29301 -0.17835,-1.04778 -0.57962,-1.78346 l -0.35669,-1.293 0.0446,-0.0892 q 3.06532,-0.0446 4.41406,-0.0892 0.35669,0 0.93631,1.56053 1.19269,2.61945 1.60511,2.71977 h 0.0446 q 0.41242,0 1.02549,-1.51594 0.45701,-0.46816 1.02548,-0.57962 l 0.0446,-0.0892 v -0.3121 q 0,-0.53504 0.53504,-1.11466 0,-1.07008 0.80255,-1.07008 0,-0.0446 0.17835,-0.0446 z"
         style="text-align:center;text-anchor:middle;fill:#860000;fill-opacity:1;stroke:#ffffff;stroke-width:1.07849979;stroke-miterlimit:4;stroke-dasharray:none;stroke-opacity:1"
         id="path864" />
      <path
         d="m 94.684377,211.87602 q 0.06688,0 0.13376,0.13376 v 0.0892 q -1.114661,5.03827 -1.24842,5.93 v 0.75797 q 0,0.12261 0.178346,0.66879 v 0.0892 q 0,0.94747 -0.757969,1.56053 -0.222932,0.39013 -0.222932,1.02549 0.267518,0.57962 0.267518,0.84714 -0.144906,1.27071 -0.356691,1.33759 -0.802556,1.13695 -0.936315,1.73887 v 0.0446 q 0.133759,1.98409 0.133759,2.6306 0,2.05097 -0.445864,2.05097 -0.245225,2.02868 -0.356691,2.22932 l -0.08917,0.0446 h -0.133759 q -0.490451,0 -0.490451,-0.9809 -0.211785,-0.39013 -0.579623,-2.22932 h -0.08917 q -0.178345,0 -0.312105,1.33759 l -0.08917,0.0446 h -0.178345 q -0.345545,0 -0.757969,-0.75796 -0.07803,-0.44587 -0.178346,-0.44587 h -0.579623 q -0.55733,0.5016 -0.936315,1.60511 l -0.178346,0.13376 h -0.133759 q -1.025487,0 -1.025487,-2.27391 -0.62421,-0.41242 -0.62421,-0.93631 -0.144906,-1.6497 -0.401278,-1.6497 -0.356691,0 -0.356691,-1.47135 v -1.47135 q 0,-0.27867 -0.62421,-2.40767 0,-0.0892 -0.356691,-0.66879 h -0.04459 q -0.289811,0 -0.847141,3.43315 0,0.23408 0.08917,0.62421 -0.267518,1.57167 -0.267518,2.31849 l 0.312105,1.82805 q -0.200639,0.71338 -0.713383,0.71338 -0.156052,0.0446 -0.49045,0.0446 h -0.04459 v 0.57962 q -0.111466,1.29301 -0.668796,1.29301 h -0.133759 q -1.070074,-0.30096 -1.070074,-1.07008 -0.06688,0 -0.847142,-0.84714 -0.256372,-0.17835 -0.356691,-0.17835 -0.345545,0.44587 -1.070074,0.44587 0,0.0446 -0.133759,0.0446 h -0.267519 q -0.657649,0 -1.515938,-1.02548 -0.08917,-0.28981 -0.08917,-0.40128 v -0.0446 q 0,-0.15605 0.267519,-0.80255 v -0.0446 q 0,-0.39013 -1.605111,-6.46503 h -0.04459 q -0.490451,0.23408 -0.490451,1.6497 -0.178346,0.9809 -0.312105,0.9809 h -0.133759 q -0.323252,0 -0.490451,-2.36308 l 0.04459,-0.40128 q -0.178346,-0.41242 -0.178346,-0.57962 v -0.31211 q -0.178346,-2.58601 -0.178346,-3.34398 -0.178345,-0.43471 -0.356691,-2.36308 v -0.22293 q 0,-0.0892 0.133759,-0.0892 -0.133759,-0.9809 -0.133759,-1.20384 0,-0.0446 0.04459,-0.13375 -0.13376,-0.5016 -0.13376,-0.75797 0.04459,-0.13376 0.267519,-0.13376 h 4.057363 q 0.178346,0 0.62421,2.45225 l 1.560525,6.73255 q 0.256371,0.41242 0.579623,0.66879 0.613063,0 0.713383,-0.9809 0.356691,-1.6274 0.356691,-1.9618 v -0.17834 q 0,-0.65765 -0.08917,-2.09557 0,-0.39013 0.891728,-2.76435 0.769116,-1.90607 0.891729,-1.91722 0.07803,-0.0446 0.178345,-0.0446 h 1.382179 q 0.813702,0 2.273907,-0.0446 0.378985,0 0.490451,0.84714 0.713382,3.29939 1.025487,3.29939 0.01115,0.0669 0.891728,0.57963 0.178346,0.28981 0.178346,0.49045 -0.356691,0.86943 -0.356691,1.33759 0,2.17359 0.535037,3.87902 h 0.178345 q 0.356692,0 0.579624,-1.07008 0.222932,-0.50159 0.713382,-3.2548 v -0.13376 q 0,-0.17835 -0.178345,-1.24842 0.579623,-1.79461 0.579623,-2.27391 0.579623,-0.27866 0.579623,-1.20383 0.222932,-1.29301 0.445864,-1.29301 z"
         style="text-align:center;text-anchor:middle;fill:#860000;fill-opacity:1;stroke:#ffffff;stroke-width:1.07849979;stroke-miterlimit:4;stroke-dasharray:none;stroke-opacity:1"
         id="path866" />
      <path
         d="m 97.092044,211.49704 h 0.222932 q 0.200639,0 1.203833,0.3121 h 2.853531 q 0.0669,0 0.13376,0.22293 -0.0892,3.19908 -0.13376,3.92361 0,0.63535 0.75797,1.78346 0.0892,0.3121 0.0892,0.53503 v 0.17835 q 0,0.85829 -0.80255,1.51594 -0.0892,0.0446 -0.13376,0.0446 l -0.0892,2.09556 q 0.0669,0.39013 0.57963,1.02549 l 0.0446,0.26752 v 0.0446 q -0.12261,0.91402 -0.62421,1.47135 v 0.13376 q 0,1.22612 -0.0892,3.43315 -0.3344,0.0446 -1.07007,0.71338 -0.222935,0.13376 -0.312108,0.13376 -0.133759,0 -0.579623,-0.22293 -0.111466,0 -0.356691,2.09556 -0.300959,0.40128 -0.579624,0.40128 h -0.178345 q -0.378985,0 -0.535037,-0.6688 0.08917,-1.03663 0.08917,-1.293 v -0.17835 q 0,-0.0892 -0.668796,-0.26752 -0.390131,-0.1449 -0.535037,-0.75797 -0.133759,-0.50159 -0.133759,-0.75796 0,-0.078 0.08917,-0.49046 l -0.04459,-0.0892 0.04459,-0.22293 q -0.222932,-0.79141 -0.222932,-1.24842 0,-0.51274 0.04459,-1.20383 -0.04459,-0.24523 -0.04459,-0.40128 l 0.356691,-1.73887 v -0.13376 q 0,-0.11147 -0.133759,-0.57962 0.08917,-1.11466 0.401278,-2.94271 v -1.15924 q 0,-0.13376 -0.401278,-1.11466 -0.04459,-0.17835 -0.04459,-0.3567 v -0.49045 q -0.445865,-1.04778 -0.445865,-1.51593 v -0.22294 q 0,-0.59077 0.490451,-1.24842 0,-0.9809 0.445864,-0.9809 0.05573,-0.0446 0.312105,-0.0446 z"
         style="text-align:center;text-anchor:middle;fill:#860000;fill-opacity:1;stroke:#ffffff;stroke-width:1.07849979;stroke-miterlimit:4;stroke-dasharray:none;stroke-opacity:1"
         id="path868" />
      <path
         d="m 106.00933,211.27411 h 0.35669 q 0.15605,0 0.9809,0.49045 h 9.45232 q 0.13376,0 0.13376,0.49045 v 1.02548 q 0,0.21179 0.49045,1.07008 l 0.0446,0.44586 v 0.93632 q 0,0.44586 -0.3567,0.44586 h -0.13375 q -0.45702,0 -0.84715,-0.40128 -0.20064,0.13376 -0.26751,0.13376 -0.0446,0.6688 -0.0446,0.9809 0,0.65765 0.0446,1.15925 -0.22294,1.9841 -0.22294,3.9236 v 0.17835 q 0,0.0669 -0.13376,0.13376 -0.26751,-0.0892 -0.26751,-0.35669 v -0.49045 q -0.0892,-3.83443 -0.0892,-4.2803 0,-0.75797 -0.49045,-0.75797 l -0.35669,-0.17834 q -0.9809,0.75797 -0.9809,1.293 -0.31211,0.85829 -0.57962,1.11466 0,0.13376 -0.0446,0.13376 l 0.0446,0.0892 v 0.84714 q 0,0.67994 0.66879,3.25481 0.0892,1.04778 0.0892,1.69428 -0.1672,0.40128 -0.6688,0.40128 0.11147,2.40766 0.35669,2.40766 0.6688,0.60192 0.6688,1.38218 -0.11147,1.47135 -0.75797,1.47135 h -0.0892 q -0.46815,-0.0892 -0.49045,-0.0892 -0.0446,0.60192 -0.0446,0.89173 0,0.23408 0.0446,0.75797 -0.17834,0.51274 -0.17834,0.57962 0.0446,0.45701 0.0446,0.53504 l -0.22294,0.17834 h -0.26752 q -0.89172,0 -0.89172,-1.51593 0,-1.24842 -0.26752,-1.24842 -0.27867,-0.0892 -0.35669,-0.0892 -0.25638,0.35669 -0.53504,0.35669 h -0.0446 q -0.23408,0 -1.02548,-0.35669 v 0.93632 q 0,1.02549 -0.62421,1.02549 -0.98091,-0.10032 -0.98091,-0.84715 v -0.0446 q 0.0892,-0.44587 0.0892,-0.80256 0,-0.13376 -0.49045,-0.84714 -0.17835,-0.94746 -0.17835,-1.78346 0.80256,-4.28029 0.80256,-4.99367 v -0.0446 q 0,-2.42996 -0.0446,-5.08285 0.0446,-0.75797 0.0446,-1.51594 0,-0.25637 -0.49045,-0.40128 -0.28982,0.13376 -0.40128,0.13376 h -0.0446 q -0.10032,0 -0.71338,-0.26752 -0.39013,0.53504 -0.9809,0.53504 -0.40128,0 -1.33759,-0.62421 -0.17835,-0.28981 -0.17835,-0.44586 0,-1.77231 0.44586,-3.38857 l 0.13376,-0.0892 h 0.53504 z"
         style="text-align:center;text-anchor:middle;fill:#860000;fill-opacity:1;stroke:#ffffff;stroke-width:1.07849979;stroke-miterlimit:4;stroke-dasharray:none;stroke-opacity:1"
         id="path870" />
      <path
         d="m 122.32795,211.09576 q 1.29301,0.27866 1.29301,0.80255 v 0.17835 q 0,0.22293 -0.40128,0.62421 0.6688,1.71658 0.6688,2.18473 0,0.13376 -0.35669,0.75797 -0.0334,0.0557 -0.0892,0.71339 0,1.07007 1.9618,1.293 h 1.56053 q 0.15605,0 0.71338,-1.69428 v -0.0446 q -0.35669,-1.30415 -0.35669,-1.47135 0,-0.41242 0.71338,-1.42676 0.0892,-0.46816 0.0892,-0.49046 -0.0446,-0.3121 -0.0446,-0.53503 0,-0.22293 0.40128,-0.22293 h 3.65608 q 0.49045,0 0.49045,0.62421 0,2.41881 0.80256,3.21022 l 0.0446,0.26752 v 0.0446 l -0.53504,1.15925 q -0.0892,0.59077 -0.0892,1.15925 v 0.40127 q 0,2.35194 0.80255,5.17203 0.0446,0.34554 0.0446,0.75797 v 0.40127 q 0,1.12581 -0.40128,2.40767 l -0.0446,0.22293 q 0.0446,0.23408 0.0446,0.26752 0,0.40128 -0.44586,0.6688 l -0.53504,-0.0446 q -0.30096,0 -0.35669,0.80256 -0.15605,0.3121 -0.40128,0.3121 h -0.0892 q -0.49045,0 -0.80256,-1.02549 -0.0446,0 -0.13376,-0.0446 -0.23408,0.12261 -0.84714,0.66879 l -0.26752,0.0446 q -0.57962,0 -1.20383,-0.80256 -0.26752,-0.37898 -0.26752,-0.53503 v -0.17835 q 0.31211,-1.11466 0.31211,-1.78346 0,-0.26751 -0.0892,-1.33759 l 0.0446,-0.44586 q -0.0446,-0.5016 -0.0446,-1.15925 v -0.22293 l -0.0446,-0.22293 q -0.13376,0.0446 -0.13376,0.26752 v 0.0892 q 0,0.18949 0.0446,0.49045 -0.11146,0.35669 -0.26752,0.35669 -0.39013,0 -0.75796,-0.9809 l -0.0892,-0.0446 h -0.26752 q -0.0892,1.0032 -0.0892,1.47135 v 0.17835 q -0.078,0.57962 -0.40128,0.57962 -0.53503,0 -0.53503,-1.15924 -0.0446,-2.05098 -0.40128,-2.05098 -0.4793,-0.44586 -0.71338,-0.44586 -0.89173,0.35669 -0.89173,1.02549 0,0.76911 0.17834,5.26119 -0.59077,1.07008 -1.20383,1.07008 h -0.13376 q -0.71338,0 -1.56052,-0.49045 h -0.0446 q 0,0.23407 -0.53504,0.53503 -1.08122,0 -1.60511,-1.24842 v -0.66879 l -0.22293,-1.69429 q 0.26752,-0.61306 0.26752,-1.11466 0,-0.25637 -0.26752,-1.51594 v -0.0446 l 0.26752,-0.71338 q -0.0892,-0.80256 -0.0892,-1.29301 0.17834,-2.25161 0.17834,-3.78985 0,-0.49045 -0.13376,-4.9045 l 0.17835,-0.13376 h 0.3121 q 0.59077,0 1.51594,0.0446 z"
         style="text-align:center;text-anchor:middle;fill:#860000;fill-opacity:1;stroke:#ffffff;stroke-width:1.07849979;stroke-miterlimit:4;stroke-dasharray:none;stroke-opacity:1"
         id="path872" />
      <path
         d="m 80.327553,239.76482 q 0.133759,0 1.515938,0.53504 0.234078,0.0446 0.267518,0.0446 4.592401,0.0446 6.777135,0.0446 0.535037,0 0.535037,0.31211 0,0.24522 0.267518,1.78345 v 0.3567 q -0.08917,1.87262 -0.445864,1.87262 h -0.178346 q -0.59077,-0.23407 -0.847141,-0.49045 -0.791409,0.31211 -1.159247,0.31211 -0.111466,0 -0.579624,-0.22293 -0.367837,0.86943 -1.025487,1.07007 -0.267519,0.40128 -0.668796,0.40128 h -0.62421 v 1.15925 l 0.445864,0.0446 h 4.280296 q 0.122612,0 0.267518,0.0892 l 0.08917,3.25481 q 0,0.1672 -0.757969,1.02549 -0.356691,0.89173 -0.847142,0.89173 h -0.133759 q -0.289812,0 -0.980901,-1.11466 -0.07803,0 -0.579624,-0.40128 -1.203833,0.53504 -1.203833,1.15925 -0.445864,1.03663 -0.445864,1.24842 0.04459,2.22932 0.04459,3.2548 0,0.1895 -0.08917,0.40128 l 0.04459,0.26752 v 0.0446 q -0.378984,0.49045 -0.62421,0.49045 H 83.09191 q -0.100319,0 -0.178346,0.0446 -0.234078,0 -0.936314,-0.62421 h -0.133759 q -0.980902,0.30096 -0.980902,0.84715 -0.08917,0.26751 -0.356691,0.26751 H 80.10462 q -0.468157,0 -0.624209,-0.80255 l 0.08917,-3.03188 q -0.267518,-0.63535 -0.267518,-1.11466 v -0.49045 q 0.133759,-0.9809 0.133759,-1.20383 -0.356691,-1.71658 -0.356691,-2.14015 v -0.13376 q 0.267518,-1.18154 0.267518,-1.69428 0,-0.32325 0.267519,-1.60511 v -0.6688 q 0,-0.20064 -0.401278,-1.51594 -0.267518,-1.35988 -0.579623,-2.49684 v -0.22293 q 0.378984,-1.24842 1.382179,-1.24842 z"
         style="text-align:center;text-anchor:middle;fill:#860000;fill-opacity:1;stroke:#ffffff;stroke-width:1.07849979;stroke-miterlimit:4;stroke-dasharray:none;stroke-opacity:1"
         id="path874" />
      <path
         d="m 91.964607,240.03234 h 0.222932 q 0.200638,0 1.203833,0.31211 h 2.85353 q 0.06688,0 0.133759,0.22293 -0.08917,3.19907 -0.133759,3.9236 0,0.63536 0.757969,1.78346 0.08917,0.3121 0.08917,0.53504 v 0.17834 q 0,0.85829 -0.802555,1.51594 -0.08917,0.0446 -0.13376,0.0446 l -0.08917,2.09556 q 0.06688,0.39013 0.579623,1.02549 l 0.04459,0.26751 v 0.0446 q -0.122612,0.91402 -0.624209,1.47135 v 0.13376 q 0,1.22613 -0.08917,3.43315 -0.334398,0.0446 -1.070074,0.71339 -0.222932,0.13376 -0.312105,0.13376 -0.133759,0 -0.579623,-0.22294 -0.111467,0 -0.356692,2.09557 -0.300958,0.40127 -0.579623,0.40127 h -0.178346 q -0.378984,0 -0.535037,-0.66879 0.08917,-1.03664 0.08917,-1.29301 v -0.17834 q 0,-0.0892 -0.668796,-0.26752 -0.390131,-0.14491 -0.535037,-0.75797 -0.133759,-0.5016 -0.133759,-0.75797 0,-0.078 0.08917,-0.49045 l -0.04459,-0.0892 0.04459,-0.22294 q -0.222933,-0.79141 -0.222933,-1.24842 0,-0.51274 0.04459,-1.20383 -0.04459,-0.24522 -0.04459,-0.40128 l 0.356692,-1.73887 v -0.13376 q 0,-0.11146 -0.133759,-0.57962 0.08917,-1.11466 0.401277,-2.9427 v -1.15925 q 0,-0.13376 -0.401277,-1.11466 -0.04459,-0.17835 -0.04459,-0.35669 v -0.49045 q -0.445864,-1.04778 -0.445864,-1.51594 v -0.22293 q 0,-0.59077 0.490451,-1.24842 0,-0.9809 0.445864,-0.9809 0.05573,-0.0446 0.312105,-0.0446 z"
         style="text-align:center;text-anchor:middle;fill:#860000;fill-opacity:1;stroke:#ffffff;stroke-width:1.07849979;stroke-miterlimit:4;stroke-dasharray:none;stroke-opacity:1"
         id="path876" />
      <path
         d="m 110.11128,240.05463 q 0.15605,0 0.84714,0.26752 h 3.56691 q 0.0892,0.0112 0.0892,0.0892 v 0.0446 q -1.11466,3.63379 -1.11466,4.14654 l -0.0892,0.53504 q 0.0892,0.36783 0.0892,0.71338 l -0.49045,1.07007 q 0.0892,0.27867 0.0892,0.84714 0,0.11147 -0.22294,0.57963 0.0446,3.22137 0.0446,3.96819 0.17835,1.43791 0.26752,3.03187 v 0.0892 q 0,0.0669 -0.17835,0.17834 h -0.3121 q -0.23408,0 -0.40128,-0.62421 0,-0.41242 0.0446,-1.78345 -0.0446,-2.87583 -0.0446,-3.6115 l -0.0446,-0.40128 h -0.0892 q -0.12261,0.36784 -0.40128,2.09556 -0.25637,0.32325 -0.44586,2.00639 0,0.3344 -0.6688,0.75797 -0.3121,0.63535 -0.3121,0.89173 v 0.17834 q 0,0.41243 0.0446,0.75797 0,1.71658 -0.80255,2.36308 -0.57962,0.078 -0.57962,0.44587 0,1.56052 -0.31211,1.56052 h -0.22293 q -0.61306,0 -0.71338,-1.38218 -0.23408,0.17835 -0.40128,0.17835 h -0.26752 q -0.6688,-0.22294 -0.80256,-0.22294 h -0.17834 q -0.75797,0 -0.75797,0.22294 0,1.42676 -0.44586,1.42676 h -0.17835 q -0.84714,-0.21178 -0.84714,-0.84714 0,-1.78346 -0.40128,-1.78346 -0.6688,-0.44586 -0.6688,-0.66879 0,-0.0446 0.17835,-0.26752 v -0.0446 q -0.57962,-0.4793 -0.57962,-1.24842 v -0.49045 q 0,-0.17834 -0.44587,-0.57962 -0.3121,-0.90288 -0.57962,-1.47135 -0.27867,-2.98729 -0.57962,-2.98729 -0.22294,-0.31211 -0.22294,-0.57963 v -0.57962 q 0,-0.61306 -0.802551,-1.02549 -0.211786,-0.1672 -0.356692,-1.293 -0.267518,-0.45701 -0.267518,-1.02549 l 0.133759,-1.07007 q 0,-0.53504 -1.025487,-3.47774 -0.13376,-0.43472 -0.13376,-0.57963 l 0.08917,-0.0446 h 1.11466 q 1.371036,0 3.700676,-0.0446 0.41242,0 0.53503,0.89173 0,0.50159 0.57963,0.84714 0.44586,0.43472 0.44586,0.6688 l -0.0892,0.3121 q 0.23408,0.15605 0.3121,0.35669 l -0.13376,0.89173 q 0.80256,0.12261 0.80256,0.80256 v 0.13375 q -0.0892,0.47931 -0.0892,0.62421 0.17834,0.60192 0.17834,0.71339 -0.17834,0.93631 -0.17834,1.07007 0,0.73568 0.49045,1.15925 0.13376,0.25637 0.53503,1.24842 h 0.0892 v -0.0892 q 0,-0.16719 -0.22294,-0.49045 v -0.26751 q 0.84715,-0.91403 0.84715,-1.3376 0,-0.66879 1.11466,-3.47774 0.44586,-1.28186 0.44586,-1.42676 -0.0892,-0.59077 -0.0892,-0.62421 l 0.17834,-1.02549 q -0.0446,-0.52389 -0.0446,-0.75797 0.23408,-0.53504 0.84714,-0.53504 z"
         style="text-align:center;text-anchor:middle;fill:#860000;fill-opacity:1;stroke:#ffffff;stroke-width:1.07849979;stroke-miterlimit:4;stroke-dasharray:none;stroke-opacity:1"
         id="path878" />
      <path
         d="m 116.933,239.8317 h 0.13376 q 0.15605,0 0.66879,0.44587 0.0669,0.0446 0.49045,0.0892 0.88058,-0.0446 1.15925,-0.0446 0.61306,0.0446 0.75797,0.0446 0.1449,0 1.02549,-0.49045 h 0.0446 q 1.78346,0.10032 1.78346,0.40128 0.1672,0.0892 0.35669,0.0892 h 2.36308 q 0.40128,0 0.40128,0.3121 v 3.12105 q -0.62421,0.71339 -0.6688,0.71339 h -0.0446 q -0.1449,0 -0.57962,-0.3567 -0.24522,0.80256 -0.80255,0.80256 -0.11147,0 -0.6688,-0.44586 -0.27867,0 -0.9809,-0.49045 -0.24523,-0.0446 -0.40128,-0.0446 h -0.0446 q -0.60191,0.53504 -1.02548,0.57962 0.0446,0.24523 0.0892,1.24842 h 0.0446 q 0.72453,0 2.14014,0.62421 h 2.09557 q 0.3121,0 0.49045,0.0892 0.0446,1.85034 0.0446,2.76436 v 1.02549 q 0,0.35669 -0.71338,0.80255 0,0.13376 -0.0446,0.13376 l 0.0446,0.22294 v 1.11466 q 0.0112,0.44586 0.0892,0.44586 1.07008,0 1.07008,0.13376 l 0.0446,0.26752 v 3.21022 q -0.26752,1.03663 -0.26752,1.51594 v 0.35669 l 0.0446,0.3121 q -0.17834,0.0892 -0.49045,0.0892 -0.30096,-0.42357 -0.40128,-1.38218 -0.1672,-0.62421 -0.3121,-0.62421 -0.51275,0 -1.47135,1.11466 -0.14491,0.0892 -0.26752,0.0892 -0.80256,0 -1.47135,-0.93631 h -0.0446 q -0.24523,0 -0.93632,0.71338 -0.22293,0.13376 -0.44586,0.13376 h -0.0446 q -0.27866,0 -1.20383,-0.57962 h -0.0446 q -0.30095,0.80255 -0.6242,0.80255 -0.078,0.0446 -0.17835,0.0446 -0.30096,-0.0557 -0.80256,-0.9809 h -0.0446 q -0.22293,0.13376 -0.35669,0.13376 h -0.13376 q -0.78027,0 -1.11466,-0.98091 -0.0446,-0.30095 -0.0446,-0.49045 v -0.0892 q 0,-0.43472 0.53504,-1.51594 v -3.6115 q 0,-1.10351 -0.0446,-3.07646 -0.49045,-0.54618 -0.49045,-0.89173 v -0.3121 q 0.31211,-2.36308 0.31211,-2.80895 0,-0.12261 -0.13376,-2.22932 0,-0.0892 0.0892,-0.3121 -0.0446,-0.30096 -0.0446,-0.49045 0,-0.47931 1.07008,-0.80256 z m 3.87901,10.1657 v 1.91722 q 0,1.11466 1.42677,1.11466 h 2.22932 q 0.0892,-0.85829 0.0892,-1.29301 0,-1.33759 -0.44586,-1.33759 0,-0.10032 -0.44587,-0.3121 -0.8137,0.62421 -1.24841,0.62421 -0.56848,0 -1.11467,-0.71339 z"
         style="text-align:center;text-anchor:middle;fill:#860000;fill-opacity:1;stroke:#ffffff;stroke-width:1.07849979;stroke-miterlimit:4;stroke-dasharray:none;stroke-opacity:1"
         id="path880" />
      <path
         d="m 81.263867,268.94663 q 0.06688,0 0.133759,0.13376 v 0.0892 q -1.11466,5.03827 -1.248419,5.92999 v 0.75797 q 0,0.12262 0.178346,0.6688 v 0.0892 q 0,0.94746 -0.75797,1.56053 -0.222932,0.39013 -0.222932,1.02548 0.267519,0.57963 0.267519,0.84715 -0.144906,1.27071 -0.356691,1.33759 -0.802556,1.13695 -0.936315,1.73887 v 0.0446 q 0.133759,1.98409 0.133759,2.63059 0,2.05098 -0.445864,2.05098 -0.245225,2.02868 -0.356691,2.22932 l -0.08917,0.0446 h -0.133759 q -0.490451,0 -0.490451,-0.98091 -0.211785,-0.39013 -0.579623,-2.22932 h -0.08917 q -0.178346,0 -0.312105,1.3376 l -0.08917,0.0446 h -0.178345 q -0.345545,0 -0.757969,-0.75797 -0.07803,-0.44586 -0.178346,-0.44586 h -0.579623 q -0.557331,0.5016 -0.936315,1.60511 l -0.178346,0.13376 h -0.133759 q -1.025487,0 -1.025487,-2.27391 -0.62421,-0.41242 -0.62421,-0.93631 -0.144906,-1.6497 -0.401278,-1.6497 -0.356691,0 -0.356691,-1.47135 v -1.47135 q 0,-0.27867 -0.62421,-2.40767 0,-0.0892 -0.356691,-0.66879 h -0.04459 q -0.289811,0 -0.847142,3.43315 0,0.23408 0.08917,0.62421 -0.267518,1.57167 -0.267518,2.31849 l 0.312105,1.82805 q -0.200639,0.71338 -0.713383,0.71338 -0.156052,0.0446 -0.490451,0.0446 h -0.04459 v 0.57963 q -0.111466,1.293 -0.668796,1.293 h -0.133759 q -1.070074,-0.30095 -1.070074,-1.07007 -0.06688,0 -0.847142,-0.84714 -0.256372,-0.17835 -0.356691,-0.17835 -0.345545,0.44587 -1.070074,0.44587 0,0.0446 -0.13376,0.0446 h -0.267518 q -0.65765,0 -1.515938,-1.02548 -0.08917,-0.28982 -0.08917,-0.40128 v -0.0446 q 0,-0.15605 0.267519,-0.80255 v -0.0446 q 0,-0.39013 -1.605111,-6.46503 h -0.04459 q -0.49045,0.23408 -0.49045,1.6497 -0.178346,0.9809 -0.312105,0.9809 h -0.133759 q -0.323252,0 -0.490451,-2.36308 l 0.04459,-0.40128 q -0.178346,-0.41242 -0.178346,-0.57962 v -0.31211 q -0.178346,-2.58601 -0.178346,-3.34398 -0.178345,-0.43472 -0.356691,-2.36308 v -0.22293 q 0,-0.0892 0.133759,-0.0892 -0.133759,-0.9809 -0.133759,-1.20384 0,-0.0446 0.04459,-0.13376 -0.133759,-0.50159 -0.133759,-0.75797 0.04459,-0.13375 0.267519,-0.13375 h 4.057363 q 0.178346,0 0.62421,2.45225 l 1.560524,6.73255 q 0.256372,0.41242 0.579624,0.66879 0.613063,0 0.713382,-0.9809 0.356692,-1.6274 0.356692,-1.9618 v -0.17835 q 0,-0.65765 -0.08917,-2.09556 0,-0.39013 0.891728,-2.76436 0.769116,-1.90606 0.891728,-1.91721 0.07803,-0.0446 0.178346,-0.0446 h 1.382179 q 0.813702,0 2.273907,-0.0446 0.378984,0 0.49045,0.84714 0.713383,3.29939 1.025488,3.29939 0.01115,0.0669 0.891728,0.57963 0.178346,0.28981 0.178346,0.49045 -0.356692,0.86943 -0.356692,1.33759 0,2.17359 0.535037,3.87902 h 0.178346 q 0.356691,0 0.579623,-1.07008 0.222932,-0.50159 0.713383,-3.25481 v -0.13375 q 0,-0.17835 -0.178346,-1.24842 0.579624,-1.79461 0.579624,-2.27391 0.579623,-0.27867 0.579623,-1.20383 0.222932,-1.29301 0.445864,-1.29301 z"
         style="text-align:center;text-anchor:middle;fill:#860000;fill-opacity:1;stroke:#ffffff;stroke-width:1.07849979;stroke-miterlimit:4;stroke-dasharray:none;stroke-opacity:1"
         id="path882" />
      <path
         d="m 90.716187,269.0358 h 0.802555 q 1.917216,0 4.146537,0.9809 0.679943,0 1.515938,0.93632 0.07803,0.57962 1.070074,1.56052 0.05573,0 0.178345,0.71339 0.356692,0.63535 0.847142,2.9427 0.445864,0.15605 0.445864,1.24842 0.312108,1.02549 0.312108,1.33759 v 0.26752 q 0,0.46816 -0.802558,1.15925 -0.256372,0.39013 -0.445864,2.85353 0,0.82484 -0.401278,1.69428 0,0.93631 -0.490451,0.93631 -0.245225,-0.10031 -0.624209,-0.71338 v -0.13376 l 0.04459,-0.44586 h -0.133759 l -0.445864,0.80255 q 0,0.078 -1.515938,1.20384 -0.546184,0.71338 -0.891729,0.71338 H 94.2831 q -0.256372,0 -0.847142,-0.44586 -0.06688,-0.0446 -0.267518,-0.0446 -0.323252,0 -0.490451,0.57962 -0.401278,0.21179 -0.401278,0.57963 -0.06688,1.47135 -0.445864,1.47135 h -0.356691 q -0.713383,0 -0.713383,-1.6497 -0.04459,-0.42357 -0.04459,-0.84714 h -0.401278 q -0.546183,0.75797 -0.980901,0.75797 -0.724529,0 -1.783456,-1.20384 l -0.222932,-0.57962 -0.356692,0.6688 q -0.312105,0.26752 -0.624209,0.26752 h -0.08917 q -0.702236,0 -1.24842,-1.29301 0,-1.52708 -0.936315,-1.9618 -1.11466,-2.32964 -1.11466,-2.54143 0.04459,-0.30096 0.04459,-0.49045 v -0.17834 q 0,-0.15606 -0.490451,-1.15925 -0.08917,-0.17835 -0.08917,-0.49045 v -0.26752 q 0,-0.56848 0.579624,-1.78346 0,-2.4411 1.783456,-4.99367 2.195881,-2.45226 5.929993,-2.45226 z m -0.312105,7.04466 q 0,0.25637 0.04459,1.07007 -0.04459,0.6688 -0.312104,2.27391 0.03344,2.98729 0.178345,2.98729 0.401278,0.0892 1.070074,0.0892 h 0.178346 q 2.073268,0 2.630598,-2.14015 v -0.0446 q 0,-3.97934 -0.62421,-5.21662 -0.05573,-0.40127 -0.222932,-0.40127 -0.267518,0.17834 -0.49045,0.17834 -1.025488,-0.44586 -1.025488,-0.9809 -0.323251,-0.49045 -0.401277,-0.49045 h -0.312105 q -0.356692,0 -0.356692,0.6688 -0.356691,1.19268 -0.356691,2.00639 z m -1.515938,-2.18474 q -0.457011,0.49045 -0.980901,2.80895 l -0.04459,0.62421 q 0,3.87901 1.783456,4.77074 v -0.0446 q -0.08917,-1.30416 -0.08917,-1.6497 0,-0.8137 0.04459,-1.07008 -0.04459,-1.04778 -0.04459,-2.00638 v -1.51594 q 0,-1.87263 -0.401278,-1.87263 -0.03344,0 -0.267518,-0.0446 z"
         style="text-align:center;text-anchor:middle;fill:#860000;fill-opacity:1;stroke:#ffffff;stroke-width:1.07849979;stroke-miterlimit:4;stroke-dasharray:none;stroke-opacity:1"
         id="path884" />
      <path
         d="m 101.77362,268.83516 h 0.62421 q 7.90294,0 8.33766,0.44587 1.80575,0.4793 2.67518,1.60511 1.02549,1.15925 1.02549,3.25481 0,1.07007 -0.75797,2.71977 -0.13376,1.47135 -0.13376,2.67518 v 1.91722 q 0,0.41242 1.91722,3.12105 0.93631,1.34874 0.93631,1.51594 v 0.13375 q 0,0.44587 -0.40128,0.44587 0,0.28981 -1.11466,0.62421 -0.24522,0 -0.49045,1.91721 l -0.17834,0.13376 h -0.35669 q -0.3567,-0.39013 -0.3567,-0.80255 0,-0.1672 0.0446,-1.24842 0,-0.67994 -0.49045,-0.93632 -0.25637,-0.13376 -0.44586,-0.17834 -0.62421,1.52708 -0.75797,1.69428 h -0.31211 q -0.53503,-0.13376 -0.53503,-1.33759 0,-0.32325 -0.44587,-0.75797 v -0.49045 l -0.22293,-0.0446 q 0,0.0557 -0.22293,0.17835 h -0.31211 q -0.80255,-0.51274 -0.80255,-2.05098 -0.17835,-1.20383 -0.49045,-1.20383 -0.21179,-0.22293 -0.6688,-1.24842 -0.59077,-0.35669 -0.93631,-0.84714 -0.13376,1.57167 -0.17835,1.73887 0.13376,0.72453 0.13376,1.42677 -0.31211,0.59077 -0.31211,1.47135 0.3567,1.35988 0.3567,1.73887 v 0.17834 q -0.15606,0.26752 -0.40128,0.26752 -0.22293,0 -0.53504,-0.17834 -0.67994,1.78345 -0.93631,1.78345 h -0.17835 q -0.42357,-0.18949 -0.57962,-0.71338 -0.75797,-0.70224 -1.15925,-1.29301 -0.32325,0.62421 -0.6688,0.62421 -0.3121,0 -0.80255,-0.75797 0,-0.25637 -0.44587,-1.07007 v -0.17835 q 0.31211,-1.20383 0.31211,-1.38217 -0.0892,-0.78027 -0.0892,-1.6497 v -0.22293 q 0,-0.078 0.22293,-0.57963 -0.35669,-0.96975 -0.35669,-1.15924 l 0.17834,-1.20384 q -0.40127,-0.71338 -0.40127,-0.9809 0,-0.23408 0.80255,-0.89173 v -0.80255 q -0.44586,-1.4825 -0.44586,-1.60511 -0.0446,-0.44587 -0.0446,-0.6688 0,-0.21178 0.13376,-0.93631 -0.13376,-0.72453 -0.13376,-0.93632 0.0446,-0.60191 0.17835,-0.9809 -0.40128,-0.24522 -0.44587,-0.35669 v -0.0446 q 0,-0.24522 0.26752,-0.71338 0,-0.0669 -0.17835,-0.3121 v -0.0892 q 0,-0.35669 0.57963,-0.75797 z m 4.9045,4.23571 v 0.0446 q 0,0.14491 -0.17834,1.02549 0,0.10032 0.44586,0.49045 l 0.0446,0.17834 q -0.13376,0.52389 -0.13376,0.6688 0,0.44586 0.89173,0.80255 h 0.0446 q 0.43472,0 0.53504,-0.3121 -0.0892,-1.39333 -0.0892,-2.14015 l 0.0446,-0.40128 h -0.0446 q -0.28981,0.0892 -0.40128,0.0892 -0.14491,0 -1.11466,-0.44587 z m 2.40767,1.60511 v 0.31211 q 0,0.23408 0.0446,0.75797 0.26751,-0.14491 0.26751,-0.49045 v -0.26752 q 0,-1.20383 -0.13375,-1.56053 -0.17835,0 -0.17835,1.24842 z m 2.9427,3.74526 v 0.31211 q 0,0.95861 0.84714,1.87263 l 0.0446,-0.40128 q 0,-0.34555 -0.0446,-0.62421 0.0446,-0.59077 0.0446,-1.24842 v -0.22293 l 0.0446,-0.44587 q -0.74682,0.52389 -0.93632,0.75797 z"
         style="text-align:center;text-anchor:middle;fill:#860000;fill-opacity:1;stroke:#ffffff;stroke-width:1.07849979;stroke-miterlimit:4;stroke-dasharray:none;stroke-opacity:1"
         id="path886" />
      <path
         d="m 118.09224,268.87975 h 5.70706 q 5.43955,0 7.5797,3.56691 0.41242,0.1895 0.89172,1.47135 v 0.17835 l -0.13376,0.6688 q 0.53504,2.53028 0.80256,3.07646 v 0.0892 q 0,0.34555 -0.6688,1.20384 -0.078,0.28981 -0.13376,2.76435 -0.16719,1.20384 -0.26751,1.20384 -0.28982,0 -0.40128,-2.09557 h -0.0446 q -1.11466,2.56372 -1.11466,3.74526 0,1.24842 -0.35669,1.38218 h -0.0892 q -0.53504,0 -0.53504,-1.33759 -0.0446,-0.42357 -0.0446,-0.80256 -0.17834,0.0669 -0.89172,1.15925 -0.59077,0.49045 -0.98091,0.49045 h -0.26751 q -0.17835,0 -1.73887,-0.40128 -0.0446,0 -0.0446,0.0446 -0.1672,0.65765 -0.6688,0.93631 -0.59077,0.22294 -0.66879,0.22294 h -0.26752 q -0.40128,0 -1.38218,-1.15925 h -0.13376 q -0.72453,0.71338 -1.29301,0.71338 h -0.17834 q -0.31211,0 -1.24842,-0.62421 -0.34555,0 -0.53504,0.80256 -0.23408,0.22293 -0.40128,0.22293 h -0.13375 q -0.84715,0 -0.84715,-2.09556 -0.0446,-0.27867 -0.0446,-0.6688 0.0892,-1.41562 0.0892,-1.87263 -0.0892,-0.94746 -0.0892,-1.11466 0,-0.37898 0.40127,-1.24842 v -0.22293 q 0,-0.52389 -0.44586,-2.09556 v -0.13376 q 0,-0.44586 0.44586,-2.36308 0.0446,-0.60192 0.0446,-0.84714 0,-0.39013 -0.57962,-1.73887 v -0.31211 q 0,-0.30095 0.53503,-1.11466 0.0446,-0.17834 0.0446,-0.35669 v -1.24842 q 0.0112,-0.0892 0.0892,-0.0892 z m 4.50323,4.10195 v 0.9809 q 0,1.10352 0.75797,2.27391 0.5016,0.28981 0.75797,1.33759 v 0.26752 q 0,0.12261 -0.35669,0.6688 -0.078,0.16719 -0.13376,0.44586 0.0446,0.74682 0.0446,1.15925 v 0.53503 q 0,0.28981 -0.0446,0.89173 h 0.0446 q 2.45225,0 3.34398,-1.87263 0.49045,-1.30415 0.49045,-2.6306 v -0.35669 q 0,-2.38537 -1.15925,-3.38856 -0.53504,1.08122 -0.89173,3.43315 l -0.13376,0.0892 h -0.13376 q -0.49045,0 -0.57962,-1.20383 -0.11147,-2.37423 -0.75797,-2.76436 -0.32325,-0.40128 -0.62421,-0.40128 h -0.0892 q -0.53504,0 -0.53504,0.53504 z m 0.31211,6.2421 q -0.31211,0.66879 -0.31211,0.89173 v 1.42676 h 0.35669 v -2.31849 z"
         style="text-align:center;text-anchor:middle;fill:#860000;fill-opacity:1;stroke:#ffffff;stroke-width:1.07849979;stroke-miterlimit:4;stroke-dasharray:none;stroke-opacity:1"
         id="path888" />
      <path
         d="m 140.65297,269.0358 h 0.62421 q 2.68633,0 5.39496,1.24842 v 0.0446 l -0.35669,0.84714 q 0.13375,0.28981 0.13375,0.40128 v 0.0892 q 0,0.22293 -0.66879,1.15925 v 1.42676 q 0,1.47135 -0.35669,1.47135 h -0.0446 q -0.73568,0 -1.02549,-1.78345 -0.078,-0.53504 -0.53503,-0.53504 -0.67995,0 -1.60511,-0.53504 h -0.26752 q -0.28981,0.40128 -0.40128,0.44587 h -0.13376 q -0.11147,0 -0.80256,-0.22293 -1.24841,0.39013 -1.24841,0.75797 v 0.13375 q 0,0.82485 3.65608,2.36308 2.82009,1.41562 3.2994,3.03188 0.42357,1.47135 0.66879,1.56052 0.13376,0.1672 0.13376,0.31211 v 0.13376 q 0,0.22293 -0.53504,1.02549 0,0.40127 -0.44586,4.81533 0.0446,0.30096 0.0446,0.49045 l -0.22294,0.17835 h -0.0892 q -0.40128,-0.12262 -0.53504,-2.00639 h -0.0446 q 0,0.13376 -0.0892,0.13376 h -0.13376 q -0.13376,-0.0446 -0.13376,-0.26752 v -0.13376 h -0.0892 q 0,0.99205 -0.40127,1.24842 -0.22294,0 -0.49045,1.293 -0.1672,0.39013 -0.26752,0.40128 h -0.13376 q -0.44587,-0.34554 -0.44587,-0.66879 l 0.13376,-0.71339 q 0,-0.39013 -0.40127,-0.80255 -0.90288,0.1449 -1.51594,0.57962 -0.37899,0.0892 -1.56053,0.44586 -1.39332,0 -1.73887,-0.26751 -0.3121,-0.49045 -0.35669,-0.49045 -1.51594,0.34554 -1.51594,0.84714 0.0446,0.55733 0.0446,0.62421 -0.13376,0.3121 -0.44586,0.3121 -0.36784,0 -0.71339,-0.89173 0,-1.35988 -0.71338,-2.05097 -0.13376,-0.1672 -0.13376,-0.40128 v -0.71338 q 0,-0.1672 -0.22293,-0.40128 0.25637,-0.45701 0.35669,-0.71338 -0.26752,-0.72453 -0.26752,-0.84714 v -0.17835 q 0,-0.32325 0.49045,-0.44586 0,-0.26752 0.17835,-0.26752 2.6083,1.15925 3.38857,1.15925 0,0.0557 0.26751,0.0892 v -0.0446 q 0,-0.37898 0.0446,-2.71977 0,-0.46816 -0.44586,-0.80256 h -0.17835 q -0.86943,0 -1.47135,-0.9809 -0.1672,-0.18949 -0.71338,-0.35669 -0.0112,-0.10032 -0.62421,-0.40128 -0.80256,-1.11466 -0.80256,-1.78345 l 0.0446,-0.40128 -0.0892,-0.17835 q 0.36784,-2.15129 1.15925,-3.52232 0.76912,-1.40447 3.12105,-2.22932 1.30415,-0.31211 2.22932,-0.31211 z m -1.33759,10.70074 q -0.0446,0.36784 -0.22293,3.12105 l 0.93631,0.0892 q 1.62741,0 1.87263,-1.02548 0,-0.10032 0.0446,-0.17835 0,-0.71338 -0.71339,-1.07007 l -0.0892,0.0446 h -0.0446 q -0.22294,-0.42357 -0.62421,-0.49045 -0.836,-0.49045 -1.15925,-0.49045 z"
         style="text-align:center;text-anchor:middle;fill:#860000;fill-opacity:1;stroke:#ffffff;stroke-width:1.07849979;stroke-miterlimit:4;stroke-dasharray:none;stroke-opacity:1"
         id="path890" />
    </g>
  </g>
</svg>
