<?xml version="1.0" encoding="UTF-8" standalone="no"?>
<!-- Created with Inkscape (http://www.inkscape.org/) -->

<svg
   xmlns:dc="http://purl.org/dc/elements/1.1/"
   xmlns:cc="http://creativecommons.org/ns#"
   xmlns:rdf="http://www.w3.org/1999/02/22-rdf-syntax-ns#"
   xmlns:svg="http://www.w3.org/2000/svg"
   xmlns="http://www.w3.org/2000/svg"
   xmlns:sodipodi="http://sodipodi.sourceforge.net/DTD/sodipodi-0.dtd"
   xmlns:inkscape="http://www.inkscape.org/namespaces/inkscape"
   width="280mm"
   height="310mm"
   viewBox="0 0 280 310"
   version="1.1"
   id="svg5199"
   inkscape:version="0.92.3 (2405546, 2018-03-11)"
   sodipodi:docname="entitychoice.svg">
  <defs
     id="defs5193" />
  <sodipodi:namedview
     id="base"
     pagecolor="#ffffff"
     bordercolor="#666666"
     borderopacity="1.0"
     inkscape:pageopacity="0.0"
     inkscape:pageshadow="2"
     inkscape:zoom="0.98994949"
     inkscape:cx="137.55675"
     inkscape:cy="561.20903"
     inkscape:document-units="mm"
     inkscape:current-layer="layer1"
     showgrid="false"
     inkscape:window-width="3440"
     inkscape:window-height="1377"
     inkscape:window-x="-8"
     inkscape:window-y="-8"
     inkscape:window-maximized="1" />
  <metadata
     id="metadata5196">
    <rdf:RDF>
      <cc:Work
         rdf:about="">
        <dc:format>image/svg+xml</dc:format>
        <dc:type
           rdf:resource="http://purl.org/dc/dcmitype/StillImage" />
        <dc:title></dc:title>
      </cc:Work>
    </rdf:RDF>
  </metadata>
  <g
     inkscape:label="Layer 1"
     inkscape:groupmode="layer"
     id="layer1"
     transform="translate(0,13)">
    <path
       id="path826"
       transform="scale(0.26458333)"
       style="fill:#ffffff;stroke-width:1.84117436"
       d="m 374.13672,199.49023 c 0.15229,0.12201 -0.0379,-0.0305 0.11719,0.0937 -0.57726,-0.15099 0.64391,0.17738 0.125,-0.0215 -0.071,-0.0272 -0.16215,-0.0479 -0.24219,-0.0723 z m -33.41992,43.24024 c -102.41123,-0.01 -107.37651,0.40185 -129.67188,10.76367 -15.43992,7.17577 -37.3016,26.70479 -46.43164,41.47656 -3.91043,6.32672 -8.98095,17.42891 -11.26758,24.67383 -4.02171,12.74211 -4.19632,17.50045 -5.35547,145.60742 -0.65916,72.8391 -0.5818,136.06595 0.17188,140.50391 1.6914,9.95992 10.87285,22.63766 19.77734,27.30859 15.3941,8.07493 34.60707,6.14136 46.46485,-4.67773 13.62453,-12.43121 13.05664,-6.52098 13.05664,-135.9707 0,-106.12351 0.29084,-116.95393 3.23047,-119.8418 3.96607,-3.89631 11.06475,-4.10569 15.17968,-0.44727 2.76741,2.46009 3.06836,33.90643 3.06836,320.21289 0,219.31798 0.64773,320.16576 2.09375,326.16016 3.62709,15.0359 19.12142,29.5832 35.46875,33.3008 9.89921,2.2511 32.67014,0.1961 41.91602,-3.7832 9.64885,-4.1526 19.16937,-13.2518 24.22851,-23.1543 3.40805,-6.6709 3.61291,-14.6464 3.64844,-145.50588 0.0422,-136.10732 0.10984,-138.50659 3.94922,-141.91992 4.59743,-4.08737 9.50645,-4.42212 14.75977,-1.00781 3.6858,2.3955 3.81819,6.45524 4.76757,147.12695 l 0.97461,144.66606 4.4336,7.375 c 6.09641,10.1459 16.88209,16.1422 31.07422,17.2753 15.17809,1.212 26.47838,-1.7537 34.76953,-9.125 13.87725,-12.3374 12.99139,-1.4664 12.78125,-156.94917 -0.1914,-141.46152 0.14842,-149.14258 6.59179,-149.46875 1.17003,-0.0593 24.11412,-0.015 50.98633,0.0977 26.87222,0.11305 50.37761,-0.3122 52.23438,-0.94531 4.69081,-1.60025 4.30751,-8.70591 -1.33203,-24.73047 -4.59784,-13.0645 -7.60953,-22.19693 -28.46485,-86.28906 -5.59245,-17.18668 -11.77392,-35.93517 -13.73633,-41.66406 -1.96252,-5.72886 -6.37495,-19.00883 -9.80468,-29.51172 -3.42981,-10.50297 -8.28336,-25.34587 -10.78711,-32.98438 -2.50383,-7.63853 -6.82638,-20.92034 -9.60547,-29.51367 -2.77897,-8.59336 -7.15932,-21.87314 -9.73242,-29.51172 -6.02801,-17.89451 -12.82956,-38.57081 -20.56055,-62.49609 -3.39383,-10.50293 -7.60788,-22.84478 -9.36328,-27.42578 -3.74563,-9.77518 -1.97289,-13.92985 6.31641,-14.80469 7.81061,-0.82424 12.07593,3.67255 16.77929,17.6836 2.28828,6.81678 5.77193,17.08161 7.74024,22.81054 1.96826,5.72886 6.36697,19.00883 9.77539,29.51172 6.52807,20.11665 11.99302,36.08116 20.20703,59.02539 2.73456,7.63858 5.82673,17.01282 6.87109,20.83203 1.04444,3.81929 5.92211,18.63807 10.83985,32.93164 4.91773,14.29357 8.9414,26.80521 8.9414,27.80274 0,0.9976 1.85019,4.9273 4.11133,8.73242 15.86343,26.69639 47.96206,29.21384 65.69727,5.15234 7.97268,-10.81651 8.40999,-21.57448 1.64453,-40.57617 -2.58709,-7.26603 -6.63891,-19.06936 -9.00391,-26.23047 -4.38648,-13.28235 -23.16509,-67.46047 -28.28125,-81.59375 -1.55539,-4.29672 -5.95817,-17.18674 -9.7832,-28.64453 -16.73685,-50.13447 -29.78723,-86.98358 -33.80078,-95.4414 -15.66902,-33.02017 -53.9667,-60.27273 -91.47461,-65.09376 -7.33769,-0.94308 -55.07966,-1.71774 -106.09375,-1.72265 z"
       inkscape:connector-curvature="0" />
    <path
       inkscape:connector-curvature="0"
       d="M 76.807448,48.861897 V 25.170671 c 0,-3.948539 2.873961,-5.922807 7.6639,-5.922807 h 21.075722 c 4.78995,0 7.66391,1.974268 7.66391,5.922807 v 23.691226 c 0,3.948539 -2.87396,5.922807 -7.66391,5.922807 H 84.471348 c -4.789939,0 -7.6639,-1.974268 -7.6639,-5.922807 z m 5.268931,-17.768419 1.676478,1.233916 c 0.718491,-1.480701 2.155473,-2.714618 4.071446,-2.714618 1.915974,0 3.113459,0.987132 4.071446,2.714618 l 1.676479,-1.233916 c -0.957988,-2.221054 -2.873963,-4.195324 -5.747925,-4.195324 -2.873962,0 -4.789936,1.97427 -5.747924,4.195324 z m 12.932829,21.174033 c 5.795822,-0.493566 8.669792,-2.072982 8.669792,-3.849824 0,-0.987135 -0.91009,-2.072983 -2.68237,-3.060117 1.77228,-0.987134 2.68237,-2.072983 2.68237,-3.060116 0,-1.776842 -2.87397,-3.356258 -8.669792,-3.849824 v 2.221052 c 4.119345,0.345496 5.508432,1.135203 5.508432,1.974269 0,0.937776 -1.820181,1.974267 -3.35296,1.974267 v 1.480702 c 1.532779,0 3.35296,0.987136 3.35296,1.924913 0,0.839064 -1.389087,1.678129 -5.508432,2.023626 z m 2.873963,-21.667603 c 0,2.714622 1.48488,4.935674 3.352959,4.935674 1.86808,0 3.35296,-2.221052 3.35296,-4.935674 0,-2.714618 -1.48488,-4.935671 -3.35296,-4.935671 -1.868079,0 -3.352959,2.221053 -3.352959,4.935671 z M 116.08495,19.494646 c 0,-2.566548 2.05967,-4.688887 4.55044,-4.688887 2.49076,0 4.55043,2.122339 4.55043,4.688887 0,-2.566548 2.05967,-4.688887 4.55044,-4.688887 2.49078,0 4.55044,2.122339 4.55044,4.688887 0,2.221053 -0.95797,3.208187 -2.15547,4.442105 l -6.94541,7.156727 -6.94542,-7.156727 c -1.19748,-1.233918 -2.15545,-2.221052 -2.15545,-4.442105 z"
       id="path888"
       style="fill:#ffffff;stroke-width:0.48622581" />
    <text
       xml:space="preserve"
       style="font-style:normal;font-variant:normal;font-weight:normal;font-stretch:normal;font-size:10.58333302px;line-height:1.25;font-family:'Scary Halloween Font';-inkscape-font-specification:'Scary Halloween Font';letter-spacing:0px;word-spacing:0px;fill:#ffffff;fill-opacity:1;stroke:none;stroke-width:0.26458332;"
       x="139.85118"
       y="47.724701"
       id="text15518"><tspan
         sodipodi:role="line"
         id="tspan15516"
         x="139.85118"
         y="57.277824"
         style="fill:#ffffff;stroke-width:0.26458332;" /></text>
    <text
       xml:space="preserve"
       style="font-style:normal;font-variant:normal;font-weight:normal;font-stretch:normal;font-size:10.58333302px;line-height:1.25;font-family:'Scary Halloween Font';-inkscape-font-specification:'Scary Halloween Font';letter-spacing:0px;word-spacing:0px;fill:#ffffff;fill-opacity:1;stroke:none;stroke-width:0.26458332;"
       x="126.62202"
       y="41.86607"
       id="text15522"><tspan
         sodipodi:role="line"
         id="tspan15520"
         x="126.62202"
         y="51.419193"
         style="fill:#ffffff;stroke-width:0.26458332;" /></text>
    <text
       xml:space="preserve"
       style="font-style:normal;font-variant:normal;font-weight:normal;font-stretch:normal;font-size:10.58333302px;line-height:1.25;font-family:'Scary Halloween Font';-inkscape-font-specification:'Scary Halloween Font';letter-spacing:0px;word-spacing:0px;fill:#ffffff;fill-opacity:1;stroke:none;stroke-width:0.26458332;"
       x="153.45833"
       y="46.212795"
       id="text15526"><tspan
         sodipodi:role="line"
         id="tspan15524"
         x="153.45833"
         y="46.212795"
         style="fill:#ffffff;stroke-width:0.26458332;">&lt;</tspan></text>
    <text
       xml:space="preserve"
       style="font-style:normal;font-variant:normal;font-weight:normal;font-stretch:normal;font-size:12.85278702px;line-height:1.25;font-family:'Scary Halloween Font';-inkscape-font-specification:'Scary Halloween Font';letter-spacing:0px;word-spacing:0px;fill:#ffffff;fill-opacity:1;stroke:none;stroke-width:0.32131961;"
       x="203.48318"
       y="13.521764"
       id="text15534"
       transform="matrix(0.76770616,0.00581918,0.05365496,1.3029884,0,0)"><tspan
         sodipodi:role="line"
         id="tspan15532"
         x="203.48318"
         y="13.521764"
         style="font-style:normal;font-variant:normal;font-weight:bold;font-stretch:normal;font-size:12.85278702px;font-family:Verdana;-inkscape-font-specification:'Verdana, Bold';font-variant-ligatures:normal;font-variant-caps:normal;font-variant-numeric:normal;font-feature-settings:normal;text-align:start;writing-mode:lr-tb;text-anchor:start;fill:#ffffff;stroke-width:0.32131961;">&lt;FANCY TAGS /&gt;</tspan></text>
    <path
       style="fill:#ffffff;stroke-width:0.41766691"
       d="m 149.24862,46.785908 c 2.97913,-1.22365 0.21909,-3.37126 -2.8367,-2.20728 -1.15432,0.43971 -1.43067,0.76823 -1.3003,1.54584 0.13167,0.78541 0.44575,1.00589 1.53502,1.07756 0.7532,0.0496 1.9241,-0.13768 2.60198,-0.41612 z m -3.57636,-0.81143 c -0.0952,-0.29095 0.45558,-0.66461 1.31562,-0.89242 1.20924,-0.3203 1.62058,-0.3099 2.25163,0.0569 0.66428,0.38617 0.64236,0.52429 -0.15693,0.98898 -1.10809,0.64418 -3.17958,0.55093 -3.41026,-0.15352 z m 13.05229,-3.82751 c 0.45855,-0.4981 0.4437,-0.90332 -0.059,-1.60879 -0.59085,-0.82924 -0.90813,-0.93139 -2.63048,-0.84685 -1.67636,0.0823 -2.03046,0.24269 -2.45725,1.1132 -0.75061,1.53107 -0.19358,2.00824 2.34466,2.00824 1.66011,0 2.33719,-0.16089 2.80201,-0.6658 z m -4.40889,-0.54432 c 0,-1.64686 2.30485,-2.2398 3.379,-0.86926 0.76729,0.97898 -0.15486,1.76093 -2.0766,1.76093 -1.06126,0 -1.3024,-0.1651 -1.3024,-0.89167 z m 53.68314,-3.03613 c 3.6273,-0.49056 6.96431,-1.46414 9.56054,-2.78934 l 1.92197,-0.98103 2.61251,0.49855 c 6.15235,1.17408 13.44006,0.92545 19.18496,-0.65451 1.61537,-0.44427 4.30048,-1.58162 5.96693,-2.52746 2.16979,-1.23152 3.45492,-1.71971 4.52708,-1.71971 4.69241,0 10.23133,-2.40611 11.58488,-5.0325 0.81473,-1.58086 0.28319,-3.88359 -1.13908,-4.93475 l -1.05117,-0.77688 2.14721,-1.31221 c 4.26708,-2.60772 4.31549,-6.18129 0.11863,-8.7520101 -1.72754,-1.05817 -5.06371,-2.12041 -6.65951,-2.12041 -0.95231,0 -1.11741,-0.20334 -1.11741,-1.37632 0,-6.77856101 -14.59385,-11.804072 -26.93044,-9.273692 -1.97305,0.40469 -2.08303,0.385974 -4.04175,-0.687963 -5.28296,-2.896545 -12.70348,-3.550217 -19.74531,-1.739358 l -2.56414,0.65939 -1.42608,-0.829055 c -4.54727,-2.643539 -12.29723,-3.033161 -17.67077,-0.888382 l -1.98785,0.793423 -1.97731,-0.780075 c -2.58783,-1.020926 -6.93253,-1.607836 -10.22447,-1.38118 -5.09007,0.350463 -10.24456,2.468946 -11.63043,4.780069 -0.37654,0.627947 -1.26046,1.087317 -2.85859,1.485555 -6.4132,1.59814099 -10.22751,5.588926 -8.60562,9.003758 0.49933,1.05133 0.37389,1.37332 -1.17422,3.0142501 -1.54232,1.63478 -1.73212,2.11785 -1.7227,4.38482 0.008,2.13791 0.24454,2.80373 1.46521,4.13991 2.57687,2.8208 6.7732,4.81007 12.0615,5.71781 2.05259,0.35235 2.35255,0.53984 3.1562,1.97301 1.32076,2.35529 4.16037,4.53463 5.94097,4.55958 0.39766,0.006 1.77316,0.43016 3.05671,0.94355 3.11811,1.24718 7.5896,1.55654 12.31847,0.85225 1.89023,-0.28152 3.53511,-0.51186 3.65529,-0.51186 0.12008,0 0.69494,0.5374 1.27724,1.19421 3.40492,3.84071 13.62167,6.19769 21.97061,5.06856 z m -12.63135,-1.56953 c -4.22796,-1.08701 -6.99345,-2.608 -8.81759,-4.84956 -0.85648,-1.0525 -1.55744,-2.09277 -1.55769,-2.3117 -10e-4,-0.86426 -1.03709,-0.3363 -1.19823,0.61053 -0.14079,0.82672 -0.51737,1.08075 -2.08893,1.40881 -2.71946,0.56769 -7.91325,0.54377 -10.0147,-0.0461 -5.00851,-1.40591 -7.38106,-2.37148 -8.8832,-3.61526 -1.52384,-1.26174 -1.64483,-1.56732 -1.65388,-4.17773 -0.006,-1.54903 -0.17226,-2.9109 -0.37091,-3.02636 -0.34244,-0.19909 -1.52703,1.81746 -1.53353,2.61058 -0.008,0.98904 -7.74613,-1.12945 -10.56316,-2.89195 -4.07248,-2.54797 -5.34878,-6.35968 -3.1324,-9.35488 1.31912,-1.7826001 1.66829,-1.9306801 2.75604,-1.16874 1.40353,0.98316 1.56403,-0.0705 0.24199,-1.5887001 -1.63305,-1.87525 -1.75324,-3.937372 -0.33522,-5.751994 1.64662,-2.10716001 7.3126,-4.579615 8.32101,-3.63103801 0.55275,0.519935 1.61312,0.06187 1.61312,-0.69685399 0,-0.974827 1.96456,-2.985607 3.78885,-3.878004 2.73406,-1.337425 6.15467,-1.931576 10.06878,-1.748924 4.11131,0.191855 6.27196,0.788175 9.19049,2.536493 2.15147,1.288812 3.54972,1.440382 2.26631,0.245661 -1.07825,-1.003713 -0.81221,-1.252849 2.21187,-2.071335 6.14544,-1.663298 13.19161,-0.464404 16.03099,2.727646 1.02196,1.148881 2.41569,1.283036 2.05897,0.198186 -0.20812,-0.632925 0.16149,-0.862002 2.40406,-1.489543 5.33468,-1.492881 12.37226,-0.864219 17.16636,1.533451 l 1.91725,0.95888 -1.54549,0.709696 c -1.03033,0.473127 -1.36289,0.81584299 -0.9977,1.02814699 0.3652,0.212305 1.02764,0.09906 1.98734,-0.33982699 2.49667,-1.141696 6.76688,-1.807713 11.5116,-1.795424 5.57323,0.01444 10.06464,1.103963 13.59437,3.29770999 3.2168,1.99928001 4.40224,3.88617901 4.11112,6.54389301 -0.16149,1.4734 -0.0373,2.0838 0.42385,2.0838 0.35865,0 0.78689,-0.20419 0.95161,-0.45376 0.42881,-0.64963 3.59413,-0.0354 6.16411,1.19611 6.41964,3.0762701 3.57208,8.5484301 -5.10971,9.8193201 -1.3286,0.19448 -2.28038,0.50531 -2.15849,0.70491 0.23714,0.38833 0.70643,0.39394 3.77162,0.045 1.88931,-0.21506 2.10481,-0.15778 3.14774,0.83672 2.62259,2.50079 0.62025,5.83198 -4.47456,7.44402 -2.28977,0.7245 -3.18117,0.82572 -6.47278,0.73489 -2.78574,-0.0769 -3.81695,0.002 -3.81606,0.29274 6.8e-4,0.21894 0.24774,0.39807 0.54902,0.39807 1.26788,0 0.38518,0.9902 -1.81857,2.04 -4.12136,1.96328 -8.08942,2.81482 -13.74563,2.94976 -3.80196,0.0908 -5.6248,-0.016 -7.71675,-0.45198 -2.72797,-0.56845 -2.88192,-0.69253 -2.17313,-1.7513 0.77416,-1.15638 -1.19409,-0.5258 -3.17606,1.01756 -4.91675,3.82864 -14.86241,5.18333 -22.8941,3.11838 z m -27.49407,1.14651 c 1.01271,-0.23756 0.83078,-2.16851 -0.27389,-2.90731 -0.52724,-0.35261 -1.85976,-0.73071 -2.96115,-0.8402 -1.72858,-0.17185 -2.15951,-0.083 -3.14979,0.64878 -1.26989,0.93854 -1.50407,2.33789 -0.4899,2.92749 0.63987,0.37199 5.50263,0.49311 6.87473,0.17124 z m -5.57,-0.30086 c -1.23319,-0.27511 -1.08237,-1.82359 0.24568,-2.52229 1.4494,-0.76255 3.71906,-0.3423 4.89654,0.90666 0.77776,0.82496 0.76144,0.9229 -0.2247,1.34924 -1.10274,0.47674 -3.41349,0.60192 -4.91752,0.26639 z"
       id="path856"
       inkscape:connector-curvature="0" />
  </g>
</svg>
