<?xml version="1.0" encoding="UTF-8" standalone="no"?>
<!-- Created with Inkscape (http://www.inkscape.org/) -->

<svg
   xmlns:dc="http://purl.org/dc/elements/1.1/"
   xmlns:cc="http://creativecommons.org/ns#"
   xmlns:rdf="http://www.w3.org/1999/02/22-rdf-syntax-ns#"
   xmlns:svg="http://www.w3.org/2000/svg"
   xmlns="http://www.w3.org/2000/svg"
   xmlns:sodipodi="http://sodipodi.sourceforge.net/DTD/sodipodi-0.dtd"
   xmlns:inkscape="http://www.inkscape.org/namespaces/inkscape"
   width="210mm"
   height="297mm"
   viewBox="0 0 210 297"
   version="1.1"
   id="svg8"
   sodipodi:docname="entity.svg"
   inkscape:version="0.92.3 (2405546, 2018-03-11)">
  <defs
     id="defs2" />
  <sodipodi:namedview
     id="base"
     pagecolor="#ffffff"
     bordercolor="#666666"
     borderopacity="1.0"
     inkscape:pageopacity="0.0"
     inkscape:pageshadow="2"
     inkscape:zoom="0.49497475"
     inkscape:cx="-533.39481"
     inkscape:cy="573.21739"
     inkscape:document-units="mm"
     inkscape:current-layer="layer1"
     showgrid="false"
     inkscape:window-width="3440"
     inkscape:window-height="1377"
     inkscape:window-x="-8"
     inkscape:window-y="-8"
     inkscape:window-maximized="1" />
  <metadata
     id="metadata5">
    <rdf:RDF>
      <cc:Work
         rdf:about="">
        <dc:format>image/svg+xml</dc:format>
        <dc:type
           rdf:resource="http://purl.org/dc/dcmitype/StillImage" />
      </cc:Work>
    </rdf:RDF>
  </metadata>
  <g
     inkscape:label="Layer 1"
     inkscape:groupmode="layer"
     id="layer1">
    <path
       style="fill:#000000;stroke-width:0.48714405"
       d="m 77.516366,276.18124 c -4.325231,-0.98359 -8.424536,-4.83231 -9.384205,-8.81055 -0.382592,-1.58604 -0.553843,-28.26886 -0.553843,-86.29674 0,-75.75193 -0.07968,-84.07168 -0.81189,-84.722579 -1.088743,-0.967958 -2.96686,-0.912686 -4.016218,0.118213 -0.777775,0.764081 -0.855043,3.629566 -0.855043,31.708076 0,34.25025 0.150162,32.68627 -3.454662,35.97536 -3.137371,2.86255 -8.220578,3.37441 -12.2936,1.23792 -2.355981,-1.23585 -4.785265,-4.59014 -5.232782,-7.22537 -0.199411,-1.17421 -0.219893,-17.90292 -0.04549,-37.17493 0.30669,-33.894966 0.352989,-35.153897 1.417067,-38.525245 0.605004,-1.916886 1.946522,-4.854833 2.981156,-6.528777 2.415655,-3.908368 8.199743,-9.075074 12.284889,-10.973662 5.898984,-2.741565 7.212813,-2.850642 34.309117,-2.84809 13.497478,0.0014 26.129308,0.206484 28.070738,0.45602 9.92397,1.275564 20.05688,8.486215 24.20265,17.222799 1.06192,2.237807 4.5147,11.987292 8.94299,25.252035 1.01204,3.03154 2.17679,6.44201 2.58832,7.57885 1.35365,3.73943 6.32218,18.07391 7.48277,21.5882 0.62574,1.89471 1.69773,5.01784 2.38223,6.94031 1.79003,5.02753 1.67482,7.87374 -0.43462,10.73561 -4.69244,6.36627 -13.18529,5.70029 -17.38249,-1.36313 -0.59826,-1.00677 -1.08772,-2.04644 -1.08772,-2.31039 0,-0.26393 -1.06458,-3.57414 -2.36573,-7.35598 -1.30115,-3.78184 -2.5918,-7.70286 -2.86814,-8.71338 -0.27632,-1.0105 -1.0944,-3.49083 -1.81792,-5.51187 -2.17329,-6.07066 -3.61934,-10.29449 -5.34656,-15.61702 -0.90181,-2.77889 -2.06573,-6.29272 -2.5865,-7.80848 -0.52078,-1.51578 -1.44226,-4.231613 -2.0477,-6.035226 -1.24443,-3.707091 -2.37319,-4.896564 -4.43976,-4.678485 -2.19321,0.231468 -2.66206,1.330384 -1.67103,3.916734 0.46445,1.212056 1.57913,4.477387 2.47708,7.256287 2.04549,6.33023 3.84541,11.80106 5.44032,16.53565 0.6808,2.02104 1.83943,5.53485 2.5747,7.80851 0.7353,2.27365 1.87891,5.78747 2.54138,7.8085 0.66245,2.02102 1.94692,5.94824 2.85439,8.72715 0.90745,2.77889 2.07474,6.29274 2.59399,7.8085 0.51922,1.51577 2.15467,6.47646 3.63434,11.02377 5.51797,16.95771 6.31498,19.3737 7.53149,22.83035 1.49213,4.23983 1.59331,6.11973 0.3522,6.54313 -0.49127,0.16751 -6.71045,0.28026 -13.8204,0.25035 -7.10994,-0.0298 -13.18047,-0.0415 -13.49004,-0.0258 -1.70481,0.0863 -1.79444,2.11871 -1.7438,39.54707 0.0556,41.13814 0.28988,38.26186 -3.38181,41.52613 -2.1937,1.9503 -5.18375,2.73501 -9.19962,2.41434 -3.755,-0.29982 -6.60876,-1.88634 -8.22177,-4.57078 l -1.17266,-1.95162 -0.25833,-38.27586 c -0.25119,-37.21939 -0.286,-38.29386 -1.2612,-38.92767 -1.38994,-0.90337 -2.688872,-0.8146 -3.905276,0.26685 -1.015837,0.90311 -1.033496,1.53796 -1.044655,37.54969 -0.0094,34.62324 -0.06362,36.7334 -0.965333,38.4984 -1.338563,2.62005 -3.857489,5.0272 -6.410413,6.12589 -2.446308,1.05287 -8.471414,1.5967 -11.090578,1.0011 z M 93.83661,56.116678 C 90.326806,55.590229 84.436352,52.663841 81.462013,49.96896 76.749172,45.698943 74.511076,40.121244 74.936352,33.705991 c 0.326197,-4.920491 2.307535,-9.103775 5.953932,-12.570735 3.320377,-3.156966 5.84384,-4.608691 10.615886,-6.107205 3.525934,-1.107205 4.608561,-1.243347 8.55384,-1.07565 4.06284,0.1727 4.96963,0.391353 9.01926,2.174847 7.10597,3.129546 11.75867,8.297762 13.32846,14.805201 0.77764,3.223706 0.25521,8.823061 -1.11066,11.9038 -1.89386,4.271655 -6.28986,8.911049 -10.00527,10.559238 -0.88359,0.391968 -2.18778,1.041943 -2.89817,1.444397 -2.5319,1.434356 -9.457019,2.041757 -14.55702,1.276794 z"
       id="path826"
       inkscape:connector-curvature="0" />
    <ellipse
       style="fill:#000000;fill-opacity:1;stroke:#000000;stroke-width:4.87143993;stroke-miterlimit:4;stroke-dasharray:none;stroke-opacity:1"
       id="path830"
       cx="97.064209"
       cy="33.916168"
       rx="5.7200489"
       ry="7.7100725" />
    <ellipse
       style="fill:#000000;fill-opacity:1;stroke:#ffffff;stroke-width:4.87143993;stroke-miterlimit:4;stroke-dasharray:none;stroke-opacity:1"
       id="path852"
       cx="89.683548"
       cy="29.979107"
       rx="5.3510137"
       ry="5.0853667" />
    <ellipse
       style="fill:#000000;fill-opacity:1;stroke:#ffffff;stroke-width:4.87143993;stroke-miterlimit:4;stroke-dasharray:none;stroke-opacity:1"
       id="path852-3"
       cx="108.68886"
       cy="30.471247"
       rx="5.3510137"
       ry="5.0853667" />
    <path
       style="fill:none;stroke:#000000;stroke-width:0.48714399px;stroke-linecap:butt;stroke-linejoin:miter;stroke-opacity:1"
       d="m 88.022865,40.970068 c 0.492047,0.32809 0.984095,0.656175 1.476144,0.984265 0,0.10937 -0.08697,0.250758 0,0.32809 0.08697,0.07732 0.282047,-0.07733 0.36903,0 0.763553,0.678824 -1.166801,-0.02654 0.369043,0.656177 0.110035,0.0489 0.282046,-0.07733 0.36903,0 0.08697,0.07732 -0.08697,0.250752 0,0.328083 0.08697,0.07734 0.28206,-0.07732 0.369042,0 0.08697,0.07734 -0.08697,0.250759 0,0.328093 0.08697,0.07732 0.25901,-0.0489 0.369031,0 0.155594,0.06916 0.291231,0.189751 0.369043,0.328084 0.05496,0.09783 -0.110036,0.279182 0,0.328091 0.220042,0.09783 0.518017,-0.09783 0.738057,0 0.110041,0.0489 -0.08697,0.250757 0,0.32809 0.08697,0.07732 0.259022,-0.0489 0.369046,0 0.155611,0.06916 0.213436,0.258918 0.369029,0.328084 0.110033,0.0489 0.282058,-0.07733 0.369047,0 0.08696,0.07734 -0.08697,0.250758 0,0.328092 0.08696,0.07732 0.28204,-0.07734 0.369029,0 0.08696,0.07732 -0.08697,0.250753 0,0.328084 0.113154,0.100582 1.731138,-0.101389 1.845173,0 0.08696,0.07732 -0.08697,0.250759 0,0.328091 3.54e-4,3.12e-4 1.105428,-4.58e-4 1.107105,0 0.165049,0.0489 0.213445,0.25892 0.369038,0.328086 0.117631,0.05229 1.515359,0 1.845173,0 0.123067,0 0.282066,-0.07732 0.369046,0 0.08697,0.07732 -0.08696,0.250759 0,0.328089 0.08697,0.07732 0.246014,0 0.369029,0 0.86108,0 1.72218,0 2.58325,0 0.12306,0 0.24602,0 0.36903,0 0.12306,0 0.28206,0.07732 0.36905,0 0.087,-0.07732 -0.087,-0.250759 0,-0.328089 0.76354,-0.678825 -0.0298,1.037335 0.73806,-0.328086 0.055,-0.09783 -0.11003,-0.279181 0,-0.328091 0.22005,-0.09783 0.50468,0.06916 0.73806,0 0.16506,-0.0489 0.24603,-0.218725 0.36905,-0.328084 0.12306,-0.10937 0.29124,-0.189756 0.36903,-0.328092 0.055,-0.09783 -0.087,-0.250758 0,-0.328084 0.17397,-0.154662 0.5641,0.154663 0.73807,0 0.087,-0.07734 -0.087,-0.250758 0,-0.32809 0.087,-0.07734 0.28206,0.07732 0.36904,0 0.76354,-0.678825 -1.1668,0.02654 0.36903,-0.656175 0.90893,-0.404037 -0.33314,0.95235 1.10711,-0.328093 0.17397,-0.154662 -0.17396,-0.501511 0,-0.656174 0.087,-0.07734 0.28205,0.07732 0.36904,0 0.087,-0.07734 -0.087,-0.250758 0,-0.328086 0.087,-0.07733 0.28204,0.07732 0.36903,0 0.087,-0.07733 -0.087,-0.250759 0,-0.32809 0.087,-0.07732 0.28206,0.07732 0.36904,0 0.49205,-0.437451 -0.61506,-0.32809 0.36903,-0.32809"
       id="path871"
       inkscape:connector-curvature="0" />
    <path
       style="fill:#000000;fill-opacity:1;stroke:#ffffff;stroke-width:4.87143993;stroke-miterlimit:4;stroke-dasharray:none;stroke-opacity:1"
       d="m 109.06317,46.108218 c -2.39789,1.35888 -5.11981,2.490424 -8.02406,2.432193 -0.60269,0.157075 -0.29136,1.025128 0.28407,0.991697 3.50282,1.024938 7.62125,-0.792766 9.03103,-3.772091 -0.14137,-0.568117 -0.8276,0.157077 -1.15346,0.26885 l -0.0793,0.04569 z"
       id="path852-3-9"
       inkscape:connector-curvature="0" />
  </g>
</svg>
