<?xml version="1.0" encoding="UTF-8" standalone="no"?>
<!-- Created with Inkscape (http://www.inkscape.org/) -->

<svg
   xmlns:dc="http://purl.org/dc/elements/1.1/"
   xmlns:cc="http://creativecommons.org/ns#"
   xmlns:rdf="http://www.w3.org/1999/02/22-rdf-syntax-ns#"
   xmlns:svg="http://www.w3.org/2000/svg"
   xmlns="http://www.w3.org/2000/svg"
   xmlns:sodipodi="http://sodipodi.sourceforge.net/DTD/sodipodi-0.dtd"
   xmlns:inkscape="http://www.inkscape.org/namespaces/inkscape"
   width="210mm"
   height="297mm"
   viewBox="0 0 210 297"
   version="1.1"
   id="svg5199"
   inkscape:version="0.92.3 (2405546, 2018-03-11)"
   sodipodi:docname="entitycrying.svg">
  <defs
     id="defs5193" />
  <sodipodi:namedview
     id="base"
     pagecolor="#ffffff"
     bordercolor="#666666"
     borderopacity="1.0"
     inkscape:pageopacity="0.0"
     inkscape:pageshadow="2"
     inkscape:zoom="0.7"
     inkscape:cx="75.968509"
     inkscape:cy="753.38584"
     inkscape:document-units="mm"
     inkscape:current-layer="layer1"
     showgrid="false"
     inkscape:window-width="3440"
     inkscape:window-height="1377"
     inkscape:window-x="-8"
     inkscape:window-y="-8"
     inkscape:window-maximized="1" />
  <metadata
     id="metadata5196">
    <rdf:RDF>
      <cc:Work
         rdf:about="">
        <dc:format>image/svg+xml</dc:format>
        <dc:type
           rdf:resource="http://purl.org/dc/dcmitype/StillImage" />
        <dc:title></dc:title>
      </cc:Work>
    </rdf:RDF>
  </metadata>
  <g
     inkscape:label="Layer 1"
     inkscape:groupmode="layer"
     id="layer1">
    <path
       id="path826"
       transform="scale(0.26458333)"
       style="fill:#ffffff;stroke-width:1.84117436"
       d="m 374.13672,199.49023 c 0.15229,0.12201 -0.0379,-0.0305 0.11719,0.0937 -0.57726,-0.15099 0.64391,0.17738 0.125,-0.0215 -0.071,-0.0272 -0.16215,-0.0479 -0.24219,-0.0723 z m -33.41992,43.24024 c -102.41123,-0.01 -107.37651,0.40185 -129.67188,10.76367 -15.43992,7.17577 -37.3016,26.70479 -46.43164,41.47656 -3.91043,6.32672 -8.98095,17.42891 -11.26758,24.67383 -4.02171,12.74211 -4.19632,17.50045 -5.35547,145.60742 -0.65916,72.8391 -0.5818,136.06595 0.17188,140.50391 1.6914,9.95992 10.87285,22.63766 19.77734,27.30859 15.3941,8.07493 34.60707,6.14136 46.46485,-4.67773 13.62453,-12.43121 13.05664,-6.52098 13.05664,-135.9707 0,-106.12351 0.29084,-116.95393 3.23047,-119.8418 3.96607,-3.89631 11.06475,-4.10569 15.17968,-0.44727 2.76741,2.46009 3.06836,33.90643 3.06836,320.21289 0,219.31798 0.64773,320.16576 2.09375,326.16016 3.62709,15.0359 19.12142,29.5832 35.46875,33.3008 9.89921,2.2511 32.67014,0.1961 41.91602,-3.7832 9.64885,-4.1526 19.16937,-13.2518 24.22851,-23.1543 3.40805,-6.6709 3.61291,-14.6464 3.64844,-145.50588 0.0422,-136.10732 0.10984,-138.50659 3.94922,-141.91992 4.59743,-4.08737 9.50645,-4.42212 14.75977,-1.00781 3.6858,2.3955 3.81819,6.45524 4.76757,147.12695 l 0.97461,144.66606 4.4336,7.375 c 6.09641,10.1459 16.88209,16.1422 31.07422,17.2753 15.17809,1.212 26.47838,-1.7537 34.76953,-9.125 13.87725,-12.3374 12.99139,-1.4664 12.78125,-156.94917 -0.1914,-141.46152 0.14842,-149.14258 6.59179,-149.46875 1.17003,-0.0593 24.11412,-0.015 50.98633,0.0977 26.87222,0.11305 50.37761,-0.3122 52.23438,-0.94531 4.69081,-1.60025 4.30751,-8.70591 -1.33203,-24.73047 -4.59784,-13.0645 -7.60953,-22.19693 -28.46485,-86.28906 -5.59245,-17.18668 -11.77392,-35.93517 -13.73633,-41.66406 -1.96252,-5.72886 -6.37495,-19.00883 -9.80468,-29.51172 -3.42981,-10.50297 -8.28336,-25.34587 -10.78711,-32.98438 -2.50383,-7.63853 -6.82638,-20.92034 -9.60547,-29.51367 -2.77897,-8.59336 -7.15932,-21.87314 -9.73242,-29.51172 -6.02801,-17.89451 -12.82956,-38.57081 -20.56055,-62.49609 -3.39383,-10.50293 -7.60788,-22.84478 -9.36328,-27.42578 -3.74563,-9.77518 -1.97289,-13.92985 6.31641,-14.80469 7.81061,-0.82424 12.07593,3.67255 16.77929,17.6836 2.28828,6.81678 5.77193,17.08161 7.74024,22.81054 1.96826,5.72886 6.36697,19.00883 9.77539,29.51172 6.52807,20.11665 11.99302,36.08116 20.20703,59.02539 2.73456,7.63858 5.82673,17.01282 6.87109,20.83203 1.04444,3.81929 5.92211,18.63807 10.83985,32.93164 4.91773,14.29357 8.9414,26.80521 8.9414,27.80274 0,0.9976 1.85019,4.9273 4.11133,8.73242 15.86343,26.69639 47.96206,29.21384 65.69727,5.15234 7.97268,-10.81651 8.40999,-21.57448 1.64453,-40.57617 -2.58709,-7.26603 -6.63891,-19.06936 -9.00391,-26.23047 -4.38648,-13.28235 -23.16509,-67.46047 -28.28125,-81.59375 -1.55539,-4.29672 -5.95817,-17.18674 -9.7832,-28.64453 -16.73685,-50.13447 -29.78723,-86.98358 -33.80078,-95.4414 -15.66902,-33.02017 -53.9667,-60.27273 -91.47461,-65.09376 -7.33769,-0.94308 -55.07966,-1.71774 -106.09375,-1.72265 z" />
    <path
       inkscape:connector-curvature="0"
       d="m 55.713695,31.418109 c 0,-2.753486 1.869776,-3.401365 9.904835,-5.992882 -4.042799,8.422429 -4.649217,9.394248 -6.771684,9.394248 -1.667641,0 -3.133151,-1.511717 -3.133151,-3.401366 z m 1.768719,-14.469303 c 0,-2.429547 1.920314,-4.319193 4.093317,-4.319193 1.819257,0 4.194394,1.727677 10.814482,6.74874 -5.356712,1.133789 -9.500567,1.99763 -10.763944,1.99763 -2.274061,0 -4.143855,-1.943638 -4.143855,-4.427177 z m 15.918484,32.93386 V 23.967498 c 0,-4.319194 3.032094,-6.478791 8.085597,-6.478791 h 22.235335 c 5.0535,0 8.0856,2.159597 8.0856,6.478791 v 25.915168 c 0,4.319195 -3.0321,6.478792 -8.0856,6.478792 H 81.486495 c -5.053503,0 -8.085597,-2.159597 -8.085597,-6.478792 z m 4.548142,-8.36844 c 0,5.398995 2.779423,8.908339 6.064188,8.908339 3.537453,0 4.042796,-3.509344 8.590935,-3.509344 4.54815,0 5.053493,3.509344 8.590937,3.509344 3.28477,0 6.06419,-3.509344 6.06419,-8.908339 0,-5.398992 -2.77942,-8.908339 -6.06419,-8.908339 -3.537444,0 -4.042787,3.509347 -8.590937,3.509347 -4.548139,0 -5.053482,-3.509347 -8.590935,-3.509347 -3.284765,0 -6.064188,3.509347 -6.064188,8.908339 z m 1.010704,-14.307332 1.768719,1.349748 c 0.758032,-1.619697 2.27408,-2.969445 4.295469,-2.969445 2.021385,0 3.284769,1.079797 4.295465,2.969445 l 1.768727,-1.349748 c -1.010707,-2.429546 -3.0321,-4.589144 -6.064192,-4.589144 -3.032095,0 -5.053484,2.159598 -6.064188,4.589144 z m 15.160469,0 1.768716,1.349748 c 0.758041,-1.619697 2.27408,-2.969445 4.295471,-2.969445 2.02139,0 3.28477,1.079797 4.29547,2.969445 l 1.76872,-1.349748 c -1.01071,-2.429546 -3.03209,-4.589144 -6.06419,-4.589144 -3.032087,0 -5.05348,2.159598 -6.064187,4.589144 z m 18.697907,-7.828541 c 6.62007,-5.021063 8.99522,-6.74874 10.81448,-6.74874 2.17299,0 4.09332,1.889646 4.09332,4.319193 0,2.483539 -1.86979,4.427177 -4.14386,4.427177 -1.26338,0 -5.40723,-0.863841 -10.76394,-1.99763 z m 6.77168,6.046874 c 8.03505,2.591517 9.90484,3.239396 9.90484,5.992882 0,1.889649 -1.46551,3.401366 -3.13316,3.401366 -2.12245,0 -2.72888,-0.971819 -6.77168,-9.394248 z"
       id="path900"
       style="fill:#ffffff;stroke-width:0.52233857" />
  </g>
</svg>
