<?xml version="1.0" encoding="UTF-8" standalone="no"?>
<!-- Created with Inkscape (http://www.inkscape.org/) -->

<svg
   xmlns:dc="http://purl.org/dc/elements/1.1/"
   xmlns:cc="http://creativecommons.org/ns#"
   xmlns:rdf="http://www.w3.org/1999/02/22-rdf-syntax-ns#"
   xmlns:svg="http://www.w3.org/2000/svg"
   xmlns="http://www.w3.org/2000/svg"
   xmlns:xlink="http://www.w3.org/1999/xlink"
   xmlns:sodipodi="http://sodipodi.sourceforge.net/DTD/sodipodi-0.dtd"
   xmlns:inkscape="http://www.inkscape.org/namespaces/inkscape"
   width="150mm"
   height="70mm"
   viewBox="0 0 150 70"
   version="1.1"
   id="svg1487"
   inkscape:version="0.92.3 (2405546, 2018-03-11)"
   sodipodi:docname="axe.svg">
  <defs
     id="defs1481">
    <linearGradient
       inkscape:collect="always"
       id="linearGradient896">
      <stop
         style="stop-color:#ff6600;stop-opacity:1"
         offset="0"
         id="stop892" />
      <stop
         id="stop900"
         offset="0.72367358"
         style="stop-color:#ffff00;stop-opacity:1" />
      <stop
         style="stop-color:#ffffff;stop-opacity:1"
         offset="1"
         id="stop894" />
    </linearGradient>
    <linearGradient
       inkscape:collect="always"
       xlink:href="#linearGradient896"
       id="linearGradient898"
       x1="87.480804"
       y1="92.904404"
       x2="87.642807"
       y2="166.23178"
       gradientUnits="userSpaceOnUse" />
  </defs>
  <sodipodi:namedview
     id="base"
     pagecolor="#ffffff"
     bordercolor="#666666"
     borderopacity="1.0"
     inkscape:pageopacity="0.0"
     inkscape:pageshadow="2"
     inkscape:zoom="0.7"
     inkscape:cx="582.67698"
     inkscape:cy="470.59459"
     inkscape:document-units="mm"
     inkscape:current-layer="layer1"
     showgrid="false"
     inkscape:window-width="1920"
     inkscape:window-height="1017"
     inkscape:window-x="-8"
     inkscape:window-y="-8"
     inkscape:window-maximized="1" />
  <metadata
     id="metadata1484">
    <rdf:RDF>
      <cc:Work
         rdf:about="">
        <dc:format>image/svg+xml</dc:format>
        <dc:type
           rdf:resource="http://purl.org/dc/dcmitype/StillImage" />
        <dc:title></dc:title>
      </cc:Work>
    </rdf:RDF>
  </metadata>
  <g
     inkscape:label="Layer 1"
     inkscape:groupmode="layer"
     id="layer1"
     transform="translate(0,-227)">
    <path
       style="fill:#000000;stroke-width:0.35450715"
       d="m 51.839873,284.23783 c -1.541985,-0.64024 -2.1702,-1.74759 -2.120256,-3.73737 0.04255,-1.69532 0.223677,-2.10421 1.77347,-4.00364 1.216752,-1.49125 1.522579,-2.0571 1.036431,-1.91765 -3.091508,0.88681 -6.89321,1.62348 -8.378208,1.62348 -1.888349,0 -3.691596,-0.952 -3.691596,-1.94892 0,-0.39207 -0.231615,-0.34209 -1.021938,0.22054 -1.25471,0.89322 -7.21785,2.40764 -9.517633,2.41714 -1.309944,0.005 -1.945793,-0.20162 -2.837067,-0.92374 -1.112142,-0.90107 -1.144162,-1.00356 -1.005334,-3.21776 0.12783,-2.0388 0.482973,-2.94785 3.271773,-8.37471 4.26858,-8.30643 10.332238,-17.139 15.1094,-22.00897 1.880969,-1.91751 2.066075,-2.01563 4.490759,-2.38045 1.390908,-0.20927 4.247974,-0.45907 6.349034,-0.55511 4.237169,-0.19367 4.863219,0.0464 5.273656,2.02244 l 0.207046,0.99682 0.988232,-0.80068 c 0.700158,-0.56727 2.293315,-1.06542 5.46529,-1.70888 10.991987,-2.22982 12.091918,-2.14815 13.310639,0.98828 0.407113,1.04772 0.740205,2.05561 0.740205,2.23976 0,0.587 0.423154,0.36851 2.004498,-1.03502 1.017754,-0.90332 2.01583,-1.44191 2.9306,-1.58143 0.762966,-0.11638 2.443941,-0.38728 3.735499,-0.60201 2.079014,-0.34566 6.267014,-0.42559 11.199517,-0.21376 0.89416,0.0384 5.15193,-0.0617 9.46172,-0.2225 7.04713,-0.26288 7.9291,-0.23356 8.76092,0.29124 0.80339,0.50686 0.92195,0.82246 0.90227,2.40182 -0.013,1.04244 -0.43691,2.93151 -0.99351,4.42728 -0.85719,2.30356 -1.10732,2.65147 -2.13665,2.97184 -1.15115,0.35828 -3.87695,3.01439 -3.48288,3.39383 0.3085,0.29705 -0.49823,3.56244 -1.35253,5.47462 -0.62028,1.38837 -0.99721,1.77163 -2.07495,2.1098 -1.21676,0.38179 -1.83965,0.85375 -1.85336,1.40427 -0.003,0.1222 0.5615,0.32461 1.25454,0.4498 2.23966,0.40457 2.58737,2.56303 1.09396,6.79086 -1.04344,2.954 -1.32391,3.34519 -2.62354,3.65927 -0.52932,0.12792 -1.47636,0.80507 -2.10453,1.50479 l -1.14212,1.2722 -5.557737,0.22961 c -3.056754,0.12629 -7.020897,0.43168 -8.809207,0.67866 -2.780043,0.38394 -3.390348,0.59135 -4.20929,1.43053 -0.5268,0.53981 -1.241153,0.98147 -1.587449,0.98147 -0.3463,0 -1.134587,0.5608 -1.751746,1.24621 -1.022224,1.13528 -1.50803,1.33539 -5.457411,2.248 -2.384415,0.55098 -5.201318,1.0077 -6.259781,1.01492 -1.654932,0.0113 -2.072399,-0.12929 -2.980518,-1.00371 -0.580822,-0.55926 -1.056035,-1.34196 -1.056035,-1.73933 0,-0.97082 -0.304512,-0.91194 -1.616615,0.31259 -1.770067,1.65194 -11.814027,3.97224 -13.737568,3.17357 z m 10.489309,-5.99173 4.50931,-1.08736 3.70021,-4.09474 c 2.03512,-2.25211 3.807437,-4.03214 3.938485,-3.95563 0.131049,0.0765 0.35513,2.17365 0.497956,4.6603 0.170024,2.96014 0.399599,4.52131 0.664916,4.52156 0.222878,2.2e-4 2.33747,-0.43027 4.699095,-0.95663 l 4.293861,-0.95701 -0.200862,-3.6526 c -0.110474,-2.00893 -0.565424,-5.78857 -1.010999,-8.3992 l -0.810134,-4.74661 5.889363,-6.55904 c 6.7402,-7.50664 7.432483,-8.22237 7.125179,-7.36645 -0.115334,0.32123 -0.320151,1.15097 -0.455145,1.84385 l -0.245451,1.25979 1.850002,-0.2363 c 1.017502,-0.12997 1.850002,-0.16096 1.850002,-0.0689 0,0.0921 -0.795617,1.79507 -1.768043,3.78438 -2.868389,5.86795 -7.392963,18.74074 -6.79084,19.32051 0.118335,0.11394 2.295714,-0.0467 4.838612,-0.3571 2.542902,-0.31035 6.417911,-0.56379 8.611131,-0.56321 l 3.98767,10e-4 0.97035,-2.85005 c 0.5337,-1.56753 0.92756,-2.89128 0.87524,-2.94165 -0.0523,-0.0504 -2.36472,0.0347 -5.13867,0.18914 -2.77395,0.15441 -5.096749,0.23983 -5.16179,0.18981 -0.158531,-0.12192 1.37619,-5.38604 1.79089,-6.14282 0.27576,-0.50322 0.99015,-0.61327 4.51639,-0.69573 l 4.18882,-0.0979 0.85643,-2.26113 c 0.47104,-1.24362 0.85914,-2.37853 0.86243,-2.52203 0.003,-0.14349 -1.8636,-0.2609 -4.14866,-0.2609 -2.28507,0 -4.15466,-0.0814 -4.15466,-0.18084 0,-0.0995 0.40533,-1.14135 0.90073,-2.3153 0.61573,-1.45907 0.7874,-2.26595 0.54254,-2.55004 -0.39553,-0.45889 3.87049,-0.86754 9.05655,-0.86754 h 2.80205 l 0.93241,-2.67028 c 0.51283,-1.46865 0.85716,-2.74272 0.7652,-2.83127 -0.20692,-0.19924 -18.190146,0.59999 -19.063823,0.84725 -0.422537,0.11958 -0.632231,-0.0123 -0.632231,-0.39755 0,-0.5105 -0.361745,-0.54987 -3.161156,-0.34405 -1.738635,0.12783 -3.425738,0.30289 -3.749115,0.38901 -0.323378,0.0861 -2.796123,2.33017 -5.494991,4.98677 -3.621308,3.5646 -4.953737,4.67855 -5.085277,4.25145 -0.09803,-0.3183 -0.418685,-1.59625 -0.712567,-2.83987 -0.739014,-3.1273 -2.367377,-7.99952 -2.676238,-8.00756 -0.140381,-0.004 -2.260389,0.41454 -4.711126,0.92932 -4.101254,0.86147 -4.442687,0.99351 -4.289991,1.65901 0.09125,0.39767 1.065212,3.77556 2.164369,7.50643 3.105606,10.54133 3.165939,8.97233 -0.501619,13.04498 -3.885895,4.31511 -12.606351,14.83343 -12.606351,15.20537 0,0.3777 -0.151244,0.40284 4.889548,-0.81267 z m -24.243736,-7.37265 3.225492,-0.78978 1.209738,-2.9005 c 0.665356,-1.59528 1.54163,-3.3493 1.947276,-3.89783 0.704757,-0.95301 0.863715,-0.99734 3.576486,-0.99734 h 2.83895 l -1.457366,4.19491 c -0.801551,2.30719 -1.356768,4.29176 -1.233817,4.41015 0.433036,0.41696 7.424212,-1.39487 7.603252,-1.97046 0.09357,-0.30082 0.510767,-2.49349 0.927107,-4.87261 0.416341,-2.37912 0.819683,-4.42336 0.896316,-4.54275 0.395314,-0.61589 0.867425,-10.42248 0.665581,-13.82535 l -0.232398,-3.91799 h -2.631876 -2.631878 l -1.998966,2.26881 c -2.434484,2.76313 -6.303444,7.95264 -9.07139,12.16764 -1.72837,2.63194 -7.143345,12.85365 -7.878094,14.87128 -0.293007,0.8046 0.254611,0.77904 4.245587,-0.19818 z m 11.194821,-13.08078 -2.19833,-0.20086 2.767135,-4.4322 c 1.521925,-2.43771 2.899598,-4.551 3.061495,-4.69619 0.161897,-0.1452 0.191618,1.37967 0.06605,3.3886 -0.227862,3.64538 -0.763425,6.31517 -1.24404,6.20155 -0.139686,-0.033 -1.243224,-0.15043 -2.452306,-0.2609 z m 15.215112,2.2342 c -0.108108,-0.57397 -0.886363,-3.31342 -1.729459,-6.08765 l -1.5329,-5.04406 -0.273496,4.00046 c -0.15042,2.20025 -0.678785,6.20543 -1.174143,8.90039 -0.495355,2.69497 -0.900648,5.0874 -0.900648,5.31651 0,0.22912 1.306619,-1.03661 2.903603,-2.81274 2.558747,-2.84577 2.880256,-3.35325 2.707043,-4.27291 z"
       id="path858"
       inkscape:connector-curvature="0" />
    <g
       id="g878"
       transform="translate(-0.10172139,-0.03939704)"
       style="fill-opacity:1;fill:url(#linearGradient898)">
      <path
         transform="matrix(0.26458333,0,0,0.26458333,0,227)"
         inkscape:connector-curvature="0"
         id="path872"
         d="m 128.0076,168.25534 c -1.08991,-1.08991 1.39653,-6.46262 14.47751,-31.283 14.23799,-27.01574 30.67386,-51.161999 49.8772,-73.275578 l 7.80675,-8.989862 9.46825,0.418434 9.46824,0.418434 1.06178,8.571428 c 1.86879,15.086232 -0.31896,48.272524 -4.74915,72.040644 -2.25951,12.12235 -4.6042,22.52712 -5.21041,23.1217 -2.57884,2.52933 -28.95936,8.49325 -28.95936,6.54692 0,-0.23848 2.25,-7.11479 5,-15.28069 2.75,-8.16591 5,-15.36365 5,-15.99498 0,-2.09152 -17.75824,-1.27217 -20.95488,0.96684 -1.66056,1.1631 -5.46204,7.88376 -8.44774,14.93481 l -5.42855,12.82009 -12.69232,2.92233 c -14.0386,3.23231 -14.48846,3.29134 -15.71732,2.06248 z m 69.51503,-55.21157 c 1.26757,-4.56164 2.89211,-29.642859 1.92,-29.642859 -1.71577,0 -19.81118,29.968009 -18.94332,31.372239 0.50474,0.8167 4.34052,1.4849 8.52394,1.4849 6.6709,0 7.71604,-0.39525 8.49938,-3.21428 z"
         style="opacity:1;fill:url(#linearGradient898);fill-opacity:1;stroke:none;stroke-width:8.42571354;stroke-linecap:square;stroke-linejoin:round;stroke-miterlimit:4;stroke-dasharray:none;stroke-opacity:1;paint-order:normal" />
      <path
         transform="matrix(0.26458333,0,0,0.26458333,0,227)"
         inkscape:connector-curvature="0"
         id="path874"
         d="m 216.96269,196.58817 c 0,-0.98977 36.74188,-45.18552 51.68643,-62.17213 4.63417,-5.26739 5.98847,-7.93646 5.88469,-11.5976 -0.0741,-2.61558 -3.88304,-17.72962 -8.46421,-33.586772 -7.02677,-24.322265 -8.00391,-29.032351 -6.24808,-30.117509 2.16286,-1.336725 17.82673,-4.999775 27.99577,-6.546912 l 5.8546,-0.890729 3.76209,11.933625 c 2.06915,6.563493 4.78376,15.630053 6.03248,20.14791 1.24872,4.517858 2.78153,8.214286 3.40624,8.214286 0.62472,0 9.22518,-7.627428 19.11213,-16.949843 12.56018,-11.842997 19.3431,-17.223203 22.51279,-17.857142 6.83329,-1.366657 22.4469,-1.089112 22.98889,0.408647 0.28881,0.798151 8.06468,0.822487 19.7619,0.06185 30.25774,-1.96758 54.28571,-1.751725 54.28571,0.487674 0,1.026008 -1.34473,5.847436 -2.98828,10.714285 l -2.9883,8.848817 h -17.54742 c -25.16373,0 -25.23054,0.02294 -28.40791,9.75338 -1.45542,4.45707 -2.95542,8.907334 -3.33334,9.889477 -0.52265,1.358261 2.87497,1.785714 14.19382,1.785714 8.18453,0 15.25888,0.377916 15.72076,0.839812 0.4619,0.46189 -0.64776,4.80118 -2.46591,9.64285 l -3.30575,8.80305 -13.3674,0.35558 c -19.63977,0.52242 -19.22714,0.31724 -22.60001,11.23736 -4.49294,14.54646 -5.5877,13.62883 15.66367,13.12934 21.28599,-0.50031 20.35193,-1.27111 15.58064,12.85747 l -2.9883,8.84882 -8.79741,0.0226 c -9.00004,0.0231 -37.13661,2.07652 -50.58314,3.69152 -6.35469,0.76324 -7.5,0.54439 -7.5,-1.43308 0,-6.42725 15.78027,-49.93035 26.31474,-72.54456 2.8126,-6.037789 5.11383,-11.34136 5.11383,-11.785715 0,-0.444352 -2.9051,-0.807914 -6.45579,-0.807914 -6.94547,0 -6.92824,0.04163 -4.13891,-10 0.68604,-2.469736 -7.50254,6.041969 -31.21156,32.443189 l -16.80627,18.71464 2.89534,17.63537 c 1.59243,9.69945 3.29877,24.09815 3.79187,31.99711 l 0.89654,14.36174 -14.84276,3.1524 c -21.50522,4.56742 -20.69135,4.77878 -21.7821,-5.65687 -0.50478,-4.82954 -0.92763,-11.41883 -0.93967,-14.64285 -0.0415,-11.1173 -1.43492,-10.66897 -16.55293,5.32572 l -14.13948,14.95943 -16.0982,3.7122 c -17.59183,4.05663 -18.9018,4.23778 -18.9018,2.61375 z"
         style="opacity:1;fill:url(#linearGradient898);fill-opacity:1;stroke:none;stroke-width:8.42571354;stroke-linecap:square;stroke-linejoin:round;stroke-miterlimit:4;stroke-dasharray:none;stroke-opacity:1;paint-order:normal" />
    </g>
  </g>
</svg>
