<?xml version="1.0" encoding="UTF-8" standalone="no"?>
<!-- Created with Inkscape (http://www.inkscape.org/) -->

<svg
   xmlns:dc="http://purl.org/dc/elements/1.1/"
   xmlns:cc="http://creativecommons.org/ns#"
   xmlns:rdf="http://www.w3.org/1999/02/22-rdf-syntax-ns#"
   xmlns:svg="http://www.w3.org/2000/svg"
   xmlns="http://www.w3.org/2000/svg"
   xmlns:sodipodi="http://sodipodi.sourceforge.net/DTD/sodipodi-0.dtd"
   xmlns:inkscape="http://www.inkscape.org/namespaces/inkscape"
   width="400"
   height="400"
   viewBox="0 0 105.83333 105.83333"
   version="1.1"
   id="svg921"
   inkscape:version="0.92.3 (2405546, 2018-03-11)"
   sodipodi:docname="axeqr.svg">
  <defs
     id="defs915" />
  <sodipodi:namedview
     id="base"
     pagecolor="#ffffff"
     bordercolor="#666666"
     borderopacity="1.0"
     inkscape:pageopacity="0.0"
     inkscape:pageshadow="2"
     inkscape:zoom="0.98994949"
     inkscape:cx="186.35607"
     inkscape:cy="291.96815"
     inkscape:document-units="mm"
     inkscape:current-layer="layer1"
     showgrid="false"
     units="px"
     inkscape:window-width="1920"
     inkscape:window-height="1017"
     inkscape:window-x="-8"
     inkscape:window-y="-8"
     inkscape:window-maximized="1" />
  <metadata
     id="metadata918">
    <rdf:RDF>
      <cc:Work
         rdf:about="">
        <dc:format>image/svg+xml</dc:format>
        <dc:type
           rdf:resource="http://purl.org/dc/dcmitype/StillImage" />
        <dc:title></dc:title>
      </cc:Work>
    </rdf:RDF>
  </metadata>
  <g
     inkscape:label="Layer 1"
     inkscape:groupmode="layer"
     id="layer1"
     transform="translate(0,-191.16667)">
    <path
       style="fill:#000000;stroke-width:0.29169187"
       d="m 1.8037444,280.78439 v -14.2742 H 16.115366 30.426989 v 14.2742 14.2742 H 16.115366 1.8037444 Z m 24.5342096,0 V 270.58853 H 16.115366 5.8927789 v 10.19586 10.19587 H 16.115366 26.337954 Z m -16.35614,0 v -6.11751 h 6.133552 6.133554 v 6.11751 6.11752 H 16.115366 9.981814 Z m 24.53421,10.19587 v -4.07835 h 2.044517 2.044518 v -2.03917 -2.03918 h -2.044518 -2.044517 v -4.07834 -4.07834 h 2.044517 2.044518 v 2.03917 2.03917 h 2.044517 2.044517 v -2.03917 -2.03917 h 2.044518 2.044517 v 2.03917 2.03917 h 2.044517 2.044519 v -2.03917 -2.03917 h 2.044517 2.044518 v -2.03917 -2.03918 h 2.044517 2.044517 v 2.03918 2.03917 h 2.044518 2.044517 v -2.03917 -2.03918 h 2.044517 2.044518 v -4.07834 -4.07835 h -4.089035 -4.089035 v 2.03917 2.03918 h -4.089034 -4.089035 v 2.03917 2.03917 h -6.133553 -6.133552 v -2.03917 -2.03917 h -2.044518 -2.044517 v -2.03918 -2.03917 h -8.17807 -8.178069 v -2.03916 -2.03918 H 14.070849 9.981814 v -2.03917 -2.03917 H 7.937297 5.8927789 v 4.07834 4.07834 H 3.8482619 1.8037444 v -8.15668 -8.15669 h 2.0445175 2.044517 v 2.03917 2.03917 H 7.937297 9.981814 v -2.03917 -2.03917 h 4.089035 4.089036 v -2.03917 -2.03917 h 2.044517 2.044518 v 2.03917 2.03917 h -2.044518 -2.044517 v 2.03917 2.03917 H 14.070849 9.981814 v 2.03917 2.03918 h 4.089035 4.089036 v 2.03917 2.03917 h 2.044517 2.044518 v -2.03917 -2.03917 h 2.044517 2.044517 v -2.03918 -2.03917 h 2.044518 2.044517 v 2.03917 2.03918 h 4.089035 4.089035 v -4.07835 -4.07834 h -6.133553 -6.133552 v -2.03917 -2.03917 h 2.044518 2.044517 v -2.03918 -2.03917 H 22.24892 14.070849 v 2.03917 2.03918 H 12.026332 9.981814 v -2.03918 -2.03917 h 2.044518 2.044517 v -2.03917 -2.03918 h 2.044517 2.044519 v -2.03917 -2.03916 h -2.044519 -2.044517 v -2.03918 -2.03917 h 4.089036 4.089035 v 2.03917 2.03918 h 2.044517 2.044517 v -2.03918 -2.03917 h 2.044518 2.044517 v 2.03917 2.03918 h 2.044517 2.044518 v 4.07833 4.07835 h 2.044517 2.044518 v -2.03917 -2.03918 h 2.044517 2.044517 v -2.03917 -2.03916 h -2.044517 -2.044517 v -2.03918 -2.03917 h -2.044518 -2.044517 v -4.07835 -4.07834 h 2.044517 2.044518 v -2.03918 -2.03916 h 2.044517 2.044517 v -4.07835 -4.07834 h -2.044517 -2.044517 v -2.03918 -2.03917 h 2.044517 2.044517 v 2.03917 2.03918 h 2.044518 2.044517 v -4.07835 -4.07834 H 40.649576 34.516024 V 195.13917 193.1 h 8.178069 8.178071 v 2.03917 2.03917 h 2.044517 2.044518 v 2.03918 2.03916 h 2.044517 2.044517 v 4.07835 4.07834 h 2.044518 2.044517 v 2.03918 2.03917 h -2.044517 -2.044518 v 2.03916 2.03918 h 2.044518 2.044517 v 2.03917 2.03917 h -2.044517 -2.044518 v 2.03918 2.03917 h 4.089035 4.089035 v -4.07835 -4.07834 h 2.044517 2.044517 v 4.07834 4.07835 H 69.27282 67.228303 v 4.07835 4.07833 h 2.044517 2.044517 v -2.03917 -2.03916 h 2.044518 2.044517 v -2.03918 -2.03917 h 2.044518 2.044517 v 2.03917 2.03918 h 10.222588 10.222587 v -2.03918 -2.03917 h 2.044518 2.04452 v 2.03917 2.03918 h -2.04452 -2.044518 v 2.03916 2.03917 h 2.044518 2.04452 v 6.11752 6.11752 h -2.04452 -2.044518 v 2.03917 2.03917 h 2.044518 2.04452 v 4.07835 4.07834 h -2.04452 -2.044518 v 4.07834 4.07835 h 2.044518 2.04452 v 2.03917 2.03917 h -2.04452 -2.044518 v -2.03917 -2.03917 h -4.089035 -4.089035 v -4.07835 -4.07834 h -2.044517 -2.044518 v 10.19586 10.19586 h -4.089035 -4.089035 v 2.03917 2.03917 H 77.45089 75.406372 v 2.03918 2.03917 h -2.044517 -2.044518 v -2.03917 -2.03918 H 69.27282 67.228303 v -2.03917 -2.03917 h -2.044518 -2.044517 v 6.11752 6.11752 h -2.044517 -2.044518 v -8.1567 -8.15668 h -2.044517 -2.044517 v 2.03917 2.03917 h -2.044518 -2.044517 v 2.03917 2.03917 h 2.044517 2.044518 v 4.07835 4.07835 h -4.089035 -4.089036 v -2.03918 -2.03917 h -2.044517 -2.044518 v 4.07835 4.07833 h -4.089034 -4.089035 z m 40.890348,-10.19587 v -2.03917 h -2.044517 -2.044518 v 2.03917 2.03917 h 2.044518 2.044517 z m 8.17807,-12.23503 v -6.11752 H 77.45089 71.317337 v 6.11752 6.11752 h 6.133553 6.133552 z m -8.17807,0 v -2.03917 h 2.044518 2.044517 v 2.03917 2.03917 H 77.45089 75.406372 Z m -32.712279,-4.07835 v -2.03917 h 2.044518 2.044517 v 2.03917 2.03918 h 2.044517 2.044519 v -4.07835 -4.07834 h 10.222587 10.222586 v -4.07834 -4.07835 H 69.27282 67.228303 v 2.03917 2.03918 h -6.133552 -6.133552 v -2.03918 -2.03917 h 2.044517 2.044517 v -2.03917 -2.03917 h 2.044518 2.044517 v -2.03917 -2.03917 h 2.044517 2.044518 v 2.03917 2.03917 h 4.089034 4.089035 v 2.03917 2.03917 h 2.044518 2.044517 v 2.03917 2.03918 H 77.45089 75.406372 v 2.03917 2.03917 h 2.044518 2.044517 v -2.03917 -2.03917 h 2.044517 2.044518 v 2.03917 2.03917 h 2.044517 2.044518 v -2.03917 -2.03917 h -2.044518 -2.044517 v -4.07835 -4.07834 h 2.044517 2.044518 v 2.03917 2.03917 h 4.089035 4.089035 v -2.03917 -2.03917 h 2.044517 2.044518 v -2.03917 -2.03917 H 93.80703 87.673477 v -4.07835 -4.07835 h -2.044518 -2.044517 v 4.07835 4.07835 h -2.044518 -2.044517 v -2.03918 -2.03917 H 77.45089 75.406372 v -2.03917 -2.03918 h 2.044518 2.044517 v -2.03917 -2.03916 H 77.45089 75.406372 v 2.03916 2.03917 h -2.044517 -2.044518 v 4.07835 4.07835 H 69.27282 67.228303 v -2.03918 -2.03917 h -2.044518 -2.044517 v -2.03917 -2.03918 h -2.044517 -2.044518 v 2.03918 2.03917 h -4.089034 -4.089035 v -2.03917 -2.03918 h 2.044517 2.044518 v -2.03917 -2.03916 h 2.044517 2.044517 v -2.03918 -2.03917 h -2.044517 -2.044517 v 2.03917 2.03918 h -2.044518 -2.044517 v -6.11752 -6.11752 h 2.044517 2.044518 v 2.03917 2.03917 h 2.044517 2.044517 v -2.03917 -2.03917 h -2.044517 -2.044517 v -2.03918 -2.03916 h 2.044517 2.044517 v -2.03917 -2.03918 h -2.044517 -2.044517 v -4.07834 -4.07835 h -2.044518 -2.044517 v 4.07835 4.07834 h 2.044517 2.044518 v 2.03918 2.03917 h -2.044518 -2.044517 v 2.03916 2.03918 h -2.044519 -2.044517 v -2.03918 -2.03916 h -2.044517 -2.044518 v 2.03916 2.03918 h -2.044517 -2.044517 v 2.03917 2.03917 h 2.044517 2.044517 v 4.07835 4.07835 h 2.044518 2.044517 v 2.03916 2.03917 h -2.044517 -2.044518 v 2.03918 2.03917 h -2.044517 -2.044517 v 2.03917 2.03918 h 4.089034 4.089035 v 4.07834 4.07834 h -2.044517 -2.044518 v 2.03917 2.03918 h -2.044517 -2.044517 v 2.03917 2.03917 h 2.044517 2.044517 v 2.03918 2.03916 h -2.044517 -2.044517 v 2.03917 2.03918 h 2.044517 2.044517 z m 4.089035,-8.15668 v -2.03917 h 2.044517 2.044519 v 2.03917 2.03917 h -2.044519 -2.044517 z m 4.089036,-10.19586 v -4.07834 h 2.044517 2.044518 v 4.07834 4.07834 h -2.044518 -2.044517 z m 24.534208,-2.03917 v -2.03917 h 2.044518 2.044517 v 2.03917 2.03917 H 77.45089 75.406372 Z m -16.356139,-4.07835 v -2.03917 h 2.044518 2.044517 v 2.03917 2.03918 h -2.044517 -2.044518 z m -16.35614,-20.39172 v -2.03917 h 2.044518 2.044517 v 2.03917 2.03917 h -2.044517 -2.044518 z m -12.267104,36.7051 v -2.03917 h -2.044517 -2.044518 v 2.03917 2.03917 h 2.044518 2.044517 z m 69.513593,0 v -2.03917 h -2.044518 -2.044517 v 2.03917 2.03917 h 2.044517 2.044518 z m 0,-20.39172 v -2.03918 h -4.089035 -4.089035 v 2.03918 2.03917 h 4.089035 4.089035 z m -69.513593,-4.07835 v -2.03916 h -2.044517 -2.044518 v 2.03916 2.03917 h 2.044518 2.044517 z m 36.801314,61.17517 v -2.03917 h 4.089034 4.089035 v 2.03917 2.03916 h -4.089035 -4.089034 z m 20.445174,0 v -2.03917 h -4.089035 -4.089035 v -2.03918 -2.03917 h 2.044517 2.044518 v -2.03917 -2.03918 h 6.133553 6.133552 v -2.03917 -2.03917 h 4.089035 4.089038 v 8.15669 8.15668 h -2.04452 -2.044518 v -2.03916 -2.03917 h -4.089035 -4.089035 v 2.03917 2.03916 h -2.044517 -2.044518 z m 4.089035,-4.07835 v -2.03917 h -2.044517 -2.044518 v 2.03917 2.03918 h 2.044518 2.044517 z M 1.8037444,231.84426 v -6.11751 H 5.8927789 9.981814 v 4.07835 4.07833 H 7.937297 5.8927789 v 2.03918 2.03917 H 3.8482619 1.8037444 Z m 0,-24.47006 V 193.1 H 16.115366 30.426989 v 14.2742 14.2742 H 16.115366 1.8037444 Z m 24.5342096,0 V 197.17834 H 16.115366 5.8927789 v 10.19586 10.19586 H 16.115366 26.337954 Z m -16.35614,0 v -6.11752 h 6.133552 6.133554 v 6.11752 6.11752 H 16.115366 9.981814 Z m 65.424558,0 V 193.1 h 14.311623 14.311625 v 14.2742 14.2742 H 89.717995 75.406372 Z m 24.53421,0 V 197.17834 H 89.717995 79.495407 v 10.19586 10.19586 h 10.222588 10.222587 z m -16.35614,0 v -6.11752 h 6.133553 6.133552 v 6.11752 6.11752 h -6.133552 -6.133553 z m -16.356139,2.03917 v -4.07834 h -2.044518 -2.044517 v -2.03918 -2.03917 h 2.044517 2.044518 V 197.17834 193.1 h 2.044517 2.044517 v 4.07834 4.07834 H 69.27282 67.228303 v 2.03917 2.03918 h 2.044517 2.044517 v 4.07834 4.07835 H 69.27282 67.228303 Z m -8.17807,-14.2742 V 193.1 h 2.044518 2.044517 v 2.03917 2.03917 h -2.044517 -2.044518 z"
       id="path1688"
       inkscape:connector-curvature="0" />
  </g>
</svg>
