<?xml version="1.0" encoding="UTF-8" standalone="no"?>
<!-- Created with Inkscape (http://www.inkscape.org/) -->

<svg
   xmlns:dc="http://purl.org/dc/elements/1.1/"
   xmlns:cc="http://creativecommons.org/ns#"
   xmlns:rdf="http://www.w3.org/1999/02/22-rdf-syntax-ns#"
   xmlns:svg="http://www.w3.org/2000/svg"
   xmlns="http://www.w3.org/2000/svg"
   xmlns:xlink="http://www.w3.org/1999/xlink"
   xmlns:sodipodi="http://sodipodi.sourceforge.net/DTD/sodipodi-0.dtd"
   xmlns:inkscape="http://www.inkscape.org/namespaces/inkscape"
   width="330mm"
   height="60mm"
   viewBox="0 0 330 60"
   version="1.1"
   id="svg1487"
   inkscape:version="0.92.3 (2405546, 2018-03-11)"
   sodipodi:docname="focus.svg">
  <defs
     id="defs1481">
    <linearGradient
       inkscape:collect="always"
       id="linearGradient1011">
      <stop
         style="stop-color:#ff6600;stop-opacity:1"
         offset="0"
         id="stop1007" />
      <stop
         id="stop1015"
         offset="0.78963828"
         style="stop-color:#ffff00;stop-opacity:1" />
      <stop
         style="stop-color:#ffffff;stop-opacity:1"
         offset="1"
         id="stop1009" />
    </linearGradient>
    <linearGradient
       inkscape:collect="always"
       xlink:href="#linearGradient1011"
       id="linearGradient1013"
       x1="145.99348"
       y1="99.231888"
       x2="146.22911"
       y2="161.59795"
       gradientUnits="userSpaceOnUse" />
  </defs>
  <sodipodi:namedview
     id="base"
     pagecolor="#ffffff"
     bordercolor="#666666"
     borderopacity="1.0"
     inkscape:pageopacity="0.0"
     inkscape:pageshadow="2"
     inkscape:zoom="0.7"
     inkscape:cx="582.67698"
     inkscape:cy="470.59459"
     inkscape:document-units="mm"
     inkscape:current-layer="layer1"
     showgrid="false"
     inkscape:window-width="1920"
     inkscape:window-height="1017"
     inkscape:window-x="-8"
     inkscape:window-y="-8"
     inkscape:window-maximized="1" />
  <metadata
     id="metadata1484">
    <rdf:RDF>
      <cc:Work
         rdf:about="">
        <dc:format>image/svg+xml</dc:format>
        <dc:type
           rdf:resource="http://purl.org/dc/dcmitype/StillImage" />
        <dc:title></dc:title>
      </cc:Work>
    </rdf:RDF>
  </metadata>
  <g
     inkscape:label="Layer 1"
     inkscape:groupmode="layer"
     id="layer1"
     transform="translate(0,-237)">
    <path
       style="fill:#000000;stroke-width:0.26458335"
       d="m 117.50752,284.37258 c -0.4853,-0.50655 -0.80095,-1.23709 -1.00028,-2.31511 -0.16017,-0.86626 -0.33543,-1.72265 -0.38946,-1.90309 -0.0973,-0.325 -0.3469,-0.17549 -3.65451,2.18909 -2.03506,1.45484 -4.51519,2.10856 -7.97175,2.10123 -2.59445,-0.005 -3.07651,-0.0833 -4.44028,-0.7167 -1.765239,-0.81984 -3.529427,-2.2027 -4.290972,-3.36349 -0.291042,-0.44362 -0.659628,-0.80692 -0.819081,-0.80734 -0.159454,-5.3e-4 -1.255993,0.69689 -2.436752,1.54958 -2.473214,1.78603 -4.153141,2.57041 -6.629149,3.09522 -3.439572,0.72904 -7.057011,0.40717 -9.785879,-0.87072 -1.549857,-0.72578 -4.005863,-3.00997 -4.696544,-4.36799 -0.241139,-0.47413 -0.476594,-0.90544 -0.523232,-0.95846 -0.04664,-0.053 -0.690706,0.36371 -1.431259,0.92605 -0.740552,0.56234 -1.907643,1.44723 -2.59353,1.96642 -3.041565,2.30234 -5.865402,3.34814 -9.725149,3.60168 -5.547995,0.36443 -9.475068,-1.26666 -12.123539,-5.03547 -1.388795,-1.97626 -1.98142,-3.42366 -2.399411,-5.86019 -0.189572,-1.10504 -0.443987,-1.84141 -0.630748,-1.82563 -0.172159,0.0145 -1.260477,0.0443 -2.418481,0.0661 l -2.105463,0.0397 -0.534064,1.79329 c -0.293735,0.98631 -0.722364,2.74248 -0.952509,3.9026 -0.618523,3.11788 -0.822036,3.51481 -1.979958,3.86173 -0.621763,0.18629 -1.110098,0.54196 -1.291883,0.94094 -0.160743,0.35279 -0.678947,0.79683 -1.151564,0.98675 -1.216534,0.48886 -7.46228,1.30058 -8.5038,1.10519 -2.44858,-0.45936 -2.693623,-2.62934 -0.958661,-8.48945 1.089941,-3.68146 3.09228,-9.26107 4.318011,-12.03234 l 0.640893,-1.44901 -0.757561,-0.70767 c -0.684268,-0.6392 -0.756063,-0.87018 -0.742069,-2.38745 0.02061,-2.2341 1.420537,-6.46701 2.365758,-7.15322 1.0596,-0.76926 5.70138,-1.30811 15.644148,-1.81609 7.723608,-0.3946 9.38553,-0.30713 10.063136,0.52968 0.455408,0.56241 0.578998,0.58632 1.614294,0.31238 2.063303,-0.54596 6.253594,-1.09316 8.371049,-1.09316 4.244435,0 7.648485,1.03456 10.49706,3.19027 l 1.607397,1.21643 0.906145,-0.77602 c 1.242642,-1.06419 4.263895,-2.49698 5.901555,-2.79874 3.663275,-0.675 5.051356,-0.83163 7.338221,-0.82803 3.136445,0.005 5.342959,0.52353 7.876813,1.85128 l 1.997937,1.04692 0.802061,-0.76998 c 0.83853,-0.80499 2.13495,-1.10728 8.06382,-1.88023 5.40806,-0.70505 5.87134,0.39561 3.05607,7.26063 -1.92489,4.69384 -3.83973,10.44965 -3.82749,11.50503 0.007,0.57246 0.0527,0.61745 0.26308,0.25706 0.14026,-0.24027 1.63735,-4.16933 3.32686,-8.73125 1.6895,-4.56193 3.18199,-8.50154 3.31663,-8.75469 0.42228,-0.79394 1.57867,-1.17958 4.99163,-1.66464 3.88156,-0.55166 6.6094,-0.3938 7.43336,0.43015 0.49835,0.49836 0.54208,0.49852 2.5561,0.009 2.91184,-0.70723 5.66672,-1.09857 6.42559,-0.91277 1.08557,0.26579 1.47967,0.80272 2.63827,3.59446 0.91722,2.21011 1.08862,2.88799 0.97812,3.86833 -0.14504,1.28685 -0.68282,1.88228 -1.70002,1.88228 -0.41163,0 -0.69951,0.21587 -0.86366,0.64762 -0.30617,0.80529 -1.1608,1.35711 -2.45266,1.58363 -0.5457,0.0957 -0.99218,0.22995 -0.99218,0.29835 0,0.0684 0.41216,0.74762 0.91591,1.50937 0.50375,0.76175 1.24143,2.21843 1.63928,3.23708 0.6048,1.54848 0.72481,2.26689 0.73212,4.3826 0.008,2.32169 -0.0612,2.67253 -0.83848,4.25145 -0.98075,1.99219 -2.46943,3.52744 -5.62383,5.79972 -2.79769,2.01533 -2.96732,2.10314 -6.31279,3.26762 -3.59747,1.25219 -5.67325,1.31745 -6.73267,0.21165 z m 8.03194,-3.76227 c 3.25279,-1.06296 5.28799,-2.18346 6.96676,-3.83562 1.65108,-1.62491 2.49723,-3.29799 2.71161,-5.36161 0.20485,-1.97203 -0.7496,-4.90549 -2.40826,-7.40167 -0.65244,-0.98186 -1.26188,-2.16473 -1.35432,-2.6286 -0.34076,-1.71 1.68477,-3.26195 5.03645,-3.8589 0.88105,-0.15692 1.63507,-0.30751 1.67561,-0.33466 0.10335,-0.0692 -2.0975,-5.22833 -2.3564,-5.52375 -0.44734,-0.51044 -6.54135,1.67315 -8.43742,3.02327 -1.28643,0.91602 -2.119,2.62139 -2.293,4.69676 -0.19289,2.30088 0.0915,3.22147 1.96633,6.36506 1.68481,2.82496 2.05178,4.48622 1.25845,5.69698 -0.58221,0.88856 -3.24502,2.20008 -5.29292,2.60692 -0.87312,0.17346 -1.62702,0.34118 -1.67533,0.3727 -0.0846,0.0552 0.9463,5.97522 1.15812,6.65058 0.1433,0.4569 0.2798,0.43594 3.04432,-0.46746 z m -95.147761,-0.48719 3.158514,-0.46498 0.58035,-2.76284 c 0.319192,-1.51957 1.040986,-4.13207 1.603986,-5.80556 l 1.023636,-3.0427 3.743811,-0.0733 c 2.554622,-0.05 3.826521,-0.17605 4.004205,-0.39688 0.291706,-0.36254 1.644692,-4.03804 1.644692,-4.46794 0,-0.18815 -1.224139,-0.21513 -3.836458,-0.0845 -2.547808,0.12737 -3.836458,0.10148 -3.836458,-0.0771 0,-0.14787 0.366336,-1.12974 0.814081,-2.18193 0.520668,-1.22355 0.757256,-2.13947 0.656418,-2.54124 l -0.157664,-0.62819 3.775354,-0.002 c 2.076444,-10e-4 4.549259,-0.0751 5.495144,-0.16468 l 1.719792,-0.1628 0.738121,-2.41501 c 0.405966,-1.32825 0.733388,-2.51872 0.727604,-2.64549 -0.01064,-0.23286 -4.310316,-0.10763 -13.107392,0.38173 -7.044137,0.39185 -6.34802,0.11603 -7.158341,2.83635 -0.377484,1.26724 -0.746366,2.51671 -0.819739,2.7766 -0.121853,0.43161 0.01731,0.45708 1.607234,0.29419 0.957351,-0.0981 1.740638,-0.099 1.740638,-0.002 0,0.097 -0.342876,0.85759 -0.761947,1.69019 -0.984915,1.95679 -2.632473,5.86538 -3.83394,9.09546 -0.940646,2.52887 -3.341613,10.4586 -3.341613,11.03641 0,0.37208 -0.01753,0.37296 3.819972,-0.19198 z m 33.279196,-0.29827 c 4.747641,-1.46639 8.479525,-5.87054 9.999072,-11.8003 0.74471,-2.90611 0.923859,-5.9785 0.450345,-7.72346 l -0.378807,-1.39594 0.756778,-0.44704 c 0.416226,-0.24587 0.756777,-0.53118 0.756777,-0.63401 0,-0.10283 -0.386953,-0.69184 -0.859896,-1.30891 -1.141907,-1.48989 -3.374869,-2.99005 -5.490104,-3.68838 -2.165803,-0.71503 -5.925884,-0.96132 -8.317646,-0.54481 -5.430901,0.94575 -10.501487,5.79375 -11.954044,11.42928 -0.512471,1.98826 -0.579686,6.61243 -0.124111,8.53858 0.998691,4.22242 3.929753,7.29252 7.730657,8.09736 1.691921,0.35827 5.430755,0.0954 7.430979,-0.52237 z m -4.555418,-4.97311 c -1.520003,-0.20067 -2.428108,-0.69365 -3.524944,-1.9136 -2.446882,-2.72152 -2.496867,-6.90529 -0.12718,-10.645 2.450484,-3.86723 8.166069,-5.16534 11.014996,-2.50171 0.992338,0.9278 1.215035,1.50134 0.722725,1.86133 -0.383802,0.28064 -0.373504,0.4061 0.111379,1.35718 1.586281,3.11139 -0.796462,9.23946 -4.284408,11.01888 -1.140701,0.58194 -2.913523,0.95482 -3.912568,0.82292 z m 0.680227,-3.03439 c 1.495873,-1.76866 2.605564,-5.11588 1.955665,-5.89896 -0.183978,-0.22168 -0.47268,-1.01656 -0.641559,-1.76641 -0.365537,-1.62303 -1.039336,-1.99979 -2.751751,-1.53869 -0.929285,0.25023 -1.152226,0.47157 -1.79188,1.77898 -0.833935,1.7045 -1.110932,4.03659 -0.64657,5.44362 0.355849,1.07823 2.023364,2.84135 2.687277,2.84135 0.253852,0 0.788821,-0.38695 1.188818,-0.85989 z m 28.282191,8.51217 c 0.848614,-0.15688 2.150404,-0.55585 2.892864,-0.8866 1.58678,-0.70689 4.12805,-2.6549 4.12805,-3.16436 0,-0.58297 -3.979201,-3.73042 -4.358632,-3.44757 -2.114129,1.57602 -2.636948,1.81264 -4.205022,1.90314 -2.143594,0.12372 -3.668131,-0.6282 -4.845476,-2.38986 -1.284994,-1.92273 -1.595536,-3.72748 -1.063355,-6.17983 0.584554,-2.6937 1.363871,-4.15038 3.039969,-5.68224 3.000232,-2.74204 7.534778,-2.78661 9.355162,-0.0919 0.34218,0.50652 0.80074,0.88837 1.019021,0.84857 0.218281,-0.0398 1.859174,-0.81901 3.646429,-1.73156 l 3.249555,-1.65919 -0.79648,-1.15764 c -1.494915,-2.17279 -4.268259,-3.84669 -7.318127,-4.417 -2.269847,-0.42444 -6.26351,-0.15847 -8.088032,0.53867 -2.910663,1.11213 -5.937784,3.93091 -7.737359,7.20484 -2.139103,3.89162 -2.541137,10.07517 -0.933084,14.35147 1.786596,4.75112 6.339662,7.01016 12.014517,5.96111 z m 21.471985,-5.3e-4 c 3.52396,-0.49014 5.81888,-2.04418 8.04922,-5.45065 1.67012,-2.55084 2.78872,-5.31104 5.16599,-12.74733 1.09977,-3.44019 2.28992,-7.06537 2.64477,-8.05596 0.35486,-0.99051 0.6452,-1.85372 0.6452,-1.91815 0,-0.0644 -1.29695,-0.11716 -2.88211,-0.11716 -2.49827,0 -2.90665,0.0617 -3.06641,0.46302 -0.10136,0.25467 -1.48483,3.97537 -3.07438,8.26823 -1.58954,4.29287 -3.26348,8.57022 -3.71987,9.50523 -1.57054,3.21758 -3.85311,4.78586 -5.79495,3.98153 -1.24378,-0.51519 -1.70195,-1.63058 -1.68171,-4.09405 0.0152,-1.84694 0.20584,-2.67297 1.49626,-6.48229 0.81337,-2.40109 2.15047,-5.95672 2.97132,-7.9014 0.82085,-1.94467 1.4355,-3.59273 1.36588,-3.66235 -0.0696,-0.0696 -1.46013,0.0257 -3.09002,0.21179 l -2.96344,0.33837 -0.7873,1.73648 c -1.47817,3.26025 -3.11596,7.65092 -4.07077,10.9131 -1.058816,3.61752 -1.443081,7.46797 -0.932938,9.34829 0.864728,3.18728 3.856938,5.59417 7.359728,5.92006 0.17137,0.016 1.23586,-0.0996 2.36553,-0.25668 z m -23.892531,-8.23747 c 0.317855,-0.17658 1.351825,-0.4189 2.297711,-0.53849 4.330766,-0.54752 4.253677,-0.54784 5.022733,0.0207 l 0.729356,0.53923 0.17331,-1.50386 c 0.151204,-1.31207 1.199655,-5.61716 1.66039,-6.81782 0.116067,-0.30246 -0.310618,-0.17761 -1.529599,0.44757 -1.314214,0.67403 -2.027997,0.86948 -3.2063,0.87794 -1.467302,0.0105 -1.558308,-0.0311 -2.848263,-1.30162 -1.160743,-1.14329 -1.472306,-1.31249 -2.416744,-1.31249 -0.875401,0 -1.200216,0.14548 -1.68651,0.75535 -0.83109,1.04237 -1.454623,3.11563 -1.454623,4.83673 0,1.5191 0.193095,2.05876 1.237289,3.45795 0.691782,0.92698 1.118042,1.04061 2.02125,0.53884 z m 36.730341,-0.63829 c 0.37938,-0.34333 0.41697,-0.53924 0.1862,-0.97044 -0.28486,-0.53227 -0.29439,-0.53079 -0.64357,0.0994 -0.66058,1.19231 -0.41483,1.66032 0.45737,0.87099 z m 32.24237,12.65024 c -4.05994,-1.06121 -6.98315,-4.05605 -8.31213,-8.51581 -1.10823,-3.71897 -1.003,-8.97231 0.2598,-12.96975 1.43247,-4.53459 5.7669,-9.31261 9.84494,-10.85251 1.98748,-0.75049 7.0528,-1.56805 9.71676,-1.56833 3.81584,-4e-4 7.72358,1.22098 9.91062,3.0976 l 0.91478,0.78494 1.33418,-0.83887 c 1.87419,-1.17841 3.69844,-1.89776 5.6998,-2.24757 0.94588,-0.16533 2.36473,-0.4142 3.15298,-0.55305 2.08049,-0.36648 5.76282,-0.30949 8.02995,0.12428 1.98973,0.3807 5.2584,1.68708 5.59863,2.23758 0.11955,0.19344 0.48222,-0.0157 1.02814,-0.59299 0.71977,-0.76109 1.21887,-0.9772 3.40433,-1.47403 2.40884,-0.54761 4.24754,-0.86893 7.14041,-1.24781 2.44812,-0.32064 3.02028,0.1919 3.65514,3.27425 0.18665,0.90623 0.44443,1.58276 0.57284,1.5034 0.12841,-0.0794 0.47143,-0.61072 0.76226,-1.18081 0.29084,-0.57008 0.81304,-1.22276 1.16046,-1.45039 0.80096,-0.52481 6.55811,-1.43799 9.09427,-1.44251 1.21889,-0.002 2.14298,0.13469 2.51354,0.37226 0.47832,0.30665 1.12082,0.3306 3.49642,0.13036 1.60073,-0.13492 7.85151,-0.30654 13.89063,-0.38136 8.78092,-0.1088 11.40417,-0.0609 13.09687,0.23919 3.17944,0.56365 5.07549,1.37891 6.63324,2.85216 1.35095,1.27767 1.35637,1.27986 1.84294,0.7422 0.90565,-1.00073 4.95723,-2.81943 7.03527,-3.15803 1.07308,-0.17486 2.52246,-0.42643 3.22084,-0.55906 4.9417,-0.93848 11.55327,0.45989 14.42008,3.04988 l 1.08231,0.9778 0.547,-1.07221 c 0.93051,-1.82394 1.32164,-1.95884 7.68395,-2.65009 4.83007,-0.52477 5.40263,-0.33996 5.37834,1.73608 -0.0111,0.95709 -0.52623,2.58448 -1.99893,6.31635 -1.71809,4.35366 -4.43764,12.4644 -4.4378,13.23516 -3e-5,0.15657 1.52151,0.25859 3.85673,0.25859 3.51202,0 3.8904,0.0459 4.23336,0.51359 0.578,0.78819 0.45431,2.15737 -0.4435,4.90971 -0.81597,2.50141 -1.4583,3.44024 -2.35376,3.44024 -0.25818,0 -0.66336,0.296 -0.9004,0.65777 -0.92684,1.41454 -1.43267,1.54274 -6.86758,1.74053 -2.78598,0.1014 -6.44456,0.39414 -8.13017,0.65054 -1.75212,0.26652 -3.47535,0.38915 -4.02344,0.28633 -1.06426,-0.19965 -2.03994,-1.21817 -2.03994,-2.12951 0,-0.55269 -0.0797,-0.53566 -2.05052,0.43782 -3.39532,1.67713 -7.72504,2.21049 -11.48132,1.41432 -2.05679,-0.43594 -3.61872,-1.17384 -5.20093,-2.45703 -1.04204,-0.8451 -1.17636,-0.88819 -1.59306,-0.51109 -0.25029,0.22651 -1.80192,0.8943 -3.44806,1.48399 -4.46072,1.59793 -6.17691,1.46278 -7.38104,-0.58128 -0.27867,-0.47305 -0.97304,-1.66169 -1.54305,-2.64141 -0.57002,-0.97973 -1.1211,-1.7834 -1.22463,-1.78594 -0.10353,-0.003 -0.31476,0.46524 -0.4694,1.03952 -0.26427,0.98142 -1.3143,2.13086 -1.94657,2.13086 -0.15614,0 -0.71955,0.42541 -1.25202,0.94535 -0.85298,0.83291 -1.35323,1.03746 -4.20586,1.71979 -1.78074,0.42594 -3.8046,0.77444 -4.49745,0.77444 -2.38483,0 -3.30677,-1.5436 -2.69396,-4.51051 0.56968,-2.75816 3.19154,-10.74662 4.76058,-14.50491 l 1.56088,-3.73875 h -1.23798 -1.23798 l -1.12,3.10886 c -1.31467,3.64918 -2.37959,7.15729 -3.51123,11.56689 -0.9294,3.62154 -1.26757,4.29352 -2.28651,4.54361 -0.39834,0.0978 -1.08145,0.58308 -1.51801,1.07846 -0.69582,0.78956 -1.16915,0.99594 -3.83646,1.67273 -1.80567,0.45816 -3.75004,0.77439 -4.78252,0.77783 -1.53222,0.005 -1.81636,-0.0757 -2.38125,-0.67706 -0.54974,-0.58523 -0.63639,-0.92188 -0.60616,-2.35485 l 0.0353,-1.672 -0.85583,0.35758 c -0.4707,0.19668 -1.26048,0.76019 -1.75507,1.25225 -0.76405,0.76016 -1.35669,1.00867 -3.94195,1.65291 -3.91137,0.97471 -5.79303,1.01872 -6.7112,0.15696 -0.36833,-0.34569 -0.74485,-0.97077 -0.83672,-1.38906 -0.21647,-0.98559 -0.46226,-0.95867 -1.5105,0.16542 -0.74975,0.80401 -1.26413,1.03026 -3.90616,1.71811 -1.77582,0.46233 -3.72145,0.79286 -4.67284,0.79384 -1.49642,0.002 -1.6863,-0.0651 -2.3151,-0.81236 -0.37674,-0.44773 -0.68498,-0.97764 -0.68498,-1.17758 0,-0.25786 -0.55981,-0.0977 -1.92574,0.55099 -3.34853,1.59022 -7.69177,2.09703 -11.34152,1.32344 -2.90933,-0.61664 -5.47818,-2.21027 -7.01966,-4.35474 l -0.72929,-1.01458 -1.28323,0.88271 c -0.70578,0.48549 -1.7401,1.24455 -2.29848,1.6868 -3.40763,2.69889 -9.3303,3.86116 -13.76666,2.70157 z m 9.525,-3.76261 c 2.16561,-0.33984 4.62324,-1.52246 6.26789,-3.01611 0.7,-0.63574 1.2132,-1.20475 1.14044,-1.26447 -0.0728,-0.0597 -1.05771,-0.86356 -2.18877,-1.78633 l -2.05648,-1.67775 -0.58935,0.55327 c -0.95963,0.90086 -2.86854,1.63237 -4.27613,1.63863 -4.24988,0.0189 -6.78394,-4.61722 -5.30481,-9.70527 0.57609,-1.98168 1.00541,-2.78709 2.17674,-4.08361 1.97365,-2.1846 5.42444,-3.16185 7.86868,-2.22838 0.7079,0.27035 1.57287,0.90114 2.13634,1.55795 l 0.94682,1.10366 3.30799,-1.71979 c 1.8194,-0.94588 3.35985,-1.79889 3.42322,-1.89556 0.20338,-0.31028 -1.59133,-2.43542 -2.87803,-3.40791 -1.79611,-1.35751 -4.10408,-2.11611 -6.98063,-2.29446 -4.70378,-0.29164 -7.61378,0.812 -10.93424,4.14689 -3.4076,3.42241 -4.74582,6.79133 -4.75509,11.97083 -0.008,4.30651 0.85309,6.98571 3.01807,9.39369 2.26222,2.51614 5.37622,3.38969 9.67734,2.71472 z m 27.06286,-0.52152 c 4.9078,-1.51587 8.6874,-6.17891 10.07812,-12.43376 0.66736,-3.00154 0.7719,-5.01676 0.35374,-6.81921 l -0.38507,-1.65983 0.76195,-0.54256 c 0.89987,-0.64077 0.85046,-0.77568 -0.97786,-2.66972 -2.29273,-2.37512 -5.84637,-3.64754 -10.20086,-3.65252 -2.56773,-0.003 -4.36519,0.40506 -6.4902,1.47315 -3.65911,1.83917 -6.76713,5.46548 -8.04457,9.38607 -0.5504,1.68923 -0.64026,2.46291 -0.62839,5.41066 0.0115,2.86521 0.11336,3.7231 0.60977,5.13743 1.34867,3.84256 4.01398,6.24497 7.67003,6.91349 1.79364,0.32798 5.27753,0.0671 7.25334,-0.5432 z m -6.71448,-5.63582 c -2.37628,-1.24388 -3.77735,-4.55823 -3.212,-7.59827 0.89217,-4.79739 3.88859,-7.78934 8.143,-8.13084 1.87694,-0.15067 3.21828,0.21096 4.36664,1.17723 1.17673,0.99016 1.45744,1.63483 0.89192,2.04835 -0.43383,0.31722 -0.42746,0.40397 0.11138,1.51706 0.71686,1.48084 0.7201,2.59339 0.0142,4.87883 -0.66646,2.15774 -1.97083,4.28287 -3.20793,5.22644 -2.06552,1.57546 -5.06939,1.94789 -7.1072,0.8812 z m 2.12569,-1.76255 c 0.72994,-0.39066 2.03883,-2.61126 2.51383,-4.26485 0.40511,-1.41027 0.40027,-1.53221 -0.10497,-2.64583 -0.2913,-0.64208 -0.53226,-1.54898 -0.53545,-2.01533 -0.005,-0.75488 -0.10552,-0.86661 -0.91461,-1.0184 -1.32875,-0.24927 -2.66956,0.28646 -3.27188,1.30731 -1.77563,3.00947 -1.56348,6.19399 0.54378,8.16247 0.85791,0.80141 1.05827,0.85516 1.7693,0.47463 z m 15.56673,7.35616 c 1.85157,-0.46068 3.44247,-0.95218 3.53534,-1.09221 0.0929,-0.14003 0.24356,-0.81788 0.33489,-1.50632 0.26339,-1.98558 3.35488,-10.38915 4.12171,-11.20402 0.40125,-0.42639 1.59226,8.49466 1.59226,11.92656 0,1.37629 0.0952,1.91985 0.33624,1.91985 0.43271,0 6.52842,-1.4848 6.66776,-1.62414 0.0579,-0.0579 0.89675,-2.72251 1.86401,-5.92126 1.93103,-6.38598 2.90517,-9.03489 4.71732,-12.82751 0.77396,-1.61981 1.14495,-2.19462 1.04339,-1.61661 -0.15736,0.89555 -0.1562,0.8967 0.74278,0.74499 1.92323,-0.32456 6.60551,-0.78748 6.72784,-0.66515 0.0709,0.0709 -0.45755,1.37219 -1.17433,2.89177 -1.94715,4.12797 -3.77943,8.88556 -5.13348,13.32937 -1.45064,4.76077 -1.84075,6.23377 -1.6907,6.38383 0.062,0.062 1.6605,-0.26966 3.55225,-0.73699 l 3.43954,-0.8497 0.60401,-2.39857 c 1.50816,-5.9891 4.45067,-14.95528 5.70233,-17.37574 0.35017,-0.67715 0.33704,-0.76722 -0.16286,-1.11736 -0.48862,-0.34225 -0.16733,-0.40034 3.16994,-0.57313 l 3.71366,-0.19228 0.58832,-1.82666 c 0.33515,-1.04063 0.66478,-1.68261 0.76601,-1.4919 0.0977,0.18411 0.39814,1.44227 0.66756,2.7959 0.45668,2.29453 0.52882,2.45138 1.06552,2.31667 0.51565,-0.12942 0.38787,0.27601 -1.22564,3.88885 -0.99071,2.21833 -2.21384,5.22396 -2.71806,6.67917 -1.39648,4.03037 -3.20968,10.43047 -3.01124,10.6289 0.0971,0.0971 1.68344,-0.17515 3.5253,-0.60491 l 3.34883,-0.78139 0.63061,-2.37234 c 1.59027,-5.98261 2.25747,-8.02037 2.58489,-7.89473 0.81503,0.31275 5.82504,7.26014 7.17823,9.95406 0.38379,0.76404 0.73123,1.427 0.7721,1.47325 0.14364,0.16254 6.47219,-2.20336 6.47439,-2.42042 0.004,-0.37035 -3.05402,-4.70079 -4.67974,-6.62747 -2.47368,-2.93162 -2.39487,-2.66569 -0.94713,-3.19575 4.12274,-1.50947 6.46941,-4.73318 6.4914,-8.91748 0.0164,-3.12442 -1.53981,-4.87413 -5.40518,-6.07717 -2.17261,-0.67619 -7.67725,-0.92324 -11.43918,-0.51339 -2.22264,0.24215 -2.92966,0.24238 -3.07885,9.8e-4 -0.18497,-0.29928 -6.1347,-0.12756 -16.10653,0.46488 -2.58047,0.15331 -2.74435,0.13342 -2.57331,-0.3123 0.17129,-0.44637 0.0132,-0.46452 -2.53569,-0.29123 -1.51616,0.10308 -2.85573,0.32477 -3.02898,0.50128 -0.47436,0.48328 -4.98079,9.33817 -5.78857,11.37423 -0.39219,0.98854 -0.76289,1.74752 -0.82378,1.68663 -0.0609,-0.0609 -0.40356,-1.82219 -0.76149,-3.914 -0.62808,-3.67059 -2.08032,-10.48128 -2.27682,-10.67778 -0.10434,-0.10434 -6.61483,1.40199 -6.78198,1.56913 -0.0563,0.0563 0.16767,0.94072 0.49769,1.9654 l 0.60004,1.86306 -2.01329,4.17803 c -2.55591,5.30408 -4.06153,9.06547 -5.43214,13.57073 -1.56851,5.15578 -1.89925,6.35 -1.75866,6.35 0.0687,0 1.6399,-0.37692 3.49147,-0.83761 z m 51.51648,-16.91993 c 0.10253,-0.34705 0.55129,-1.43748 0.99724,-2.42317 0.77057,-1.70322 0.78709,-1.80952 0.33295,-2.1416 -0.43151,-0.31553 -0.36007,-0.37908 0.73658,-0.65522 1.63607,-0.41197 2.65994,-0.38487 3.8232,0.10117 1.44489,0.60371 1.91941,1.14118 1.91941,2.17404 0,0.67823 -0.22323,1.13472 -0.87231,1.7838 -1.05212,1.05212 -2.28611,1.4551 -5.04382,1.64715 l -2.07967,0.14482 z m 29.58057,16.96214 c 4.29334,-1.32608 7.79042,-5.13218 9.5576,-10.40217 1.12464,-3.35381 1.4361,-7.86333 0.6804,-9.85097 -0.20095,-0.52856 -0.11594,-0.71325 0.54486,-1.18379 0.93657,-0.66689 0.85928,-0.88401 -0.9779,-2.74763 -2.51601,-2.55217 -6.54339,-3.80285 -11.33552,-3.52019 -2.7657,0.16313 -4.46498,0.7335 -6.88736,2.31174 -5.38575,3.50895 -7.9814,9.64043 -7.00199,16.54015 0.72555,5.11125 3.74736,8.588 8.16658,9.39606 1.79364,0.32798 5.27753,0.0671 7.25333,-0.5432 z m -6.71447,-5.63582 c -2.41969,-1.2666 -3.80354,-4.60976 -3.18026,-7.68301 0.97308,-4.79797 3.88875,-7.70716 8.0599,-8.04198 1.93117,-0.15502 3.25845,0.19742 4.41798,1.17311 1.19108,1.00223 1.45826,1.63426 0.87199,2.06293 -0.45932,0.33587 -0.45304,0.39915 0.14536,1.46389 0.52113,0.9272 0.60198,1.36157 0.48469,2.60383 -0.37835,4.0068 -2.74023,7.60454 -5.68137,8.65413 -1.5984,0.57041 -3.77264,0.47148 -5.11829,-0.2329 z m 2.34291,-1.91535 c 0.79617,-0.55766 1.78616,-2.32968 2.29731,-4.11205 0.40431,-1.40977 0.39939,-1.53261 -0.10568,-2.64583 -0.2913,-0.64208 -0.53226,-1.54898 -0.53544,-2.01533 -0.005,-0.75488 -0.10551,-0.86661 -0.91461,-1.0184 -0.49984,-0.0938 -1.34444,-0.0267 -1.8769,0.14901 -0.81726,0.26972 -1.08787,0.57269 -1.73683,1.94444 -1.3785,2.91388 -0.97726,5.82434 1.03542,7.51061 0.8411,0.70469 1.06567,0.72762 1.83673,0.18755 z m 15.01183,7.97389 c 2.30971,-0.40589 8.11284,-0.93647 11.22193,-1.02602 l 1.96152,-0.0565 0.87148,-2.60206 0.87146,-2.60205 -4.15589,0.16864 c -2.28576,0.0928 -4.42381,0.22414 -4.75123,0.29199 -0.39581,0.082 -0.59531,-0.003 -0.59531,-0.25241 0,-0.91662 3.86673,-12.63313 5.55083,-16.81941 1.02163,-2.53956 1.8575,-4.70926 1.8575,-4.82156 0,-0.31303 -5.11746,0.0705 -5.46459,0.40958 -0.33706,0.32921 -4.43066,9.79243 -6.48113,14.98248 -1.08736,2.75228 -3.07192,9.06149 -3.7659,11.9724 -0.20809,0.87285 -0.12573,0.883 2.87933,0.35492 z m -132.1271,-7.9909 c 0.2629,-0.23792 1.32367,-0.53934 2.40209,-0.68256 1.06219,-0.14107 2.37138,-0.31842 2.9093,-0.39411 0.59107,-0.0832 1.28411,0.0151 1.75165,0.24831 l 0.77363,0.38593 0.14791,-3.20376 c 0.0813,-1.76207 0.23283,-3.4835 0.3366,-3.82539 l 0.18869,-0.62162 -0.89763,0.47577 c -0.56076,0.29722 -1.48053,0.47921 -2.4508,0.48492 -1.52523,0.009 -1.57281,-0.0133 -2.64583,-1.24085 -1.26657,-1.44894 -2.31085,-1.79229 -3.53142,-1.16111 -1.51842,0.78521 -2.66142,4.95675 -1.94934,7.11438 0.27782,0.84178 1.91832,2.84617 2.32947,2.84617 0.0907,0 0.37673,-0.19173 0.63568,-0.42608 z"
       id="path963"
       inkscape:connector-curvature="0" />
    <g
       id="g1005"
       style="fill-opacity:1;fill:url(#linearGradient1013)">
      <path
         transform="matrix(0.26458333,0,0,0.26458333,0,237)"
         inkscape:connector-curvature="0"
         id="path965"
         d="m 100.47013,164.07352 c -1.738818,-2.81347 17.15931,-57.17345 25.81327,-74.251228 1.94504,-3.83835 3.53644,-7.321617 3.53644,-7.740594 0,-0.418977 -2.84482,-0.761777 -6.32181,-0.761777 h -6.32181 l 2.24519,-8.214286 c 3.54091,-12.954785 3.49605,-12.93272 29.68963,-14.603602 31.24273,-1.992966 47.85165,-1.915159 47.85165,0.224167 0,0.930597 -1.02592,5.348353 -2.27982,9.817235 l -2.27983,8.125241 -7.36303,0.884633 c -4.04967,0.486549 -13.30946,0.890222 -20.57732,0.897052 -12.17461,0.01144 -13.21428,0.23305 -13.21428,2.816674 0,1.54234 -1.29754,6.096129 -2.88341,10.119527 l -2.88341,7.315272 12.52627,-0.257966 c 6.88944,-0.141882 13.32983,-0.19567 14.31198,-0.119529 2.61478,0.202713 2.09088,4.276781 -1.48746,11.567011 l -3.1554,6.42857 -14.15439,0.71429 -14.1544,0.71428 -2.73659,7.85714 c -1.50512,4.32143 -4.30476,13.91912 -6.22141,21.32819 -1.91666,7.40908 -3.81777,13.80399 -4.22469,14.21092 -1.32972,1.32971 -25.03504,4.02957 -25.71537,2.92878 z"
         style="opacity:1;fill:url(#linearGradient1013);fill-opacity:1;stroke:none;stroke-width:8.42571354;stroke-linecap:square;stroke-linejoin:round;stroke-miterlimit:4;stroke-dasharray:none;stroke-opacity:1;paint-order:normal" />
      <path
         transform="matrix(0.26458333,0,0,0.26458333,0,237)"
         inkscape:connector-curvature="0"
         id="path967"
         d="m 204.44498,161.2432 c -8.20727,-4.17367 -16.79162,-14.25747 -19.79369,-23.25111 -3.62352,-10.85538 -3.17025,-31.94164 0.9217,-42.877414 5.74046,-15.341437 19.8161,-29.407355 35.27212,-35.247752 7.06665,-2.670291 10.35491,-3.032147 22.75316,-2.50387 17.05262,0.726597 26.90919,4.627917 35.37949,14.003528 5.68456,6.292136 6.04162,7.416514 3.12409,9.837846 -1.52696,1.267266 -1.83173,4.282984 -1.28094,12.674921 1.77959,27.114411 -12.71391,55.364811 -33.66239,65.613951 -6.79828,3.32608 -10.19174,3.99266 -22.32077,4.38443 -12.41213,0.40092 -15.10885,0.0525 -20.39277,-2.63453 z m 31.90449,-21.19873 c 11.98519,-5.44355 20.21025,-20.86312 18.59156,-34.8537 -0.47358,-4.09326 -1.01602,-9.621675 -1.20541,-12.285381 -0.94348,-13.269474 -24.08668,-15.47866 -37.93904,-3.621555 -8.1594,6.98414 -12.1266,17.176436 -11.43687,29.382916 0.6071,10.74421 3.08012,15.36841 11.15989,20.86746 5.75704,3.9182 12.93916,4.09414 20.82987,0.51026 z"
         style="opacity:1;fill:url(#linearGradient1013);fill-opacity:1;stroke:none;stroke-width:8.42571354;stroke-linecap:square;stroke-linejoin:round;stroke-miterlimit:4;stroke-dasharray:none;stroke-opacity:1;paint-order:normal" />
      <path
         transform="matrix(0.26458333,0,0,0.26458333,0,237)"
         inkscape:connector-curvature="0"
         id="path969"
         d="m 314.31522,164.11105 c -13.90887,-2.82682 -23.8707,-12.18244 -28.1649,-26.45095 -3.0333,-10.07891 -2.6315,-29.85389 0.83461,-41.075849 5.09505,-16.495843 20.56962,-33.098031 34.87991,-37.421558 10.50236,-3.173048 27.58322,-2.761982 37.36892,0.899316 7.64515,2.860419 22.01465,14.491819 22.01465,17.819776 0,1.582621 -23.29023,13.438136 -26.39931,13.438136 -1.13938,0 -2.78881,-1.340137 -3.66542,-2.978083 -1.9571,-3.656879 -9.64256,-7.021917 -16.03747,-7.021917 -7.14603,0 -18.691,6.374445 -23.12,12.765488 -4.4972,6.489471 -7.92066,16.993121 -7.92066,24.301711 0,6.50908 5.20082,16.87096 10.35151,20.62389 5.52087,4.02265 15.8617,3.81712 23.48385,-0.46677 l 5.91627,-3.32513 4.79141,2.96125 c 2.63528,1.62869 6.38759,4.66781 8.33847,6.7536 l 3.54706,3.79234 -5.71428,4.86377 c -10.18249,8.66692 -27.49766,13.1645 -40.50462,10.52098 z"
         style="opacity:1;fill:url(#linearGradient1013);fill-opacity:1;stroke:none;stroke-width:8.42571354;stroke-linecap:square;stroke-linejoin:round;stroke-miterlimit:4;stroke-dasharray:none;stroke-opacity:1;paint-order:normal" />
      <path
         transform="matrix(0.26458333,0,0,0.26458333,0,237)"
         inkscape:connector-curvature="0"
         id="path973"
         d="m 397.92003,163.23004 c -9.64631,-2.88434 -18.59371,-12.04974 -20.80906,-21.31606 -3.27473,-13.69742 2.86837,-38.95085 18.44941,-75.842949 l 3.12184,-7.391747 10.45455,-0.979672 c 5.75001,-0.538819 11.10149,-0.748247 11.8922,-0.465396 0.79078,0.282882 -2.43114,10.477278 -7.16075,22.657133 -10.8354,27.903701 -14.42744,41.488601 -13.17672,49.833681 1.58706,10.58922 8.55745,14.50401 16.31047,9.16045 7.67532,-5.29001 10.36834,-10.61865 25.12191,-49.708416 l 11.86203,-31.428572 11.3437,-0.41258 11.3437,-0.412579 -9.68413,29.698293 c -11.35108,34.810344 -12.97742,39.317884 -17.20837,47.694354 -8.13169,16.09924 -18.29818,25.62023 -30.2185,28.29986 -11.51754,2.58909 -14.73241,2.68032 -21.64228,0.6142 z"
         style="opacity:1;fill:url(#linearGradient1013);fill-opacity:1;stroke:none;stroke-width:8.42571354;stroke-linecap:square;stroke-linejoin:round;stroke-miterlimit:4;stroke-dasharray:none;stroke-opacity:1;paint-order:normal" />
      <path
         transform="matrix(0.26458333,0,0,0.26458333,0,237)"
         inkscape:connector-curvature="0"
         id="path975"
         d="m 462.88065,165.88346 c -0.68229,-1.33138 -1.66732,-5.31354 -2.18897,-8.84925 -0.52164,-3.53572 -1.30921,-8.43806 -1.75015,-10.8941 -0.79752,-4.44225 -0.75012,-4.4812 9.09533,-7.47166 19.84043,-6.02635 21.5846,-11.09384 10.89828,-31.66381 -6.19526,-11.925182 -6.56372,-13.256092 -6.02259,-21.754285 0.76156,-11.960193 4.54855,-17.284476 16.0619,-22.582103 12.87978,-5.926359 23.22532,-8.681416 24.79133,-6.602024 1.11065,1.474757 8.9112,19.08755 8.9112,20.120527 0,0.216037 -3.38656,1.150673 -7.52568,2.076969 -9.71201,2.173451 -16.45033,6.324837 -17.58148,10.831702 -0.65096,2.593619 0.34381,5.596816 3.61463,10.912574 6.39065,10.38613 10.06396,20.42824 10.06396,27.51289 0,7.52878 -5.72414,19.49413 -11.75252,24.56668 -5.7036,4.79926 -18.43239,11.187 -27.88253,13.99241 -6.94039,2.06035 -7.58355,2.04588 -8.73271,-0.19652 z"
         style="opacity:1;fill:url(#linearGradient1013);fill-opacity:1;stroke:none;stroke-width:8.42571354;stroke-linecap:square;stroke-linejoin:round;stroke-miterlimit:4;stroke-dasharray:none;stroke-opacity:1;paint-order:normal" />
      <path
         transform="matrix(0.26458333,0,0,0.26458333,0,237)"
         inkscape:connector-curvature="0"
         id="path977"
         d="m 603.39127,164.21182 c -11.31581,-1.82952 -21.53851,-9.96633 -26.9655,-21.46333 -2.60834,-5.52575 -3.0345,-9.03673 -3.0345,-25 0,-17.20669 0.28438,-19.178338 3.86995,-26.830315 4.78355,-10.208591 17.23984,-23.494467 27.20334,-29.015085 7.00409,-3.880857 8.53353,-4.154598 23.21242,-4.154598 14.33364,0 16.43276,0.352812 23.89178,4.015642 7.94413,3.901044 18.90165,14.490255 17.44057,16.854341 -0.39813,0.644174 -6.28701,4.059266 -13.0864,7.589094 l -12.36255,6.41787 -4.73463,-4.875094 c -11.37039,-11.707723 -32.81267,-6.033269 -41.58021,11.00373 -13.99693,27.198675 7.25896,54.627455 30.24515,39.028605 l 5.10107,-3.46168 7.89976,6.43509 c 4.34486,3.5393 7.89975,6.96633 7.89975,7.61562 0,1.97761 -9.60221,8.64428 -17.52077,12.16441 -8.28421,3.68267 -18.76498,5.08461 -27.47923,3.6757 z"
         style="opacity:1;fill:url(#linearGradient1013);fill-opacity:1;stroke:none;stroke-width:8.42571354;stroke-linecap:square;stroke-linejoin:round;stroke-miterlimit:4;stroke-dasharray:none;stroke-opacity:1;paint-order:normal" />
      <path
         transform="matrix(0.26458333,0,0,0.26458333,0,237)"
         inkscape:connector-curvature="0"
         id="path979"
         d="m 688.58709,162.30097 c -8.29723,-3.1405 -15.99334,-10.83813 -20.53115,-20.53521 -4.10091,-8.76344 -4.22967,-9.66647 -3.68356,-25.83477 0.50002,-14.80403 1.03571,-17.725629 4.60276,-25.103008 5.37978,-11.126507 18.36794,-24.222879 28.92975,-29.17079 7.57559,-3.548946 9.85559,-3.9087 24.77209,-3.9087 19.08111,0 25.38697,2.117583 36.32239,12.1975 6.8674,6.330152 7.67645,8.231502 4.74904,11.160792 -1.23701,1.237805 -1.63624,5.608271 -1.29927,14.223354 1.10618,28.280362 -12.78406,54.536332 -34.05787,64.377762 -6.36074,2.94253 -10.44185,3.70874 -21.42858,4.02311 -8.45105,0.24182 -15.384,-0.29772 -18.3756,-1.43004 z m 31.21593,-23.11521 c 6.09256,-3.15059 9.93181,-7.60171 13.56162,-15.72298 4.71256,-10.5438 5.5082,-16.79633 2.92429,-22.9805 -1.67398,-4.006411 -1.81042,-5.747561 -0.56774,-7.244909 1.2619,-1.520493 1.02007,-2.65145 -1.05796,-4.947646 -6.98662,-7.720126 -18.19196,-9.0412 -30.01058,-3.53815 -22.94055,10.68171 -26.07503,47.536605 -4.80344,56.478275 4.42084,1.85832 14.38034,0.83806 19.95381,-2.04409 z"
         style="opacity:1;fill:url(#linearGradient1013);fill-opacity:1;stroke:none;stroke-width:8.42571354;stroke-linecap:square;stroke-linejoin:round;stroke-miterlimit:4;stroke-dasharray:none;stroke-opacity:1;paint-order:normal" />
      <path
         transform="matrix(0.26458333,0,0,0.26458333,0,237)"
         inkscape:connector-curvature="0"
         id="path981"
         d="m 751.24841,162.78455 c 0,-8.17141 17.18001,-54.46154 28.82051,-77.654469 l 5.61616,-11.189839 -2.36388,-7.116993 c -1.30014,-3.914346 -2.10495,-7.375934 -1.78846,-7.692417 1.56382,-1.563828 24.79478,-6.160367 25.84199,-5.113164 0.66461,0.664617 3.52602,12.844006 6.35869,27.065307 l 5.15029,25.856915 11.15835,-22.452844 c 6.1371,-12.349061 12.52609,-23.57784 14.19776,-24.95284 3.33022,-2.739211 20.65094,-3.656815 21.5324,-1.140727 0.30122,0.859827 8.87472,0.860864 23.33333,0.0028 12.57143,-0.746047 39.89286,-1.197006 60.71429,-1.00213 l 37.85714,0.354321 8.5076,4.285714 c 9.83492,4.954333 13.53442,9.36378 14.61492,17.41953 1.8668,13.918489 -6.5984,28.150086 -21.12192,35.509706 -7.91863,4.01267 -7.97119,3.40055 1.26844,14.7746 9.96818,12.27089 16.62998,22.97205 15.18078,24.38546 -1.3338,1.30091 -20.03982,8.62499 -22.02852,8.62499 -0.60263,0 -3.71843,-4.41472 -6.924,-9.8105 -9.32223,-15.69163 -23.11566,-33.57114 -24.68686,-31.99994 -0.75991,0.75991 -3.60073,9.31592 -6.31294,19.01335 -2.7122,9.69743 -5.64789,18.07458 -6.52376,18.61589 -2.15973,1.33479 -24.4496,5.75297 -25.2063,4.99626 -1.5221,-1.52209 10.95652,-40.10501 19.79293,-61.19823 6.41674,-15.317278 6.86312,-17.095171 5.02136,-20.000006 -1.1118,-1.753538 -2.46059,-5.917027 -2.99733,-9.252195 -1.29987,-8.077319 -2.79987,-8.616534 -4.8582,-1.746419 -1.581,5.276864 -2.06333,5.66836 -6.99783,5.679922 -9.04296,0.02119 -20.26404,1.746851 -19.4911,2.997491 0.40514,0.655544 -0.18636,2.978634 -1.31447,5.162423 -2.92093,5.65433 -15.61779,44.448074 -19.53434,59.684814 -1.81769,7.07143 -3.4586,13.06705 -3.64648,13.32361 -0.65281,0.89146 -21.33232,5.91329 -24.45069,5.93762 -3.10547,0.0242 -3.11553,-0.0516 -0.9915,-7.47552 5.49969,-19.22265 12.98905,-40.4936 20.15303,-57.237756 4.30846,-10.070051 7.44241,-18.700341 6.96433,-19.178421 -0.47808,-0.478081 -6.64854,-0.271317 -13.71214,0.459474 -7.53825,0.779897 -13.01903,0.800356 -13.26931,0.04953 -0.92579,-2.777384 -11.13887,22.608023 -18.90047,46.978603 -4.50424,14.14286 -8.91018,26.49455 -9.79096,27.44819 -1.61444,1.74801 -23.726,7.60822 -25.31188,6.70839 -0.46933,-0.2663 -1.23394,-7.09618 -1.69914,-15.17752 -0.95748,-16.63338 -3.78112,-35.40763 -5.32528,-35.40763 -1.42948,0 -11.21688,25.91898 -13.91676,36.85438 -1.24393,5.03833 -3.24862,9.54701 -4.55597,10.24668 -1.28404,0.6872 -7.29118,2.5192 -13.34921,4.07112 -10.42846,2.67153 -11.0146,2.68709 -11.0146,0.29245 z M 980.16352,96.123456 c 5.29377,-2.712178 8.7081,-8.182414 7.49427,-12.006858 -1.41532,-4.459272 -9.83692,-7.535493 -17.48834,-6.388092 -4.65494,0.69805 -6.08491,1.476122 -5.50246,2.993978 0.78578,2.047657 0.33446,3.588124 -4.09025,13.961477 l -2.34896,5.506899 9.01031,-1.030778 c 4.95568,-0.566927 10.77212,-1.933408 12.92543,-3.036626 z"
         style="opacity:1;fill:url(#linearGradient1013);fill-opacity:1;stroke:none;stroke-width:8.42571354;stroke-linecap:square;stroke-linejoin:round;stroke-miterlimit:4;stroke-dasharray:none;stroke-opacity:1;paint-order:normal" />
      <path
         transform="matrix(0.26458333,0,0,0.26458333,0,237)"
         inkscape:connector-curvature="0"
         id="path983"
         d="m 1034.7881,161.5852 c -11.3039,-5.29457 -18.9051,-15.68302 -21.9351,-29.97845 -6.6828,-31.52892 10.4801,-62.967207 39.5695,-72.481874 5.564,-1.819896 10.7434,-2.277544 20.6277,-1.822644 15.9498,0.734051 28.2756,5.594509 36.0722,14.224459 5.47,6.054607 6.0772,8.03452 2.8444,9.275053 -1.7329,0.664954 -1.9702,2.63479 -1.2505,10.378681 2.5771,27.728195 -12.1856,57.856445 -33.4462,68.258305 -6.9463,3.39846 -10.2094,4.0396 -22.4323,4.40739 -11.6531,0.35065 -15.3685,-0.0683 -20.0497,-2.26092 z m 31.6261,-21.56973 c 5.9763,-2.71394 11.0859,-8.35139 15.5363,-17.14148 3.1367,-6.19532 4.5778,-20.77771 2.3219,-23.495876 -0.9096,-1.096065 -1.48,-4.069395 -1.2675,-6.607403 0.4925,-5.882452 -4.5569,-10.044742 -13.3939,-11.040807 -14.0523,-1.583895 -26.7103,6.144122 -32.6917,19.959096 -11.0041,25.41574 6.8467,48.61148 29.4949,38.32647 z"
         style="opacity:1;fill:url(#linearGradient1013);fill-opacity:1;stroke:none;stroke-width:8.42571354;stroke-linecap:square;stroke-linejoin:round;stroke-miterlimit:4;stroke-dasharray:none;stroke-opacity:1;paint-order:normal" />
      <path
         transform="matrix(0.26458333,0,0,0.26458333,0,237)"
         inkscape:connector-curvature="0"
         id="path985"
         d="m 1099.8198,163.36643 c 0,-11.55087 33.3496,-98.300523 39.6422,-103.117938 1.2968,-0.992799 6.329,-1.785714 11.3329,-1.785714 h 9.0004 l -3.7049,9.642857 c -6.6315,17.260084 -18.7222,52.256585 -21.6617,62.699535 l -2.8709,10.19953 17.7024,-0.76451 c 10.7811,-0.4656 17.7025,-0.23316 17.7025,0.5945 0,0.74747 -1.3134,5.24831 -2.9187,10.00187 l -2.9188,8.64285 -16.7241,0.98806 c -15.8976,0.93923 -32.0629,2.74579 -40.6527,4.54315 -3.0861,0.64574 -3.9286,0.29313 -3.9286,-1.64419 z"
         style="opacity:1;fill:url(#linearGradient1013);fill-opacity:1;stroke:none;stroke-width:8.42571354;stroke-linecap:square;stroke-linejoin:round;stroke-miterlimit:4;stroke-dasharray:none;stroke-opacity:1;paint-order:normal" />
    </g>
  </g>
</svg>
