<?xml version="1.0" encoding="UTF-8" standalone="no"?>
<!-- Created with Inkscape (http://www.inkscape.org/) -->

<svg
   xmlns:dc="http://purl.org/dc/elements/1.1/"
   xmlns:cc="http://creativecommons.org/ns#"
   xmlns:rdf="http://www.w3.org/1999/02/22-rdf-syntax-ns#"
   xmlns:svg="http://www.w3.org/2000/svg"
   xmlns="http://www.w3.org/2000/svg"
   xmlns:xlink="http://www.w3.org/1999/xlink"
   xmlns:sodipodi="http://sodipodi.sourceforge.net/DTD/sodipodi-0.dtd"
   xmlns:inkscape="http://www.inkscape.org/namespaces/inkscape"
   version="1.1"
   id="svg815"
   width="1591"
   height="1300"
   viewBox="0 0 1591 1300"
   sodipodi:docname="nametextbanner.svg"
   inkscape:version="0.92.3 (2405546, 2018-03-11)">
  <metadata
     id="metadata821">
    <rdf:RDF>
      <cc:Work
         rdf:about="">
        <dc:format>image/svg+xml</dc:format>
        <dc:type
           rdf:resource="http://purl.org/dc/dcmitype/StillImage" />
        <dc:title />
      </cc:Work>
    </rdf:RDF>
  </metadata>
  <defs
     id="defs819">
    <linearGradient
       inkscape:collect="always"
       id="linearGradient861">
      <stop
         style="stop-color:#ff6600;stop-opacity:1"
         offset="0"
         id="stop857" />
      <stop
         id="stop865"
         offset="0.69815832"
         style="stop-color:#ffff00;stop-opacity:1" />
      <stop
         style="stop-color:#ffffff;stop-opacity:1"
         offset="1"
         id="stop859" />
    </linearGradient>
    <linearGradient
       inkscape:collect="always"
       xlink:href="#linearGradient861"
       id="linearGradient863"
       x1="816.92639"
       y1="81.348183"
       x2="818.99432"
       y2="233.81902"
       gradientUnits="userSpaceOnUse" />
    <linearGradient
       inkscape:collect="always"
       xlink:href="#linearGradient861"
       id="linearGradient873"
       gradientUnits="userSpaceOnUse"
       x1="816.92639"
       y1="81.348183"
       x2="818.99432"
       y2="233.81902" />
    <linearGradient
       inkscape:collect="always"
       xlink:href="#linearGradient861"
       id="linearGradient875"
       gradientUnits="userSpaceOnUse"
       x1="816.92639"
       y1="81.348183"
       x2="818.99432"
       y2="233.81902" />
    <linearGradient
       inkscape:collect="always"
       xlink:href="#linearGradient861"
       id="linearGradient877"
       gradientUnits="userSpaceOnUse"
       x1="816.92639"
       y1="81.348183"
       x2="818.99432"
       y2="233.81902" />
    <linearGradient
       inkscape:collect="always"
       xlink:href="#linearGradient861"
       id="linearGradient879"
       gradientUnits="userSpaceOnUse"
       x1="816.92639"
       y1="81.348183"
       x2="818.99432"
       y2="233.81902" />
    <linearGradient
       inkscape:collect="always"
       xlink:href="#linearGradient861"
       id="linearGradient881"
       gradientUnits="userSpaceOnUse"
       x1="816.92639"
       y1="81.348183"
       x2="818.99432"
       y2="233.81902" />
    <linearGradient
       inkscape:collect="always"
       xlink:href="#linearGradient861"
       id="linearGradient883"
       gradientUnits="userSpaceOnUse"
       x1="816.92639"
       y1="81.348183"
       x2="818.99432"
       y2="233.81902" />
    <linearGradient
       inkscape:collect="always"
       xlink:href="#linearGradient861"
       id="linearGradient885"
       gradientUnits="userSpaceOnUse"
       x1="816.92639"
       y1="81.348183"
       x2="818.99432"
       y2="233.81902" />
    <linearGradient
       inkscape:collect="always"
       xlink:href="#linearGradient861"
       id="linearGradient887"
       gradientUnits="userSpaceOnUse"
       x1="816.92639"
       y1="81.348183"
       x2="818.99432"
       y2="233.81902" />
    <filter
       x="-0.15"
       width="1.3"
       y="-0.15"
       height="1.3"
       inkscape:menu-tooltip="Stone wall texture to use with not too saturated colors"
       inkscape:menu="Textures"
       inkscape:label="Stone Wall"
       style="color-interpolation-filters:sRGB;"
       id="filter2401">
      <feTurbulence
         type="turbulence"
         numOctaves="5"
         baseFrequency="0.08 0.175"
         seed="25"
         id="feTurbulence2379" />
      <feColorMatrix
         result="result5"
         values="1 0 0 0 0 0 1 0 0 0 0 0 1 0 0 0 0 0 2 0 "
         id="feColorMatrix2381" />
      <feComposite
         in="SourceGraphic"
         operator="in"
         in2="result5"
         id="feComposite2383" />
      <feMorphology
         operator="dilate"
         radius="0.65"
         result="result3"
         id="feMorphology2385" />
      <feTurbulence
         numOctaves="7"
         baseFrequency="0.05 0.09"
         type="fractalNoise"
         seed="25"
         id="feTurbulence2387" />
      <feGaussianBlur
         stdDeviation="2"
         result="result7"
         id="feGaussianBlur2389" />
      <feDisplacementMap
         in="result3"
         xChannelSelector="R"
         yChannelSelector="G"
         scale="5"
         result="result4"
         in2="result7"
         id="feDisplacementMap2391" />
      <feFlood
         flood-opacity="1"
         flood-color="rgb(255,255,255)"
         id="feFlood2393" />
      <feComposite
         k3="0.7"
         k1="0.7"
         result="result2"
         operator="arithmetic"
         in2="result4"
         id="feComposite2395" />
      <feComposite
         k2="1"
         in="result2"
         operator="arithmetic"
         in2="SourceAlpha"
         k1="1"
         result="result6"
         id="feComposite2397" />
      <feBlend
         mode="multiply"
         in2="result6"
         in="result6"
         id="feBlend2399"
         result="fbSourceGraphic" />
      <feColorMatrix
         result="fbSourceGraphicAlpha"
         in="fbSourceGraphic"
         values="0 0 0 -1 0 0 0 0 -1 0 0 0 0 -1 0 0 0 0 1 0"
         id="feColorMatrix2427" />
      <feTurbulence
         id="feTurbulence2429"
         seed="10"
         baseFrequency="0.12 0.02"
         numOctaves="10"
         type="fractalNoise"
         in="fbSourceGraphic" />
      <feColorMatrix
         id="feColorMatrix2431"
         values="1 0 0 0 0 0 1 0 0 0 0 0 1 0 0 0 0 0 0.7 0 "
         result="result5" />
      <feComposite
         in2="result5"
         id="feComposite2433"
         operator="out"
         in="fbSourceGraphic" />
      <feMorphology
         id="feMorphology2435"
         result="result3"
         radius="1.3"
         operator="dilate" />
      <feTurbulence
         id="feTurbulence2437"
         seed="25"
         type="turbulence"
         baseFrequency="0.08 0.05"
         numOctaves="8"
         result="result91" />
      <feDisplacementMap
         in2="result91"
         id="feDisplacementMap2439"
         result="result4"
         scale="5"
         yChannelSelector="G"
         xChannelSelector="R"
         in="result3" />
      <feSpecularLighting
         id="feSpecularLighting2441"
         specularExponent="35"
         specularConstant="1"
         surfaceScale="2"
         lighting-color="rgb(255,255,255)"
         result="result1"
         in="result4">
        <feDistantLight
           id="feDistantLight2443"
           azimuth="235"
           elevation="75" />
      </feSpecularLighting>
      <feComposite
         in2="result4"
         id="feComposite2445"
         operator="in"
         result="result2"
         in="result1" />
      <feComposite
         in2="result2"
         id="feComposite2447"
         k3="1"
         k2="1"
         operator="arithmetic"
         result="result4"
         in="result4" />
      <feBlend
         in2="result4"
         id="feBlend2449"
         mode="multiply"
         result="fbSourceGraphic" />
      <feColorMatrix
         result="fbSourceGraphicAlpha"
         in="fbSourceGraphic"
         values="0 0 0 -1 0 0 0 0 -1 0 0 0 0 -1 0 0 0 0 1 0"
         id="feColorMatrix2451" />
      <feTurbulence
         id="feTurbulence2453"
         type="turbulence"
         numOctaves="5"
         baseFrequency="0.08 0.175"
         seed="25"
         in="fbSourceGraphic" />
      <feColorMatrix
         id="feColorMatrix2455"
         result="result5"
         values="1 0 0 0 0 0 1 0 0 0 0 0 1 0 0 0 0 0 2 0 " />
      <feComposite
         in2="result5"
         id="feComposite2457"
         in="fbSourceGraphic"
         operator="in" />
      <feMorphology
         id="feMorphology2459"
         operator="dilate"
         radius="0.65"
         result="result3" />
      <feTurbulence
         id="feTurbulence2461"
         numOctaves="7"
         baseFrequency="0.05 0.09"
         type="fractalNoise"
         seed="25" />
      <feGaussianBlur
         id="feGaussianBlur2463"
         stdDeviation="2"
         result="result7" />
      <feDisplacementMap
         in2="result7"
         id="feDisplacementMap2465"
         in="result3"
         xChannelSelector="R"
         yChannelSelector="G"
         scale="5"
         result="result4" />
      <feFlood
         id="feFlood2467"
         flood-opacity="1"
         flood-color="rgb(255,255,255)"
         result="result92" />
      <feComposite
         in2="result4"
         id="feComposite2469"
         k3="0.7"
         k1="0.7"
         result="result2"
         operator="arithmetic" />
      <feComposite
         in2="fbSourceGraphicAlpha"
         id="feComposite2471"
         k2="1"
         in="result2"
         operator="arithmetic"
         k1="1"
         result="result6" />
      <feBlend
         in2="result6"
         id="feBlend2473"
         mode="multiply"
         in="result6" />
    </filter>
    <filter
       x="-0.15"
       width="1.3"
       y="-0.15"
       height="1.3"
       inkscape:menu-tooltip="Stone wall texture to use with not too saturated colors"
       inkscape:menu="Textures"
       inkscape:label="Stone Wall"
       style="color-interpolation-filters:sRGB;"
       id="filter2425">
      <feTurbulence
         type="turbulence"
         numOctaves="5"
         baseFrequency="0.08 0.175"
         seed="25"
         id="feTurbulence2403" />
      <feColorMatrix
         result="result5"
         values="1 0 0 0 0 0 1 0 0 0 0 0 1 0 0 0 0 0 2 0 "
         id="feColorMatrix2405" />
      <feComposite
         in="SourceGraphic"
         operator="in"
         in2="result5"
         id="feComposite2407" />
      <feMorphology
         operator="dilate"
         radius="0.65"
         result="result3"
         id="feMorphology2409" />
      <feTurbulence
         numOctaves="7"
         baseFrequency="0.05 0.09"
         type="fractalNoise"
         seed="25"
         id="feTurbulence2411" />
      <feGaussianBlur
         stdDeviation="2"
         result="result7"
         id="feGaussianBlur2413" />
      <feDisplacementMap
         in="result3"
         xChannelSelector="R"
         yChannelSelector="G"
         scale="5"
         result="result4"
         in2="result7"
         id="feDisplacementMap2415" />
      <feFlood
         flood-opacity="1"
         flood-color="rgb(255,255,255)"
         id="feFlood2417" />
      <feComposite
         k3="0.7"
         k1="0.7"
         result="result2"
         operator="arithmetic"
         in2="result4"
         id="feComposite2419" />
      <feComposite
         k2="1"
         in="result2"
         operator="arithmetic"
         in2="SourceAlpha"
         k1="1"
         result="result6"
         id="feComposite2421" />
      <feBlend
         mode="multiply"
         in2="result6"
         in="result6"
         id="feBlend2423" />
    </filter>
  </defs>
  <sodipodi:namedview
     pagecolor="#ffffff"
     bordercolor="#666666"
     borderopacity="1"
     objecttolerance="10"
     gridtolerance="10"
     guidetolerance="10"
     inkscape:pageopacity="0"
     inkscape:pageshadow="2"
     inkscape:window-width="1920"
     inkscape:window-height="1017"
     id="namedview817"
     showgrid="false"
     inkscape:zoom="0.65230769"
     inkscape:cx="1035.8575"
     inkscape:cy="396.50435"
     inkscape:window-x="-8"
     inkscape:window-y="-8"
     inkscape:window-maximized="1"
     inkscape:current-layer="g1524" />
  <path
     style="fill:#000000"
     d="m 952.6739,351.5394 c -2.00229,-1.6272 -2.85972,-4.9814 -6.73954,-26.3644 -2.44497,-13.475 -4.45009,-25.9332 -4.45584,-27.6849 -0.0245,-7.4765 2.2311,-9.3248 13.83635,-11.3375 8.25051,-1.4309 11.15319,-2.5831 11.15319,-4.4272 0,-1.9579 4.36207,-4.1399 10,-5.002 10.89017,-1.6654 14,-4.0651 14,-10.803 0,-5.0067 -1.55425,-8.5272 -8.51938,-19.2968 -15.58627,-24.0999 -19.42982,-41.4195 -13.91485,-62.7024 3.67654,-14.1882 12.78806,-25.9497 25.22602,-32.5627 12.55225,-6.6738 43.64795,-18.9054 60.49685,-23.7968 13.9795,-4.0584 22.5831,-4.7178 25.6259,-1.9641 1.0606,0.9598 3.3786,5.3429 5.1511,9.7402 2.8274,7.014 3.4812,7.9259 5.3286,7.4311 1.1582,-0.3101 5.6406,-0.8643 9.961,-1.2314 7.5125,-0.6385 7.899,-0.7932 8.8584,-3.5454 1.2796,-3.6706 4.7474,-5.4232 12.2864,-6.2093 9.8265,-1.0246 53.2604,-3.5381 79.1107,-4.5781 24.5062,-0.9859 29.5039,-0.6033 31.7516,2.431 1.021,1.3784 3.4967,1.3844 24.1377,0.059 36.5586,-2.3479 71.8999,-3.552 75.3353,-2.5667 1.7058,0.4892 4.1157,1.5999 5.3555,2.4683 1.7168,1.2025 4.8353,1.5789 13.0814,1.5789 13.5628,0 16.2264,1.1231 17.8374,7.521 0.6203,2.4635 1.2445,4.479 1.387,4.479 0.1425,0 1.7766,-0.6206 3.6313,-1.3792 1.8546,-0.7586 5.9997,-1.696 9.2112,-2.0831 4.6732,-0.5633 6.585,-1.3777 9.5749,-4.079 2.0547,-1.8563 4.8271,-3.7878 6.1609,-4.2923 1.3338,-0.5045 10.4467,-1.9215 20.251,-3.1487 16.6404,-2.0831 18.1035,-2.1254 22.0017,-0.6367 4.0426,1.5439 4.6865,1.4808 20.1741,-1.9776 17.3935,-3.8841 23.7465,-4.0517 26.4588,-0.6983 0.8467,1.0469 2.8345,7.2202 4.4174,13.7185 l 2.8779,11.815 2.4267,-4.4129 c 3.1829,-5.7877 4.6002,-6.5491 14.4881,-7.7822 5.9425,-0.7411 8.6868,-1.5409 9.5765,-2.7911 4.6206,-6.4927 4.8625,-6.5673 27.2529,-8.4069 16.0029,-1.3147 19.6546,-0.7729 21.7911,3.2335 2.1853,4.0979 0.6136,9.9411 -7.1368,26.5328 -22.3306,47.8037 -23.9514,52.0236 -38.5567,100.3882 -5.7233,18.9526 -8.5894,26.9759 -10.0631,28.1709 -1.1334,0.919 -6.2974,2.6361 -11.4756,3.8157 -7.3933,1.6843 -9.7449,2.6484 -10.9515,4.4899 -1.9022,2.9031 -3.6388,3.4633 -26.6074,8.5831 -25.1845,5.6137 -28.8067,5.0071 -29.7668,-4.9849 -0.2682,-2.7911 -0.7679,-5.0693 -1.1104,-5.0628 -3.3564,0.064 -11.6428,3.2854 -12.8371,4.9906 -1.9815,2.829 -3.6186,3.376 -23.9938,8.017 -19.7926,4.5083 -27.0491,5.0112 -29.7202,2.0597 -1.8405,-2.0337 -2.3104,-8.4393 -1.0426,-14.2117 0.6177,-2.8124 0.4868,-3.0856 -1.1667,-2.4355 -1.0243,0.4028 -5.4736,1.5287 -9.8873,2.502 -6.1901,1.3651 -8.7092,2.454 -11.0176,4.7624 -1.8953,1.8953 -4.8196,3.4077 -7.9751,4.1245 -2.7403,0.6225 -11.8533,2.7175 -20.251,4.6555 -18.4038,4.2471 -21.4666,4.3793 -24.7769,1.0691 -4.6472,-4.6473 -3.8811,-8.6058 9.9699,-51.5133 4.1666,-12.9072 7.565,-24.8322 7.5521,-26.5 -0.013,-1.6677 -1.0837,-8.6572 -2.3794,-15.5322 -2.6642,-14.1363 -2.2681,-14.2703 -7.4494,2.5209 -1.7007,5.5115 -3.6792,10.8238 -4.3967,11.805 -1.6326,2.2326 -7.4447,3.6193 -15.3001,3.6503 -5.9978,0.024 -6.0599,0.053 -7.3145,3.5231 -1.6975,4.6944 -3.9492,5.6841 -14.2704,6.2726 -6.5472,0.3733 -8.902,0.8796 -9.3346,2.0068 -0.3182,0.8292 -0.3955,1.6906 -0.1718,1.9142 0.2237,0.2237 8.667,0.01 18.7631,-0.4838 25.3309,-1.2287 27.8773,-0.4238 27.8773,8.8127 0,4.0661 -5.9844,26.4993 -9.1411,34.2664 -1.606,3.9516 -4.0548,4.9171 -13.894,5.4781 l -8.6571,0.4936 -1.2184,3.3694 c -0.6701,1.8531 -2.2019,3.9051 -3.4039,4.5598 -1.3868,0.7554 -10.7733,1.4621 -25.6855,1.9339 -15.2717,0.4831 -30.4603,1.6422 -43.3786,3.3102 -10.9333,1.4118 -21.7959,2.5668 -24.1393,2.5668 -9.6326,0 -11.3098,-6.0682 -6.6333,-24 6.9537,-26.664 16.8821,-55.577 27.7886,-80.9249 2.9404,-6.8337 5.2374,-12.5115 5.1044,-12.6173 -0.133,-0.1059 -1.905,-0.493 -3.9378,-0.8603 -3.1116,-0.5623 -3.8723,-0.3383 -4.8114,1.4164 -2.5785,4.8179 -16.2494,48.1 -21.4738,67.9861 -3.1066,11.825 -6.1383,22.7724 -6.737,24.3275 -1.5322,3.9795 -4.2074,5.4156 -14.1262,7.5831 -6.9751,1.5243 -9.2168,2.4787 -11.4584,4.8784 -2.1978,2.3526 -4.4687,3.3489 -10.7421,4.7126 -4.3753,0.9511 -13.4963,3.0273 -20.2688,4.6138 -13.4909,3.1604 -16.854,3.4488 -20.5545,1.7627 -5.0722,-2.311 -4.8334,-7.9967 1.2763,-30.3894 7.1816,-26.3217 15.8575,-51.661 24.3911,-71.2387 6.8008,-15.602 7.3235,-17.25 5.4715,-17.25 -1.1261,0 -7.1056,0.5273 -13.2876,1.1717 -13.3084,1.3872 -17.2066,0.461 -18.1618,-4.3153 -0.7404,-3.7021 -2.1539,-3.6352 -3.4785,0.1647 -1.319,3.7837 -2.8439,4.5951 -10.3428,5.5031 -3.3,0.3996 -6.7875,1.1359 -7.75,1.6363 -2.6184,1.3614 -2.1267,4.8304 1.5,10.5829 1.7875,2.8352 5.5652,8.7945 8.3948,13.243 6.3533,9.988 13.0652,29.2812 13.9891,40.2114 1.8307,21.6562 -9.5331,44.5349 -29.6492,59.6928 -11.1103,8.3719 -14.2499,9.8957 -50.89193,24.7008 -12.58112,5.0833 -28.711,9.5459 -36.59281,10.1241 -5.84203,0.4284 -7.37951,0.205 -9.29416,-1.3511 z m 42.52748,-18.2937 c 23.32232,-6.3455 37.73962,-12.8441 49.99632,-22.536 20.8447,-16.4827 30.0984,-38.9365 24.6822,-59.8904 -3.056,-11.8228 -7.78,-22.155 -15.4074,-33.699 -8.7423,-13.2313 -10.8244,-19.047 -8.6674,-24.2095 3.9925,-9.5552 22.0939,-17.6708 39.52,-17.7184 4.6744,-0.013 6.2276,-0.3482 5.8681,-1.2674 -0.2688,-0.6875 -4.2545,-10.6254 -8.8569,-22.0843 l -8.3682,-20.8344 -3.6374,0.5782 c -6.4102,1.0188 -28.09,7.6445 -36.7998,11.2465 -23.7665,9.8288 -34.23649,23.1118 -35.74144,45.344 -0.95226,14.0675 2.67434,24.6371 14.77784,43.0698 11.6147,17.6882 13.4482,28.3725 6.3222,36.8413 -5.3573,6.3667 -19.94486,12.5074 -37.19702,15.6583 -7.60721,1.3894 -9.19494,1.9851 -8.82726,3.3123 0.24658,0.8901 2.36297,12.3058 4.7031,25.3683 2.99221,16.7024 4.64227,23.75 5.56058,23.75 0.71819,0 6.15081,-1.3182 12.07248,-2.9293 z m 130.40712,-45.043 c 10.0978,-2.2655 19.0773,-4.3317 19.9545,-4.5916 0.9974,-0.2954 2.0715,-2.6201 2.8667,-6.2043 6.4309,-28.9837 25.91,-89.48 33.5993,-104.3496 1.4325,-2.7702 1.4007,-2.8367 -1.8013,-3.7609 -2.3595,-0.6811 1.6727,-0.9658 14.6017,-1.0311 l 17.8613,-0.09 -0.6729,3.5869 c -0.5899,3.1443 -0.4494,3.5243 1.1387,3.0793 0.9964,-0.2792 5.381,-0.8144 9.7437,-1.1893 l 7.9321,-0.6817 -1.8124,2.7661 c -5.3524,8.1688 -11.6361,22.1594 -21.531,47.9387 -8.277,21.5642 -20.0186,60.7588 -20.0201,66.8295 -6e-4,2.5576 0.2634,2.7749 2.7493,2.2619 14.9468,-3.0843 53.39,-6.5657 72.75,-6.5882 l 15,-0.017 4.8977,-16.5118 c 2.6938,-9.0815 4.6935,-16.7161 4.4438,-16.9658 -0.4696,-0.4696 -37.6377,1.0888 -46.1625,1.9355 -4.8061,0.4774 -4.8191,0.4705 -4.2174,-2.2324 0.3319,-1.4912 2.3307,-8.1113 4.4418,-14.7113 l 3.8384,-12 3.8791,-0.2823 c 2.1335,-0.1553 11.7415,-0.6053 21.3511,-1 l 17.4719,-0.7177 4.7057,-14.5 c 5.1729,-15.9398 5.4287,-17.1155 3.6004,-16.5519 -0.6875,0.2119 -10.1511,0.6564 -21.0302,0.9879 l -19.7801,0.6026 2.0054,-3.9309 c 1.9628,-3.8474 8.0549,-18.6969 8.0549,-19.6337 0,-0.2607 -0.7875,-0.5518 -1.75,-0.6469 -4.1952,-0.4145 22.8533,-1.5755 39.5,-1.6955 12.5806,-0.091 18.25,-0.475 18.25,-1.237 0,-0.608 1.1863,-4.9946 2.6362,-9.748 1.9849,-6.5076 2.8139,-8.1491 3.3559,-6.6446 0.7488,2.0789 4.346,19.7642 10.5095,51.6693 l 3.6069,18.6713 -9.0212,27.8287 c -8.9843,27.7149 -13.5552,43.2125 -12.9208,43.8082 0.3847,0.3612 41.7994,-9.0718 42.2256,-9.6176 0.1554,-0.199 3.5596,-13.1869 7.5649,-28.8619 4.0053,-15.675 8.0584,-30.3 9.0069,-32.5 1.969,-4.5673 38.2683,-59.3669 50.2098,-75.7999 4.3654,-6.0074 7.7021,-11.1576 7.4148,-11.4449 -0.2872,-0.2873 -8.2993,0.4582 -17.8045,1.6565 -20.1066,2.535 -19.529,2.2029 -29.7245,17.0883 -7.2275,10.5521 -20.0595,32.8431 -20.0595,34.8462 0,0.8179 -0.2317,1.2554 -0.5149,0.9722 -0.2832,-0.2832 -1.4023,-7.4457 -2.4868,-15.9166 -2.1951,-17.1459 -2.4278,-18.5545 -4.6505,-28.1518 l -1.5632,-6.75 h -14.7987 c -14.3063,0 -14.7813,-0.066 -14.2756,-2 0.3853,-1.4738 0.032,-1.9982 -1.3437,-1.9933 -7.3204,0.026 -55.0182,2.286 -74.0082,3.5063 -31.2984,2.0111 -29.722,2.0717 -28.9233,-1.1104 l 0.6519,-2.5974 -15.2935,0.6363 c -51.4711,2.1412 -93.5399,4.8798 -94.7467,6.1679 -0.8516,0.909 -9.0468,30.6238 -9.0468,32.8028 0,0.8969 4.9805,0.631 19.75,-1.0544 10.8625,-1.2396 20.3148,-2.2772 21.0051,-2.3058 0.7304,-0.03 -0.6203,3.4167 -3.2301,8.2435 -5.3435,9.8828 -16.0544,34.0144 -20.3223,45.786 -6.116,16.8693 -20.2027,64.566 -20.2027,68.4051 0,0.4001 0.6257,0.4873 1.3904,0.1938 0.7647,-0.2934 9.6522,-2.3871 19.75,-4.6527 z m 292.527,-0.604 c 10.9002,-2.517 19.9351,-4.6929 20.0776,-4.8353 0.1424,-0.1425 0.9811,-4.4956 1.8637,-9.6737 2.3258,-13.6457 7.6883,-30.6098 14.1913,-44.8938 l 5.6813,-12.4791 0.749,4.9791 c 3.0783,20.463 4.9698,40.1872 5.1081,53.2663 0.1558,14.7428 0.2328,15.2698 2.1616,14.8018 1.1,-0.2669 10.325,-2.356 20.5,-4.6423 10.175,-2.2864 19.0105,-4.6722 19.6344,-5.3019 0.6239,-0.6296 3.4193,-9.0198 6.212,-18.6448 5.7351,-19.766 13.6566,-44.8207 17.7055,-56 2.8512,-7.8723 20.9147,-47.9961 27.5644,-61.2278 2.136,-4.2503 3.8837,-7.9628 3.8837,-8.25 0,-0.8372 -11.5979,-0.43 -23.4065,0.8217 l -10.9065,1.1561 -10.8463,20.5 c -5.9655,11.275 -13.4326,26.2774 -16.5935,33.3386 -6.6911,14.9471 -5.5095,16.3016 -10.7636,-12.3386 -1.9675,-10.725 -5.1687,-26.1367 -7.1136,-34.2482 -3.3203,-13.847 -3.6687,-14.7176 -5.7032,-14.2488 -6.6493,1.5324 -38.0836,8.497 -38.3505,8.497 -0.9449,0 0.031,4.4575 2.8781,13.1431 l 3.1945,9.7458 -7.6153,14.8055 c -15.6184,30.3652 -28.5366,64.5137 -38.7128,102.3348 -2.6943,10.0133 -3.3983,13.9708 -2.4855,13.9708 0.7004,0 10.1919,-2.0593 21.0921,-4.5763 z M 1386.421,227.295 c 2.3567,-5.9796 2.1831,-8.04 -0.2449,-2.9058 -1.667,3.5252 -3.352,9.6114 -2.4324,8.7858 0.3063,-0.275 1.5111,-2.921 2.6773,-5.88 z M 40.276808,347.1278 c -3.324078,-1.9387 -3.271599,-8.7763 0.145643,-18.9761 3.47478,-10.3715 24.562492,-54.579 34.716119,-72.7776 7.622639,-13.6623 21.737399,-35.103 33.37602,-50.6991 4.51482,-6.05 10.92603,-15.05 14.24713,-20 15.9984,-23.8451 32.33248,-44.028 37.31783,-46.111 1.82835,-0.764 5.59878,-1.389 8.37873,-1.389 4.49688,0 5.52752,-0.436 9.34266,-3.9527 2.3585,-2.174 5.61095,-4.4613 7.22765,-5.0829 1.61671,-0.6215 11.48947,-1.3775 21.93947,-1.6798 17.60366,-0.5094 19.16531,-0.4114 21.24939,1.3328 3.17891,2.6605 4.21167,9.4861 4.94379,32.6736 0.34368,10.885 0.9759,19.435 1.40492,19 0.42902,-0.4351 4.08441,-8.4032 8.12309,-17.7071 5.08107,-11.7051 8.15064,-17.519 9.96471,-18.8734 2.28245,-1.7041 6.52136,-2.524 18.90358,-3.6566 0.32422,-0.03 1.09123,-1.1551 1.70447,-2.501 2.10768,-4.6259 5.46205,-5.7995 20.53146,-7.1838 20.37274,-1.8715 24.2642,-1.7795 26.67459,0.6309 4.3129,4.3129 2.93603,10.0909 -10.48498,44 -6.70825,16.9488 -21.88243,60.964 -23.92691,69.4038 l -0.70343,2.9039 9.21128,-0.6539 c 5.06621,-0.3596 11.55688,-0.6538 14.42372,-0.6538 h 5.21242 l 2.78359,-7.75 c 4.83887,-13.4723 17.40339,-42.3186 23.55667,-54.0827 3.2602,-6.233 5.92764,-12.3501 5.92764,-13.5935 0,-1.2434 -0.9,-4.8766 -2,-8.0738 -1.95869,-5.693 -2.613,-13.739 -1.37882,-16.9552 0.92437,-2.4089 4.88409,-4.049 14.60977,-6.0516 6.75862,-1.3917 8.86751,-2.228 9.33545,-3.7024 0.33248,-1.0476 2.02856,-2.5433 3.76906,-3.3239 4.69564,-2.106 35.88827,-8.4669 41.5199,-8.4669 8.39868,0 9.04105,1.0117 15.6896,24.7093 3.20814,11.4349 6.17638,21.1966 6.59609,21.6928 0.41971,0.4961 3.55998,-1.6873 6.97839,-4.8522 13.49814,-12.4969 27.86949,-21.636 41.00965,-26.0791 4.054,-1.3708 9.84591,-3.7924 12.87091,-5.3812 15.13202,-7.9479 46.83076,-13.989 53.74323,-10.2423 1.52388,0.8259 2.45191,2.5208 2.89397,5.2853 l 0.65074,4.0696 6.10603,-0.6013 c 43.58842,-4.2925 137.41856,-6.5175 158.10603,-3.7492 21.03219,2.8143 38.81298,11.8522 45.17235,22.9607 1.47597,2.5782 2.80735,4.854 2.95862,5.0573 0.15127,0.2033 2.43368,-1.2025 5.07203,-3.1241 7.11106,-5.179 14.83306,-9.1693 23.67778,-12.2354 4.33443,-1.5026 9.28443,-3.5526 11,-4.5557 10.18137,-5.9527 24.86609,-9.2685 41.11922,-9.2845 27.57162,-0.027 47.2061,7.0223 62.45595,22.4241 8.5044,8.5892 11.48827,14.2725 10.78221,20.5366 -0.30034,2.6646 -1.38102,5.4247 -2.65483,6.7806 -2.03608,2.1673 -2.08868,2.6711 -1.00688,9.6435 2.65351,17.1023 -4.28303,49.3158 -14.28425,66.3363 -4.63127,7.8817 -18.6294,23.3336 -27.82113,30.7105 -6.89154,5.5308 -16.78803,10.862 -24.47273,13.1832 -2.74909,0.8304 -8.85954,3.3756 -13.57878,5.6558 -15.32599,7.4054 -35.866,9.9268 -53.58159,6.5776 -10.26319,-1.9403 -22.1936,-7.8815 -29.978,-14.9285 l -6.14003,-5.5585 -5.85997,3.0311 c -6.36891,3.2944 -34.20557,13.4383 -41.17951,15.0062 -7.32236,1.6462 -11.33615,-0.082 -14.66148,-6.3135 -5.16569,-9.68 -12.64481,-21.755 -13.47481,-21.755 -0.45187,0 -1.12976,1.6427 -1.50642,3.6505 -1.15294,6.1457 -4.7705,8.7352 -15.03775,10.7644 -7.63795,1.5095 -9.37835,2.2295 -11.5,4.7575 -2.2624,2.6956 -4.16317,3.3622 -20,7.0137 -24.83301,5.7258 -35,6.0972 -35,1.2787 0,-3.1872 -40.58223,-1.5114 -72.42407,2.9907 -18.99574,2.6857 -23.69234,1.8439 -25.08486,-4.4962 -0.48658,-2.2153 -1.11737,-2.9045 -2.32918,-2.5448 -13.20926,3.9213 -45.89028,11.5855 -49.40194,11.5855 -7.76377,0 -10.01201,-4.7536 -7.4642,-15.7819 l 1.43651,-6.2181 h -2.34308 c -1.36946,0 -2.9962,0.9968 -3.91488,2.3989 -0.86449,1.3193 -2.78736,2.8858 -4.27305,3.481 -5.94716,2.3825 -37.85883,9.1201 -43.19581,9.1201 -6.88731,0 -8.71139,-1.5755 -9.63625,-8.3231 -0.42143,-3.0747 -1.12792,-4.6769 -2.06229,-4.6769 -3.7007,0 -10.47581,2.4471 -11.36258,4.1041 -0.54459,1.0175 -1.85858,2.3148 -2.91998,2.8829 -3.142,1.6815 -40.17335,9.9986 -44.55183,10.0061 -4.61878,0.01 -8.47251,-2.2518 -8.47251,-4.968 0,-1.0238 -0.26665,-2.5564 -0.59256,-3.4057 -0.52686,-1.373 -0.87963,-1.3561 -3.18145,0.1521 -2.15194,1.41 -6.48235,1.8175 -25.65744,2.4145 -12.6877,0.395 -28.69355,1.4109 -35.56855,2.2574 -6.875,0.8466 -13.27016,1.5431 -14.21146,1.5479 -1.15395,0.01 -2.07036,1.3416 -2.81326,4.1005 -2.48649,9.2341 -3.75854,10.1672 -18.17607,13.3322 -5.56609,1.2219 -7.85836,2.187 -8.26922,3.4815 -0.31264,0.985 -1.75352,2.331 -3.20195,2.9909 -3.98553,1.8159 -49.7492,12.1036 -53.84164,12.1036 -2.51484,0 -4.3459,-0.7686 -6.16513,-2.5878 -2.36616,-2.3662 -2.53639,-3.0799 -1.98737,-8.3327 0.33025,-3.1597 0.90986,-6.5512 1.28802,-7.5366 0.65249,-1.7004 0.5561,-1.7056 -1.88942,-0.1033 -1.41733,0.9287 -6.4831,2.6093 -11.25725,3.7347 -6.12379,1.4436 -9.27355,2.7286 -10.69474,4.3631 -2.77945,3.1967 -4.318389,3.6908 -29.327003,9.4157 -21.601684,4.9451 -30.259198,5.9743 -33.644759,3.9997 z m 54.845955,-21.5985 25.154707,-5.7253 4.20078,-11.5645 c 4.24524,-11.6869 13.586,-32.1292 16.11599,-35.2699 1.14658,-1.4234 4.06169,-1.82 17.62382,-2.3977 10.16545,-0.433 16.25,-0.3337 16.25,0.2651 0,0.5266 -2.50658,8.1305 -5.57017,16.8977 -6.06241,17.349 -12.66663,38.5368 -12.16746,39.036 0.77966,0.7797 51.07965,-11.5311 51.78633,-12.6745 0.85051,-1.3762 4.60735,-20.5817 7.96162,-40.7011 1.126,-6.7539 2.89857,-16.4289 3.93905,-21.5 3.9247,-19.1282 5.3264,-36.8245 5.28482,-66.7201 -0.0341,-24.4722 -1.23531,-50.3345 -2.39168,-51.4908 -0.19153,-0.1915 -8.22194,0.043 -17.84537,0.5223 l -17.49714,0.8706 -4.3203,4.7989 c -7.28363,8.0907 -16.42572,20.1182 -26.83061,35.299 -5.46605,7.975 -13.78893,19.675 -18.49528,26 -11.49812,15.4527 -23.26935,33.1488 -30.93111,46.5 -6.55275,11.4186 -27.388669,53.5535 -32.783378,66.2953 -3.673664,8.6768 -6.307302,17.1889 -5.335426,17.2445 0.382855,0.022 12.015718,-2.5366 25.850807,-5.6855 z m 85.281227,-87.474 c -1.07865,-2.0155 -1.71618,-2.099 -12.96458,-1.6979 l -11.83014,0.4218 5.2839,-7.5521 c 6.14567,-8.7838 14.78728,-23.3594 22.26399,-37.5521 l 5.26798,-10 0.0215,9.6048 c 0.0446,19.9857 -3.5168,48.8952 -6.02355,48.8952 -0.48656,0 -1.39516,-0.9539 -2.0191,-2.1197 z m 305.48009,51.9925 c 13.24619,-3.37 24.47451,-6.483 24.95183,-6.9178 0.47732,-0.4349 1.68685,-5.2152 2.68784,-10.6228 1.001,-5.4077 4.56899,-21.7572 7.92886,-36.3322 3.35988,-14.575 9.90414,-43.6 14.54281,-64.5 4.63866,-20.9 8.69303,-39.0795 9.0097,-40.3988 0.57566,-2.3985 0.57462,-2.3988 -6.23065,-1.7505 -10.74994,1.0241 -29.09663,6.0136 -37.30641,10.1458 -26.71883,13.4482 -48.49797,36.2069 -61.98434,64.7721 l -4.82112,10.2115 -0.66646,-4.9901 c -1.2878,-9.6423 -3.6781,-22.0885 -6.14367,-31.99 -3.76159,-15.1061 -12.5816,-45.8873 -13.421,-46.8382 -1.15376,-1.3072 -40.96341,7.4535 -40.96341,9.0145 0,0.7149 1.35,5.5142 3,10.6652 1.65,5.1509 3,9.9803 3,10.7319 0,0.7517 -3.54776,8.3551 -7.8839,16.8966 -11.25565,22.1718 -19.54106,41.8375 -26.34474,62.53 -6.61676,20.124 -15.78097,52.4943 -14.86611,52.5107 2.09618,0.038 40.83356,-9.4666 41.84475,-10.2666 0.6875,-0.544 1.25,-2.0779 1.25,-3.4087 0,-4.1532 3.02324,-17.2929 6.04015,-26.2519 2.63909,-7.8371 14.81169,-37.257 14.92966,-36.0835 0.0276,0.275 1.17561,9.05 2.55104,19.5 1.37542,10.45 2.79114,26.5375 3.14605,35.75 0.46825,12.1548 0.97975,16.75 1.86447,16.75 1.78066,0 39.74358,-8.9416 40.29221,-9.4902 0.25556,-0.2556 2.35423,-5.9873 4.66373,-12.7372 8.08948,-23.643 13.23805,-33.8984 29.0037,-57.7726 8.51156,-12.8892 15.36882,-21.7824 17.87874,-23.187 0.94154,-0.527 0.25101,2.2063 -2.00644,7.9418 -1.89313,4.8099 -5.6228,15.9452 -8.28816,24.7452 -2.66537,8.8 -7.3683,23.9741 -10.45096,33.7203 -6.32099,19.9844 -12.78112,43.7797 -11.88565,43.7797 0.32643,0 11.4313,-2.7572 24.67748,-6.1272 z m -250.65944,1.6807 c 21.94121,-3.2573 38.85886,-4.806 59.1319,-5.4131 l 21.38849,-0.6404 4.94682,-16.3314 c 2.72075,-8.9822 4.76747,-16.5107 4.54827,-16.7299 -0.21921,-0.2192 -11.62009,0.1816 -25.33531,0.8906 -13.71521,0.709 -25.08615,1.188 -25.26875,1.0646 -0.1826,-0.1235 1.30882,-5.5502 3.31426,-12.0592 8.83157,-28.6647 16.42902,-50.6557 26.06713,-75.452 5.69025,-14.6396 10.65885,-27.8642 11.04134,-29.3882 0.68945,-2.747 0.66253,-2.7646 -3.1352,-2.0521 -3.33786,0.6262 -24.09476,2.4679 -28.55749,2.5339 -1.73163,0.026 -2.57622,1.744 -16.23091,33.0237 -20.30443,46.5126 -27.85595,66.6186 -36.66314,97.6161 -5.19448,18.2823 -6.59794,24.3839 -5.6087,24.3839 0.33983,0 5.00241,-0.6509 10.36129,-1.4465 z m 311.74342,-2.1323 c 12.96005,-1.7089 26.31152,-2.6967 42,-3.1076 l 23,-0.6022 5.12655,-16.886 5.12654,-16.8859 -13.12654,0.6346 c -7.2196,0.349 -18.75155,0.9753 -25.62655,1.3917 -6.875,0.4165 -12.68037,0.6016 -12.90083,0.4115 -0.44616,-0.3847 7.94779,-27.4919 8.83786,-28.5407 0.30963,-0.3648 9.99681,-1.0398 21.52706,-1.5 l 20.9641,-0.8366 4.7339,-14.5 c 2.60364,-7.975 4.7573,-15.0664 4.7859,-15.7587 0.0379,-0.9166 -1.37498,-1.1281 -5.19799,-0.7778 -2.8875,0.2645 -12.35634,0.7374 -21.04186,1.0509 l -15.79185,0.57 2.01707,-3.9538 c 4.36428,-8.5547 8.18447,-19.4397 7.06527,-20.1315 -1.37544,-0.85 21.67248,-1.9991 40.09821,-1.9991 h 13.78061 l 0.68903,4.5948 c 0.64593,4.3073 0.85979,4.5696 3.41926,4.194 l 2.73024,-0.4007 -5.96491,12.5559 c -13.51966,28.4586 -21.92851,51.2316 -29.74496,80.556 -1.75924,6.6 -3.80919,14.2336 -4.55545,16.9636 -0.74627,2.7299 -1.14328,5.1771 -0.88225,5.4382 0.26103,0.261 3.72742,-0.3248 7.7031,-1.3018 3.97567,-0.977 13.22167,-3.0424 20.54666,-4.5897 7.32499,-1.5473 13.5573,-3.0524 13.84957,-3.3447 0.29227,-0.2923 2.9782,-10.3491 5.96873,-22.3485 7.06466,-28.3467 8.27758,-32.5168 9.34664,-32.1346 1.55471,0.5559 17.75781,21.5666 24.38728,31.6232 3.51482,5.3319 8.95809,14.2739 12.09616,19.8712 l 5.70558,10.177 12.66393,-4.5461 c 6.96517,-2.5004 15.47644,-5.4843 18.91394,-6.6309 3.4375,-1.1465 6.25,-2.4508 6.25,-2.8983 0,-1.5023 -10.03498,-17.0119 -17.0197,-26.3048 -3.80556,-5.0632 -10.0754,-12.5854 -13.93299,-16.7161 l -7.01379,-7.5103 7.73324,-2.7413 c 18.30378,-6.4885 28.91788,-18.2544 33.81625,-37.4861 1.1004,-4.3203 1.49664,-8.8773 1.18888,-13.6728 -1.03441,-16.1183 -10.13874,-25.7904 -30.80204,-32.7228 -10.58802,-3.5522 -33.70326,-5.2844 -51.46901,-3.8571 -8.09922,0.6508 -13.21846,0.6896 -13.58093,0.1031 -0.6492,-1.0504 -38.08395,0.2165 -78.41991,2.654 -29.55241,1.7858 -31.23085,2.0101 -31.88879,4.2603 -2.96588,10.1439 -8.69557,32.4643 -8.40756,32.7523 0.20416,0.2041 3.27936,-0.049 6.83378,-0.5628 3.55441,-0.5137 7.69016,-0.943 9.19055,-0.9541 l 2.72797,-0.02 -2.90864,4.5865 c -5.84246,9.2126 -22.44689,50.1472 -29.40028,72.48 -5.68671,18.2644 -10.64703,37.0066 -10.64703,40.2289 0,2.8024 0.16734,2.9204 3.25,2.2927 1.7875,-0.364 11.8,-1.7891 22.25,-3.167 z M 685.78632,194.925 c 0.29273,-0.6875 2.79349,-6.3095 5.55724,-12.4934 l 5.02501,-11.2435 -2.70026,-0.6946 -2.70025,-0.6947 2.5,-0.7122 c 1.375,-0.3917 6.325,-0.7472 11,-0.79 10.69497,-0.098 16.16014,2.0494 18.6831,7.34 1.63742,3.4338 1.62115,3.7325 -0.43383,7.9622 -1.77808,3.6599 -3.18965,4.9068 -8.44217,7.4578 -6.50269,3.1582 -15.67235,5.0976 -24.16409,5.1109 -3.50485,0 -4.70882,-0.3405 -4.32475,-1.2425 z m 155.06769,95.2792 c 15.43964,-3.9488 25.15064,-10.1322 39.94146,-25.4323 13.56864,-14.0358 19.72749,-25.5842 24.2495,-45.47 3.53451,-15.5432 4.06709,-27.7621 1.61771,-37.1146 -1.80538,-6.8934 -1.83139,-7.5786 -0.32781,-8.6342 0.89825,-0.6307 2.74101,-2.0451 4.09501,-3.1431 l 2.46181,-1.9965 -2.76493,-4.178 c -4.31503,-6.5205 -14.2241,-15.7208 -20.99561,-19.4939 -13.24389,-7.3795 -32.85681,-11.4654 -49.03174,-10.2146 -36.36718,2.8123 -68.21704,31.6069 -76.33543,69.0129 -2.39283,11.0251 -2.10116,33.0413 0.57145,43.1351 6.08849,22.9948 21.31042,39.194 41.40478,44.0631 8.4034,2.0363 26.11761,1.7669 35.1138,-0.5339 z m -27.18947,-36.0889 c -15.38929,-7.6901 -20.53286,-24.8321 -14.25193,-47.4976 4.73098,-17.0724 15.19122,-27.6383 31.59041,-31.9098 13.119,-3.4171 25.1291,-1.132 32.43159,6.1705 l 4.48202,4.482 -3.37541,2.7549 c -2.40553,1.9633 -3.01512,2.9775 -2.12151,3.5298 2.62952,1.6252 6.02866,10.9412 6.03858,16.55 0.0124,7.0296 -3.22508,18.7524 -7.31104,26.4726 -4.56134,8.6185 -13.97914,17.7275 -21.07231,20.3814 -8.83939,3.3073 -18.615,2.9616 -26.4104,-0.9338 z m 13.61136,-9.7976 c 4.59786,-6.7463 8.31695,-16.4273 8.93678,-23.263 0.4448,-4.9053 0.1289,-6.5224 -2.11077,-10.8057 -1.82138,-3.4834 -2.63385,-6.5781 -2.63385,-10.0325 0,-4.2545 -0.3792,-5.2438 -2.55684,-6.6707 -1.40627,-0.9214 -4.75566,-1.8866 -7.44311,-2.1448 l -4.88627,-0.4695 -3.90089,6.0354 c -7.61966,11.7891 -10.15179,29.8381 -5.44931,38.8426 3.50581,6.713 11.11073,13.1523 15.73642,13.3244 0.55,0.02 2.48853,-2.1468 4.30784,-4.8162 z m -225.61046,-0.4278 c 1.55587,-2.4485 0.62495,-2.6821 -8.44738,-2.1199 -11.06615,0.6858 -11.75,0.8616 -11.75,3.0212 0,1.5036 1.01459,1.6077 9.7127,0.9963 5.83768,-0.4104 10.02069,-1.1675 10.48468,-1.8976 z"
     id="path825"
     inkscape:connector-curvature="0" />
  <g
     id="g855"
     style="fill:url(#linearGradient863);fill-opacity:1"
     transform="translate(15.468056,66.175)">
    <path
       inkscape:connector-curvature="0"
       id="path831"
       d="m 53.705931,262.08635 c 3.716962,-15.8018 34.204993,-76.07753 51.830669,-102.47076 19.95495,-29.88115 54.13744,-76.873385 62.50532,-85.928937 l 4.86884,-5.268971 17.67778,-0.255334 17.67778,-0.255334 0.78981,6.629167 c 1.25034,10.494564 1.09265,75.147579 -0.21154,86.731599 -1.91872,17.04246 -14.43461,85.48816 -15.90024,86.9538 -0.73636,0.73636 -40.71482,10.85205 -47.25671,11.95729 -3.49779,0.59094 -4.26542,0.39722 -4.26542,-1.0765 0,-0.98842 3.94785,-13.78639 8.773,-28.43993 l 8.77299,-26.64281 -15.23857,0.6932 c -8.38122,0.38125 -15.99076,0.98183 -16.91008,1.33462 -1.99414,0.76521 -12.43554,22.45314 -17.53766,36.42762 -1.99677,5.46906 -3.9296,10.31144 -4.29518,10.76083 -0.58055,0.71364 -48.566633,11.88882 -51.050457,11.88882 -0.519766,0 -0.623416,-1.36726 -0.230332,-3.03837 z M 168.96581,167.62073 c 1.89556,-9.28973 3.3527,-25.86843 3.37338,-38.38074 l 0.0191,-11.58785 -8.95548,16.0073 c -4.92551,8.80401 -11.76127,20.23339 -15.19058,25.39862 -3.4293,5.16522 -6.40139,9.76421 -6.60464,10.21996 -0.20325,0.45576 4.83916,0.82865 11.20535,0.82865 9.26958,0 11.70157,0.33007 12.21088,1.65729 1.23238,3.21155 2.77126,1.5941 3.94195,-4.14323 z"
       style="opacity:1;fill:url(#linearGradient873);fill-opacity:1;stroke:none;stroke-width:0;stroke-linecap:square;stroke-linejoin:round;stroke-miterlimit:4;stroke-dasharray:none;stroke-opacity:1;paint-order:normal" />
    <path
       inkscape:connector-curvature="0"
       id="path833"
       d="m 208.81875,226.39964 c 0,-2.41744 5.79013,-23.94982 10.64594,-39.59019 7.24398,-23.33262 28.60545,-76.32586 42.94132,-106.528257 l 3.94708,-8.315595 9.62675,-0.75194 c 5.29472,-0.413567 12.60988,-1.150806 16.25592,-1.638308 3.64605,-0.487502 6.97656,-0.565123 7.40114,-0.172491 0.42459,0.392633 -4.18328,13.889346 -10.2397,29.992697 -9.6988,25.788004 -27.11721,76.896604 -29.08846,85.350524 l -0.70848,3.03836 8.03129,-0.0879 c 4.41722,-0.0484 15.48911,-0.46294 24.60421,-0.92122 9.11511,-0.4583 16.89922,-0.54302 17.29803,-0.18827 0.39881,0.35476 -0.1786,3.62813 -1.28313,7.27417 -1.10454,3.64604 -3.2845,10.89179 -4.84436,16.10165 l -2.83612,9.47247 -25.712,1.27269 c -21.90859,1.08443 -55.02781,4.38126 -63.55349,6.32639 -1.40211,0.31989 -2.48594,0.0432 -2.48594,-0.63474 z"
       style="opacity:1;fill:url(#linearGradient875);fill-opacity:1;stroke:none;stroke-width:0;stroke-linecap:square;stroke-linejoin:round;stroke-miterlimit:4;stroke-dasharray:none;stroke-opacity:1;paint-order:normal" />
    <path
       inkscape:connector-curvature="0"
       id="path835"
       d="m 445.91586,226.7308 c 3.09962,-13.47456 23.40272,-80.40465 29.25475,-96.4396 1.82364,-4.99689 3.09183,-9.30913 2.81819,-9.58276 -0.83287,-0.83288 -9.375,10.49574 -19.26786,25.55317 -11.70084,17.80927 -19.52057,33.41679 -26.24615,52.38512 -3.95435,11.15259 -5.78627,14.94291 -7.54398,15.60896 -4.58472,1.73729 -38.31072,9.1713 -38.90618,8.57584 -0.33475,-0.33475 -1.06398,-7.7358 -1.62051,-16.44678 -1.12232,-17.56682 -4.07392,-46.1555 -5.26692,-51.01436 -0.68501,-2.78993 -1.4128,-1.58587 -6.60807,10.9324 -7.77075,18.72401 -10.6981,27.68545 -13.15276,40.26429 l -2.04824,10.49618 -20.89014,5.21102 c -11.48958,2.86606 -21.13873,4.96243 -21.44254,4.65862 -1.26392,-1.26391 12.17786,-46.87236 20.00415,-67.87484 3.05696,-8.2036 10.71997,-25.79275 17.02891,-39.087 6.30894,-13.29426 11.47073,-24.729572 11.47065,-25.41181 -9e-5,-0.682236 -1.2356,-5.217931 -2.74558,-10.079319 -1.50998,-4.861389 -2.75288,-9.441113 -2.762,-10.177162 -0.009,-0.736051 2.55629,-2.102334 5.7009,-3.036184 9.71355,-2.884615 34.37959,-7.346459 35.3344,-6.391646 2.76205,2.76205 18.51536,65.419331 19.92945,79.267491 0.30319,2.9692 0.77786,2.39357 4.5553,-5.52431 13.07465,-27.40574 35.95087,-51.654517 60.44495,-64.071594 11.45423,-5.806627 32.84434,-11.611387 42.78711,-11.611387 3.03305,0 3.63498,0.364874 3.18967,1.933507 -0.73738,2.59758 -27.54171,122.367374 -30.93107,138.209324 -1.47458,6.89224 -3.21084,13.06113 -3.85834,13.70864 -1.0958,1.0958 -45.42612,12.94561 -48.52489,12.97104 -0.96354,0.008 -1.18351,-0.9389 -0.7032,-3.02685 z"
       style="opacity:1;fill:url(#linearGradient877);fill-opacity:1;stroke:none;stroke-width:0;stroke-linecap:square;stroke-linejoin:round;stroke-miterlimit:4;stroke-dasharray:none;stroke-opacity:1;paint-order:normal" />
    <path
       inkscape:connector-curvature="0"
       id="path837"
       d="m 506.34419,225.68914 c -0.9712,-2.53092 0.4771,-9.0259 6.76044,-30.31763 9.15807,-31.03298 18.05629,-53.4755 34.70758,-87.53725 0.44176,-0.90366 -11.42956,-0.0586 -15.54537,1.10657 -2.73481,0.77423 -2.53559,-0.9776 2.12159,-18.656545 3.43885,-13.054099 4.43664,-15.538447 6.56583,-16.347964 10.00749,-3.804839 142.47793,-7.130215 161.24711,-4.047751 18.75609,3.080314 33.95395,11.637867 39.3974,22.183731 2.96814,5.750355 3.99178,20.451139 1.95348,28.054549 -2.29865,8.5746 -8.68402,19.71936 -14.31706,24.9884 -5.2692,4.92873 -14.58517,10.23972 -22.40647,12.77383 l -4.14939,1.34442 8.4205,9.57981 c 8.76768,9.97479 21.17448,26.83635 26.30343,35.7479 2.97386,5.16708 2.975,5.17779 0.67782,6.4072 -2.46988,1.32184 -35.79565,13.29238 -36.01647,12.93704 -0.0728,-0.11716 -3.02409,-5.18489 -6.55843,-11.26163 -12.24962,-21.06132 -34.24695,-51.29758 -35.99968,-49.4831 -0.4618,0.47807 -3.8418,12.50913 -7.51112,26.7357 -3.66932,14.22658 -7.06351,26.24053 -7.54263,26.69768 -1.21914,1.16318 -41.32675,10.1006 -42.05581,9.37154 -0.3275,-0.32749 1.04456,-6.6906 3.04903,-14.14024 9.51283,-35.35459 18.09224,-59.34353 30.96217,-86.57344 3.64157,-7.70473 6.62103,-14.1036 6.62103,-14.21971 0,-0.11611 -1.11774,-0.17163 -2.48385,-0.12338 -2.01976,0.0713 -2.58747,-0.63482 -3.03837,-3.77929 l -0.55452,-3.86701 -18.78264,-0.342 c -10.33045,-0.18809 -22.33256,-0.0265 -26.67135,0.3591 -7.63881,0.67888 -7.90933,0.80416 -8.5395,3.95506 -0.35794,1.78969 -2.40544,7.05167 -4.55,11.69329 -2.14456,4.64162 -3.77085,8.55152 -3.61397,8.68867 0.15688,0.13715 9.23439,-0.16561 20.17225,-0.6728 10.93785,-0.50719 20.23233,-0.57391 20.65439,-0.14827 0.42205,0.42564 -1.45062,7.55038 -4.1615,15.83276 l -4.92887,15.05887 -17.38281,0.72598 c -9.56054,0.39929 -19.17572,0.98793 -21.36706,1.30809 l -3.98426,0.58211 -4.1386,13.2596 c -2.27624,7.29279 -3.82732,13.57089 -3.44686,13.95135 0.38047,0.38047 11.71163,0.11059 25.18037,-0.59972 13.46874,-0.71031 24.7025,-1.0776 24.96391,-0.81618 0.26142,0.26141 -1.75032,7.83262 -4.47051,16.8249 l -4.94581,16.34961 -14.24428,0.80578 c -32.34039,1.82948 -49.22186,3.22264 -62.12971,5.12732 -11.47513,1.69327 -13.72766,1.76978 -14.22143,0.48305 z m 188.76275,-99.69351 c 10.64034,-4.02801 15.25861,-10.47573 11.87545,-16.57976 -2.71221,-4.89351 -8.02512,-6.70209 -19.69374,-6.70401 -8.94701,-0.001 -10.14537,0.20723 -8.42268,1.4669 1.90335,1.39176 1.76456,2.01327 -2.6525,11.87725 -2.56353,5.72475 -4.94592,11.10533 -5.29421,11.95683 -0.97652,2.38747 16.37492,0.94039 24.18768,-2.01721 z"
       style="opacity:1;fill:url(#linearGradient879);fill-opacity:1;stroke:none;stroke-width:0;stroke-linecap:square;stroke-linejoin:round;stroke-miterlimit:4;stroke-dasharray:none;stroke-opacity:1;paint-order:normal" />
    <path
       inkscape:connector-curvature="0"
       id="path839"
       d="m 792.79642,225.35717 c -15.04795,-2.72944 -30.16102,-14.56148 -38.10646,-29.83363 -6.19828,-11.91388 -7.76802,-19.62912 -7.78752,-38.27539 -0.014,-13.43507 0.37204,-16.96086 2.75938,-25.19909 4.46321,-15.40158 10.42183,-25.80173 21.47293,-37.478725 16.52804,-17.464134 36.96048,-26.388306 60.29973,-26.336805 26.53166,0.05855 50.43585,11.013248 62.59478,28.685644 l 3.47125,5.045296 -3.62692,3.24066 c -3.48083,3.11011 -3.58807,3.4478 -2.66259,8.38307 0.53039,2.82834 0.9039,11.10867 0.83002,18.40076 -0.23385,23.08097 -7.02065,43.00485 -20.23843,59.4135 -18.84799,23.39804 -36.95669,33.49669 -61.83283,34.48226 -6.43919,0.25511 -14.16719,0.0177 -17.17334,-0.52755 z m 33.25185,-37.5317 c 20.45134,-9.0466 33.76694,-46.78078 21.5622,-61.10364 -1.50754,-1.76917 -1.38173,-2.24696 1.33954,-5.08735 l 3.00333,-3.13481 -4.11559,-3.61353 c -6.4156,-5.63298 -10.82059,-7.08674 -21.40164,-7.06308 -24.39466,0.0545 -40.38743,15.48914 -44.02469,42.48815 -2.63603,19.56706 4.38284,33.20845 19.9442,38.76215 7.05497,2.51785 16.2777,2.03209 23.69265,-1.24789 z"
       style="opacity:1;fill:url(#linearGradient881);fill-opacity:1;stroke:none;stroke-width:0;stroke-linecap:square;stroke-linejoin:round;stroke-miterlimit:4;stroke-dasharray:none;stroke-opacity:1;paint-order:normal" />
    <path
       inkscape:connector-curvature="0"
       id="path841"
       d="m 966.78417,268.49666 c -1.57662,-2.94594 -9.96821,-48.01743 -9.0853,-48.79739 0.42248,-0.37321 5.74002,-1.79214 11.81675,-3.15317 13.96278,-3.12731 25.47519,-7.85028 31.31068,-12.84523 9.2468,-7.91498 8.4413,-17.73208 -3.0126,-36.71548 -8.42589,-13.96482 -11.64018,-20.42036 -13.81166,-27.73915 -3.353,-11.30099 -1.74586,-27.98521 3.72958,-38.71796 3.17329,-6.220165 12.15494,-14.76277 20.32568,-19.332101 7.9824,-4.464021 38.2937,-14.80797 45.9253,-15.672329 l 5.0268,-0.569336 7.9606,20.258889 c 4.3783,11.142389 8.1072,20.995757 8.2864,21.896377 0.2552,1.28227 -1.4717,1.792 -7.9606,2.3497 -14.2989,1.22896 -24.6948,4.9755 -31.9209,11.5039 -8.0887,7.30762 -7.3787,11.66931 5.2487,32.24229 16.3537,26.64397 19.4232,46.6612 10.1152,65.96418 -11.3099,23.45449 -35.7297,39.29791 -76.54266,49.66043 -5.91571,1.50203 -6.44225,1.47832 -7.41197,-0.33362 z"
       style="opacity:1;fill:url(#linearGradient883);fill-opacity:1;stroke:none;stroke-width:0;stroke-linecap:square;stroke-linejoin:round;stroke-miterlimit:4;stroke-dasharray:none;stroke-opacity:1;paint-order:normal" />
    <path
       inkscape:connector-curvature="0"
       id="path843"
       d="m 1088.9392,226.7373 c -0.9754,-0.97543 13.2585,-49.76882 19.8851,-68.16527 3.8394,-10.65879 11.7762,-28.78716 18.3404,-41.89082 2.9999,-5.98856 5.1893,-11.15342 4.8653,-11.47746 -0.3241,-0.32403 -9.312,0.30037 -19.9731,1.38757 -10.6612,1.08719 -19.6672,1.69351 -20.0133,1.34737 -0.4939,-0.49386 3.5123,-16.345577 8.0648,-31.910975 0.3391,-1.159467 2.206,-2.060065 5.1289,-2.474197 5.7837,-0.819477 51.3077,-3.641616 72.5446,-4.497211 8.8113,-0.354989 19.8737,-0.934848 24.5832,-1.288574 l 8.5627,-0.64314 v 3.029088 3.029088 l 9.1151,-0.69657 c 5.0133,-0.383113 23.5335,-1.434647 41.1561,-2.336742 17.6225,-0.902095 36.6299,-1.886003 42.2386,-2.186461 9.3257,-0.499571 10.2975,-0.359973 11.3638,1.632372 1.0669,1.993554 2.3637,2.17866 15.2635,2.17866 h 14.0976 l 1.8869,9.115104 c 1.0378,5.013307 2.855,16.009219 4.0381,24.435358 1.1831,8.42614 2.3007,15.46994 2.4837,15.65289 0.1829,0.18295 2.7405,-4.23604 5.6835,-9.81999 8.0216,-15.219827 21.696,-35.097 25.7652,-37.452423 3.7504,-2.170836 26.4004,-5.61979 33.0524,-5.032944 l 3.8522,0.339852 -8.4966,12.153472 c -17.6227,25.207293 -46.1529,68.711473 -48.5463,74.025693 -1.3684,3.03837 -5.8365,18.25792 -9.9292,33.82124 l -7.4411,28.29691 -15.0346,3.46761 c -21.4339,4.94355 -26.7114,5.97038 -27.3587,5.32312 -0.6797,-0.67971 2.4564,-11.28699 13.5292,-45.7596 l 8.2467,-25.67434 -6.7444,-33.98816 c -3.7094,-18.69349 -7.1216,-34.378727 -7.5826,-34.856078 -0.461,-0.477349 -1.9069,2.810063 -3.2131,7.305363 l -2.3748,8.173275 -5.1427,0.70488 c -2.8284,0.38768 -12.4581,0.70488 -21.3993,0.70488 -20.15,0 -29.8391,0.9196 -29.8391,2.83206 0,1.16596 -2.0772,6.35593 -8.4509,21.11526 -0.5624,1.30235 0.9663,1.29553 30.8244,-0.13769 8.25,-0.39602 9.6675,-0.20942 9.6675,1.27265 0,0.95519 -1.9861,8.05558 -4.4135,15.77863 l -4.4135,14.04192 -13.4377,0.72254 c -7.3908,0.3974 -16.3022,0.72255 -19.8031,0.72255 -3.501,0 -7.1509,0.30143 -8.111,0.66986 -1.65,0.63317 -9.4827,22.81364 -9.4845,26.85792 -6e-4,1.52753 1.3744,1.6594 10.7724,1.03311 5.9253,-0.39486 17.1123,-0.76775 24.8602,-0.82865 11.2447,-0.0884 14.0869,0.19468 14.0869,1.4029 0,1.3165 -4.6286,17.83053 -7.8056,27.84912 l -1.0777,3.39849 -26.2182,1.33061 c -14.42,0.73183 -31.9359,2.02693 -38.9242,2.878 -6.9882,0.85107 -15.5647,1.89885 -19.0588,2.3284 l -6.353,0.781 v -3.78877 c 0,-13.62255 28.185,-92.72915 39.3952,-110.57042 1.4243,-2.2667 2.5896,-4.39359 2.5896,-4.72643 0,-0.33284 -3.3561,-0.26402 -7.4579,0.15293 -4.1017,0.41695 -8.2035,0.80369 -9.1151,0.85942 -1.1746,0.0718 -1.5538,-0.78347 -1.302,-2.93704 l 0.3553,-3.03837 -15.8233,0.0169 c -9.1488,0.01 -15.1968,0.41398 -14.3381,0.95824 1.2214,0.77407 1.1497,1.5902 -0.4031,4.59308 -5.611,10.85047 -22.0172,60.88165 -30.1481,91.9373 -2.3469,8.96405 -4.4881,16.51923 -4.7582,16.78932 -0.7917,0.79168 -41.8171,10.22789 -42.3127,9.7323 z"
       style="opacity:1;fill:url(#linearGradient885);fill-opacity:1;stroke:none;stroke-width:0;stroke-linecap:square;stroke-linejoin:round;stroke-miterlimit:4;stroke-dasharray:none;stroke-opacity:1;paint-order:normal" />
    <path
       inkscape:connector-curvature="0"
       id="path845"
       d="m 1381.0764,224.44988 c 0,-3.33729 8.344,-32.7509 13.8488,-48.81891 7.6076,-22.20571 15.125,-40.31231 25.6258,-61.72304 l 9.4096,-19.185897 -2.9113,-9.540496 c -3.5415,-11.605676 -3.5869,-13.20109 -0.3974,-13.945973 1.3673,-0.319309 9.198,-2.065751 17.4016,-3.880981 8.2036,-1.81523 16.0144,-3.556679 17.3573,-3.869887 1.6999,-0.396456 2.8039,0.107227 3.6338,1.657867 1.4972,2.797585 7.7843,30.824791 11.6491,51.930767 1.6134,8.81127 3.1665,16.40002 3.4512,16.86388 0.2847,0.46387 7.7624,-13.58952 16.6171,-31.22975 12.3923,-24.687666 16.6366,-32.18969 18.4321,-32.579238 5.5887,-1.212524 31.0084,-2.713788 31.8416,-1.88054 0.5052,0.50513 -2.1307,7.347154 -5.8575,15.2045 -20.1071,42.392728 -26.0291,57.981908 -43.1233,113.519688 -2.9813,9.68581 -5.3891,15.63389 -6.5885,16.27582 -2.1988,1.17678 -39.8127,10.12676 -40.3407,9.5988 -0.1952,-0.19519 -0.879,-9.77986 -1.5195,-21.29927 -0.6406,-11.5194 -1.8993,-26.41344 -2.7971,-33.09785 -0.8978,-6.6844 -1.6365,-13.02355 -1.6416,-14.08697 -0.021,-4.47494 -2.3139,-1.21216 -6.9872,9.94375 -6.174,14.73839 -9.9913,26.86183 -12.8241,40.72861 -1.2028,5.88773 -2.5841,11.07548 -3.0696,11.52834 -0.7115,0.66365 -14.6106,4.03107 -38.7243,9.38194 -1.8819,0.41761 -2.4859,0.0543 -2.4859,-1.49516 z"
       style="opacity:1;fill:url(#linearGradient887);fill-opacity:1;stroke:none;stroke-width:0;stroke-linecap:square;stroke-linejoin:round;stroke-miterlimit:4;stroke-dasharray:none;stroke-opacity:1;paint-order:normal" />
  </g>
  <g
     transform="matrix(0.58411463,0,0,0.5689188,211.51867,840.00731)"
     id="g1524">
    <rect
       style="opacity:0.4;fill:#000000;fill-opacity:1;stroke:none;stroke-width:0;stroke-linecap:square;stroke-linejoin:round;stroke-miterlimit:4;stroke-dasharray:none;stroke-opacity:1;paint-order:normal;"
       id="rect2150"
       width="1638.0513"
       height="559.30658"
       x="159.86801"
       y="-60.304436" />
    <g
       id="g2148"
       transform="matrix(0.70448917,0,0,0.70448916,313.47242,31.716325)">
      <path
         style="fill:#8dc63f;fill-opacity:1"
         id="path1512"
         d="M 513.5,257 C 513.5,115.5 398.8,0.7 257.2,0.7 115.6,0.7 1,115.5 1,257 c 0,141.5 114.7,256.3 256.3,256.3 35.4,0 69.2,-7.2 99.9,-20.2 l -83.3,-83.2 c -5.4,0.6 -11,0.9 -16.6,0.9 -85.1,0 -154.1,-69 -154.1,-154.1 0,-85.1 69,-154.1 154.1,-154.1 85.1,0 154.1,68.9 154.1,154 0,24.6 -5.8,47.7 -16,68.3 H 256.6 L 434,501.9 H 572.9 L 470.2,399.6 c 27.4,-40.8 43.3,-89.8 43.3,-142.6 z"
         class="st0"
         inkscape:connector-curvature="0" />
      <path
         style="fill:#e5e3e3;fill-opacity:1"
         id="path1514"
         d="m 1066.8,170 c -48.8,0 -88.8,15.5 -119.9,46.6 -31.1,31.1 -46.6,71 -46.6,119.9 0,48.8 15.5,88.8 46.6,119.9 31.1,31.1 71,46.6 119.9,46.6 66.6,0 101.6,-20.3 136.5,-49.9 L 1150,399.8 c -24.4,17.8 -52.2,26.6 -83.2,26.6 -17.8,0 -33.3,-5 -46.6,-15 -13.3,-10 -21.1,-23.6 -23.3,-41.7 h 229.8 v -33.2 c 0,-48.8 -14.5,-88.8 -43.3,-119.9 -28.8,-31.1 -67.8,-46.6 -116.6,-46.6 z m -66.6,133.1 c 0,-17.7 6.7,-31.6 20,-41.6 13.3,-10 28.9,-15 46.6,-15 17.8,0 33.3,5 46.6,15 13.3,10 20,23.9 20,41.6 z"
         class="st1"
         inkscape:connector-curvature="0" />
      <rect
         style="fill:#e5e3e3;fill-opacity:1"
         id="rect1516"
         height="499.79999"
         width="93.300003"
         class="st1"
         y="3.4000001"
         x="1284.2" />
      <path
         style="fill:#e5e3e3;fill-opacity:1"
         id="path1518"
         d="m 1598.1,3.5 c -37.7,0 -67.7,10.5 -89.9,31.6 -22.2,21.1 -33.3,48.3 -33.3,81.6 v 49.1 h -49.5 V 241 h 49.5 v 262.1 h 93.6 V 241 h 50.2 v -75.3 h -50.2 V 130 c 0,-17.8 3.7,-30.2 11.2,-37.5 7.4,-7.2 17.1,-10.8 28.8,-10.8 16,0 27.1,3.4 33.3,10.3 l 49.6,-55.3 C 1669.2,14.6 1638.1,3.5 1598.1,3.5 Z"
         class="st1"
         inkscape:connector-curvature="0" />
      <path
         style="fill:#e5e3e3;fill-opacity:1"
         id="path1520"
         d="m 1866.6,420.6 c -7.5,3.8 -14.7,4.1 -17.6,4.1 -11.8,0 -21.2,-3.6 -28.7,-10.8 -7.4,-7.2 -10.9,-19.7 -10.9,-37.5 V 241 h 49.5 v -75.3 h -49.5 V 95.1 h -93.9 v 70.7 h -50.2 V 241 h 50.2 v 148.7 c 0,33.3 11.1,60.5 33.3,81.6 22.2,21.1 52.1,31.6 89.8,31.6 20.6,0 38.6,-5.8 55,-15.6 7.1,-4.3 17.1,-10.9 25.5,-21.4 z"
         class="st1"
         inkscape:connector-curvature="0" />
      <path
         style="fill:#e5e3e3;fill-opacity:1"
         id="path1522"
         d="M 618.3,1.1 H 416.2 c 38.4,21.9 71.3,52.7 96.1,89.1 1.3,1.8 6.4,9.3 7.6,11.9 h 98.4 c 88.9,0 133.4,49.2 133.6,149.4 -0.2,100.2 -44.8,149.7 -133.6,149.7 H 538.4 L 639.4,502 C 795,501.8 852.1,418.6 852.1,251.8 852.1,84.5 774.1,1.1 618.3,1.1 Z"
         class="st1"
         inkscape:connector-curvature="0" />
    </g>
    <rect
       style="opacity:0.5;fill:#000000;fill-opacity:1;stroke:none;stroke-width:0;stroke-linecap:square;stroke-linejoin:round;stroke-miterlimit:4;stroke-dasharray:none;stroke-opacity:1;paint-order:normal;"
       id="rect2150-4"
       width="2088.2317"
       height="543.77026"
       x="-23.537369"
       y="-787.81573"
       transform="matrix(1.1730508,0,0,1.2405917,-193.67131,147.03287)" />
    <flowRoot
       xml:space="preserve"
       id="flowRoot2206"
       style="fill:black;fill-opacity:1;stroke:none;font-family:'Adventure Subtitles';font-style:normal;font-weight:normal;font-size:40px;line-height:1.25;letter-spacing:0px;word-spacing:0px;-inkscape-font-specification:'Adventure Subtitles';font-stretch:normal;font-variant:normal"><flowRegion
         id="flowRegion2208"><rect
           id="rect2210"
           width="391.12082"
           height="48.613888"
           x="780.03192"
           y="531.01666" /></flowRegion><flowPara
         id="flowPara2212" /></flowRoot>    <text
       xml:space="preserve"
       style="font-style:normal;font-variant:normal;font-weight:bold;font-stretch:normal;font-size:196.59999084px;line-height:1.5;font-family:'Adventure Subtitles';-inkscape-font-specification:'Adventure Subtitles Bold';text-align:center;letter-spacing:0px;word-spacing:0px;writing-mode:lr-tb;direction:ltr;text-anchor:middle;fill:#ffffff;fill-opacity:1;stroke:#000000;stroke-width:10.23129463;stroke-miterlimit:4;stroke-dasharray:none;stroke-opacity:1"
       x="1031.869"
       y="-581.28741"
       id="text2202"
       transform="scale(0.98690671,1.013267)"><tspan
         sodipodi:role="line"
         x="1044.8793"
         y="-581.28741"
         style="font-style:normal;font-variant:normal;font-weight:bold;font-stretch:normal;font-size:196.59999084px;line-height:1.5;font-family:'Adventure Subtitles';-inkscape-font-specification:'Adventure Subtitles Bold';text-align:center;letter-spacing:26.02058601px;writing-mode:lr-tb;direction:ltr;text-anchor:middle;fill:#ffffff;fill-opacity:1;stroke:#000000;stroke-width:10.23129463;stroke-miterlimit:4;stroke-dasharray:none;stroke-opacity:1"
         id="tspan2204">@KRYPTOS_RSA</tspan><tspan
         sodipodi:role="line"
         x="1044.8793"
         y="-286.38739"
         style="font-style:normal;font-variant:normal;font-weight:bold;font-stretch:normal;font-size:196.59999084px;line-height:1.5;font-family:'Adventure Subtitles';-inkscape-font-specification:'Adventure Subtitles Bold';text-align:center;letter-spacing:26.02058601px;writing-mode:lr-tb;direction:ltr;text-anchor:middle;fill:#ffffff;fill-opacity:1;stroke:#000000;stroke-width:10.23129463;stroke-miterlimit:4;stroke-dasharray:none;stroke-opacity:1"
         id="tspan2237">ALMEROSTEYN.COM</tspan></text>
  </g>
</svg>
