<?xml version="1.0" encoding="UTF-8" standalone="no"?>
<!-- Created with Inkscape (http://www.inkscape.org/) -->

<svg
   xmlns:dc="http://purl.org/dc/elements/1.1/"
   xmlns:cc="http://creativecommons.org/ns#"
   xmlns:rdf="http://www.w3.org/1999/02/22-rdf-syntax-ns#"
   xmlns:svg="http://www.w3.org/2000/svg"
   xmlns="http://www.w3.org/2000/svg"
   xmlns:sodipodi="http://sodipodi.sourceforge.net/DTD/sodipodi-0.dtd"
   xmlns:inkscape="http://www.inkscape.org/namespaces/inkscape"
   width="400"
   height="400"
   viewBox="0 0 105.83333 105.83333"
   version="1.1"
   id="svg921"
   inkscape:version="0.92.3 (2405546, 2018-03-11)"
   sodipodi:docname="screenreaderqr.svg">
  <defs
     id="defs915" />
  <sodipodi:namedview
     id="base"
     pagecolor="#ffffff"
     bordercolor="#666666"
     borderopacity="1.0"
     inkscape:pageopacity="0.0"
     inkscape:pageshadow="2"
     inkscape:zoom="0.98994949"
     inkscape:cx="186.35607"
     inkscape:cy="291.96815"
     inkscape:document-units="mm"
     inkscape:current-layer="layer1"
     showgrid="false"
     units="px"
     inkscape:window-width="1920"
     inkscape:window-height="1017"
     inkscape:window-x="-8"
     inkscape:window-y="-8"
     inkscape:window-maximized="1" />
  <metadata
     id="metadata918">
    <rdf:RDF>
      <cc:Work
         rdf:about="">
        <dc:format>image/svg+xml</dc:format>
        <dc:type
           rdf:resource="http://purl.org/dc/dcmitype/StillImage" />
        <dc:title></dc:title>
      </cc:Work>
    </rdf:RDF>
  </metadata>
  <g
     inkscape:label="Layer 1"
     inkscape:groupmode="layer"
     id="layer1"
     transform="translate(0,-191.16667)">
    <path
       style="fill:#000000;stroke-width:0.30912828"
       d="M 2.0817601,284.27 V 273.45051 H 12.901249 23.720739 V 284.27 295.08949 H 12.901249 2.0817601 Z m 18.5476949,0 v -7.7282 H 12.901249 5.1730427 v 7.7282 7.72822 h 7.7282063 7.728206 z m -12.3651301,0 v -4.63692 h 4.6369241 4.636924 v 4.63692 4.63693 H 12.901249 8.2643249 Z m 18.5476961,3.09129 v -7.72821 h 4.636924 4.636923 v -1.54565 -1.54563 h -1.545641 -1.545641 v -1.54565 -1.54564 h -1.545641 -1.545642 v 1.54564 1.54565 h -1.545641 -1.545641 v -3.09129 -3.09128 h -7.728206 -7.728206 v -1.54565 -1.54563 H 9.8099669 8.2643249 v -3.09129 -3.09128 H 6.7186844 5.1730427 v 4.63693 4.63692 H 3.6274014 2.0817601 v -6.18257 -6.18256 h 1.5456413 1.5456413 v -1.54564 -1.54565 H 3.6274014 2.0817601 v -3.09128 -3.09127 h 1.5456413 1.5456413 v -1.54565 -1.54564 H 3.6274014 2.0817601 v -3.09128 -3.09128 h 1.5456413 1.5456413 v -1.54565 -1.54564 h 3.0912822 3.0912841 v -1.54564 -1.54564 H 9.8099669 8.2643249 v -3.09128 -3.09129 H 6.7186844 5.1730427 v 1.54565 1.54564 H 3.6274014 2.0817601 v -1.54564 -1.54565 h 1.5456413 1.5456413 v -3.09128 -3.09128 H 3.6274014 2.0817601 v -1.54564 -1.54565 h 7.7282068 7.7282061 v 1.54565 1.54564 h -3.091282 -3.091282 v 1.54564 1.54564 h 1.54564 1.545642 v 3.09128 3.09129 h -1.545642 -1.54564 v 1.54563 1.54565 h 3.091282 3.091282 v -1.54565 -1.54563 h 4.636924 4.636924 v -1.54564 -1.54565 h 1.545641 1.545641 v -1.54563 -1.54565 h -1.545641 -1.545641 v -1.54564 -1.54564 h -3.091282 -3.091284 v -1.54564 -1.54565 h 7.728207 7.728206 v 1.54565 1.54564 h -1.545641 -1.545641 v 3.09128 3.09128 h 1.545641 1.545641 v -1.54563 -1.54565 h 3.091283 3.091283 v 1.54565 1.54563 h -1.545642 -1.545641 v 3.09129 3.09128 h 4.636923 4.636924 v -1.54565 -1.54563 h -1.54564 -1.545642 v -1.54564 -1.54565 h 1.545642 1.54564 v -1.54563 -1.54565 h 1.545642 1.545642 v -1.54564 -1.54564 h -3.091284 -3.091282 v -1.54564 -1.54565 h -1.545642 -1.54564 v 1.54565 1.54564 h -1.545642 -1.545641 v -4.63692 -4.63692 h 1.545641 1.545642 v -1.54565 -1.54565 h -1.545642 -1.545641 v -1.54563 -1.54564 H 37.63151 36.085868 v 4.63692 4.63692 h -1.545641 -1.545641 v -4.63692 -4.63692 h -3.091283 -3.091282 v -1.54565 -1.54563 h 1.545641 1.545641 v -1.54565 -1.54564 h -1.545641 -1.545641 v -1.54564 -1.54564 h 1.545641 1.545641 v -1.54565 -1.54563 h 1.545642 1.545641 v 3.09128 3.09128 h 1.545641 1.545641 v -1.54564 -1.54564 h 3.091283 3.091283 v 1.54564 1.54564 h -1.545642 -1.545641 v 3.09129 3.09128 h 6.182565 6.182566 v 1.54564 1.54563 h 4.636923 4.636924 v -3.09127 -3.09128 h 1.545641 1.545641 v -1.54565 -1.54564 h 7.728206 7.728206 v 3.09129 3.09128 h -1.54564 -1.545642 v 1.54564 1.54563 h -1.54564 -1.545642 v 6.18257 6.18257 h 1.545642 1.54564 v -4.63692 -4.63692 h 1.545642 1.54564 v 3.09127 3.09128 h 1.545642 1.545642 v 1.54565 1.54564 h 1.54564 1.545642 v -1.54564 -1.54565 h 1.545641 1.545641 v 3.09129 3.09128 h 3.091283 3.091282 v -1.54564 -1.54564 h -1.545641 -1.545641 v -1.54564 -1.54565 h 1.545641 1.545641 v 1.54565 1.54564 h 1.545642 1.545641 v -1.54564 -1.54565 h 1.545641 1.54564 v 1.54565 1.54564 h 1.54564 1.54564 v 1.54564 1.54564 h -1.54564 -1.54564 v 1.54565 1.54563 h -1.54564 -1.545641 v 1.54565 1.54564 h -1.545641 -1.545642 v 1.54563 1.54565 h -3.091282 -3.091283 v -1.54565 -1.54563 h -3.091282 -3.091282 v 1.54563 1.54565 h 1.54564 1.545642 v 1.54564 1.54564 h 3.091282 3.091283 v 4.63692 4.63693 h 1.545641 1.545641 v 3.09129 3.09127 h 1.545642 1.545641 v -4.63692 -4.63692 h -1.545641 -1.545642 v -1.54565 -1.54563 h 1.545642 1.545641 v -3.09129 -3.09128 h 3.091281 3.09128 v 1.54564 1.54564 h -1.54564 -1.54564 v 1.54564 1.54565 h -1.54564 -1.545641 v 1.54563 1.54565 h 1.545641 1.54564 v 1.54564 1.54564 h 1.54564 1.54564 v 1.54564 1.54565 h -1.54564 -1.54564 v 1.54563 1.54564 h -1.54564 -1.545641 v 1.54565 1.54563 h 1.545641 1.54564 v 1.54565 1.54564 h 1.54564 1.54564 v 1.54564 1.54564 h -1.54564 -1.54564 v 1.54565 1.54563 h -1.54564 -1.545641 v 1.54565 1.54564 h -1.545641 -1.545642 v 1.54563 1.54565 h 1.545642 1.545641 v 1.54564 1.54564 h 1.545641 1.54564 v -3.09128 -3.09128 h 1.54564 1.54564 v 3.09128 3.09128 h -1.54564 -1.54564 v 1.54564 1.54565 h 1.54564 1.54564 v 4.63692 4.63693 h -3.09128 -3.091281 v 3.09128 3.09129 h 1.545641 1.54564 v 1.54563 1.54564 h -1.54564 -1.545641 v -1.54564 -1.54563 h -3.091283 -3.091282 v -3.09129 -3.09128 h -3.091283 -3.091282 v 3.09128 3.09129 h 1.545641 1.545641 v 1.54563 1.54564 h -9.273848 -9.273846 v -1.54564 -1.54563 h -1.545642 -1.545642 v -1.54565 -1.54564 h -1.54564 -1.545642 v -1.54564 -1.54564 h -6.182565 -6.182564 v 1.54564 1.54564 h -3.091284 -3.091282 v 1.54564 1.54565 h 6.182566 6.182564 v 1.54563 1.54564 h -6.182564 -6.182566 v -1.54564 -1.54563 h -1.545642 -1.54564 v 1.54563 1.54564 h -1.545642 -1.545641 v -3.09127 -3.09129 h 1.545641 1.545642 v -1.54564 -1.54564 H 40.722792 39.177151 V 284.27 282.72437 H 37.63151 36.085868 v 1.54563 1.54565 h -1.545641 -1.545641 v 1.54564 1.54564 h 1.545641 1.545641 v 1.54564 1.54565 h -1.545641 -1.545641 v 1.54563 1.54564 h -3.091283 -3.091282 z m 52.551802,3.09128 v -1.54564 h 1.545642 1.545642 v -1.54564 -1.54564 h 1.54564 1.545642 V 284.27 282.72437 h -3.091282 -3.091284 v 3.09128 3.09128 h -4.636922 -4.636924 v 1.54564 1.54565 h 4.636924 4.636922 z M 51.542282,284.27 v -1.54563 h 1.54564 1.545642 v -1.54565 -1.54564 h 1.545641 1.545641 v -1.54565 -1.54563 h 1.545641 1.545642 v 3.09128 3.09129 h 1.545641 1.545641 v -3.09129 -3.09128 h 1.545642 1.54564 v -1.54565 -1.54564 h 1.545642 1.545642 v 1.54564 1.54565 h 1.54564 1.545642 v -1.54565 -1.54564 h 1.545642 1.54564 v -1.54564 -1.54564 h -3.091282 -3.091282 v -1.54565 -1.54563 h 1.54564 1.545642 v -1.54564 -1.54565 h 1.545642 1.54564 v 1.54565 1.54564 h 1.545642 1.54564 v -3.09129 -3.09128 h 1.545642 1.545642 v 1.54565 1.54563 h 3.091282 3.091282 v 1.54565 1.54564 h 1.545642 1.545641 v -1.54564 -1.54565 h -1.545641 -1.545642 v -1.54563 -1.54565 h 1.545642 1.545641 v -1.54564 -1.54564 h 1.545641 1.545641 v 3.09128 3.09128 h 1.545642 1.545641 v -4.63692 -4.63693 h -1.545641 -1.545642 v -1.54563 -1.54565 h -1.545641 -1.545641 v -3.09127 -3.09129 h -3.091283 -3.091282 v -1.54564 -1.54564 h -1.545642 -1.54564 v 1.54564 1.54564 h 1.54564 1.545642 v 1.54564 1.54565 h -3.091282 -3.091284 v -3.09129 -3.09128 h -3.091282 -3.091282 v 1.54564 1.54564 h -1.545642 -1.54564 v -1.54564 -1.54564 h -1.545642 -1.545642 v -1.54565 -1.54563 h 6.182566 6.182564 v -1.54565 -1.54564 h 1.545642 1.545642 v -1.54564 -1.54564 h -1.545642 -1.545642 v 1.54564 1.54564 h -9.273846 -9.273848 v -1.54564 -1.54564 h 1.545641 1.545641 v -3.09128 -3.09129 h 6.182566 6.182564 v 1.54565 1.54564 h 3.091282 3.091284 v -1.54564 -1.54565 h -1.545642 -1.545642 v -1.54563 -1.54565 h 1.545642 1.545642 v -1.54564 -1.54564 h -3.091284 -3.091282 v 1.54564 1.54564 h -7.728206 -7.728206 v 1.54565 1.54563 h -3.091283 -3.091282 v -1.54563 -1.54565 h 1.545641 1.545641 v -1.54564 -1.54564 h 1.545641 1.545642 v -1.54564 -1.54565 h 1.545641 1.545641 v 1.54565 1.54564 h 3.091282 3.091284 v -1.54564 -1.54565 h -3.091284 -3.091282 v -4.63692 -4.63693 H 62.36177 60.816129 v 3.0913 3.09127 h -1.545642 -1.545641 v -1.54564 -1.54563 h -1.545641 -1.545641 v 1.54563 1.54564 h -1.545642 -1.54564 v -1.54564 -1.54563 H 49.99664 48.450998 v 1.54563 1.54564 h -1.54564 -1.545642 v -1.54564 -1.54563 h -1.545642 -1.54564 v 1.54563 1.54564 h 1.54564 1.545642 v 1.54565 1.54563 h 6.182566 6.182564 v 1.54565 1.54564 h -1.545641 -1.545641 v 1.54564 1.54564 h -1.545642 -1.54564 v 1.54565 1.54563 H 49.99664 48.450998 v 1.54565 1.54564 h 4.636924 4.636924 v 1.54563 1.54565 h -1.545641 -1.545641 v 1.54564 1.54564 h 3.091282 3.091283 v 3.09129 3.09128 h -1.545642 -1.545641 v -1.54565 -1.54563 h -1.545641 -1.545641 v 1.54563 1.54565 h -1.545642 -1.54564 v 1.54564 1.54564 h -3.091284 -3.091282 v -1.54564 -1.54564 h 1.545642 1.54564 v -1.54565 -1.54563 h -1.54564 -1.545642 v 1.54563 1.54565 h -1.545642 -1.54564 v 1.54564 1.54564 h -1.545642 -1.545641 v -3.09128 -3.09128 h 1.545641 1.545642 v -1.54565 -1.54564 h -1.545642 -1.545641 v -1.54564 -1.54564 H 37.63151 36.085868 v -1.54565 -1.54563 h -1.545641 -1.545641 v 1.54563 1.54565 h 1.545641 1.545641 v 3.09128 3.09129 h -3.091282 -3.091283 v -3.09129 -3.09128 h -1.545641 -1.545641 v 3.09128 3.09129 h -4.636924 -4.636924 v -1.54565 -1.54564 h 3.091282 3.091284 v -1.54564 -1.54564 h -3.091284 -3.091282 v 1.54564 1.54564 h -3.091282 -3.091282 v 1.54564 1.54565 H 8.2643249 5.1730427 v 3.09128 3.09128 h 1.5456417 1.5456405 v -1.54564 -1.54564 h 4.6369241 4.636924 v 3.09128 3.09129 h 3.091282 3.091284 v -1.54565 -1.54564 h -1.545642 -1.545642 v -1.54564 -1.54564 h 3.091284 3.091282 v 1.54564 1.54564 h 4.636924 4.636923 v 1.54564 1.54565 h 3.091283 3.091283 v 1.54563 1.54564 h -1.545642 -1.545641 v 3.09128 3.09129 H 37.63151 36.085868 v -3.09129 -3.09128 h -3.091282 -3.091283 v -1.54564 -1.54563 h -1.545641 -1.545641 v 1.54563 1.54564 h -4.636924 -4.636924 v 4.63693 4.63692 h 4.636924 4.636924 v 3.09128 3.09129 h 1.545641 1.545641 v 1.54563 1.54565 h 1.545642 1.545641 v -1.54565 -1.54563 h -1.545641 -1.545642 v -1.54564 -1.54565 h 1.545642 1.545641 v -1.54563 -1.54565 h -1.545641 -1.545642 v -1.54564 -1.54564 h -1.545641 -1.545641 v -3.09129 -3.09128 h 1.545641 1.545641 v 1.54565 1.54563 h 1.545642 1.545641 v 1.54565 1.54564 h 1.545641 1.545641 v 7.72821 7.7282 h 3.091283 3.091283 v 1.54564 1.54565 h -1.545642 -1.545641 v 3.09128 3.09129 h 4.636923 4.636924 v 1.54563 1.54565 h 1.545642 1.545642 z m -3.091284,-3.09128 v -1.54564 h -1.54564 -1.545642 v -1.54565 -1.54563 h 1.545642 1.54564 v -1.54565 -1.54564 h 1.545642 1.545642 v -1.54564 -1.54564 h -3.091284 -3.091282 v -1.54565 -1.54563 h -1.545642 -1.54564 v 1.54563 1.54565 h -1.545642 -1.545641 v -3.09128 -3.09129 h 1.545641 1.545642 v -1.54563 -1.54565 h -1.545642 -1.545641 v -1.54564 -1.54564 h 4.636923 4.636924 v -1.54564 -1.54565 h -1.54564 -1.545642 v -1.54563 -1.54565 h 1.545642 1.54564 v -1.54564 -1.54563 h 1.545642 1.545642 v -1.54565 -1.54564 h 1.54564 1.545642 v -1.54564 -1.54564 h 1.545641 1.545641 v 1.54564 1.54564 h 1.545641 1.545642 v -1.54564 -1.54564 h 1.545641 1.545641 v 1.54564 1.54564 h 1.545642 1.54564 v 1.54564 1.54565 h 1.545642 1.545642 v 1.54563 1.54564 h 4.636924 4.636922 v 1.54565 1.54563 h 1.545642 1.545642 v -1.54563 -1.54565 h 1.54564 1.545642 v -1.54564 -1.54563 h 1.545641 1.545641 v 1.54563 1.54564 H 87.09203 85.546389 v 1.54565 1.54563 h -1.545642 -1.54564 v 1.54565 1.54564 h 1.54564 1.545642 v 1.54564 1.54564 h -1.545642 -1.54564 v -1.54564 -1.54564 h -3.091284 -3.091282 v 1.54564 1.54564 h -1.54564 -1.545642 v -1.54564 -1.54564 h -1.545642 -1.54564 v 1.54564 1.54564 h -1.545642 -1.545642 v 1.54565 1.54563 h 1.545642 1.545642 v 1.54565 1.54564 h -1.545642 -1.545642 v 3.09128 3.09128 H 62.36177 57.724846 v 1.54564 1.54565 h -1.545641 -1.545641 v 1.54563 1.54565 h -1.545642 -1.54564 v 1.54564 1.54565 H 49.99664 48.450998 Z m 6.182566,-12.36514 v -1.54563 h 1.545641 1.545641 v 1.54563 1.54565 h 1.545641 1.545642 v -1.54565 -1.54563 h 3.091282 3.091282 v -1.54564 -1.54565 h -1.54564 -1.545642 v -1.54563 -1.54565 h 1.545642 1.54564 v -1.54564 -1.54564 h 1.545642 1.545642 v -1.54564 -1.54565 h -3.091284 -3.091282 v 3.09129 3.09128 h -3.091282 -3.091283 v -1.54564 -1.54564 h 1.545641 1.545642 v -3.09129 -3.09128 h 3.091282 3.091282 v -1.54564 -1.54563 H 62.36177 57.724846 v -1.54565 -1.54564 h -1.545641 -1.545641 v 1.54564 1.54565 h -1.545642 -1.54564 v 1.54563 1.54564 h 1.54564 1.545642 v 1.54565 1.54563 h -1.545642 -1.54564 v 1.54565 1.54564 H 49.99664 48.450998 v 1.54564 1.54564 h 1.545642 1.545642 v -1.54564 -1.54564 h 1.54564 1.545642 v 3.09128 3.09128 h -1.545642 -1.54564 v 3.09129 3.09128 h 1.54564 1.545642 z m 0,-12.36512 v -1.54565 h 1.545641 1.545641 v 1.54565 1.54564 h -1.545641 -1.545641 z m -6.182566,9.27385 v -1.54565 h -1.54564 -1.545642 v 1.54565 1.54564 h 1.545642 1.54564 z m 27.821543,-9.27385 v -1.54565 h -1.54564 -1.545642 v 1.54565 1.54564 h 1.545642 1.54564 z m -55.643086,0 v -1.54565 h 1.545642 1.545642 v 1.54565 1.54564 h -1.545642 -1.545642 z m 68.008216,0 v -1.54565 h 1.545642 1.545641 v 1.54565 1.54564 h -1.545641 -1.545642 z m -15.456412,-9.27385 v -1.54564 h 1.545642 1.54564 v 1.54564 1.54565 h -1.54564 -1.545642 z m -46.369238,-6.18257 v -1.54563 h 1.545641 1.545641 v 1.54563 1.54565 h -1.545641 -1.545641 z m 49.46052,41.73233 v -3.09129 h -1.54564 -1.545642 v 1.54564 1.54565 h -1.545642 -1.54564 v -1.54565 -1.54564 h -1.545642 -1.545642 v 3.09129 3.09128 h 4.636924 4.636924 z m 24.730259,-3.09129 v -3.09128 h -1.54564 -1.545641 v -1.54565 -1.54564 h -1.545641 -1.545642 v -1.54564 -1.54564 h -1.545641 -1.545641 v 3.09128 3.09129 h 3.091282 3.091283 v 1.54563 1.54565 h -3.091283 -3.091282 v 1.54564 1.54565 h 4.636924 4.636922 z m -12.365129,-4.63693 v -4.63692 h -4.636924 -4.636924 v 4.63692 4.63693 h 4.636924 4.636924 z m -6.182564,0 v -1.54564 h 1.54564 1.545642 v 1.54564 1.54565 h -1.545642 -1.54564 z m -58.734368,-9.27384 v -1.54565 h -1.545642 -1.545642 v 1.54565 1.54564 h 1.545642 1.545642 z m -12.36513,-6.18257 V 257.9941 H 9.8099669 8.2643249 v 1.54564 1.54564 h 1.545642 1.5456421 z m 3.091282,-12.36513 v -1.54564 h -1.545642 -1.54564 v 1.54564 1.54565 h 1.54564 1.545642 z m 37.095391,-12.36513 v -1.54564 H 49.99664 48.450998 v 1.54564 1.54564 h 1.545642 1.545642 z m 18.547695,-3.09129 v -1.54563 h -1.545642 -1.545642 v 1.54563 1.54565 h 1.545642 1.545642 z m 24.730259,-3.09127 v -1.54565 h 1.545642 1.545641 v -1.54563 -1.54565 h -1.545641 -1.545642 v 1.54565 1.54563 h -3.091282 -3.091283 v -1.54563 -1.54565 H 87.09203 85.546389 v 1.54565 1.54563 h 1.545641 1.545641 v 1.54565 1.54564 h 3.091283 3.091282 z M 70.089977,213.1705 v -1.54563 h -1.545642 -1.545642 v 1.54563 1.54564 h 1.545642 1.545642 z m 3.091282,-6.18256 v -1.54564 h 1.545642 1.54564 v -1.54565 -1.54563 h -1.54564 -1.545642 v 1.54563 1.54565 h -1.545642 -1.54564 v -1.54565 -1.54563 h -3.091284 -3.091282 v 1.54563 1.54565 h 3.091282 3.091284 v 1.54564 1.54563 h 1.54564 1.545642 z m -37.095391,-3.09129 v -1.54563 h -1.545641 -1.545641 v 1.54563 1.54565 h 1.545641 1.545641 z m 24.730261,89.6472 v -1.54563 h 1.545641 1.545641 v 1.54563 1.54564 H 62.36177 60.816129 Z M 20.629455,225.53564 v -1.54565 h 1.545642 1.545642 v 1.54565 1.54563 H 22.175097 20.629455 Z M 2.0817601,203.89665 v -10.81948 h 10.8194889 10.81949 v 10.81948 10.81949 H 12.901249 2.0817601 Z m 18.5476949,0 v -7.7282 H 12.901249 5.1730427 v 7.7282 7.72822 h 7.7282063 7.728206 z m -12.3651301,0 v -4.63692 h 4.6369241 4.636924 v 4.63692 4.63692 H 12.901249 8.2643249 Z m 18.5476961,7.72822 v -3.0913 h 1.545641 1.545641 v 3.0913 3.09127 h -1.545641 -1.545641 z m 55.643086,-7.72822 v -10.81948 h 10.819488 10.819485 v 10.81948 10.81949 H 93.274595 82.455107 Z m 18.547693,0 v -7.7282 h -7.728205 -7.728206 v 7.7282 7.72822 h 7.728206 7.728205 z m -12.365129,0 v -4.63692 h 4.636924 4.636924 v 4.63692 4.63692 h -4.636924 -4.636924 z m -34.004107,0 v -1.54563 h -1.545642 -1.54564 v -1.54565 -1.54564 h 1.54564 1.545642 v -1.54564 -1.54564 h -3.091282 -3.091284 v -1.54565 -1.54563 h 3.091284 3.091282 v 1.54563 1.54565 h 1.545641 1.545641 v -1.54565 -1.54563 h 3.091283 3.091282 v 1.54563 1.54565 H 62.36177 60.816129 v 1.54564 1.54564 h -3.091283 -3.091282 v 1.54564 1.54565 h 1.545641 1.545641 v 1.54563 1.54565 h -1.545641 -1.545641 z m -9.273848,-3.09128 v -1.54564 h 1.545642 1.54564 v 1.54564 1.54565 h -1.54564 -1.545642 z m 21.638977,-6.18257 v -1.54563 h 1.545642 1.545642 v 1.54563 1.54565 h -1.545642 -1.545642 z m 6.182566,0 v -1.54563 h 1.545642 1.54564 v 1.54563 1.54565 h -1.54564 -1.545642 z"
       id="path1727"
       inkscape:connector-curvature="0" />
  </g>
</svg>
