<?xml version="1.0" encoding="UTF-8" standalone="no"?>
<!-- Created with Inkscape (http://www.inkscape.org/) -->

<svg
   xmlns:dc="http://purl.org/dc/elements/1.1/"
   xmlns:cc="http://creativecommons.org/ns#"
   xmlns:rdf="http://www.w3.org/1999/02/22-rdf-syntax-ns#"
   xmlns:svg="http://www.w3.org/2000/svg"
   xmlns="http://www.w3.org/2000/svg"
   xmlns:sodipodi="http://sodipodi.sourceforge.net/DTD/sodipodi-0.dtd"
   xmlns:inkscape="http://www.inkscape.org/namespaces/inkscape"
   width="400"
   height="400"
   viewBox="0 0 105.83333 105.83333"
   version="1.1"
   id="svg921"
   inkscape:version="0.92.3 (2405546, 2018-03-11)"
   sodipodi:docname="semanticqr.svg">
  <defs
     id="defs915" />
  <sodipodi:namedview
     id="base"
     pagecolor="#ffffff"
     bordercolor="#666666"
     borderopacity="1.0"
     inkscape:pageopacity="0.0"
     inkscape:pageshadow="2"
     inkscape:zoom="0.98994949"
     inkscape:cx="186.35607"
     inkscape:cy="291.96815"
     inkscape:document-units="mm"
     inkscape:current-layer="layer1"
     showgrid="false"
     units="px"
     inkscape:window-width="1920"
     inkscape:window-height="1017"
     inkscape:window-x="-8"
     inkscape:window-y="-8"
     inkscape:window-maximized="1" />
  <metadata
     id="metadata918">
    <rdf:RDF>
      <cc:Work
         rdf:about="">
        <dc:format>image/svg+xml</dc:format>
        <dc:type
           rdf:resource="http://purl.org/dc/dcmitype/StillImage" />
        <dc:title></dc:title>
      </cc:Work>
    </rdf:RDF>
  </metadata>
  <g
     inkscape:label="Layer 1"
     inkscape:groupmode="layer"
     id="layer1"
     transform="translate(0,-191.16667)">
    <path
       style="fill:#000000;stroke-width:0.31196269"
       d="M 1.3800054,284.71816 V 273.81363 H 12.312882 23.245759 v 10.90453 10.90452 H 12.312882 1.3800054 Z m 18.7420746,0 V 276.9292 H 12.312882 4.503685 v 7.78896 7.78895 h 7.809197 7.809198 z m -12.4947165,0 v -4.67337 h 4.6855185 4.685519 v 4.67337 4.67337 H 12.312882 7.6273635 Z m 18.7420745,3.11558 v -7.78895 h 1.561839 1.56184 v 3.11558 3.11557 h 1.56184 1.561838 v 1.5578 1.55779 h 1.56184 1.56184 v -1.55779 -1.5578 h 3.123678 3.12368 v 1.5578 1.55779 h -1.56184 -1.56184 v 3.11558 3.11557 h -6.247358 -6.247357 z m 28.11311,6.23116 v -1.55779 H 49.79703 45.111511 v -1.5578 -1.55778 h 1.56184 1.561839 v -1.55779 -1.5578 h 1.56184 1.56184 v -1.55778 -1.55779 h -3.12368 -3.123679 v -1.5578 -1.55778 h -1.561839 -1.561839 v 1.55778 1.5578 h -1.56184 -1.56184 v -3.11558 -3.11559 h 1.56184 1.56184 v -1.55778 -1.55779 h -1.56184 -1.56184 v -1.5578 -1.55778 h -1.561839 -1.561839 v 3.11558 3.11557 h -4.685518 -4.685519 v -3.11557 -3.11558 h 4.685519 4.685518 v -4.67337 -4.67337 h 3.123678 3.12368 v 1.55778 1.5578 h -1.56184 -1.56184 v 3.11557 3.11559 h 4.685519 4.685518 v 1.55778 1.5578 h 1.56184 1.56184 v -1.5578 -1.55778 h 1.561839 1.561839 v -1.55779 -1.5578 H 49.79703 45.111511 v -1.55778 -1.55779 h 1.56184 1.561839 v -1.5578 -1.55778 h 1.56184 1.56184 v -1.55779 -1.55779 h -3.12368 -3.123679 v -1.5578 -1.55778 h -1.561839 -1.561839 v 1.55778 1.5578 h -1.56184 -1.56184 v -3.11558 -3.11559 h 1.56184 1.56184 v -1.55778 -1.55779 h -1.56184 -1.56184 v -1.5578 -1.55778 h -1.561839 -1.561839 v 1.55778 1.5578 h -1.56184 -1.56184 v 1.55779 1.55778 h -1.561838 -1.56184 v 1.5578 1.55779 h 1.56184 1.561838 v 1.55778 1.5578 h -1.561838 -1.56184 v -1.5578 -1.55778 h -1.56184 -1.561839 v -1.55779 -1.5578 h -4.685519 -4.685518 v -4.67337 -4.67337 h -3.123679 -3.123679 v 3.11559 3.11558 h 1.561839 1.56184 v 1.55779 1.55778 H 10.751043 7.6273635 v 4.67337 4.67338 h 1.5618396 1.5618399 v -3.11558 -3.11558 h 1.561839 1.56184 v 3.11558 3.11558 h 1.56184 1.561839 v -1.55779 -1.55779 h 1.561839 1.56184 v -1.5578 -1.55778 h 1.561839 1.56184 v 1.55778 1.5578 h -1.56184 -1.561839 v 1.55779 1.55779 h 1.561839 1.56184 v 1.55778 1.5578 h -1.56184 -1.561839 v 1.55779 1.55778 h 1.561839 1.56184 v 1.5578 1.55779 H 20.12208 16.998401 v -1.55779 -1.5578 h -1.561839 -1.56184 v 1.5578 1.55779 H 10.751043 7.6273635 v -1.55779 -1.5578 h 1.5618396 1.5618399 v -1.55778 -1.55779 H 9.1892031 7.6273635 v -1.5578 -1.55778 H 6.0655237 4.503685 v 4.67337 4.67337 H 2.9418452 1.3800054 v -6.23116 -6.23116 H 2.9418452 4.503685 v -1.5578 -1.55778 H 2.9418452 1.3800054 v -1.55779 -1.5578 H 4.503685 7.6273635 v -4.67337 -4.67337 h 1.5618396 1.5618399 v -3.11557 -3.11558 h 3.123679 3.123679 v -1.55779 -1.5578 h 1.561839 1.56184 v -1.55778 -1.55779 h -1.56184 -1.561839 v -4.67337 -4.67337 h -1.561839 -1.56184 v 1.55779 1.55778 h -1.56184 -1.561839 v 3.11559 3.11558 h 1.561839 1.56184 v 1.55779 1.55778 h -1.56184 -1.561839 v -1.55778 -1.55779 H 9.1892031 7.6273635 v 1.55779 1.55778 H 6.0655237 4.503685 v -3.11557 -3.11558 H 2.9418452 1.3800054 v -4.67337 -4.67337 h 7.8091977 7.8091979 v 1.55778 1.5578 h 1.561839 1.56184 v -1.5578 -1.55778 h 4.685519 4.685518 v -1.55779 -1.5578 h -1.56184 -1.561839 v -3.11557 -3.11558 h 1.561839 1.56184 v -1.55779 -1.55779 h -1.56184 -1.561839 v -1.55779 -1.55779 h 4.685519 4.685518 v 1.55779 1.55779 h -1.56184 -1.56184 v 3.11558 3.11558 h 1.56184 1.56184 v -1.5578 -1.55778 h 3.123678 3.12368 v 3.11558 3.11557 h -1.56184 -1.56184 v 3.11559 3.11558 h 6.247358 6.247359 v 3.11557 3.11559 h 1.561839 1.561839 v 4.67337 4.67337 H 52.920709 51.35887 v 1.55778 1.5578 h 1.561839 1.561839 v 1.55779 1.55778 H 52.920709 51.35887 v -1.55778 -1.55779 h -1.56184 -1.56184 v 1.55779 1.55778 h -1.561839 -1.56184 v -1.55778 -1.55779 h 1.56184 1.561839 v -1.5578 -1.55778 h 1.56184 1.56184 v -1.55779 -1.5578 h -3.12368 -3.123679 v -1.55778 -1.55779 h -1.561839 -1.561839 v 1.55779 1.55778 h -1.56184 -1.56184 v -3.11557 -3.11558 h 1.56184 1.56184 v -1.55779 -1.5578 h -1.56184 -1.56184 v -1.55778 -1.55779 h -1.561839 -1.561839 v 3.11557 3.11559 h -1.56184 -1.56184 v -3.11559 -3.11557 h -1.561838 -1.56184 v 3.11557 3.11559 h -1.56184 -1.561839 v -1.55779 -1.5578 h -1.561839 -1.56184 v 1.5578 1.55779 h -1.56184 -1.561839 v 1.55778 1.5578 h 7.809197 7.809198 v 1.55779 1.55778 h -1.56184 -1.56184 v 1.5578 1.55779 h 4.685519 4.685519 v 1.55778 1.5578 h -1.56184 -1.56184 v 3.11557 3.11559 h 4.685519 4.685518 v 1.55778 1.5578 h 1.56184 1.56184 v -1.5578 -1.55778 h 6.247358 6.247357 v -1.55779 -1.5578 h -3.123679 -3.123678 v -1.55778 -1.55779 h 3.123678 3.123679 v -1.5578 -1.55778 h -1.561839 -1.56184 v -3.11559 -3.11557 h -1.56184 -1.561838 v -3.11558 -3.11559 h -1.56184 -1.56184 v -1.55778 -1.55779 h 3.12368 3.123678 v 3.11557 3.11559 h 1.56184 1.561839 v -4.67337 -4.67337 h -1.561839 -1.56184 v -1.55779 -1.5578 h -1.56184 -1.561838 v -1.55778 -1.55779 h -1.56184 -1.56184 v 3.11557 3.11559 H 52.920709 51.35887 v -3.11559 -3.11557 h 1.561839 1.561839 v -1.5578 -1.55778 H 51.35887 48.23519 v -1.55779 -1.55779 h -1.561839 -1.56184 v -1.55779 -1.55779 h -1.561839 -1.561839 v 1.55779 1.55779 h -1.56184 -1.56184 v -3.11558 -3.11558 h 1.56184 1.56184 v -1.55779 -1.55779 h -1.56184 -1.56184 v -1.55779 -1.55779 h 6.247358 6.247359 v 1.55779 1.55779 h 3.123678 3.12368 v -1.55779 -1.55779 h 9.371036 9.371037 v 1.55779 1.55779 h -4.685519 -4.685518 v 1.55779 1.55779 h 1.56184 1.561839 v 1.55779 1.55779 h 1.561839 1.56184 v -1.55779 -1.55779 h 1.561839 1.56184 v 1.55779 1.55779 h 1.56184 1.561839 v 1.55779 1.55779 h -1.561839 -1.56184 v 1.55779 1.55779 h 1.56184 1.561839 v 3.11558 3.11557 h -1.561839 -1.56184 v 1.5578 1.55779 h 3.123679 3.123679 v 1.55778 1.5578 h 1.56184 1.561838 v -1.5578 -1.55778 h 1.56184 1.56184 v 1.55778 1.5578 h -1.56184 -1.56184 v 1.55779 1.55778 h 1.56184 1.56184 v 3.11559 3.11558 h 3.123678 3.12368 v -1.5578 -1.55778 h -1.56184 -1.56184 v -1.55779 -1.5578 h 1.56184 1.56184 v -1.55778 -1.55779 h -1.56184 -1.56184 v -1.5578 -1.55778 h 1.56184 1.56184 v 1.55778 1.5578 h 1.561839 1.561839 v -1.5578 -1.55778 h 1.56184 1.561837 v 1.55778 1.5578 h 1.56185 1.56183 v 1.55779 1.55778 h -1.56183 -1.56185 v 1.5578 1.55779 h -1.561837 -1.56184 v 1.55778 1.5578 h -1.561839 -1.561839 v 1.55779 1.55778 h -3.12368 -3.123678 v -1.55778 -1.55779 h -1.56184 -1.56184 v -3.11558 -3.11559 h -1.561838 -1.56184 v 4.67337 4.67337 h 1.56184 1.561838 v 1.5578 1.55779 H 82.595659 79.47198 v 1.55778 1.5578 h -1.561839 -1.56184 v -1.5578 -1.55778 h -1.56184 -1.561839 v 3.11558 3.11557 h 3.123679 3.123679 v 1.5578 1.55779 h -1.561839 -1.56184 v 1.55778 1.5578 h 3.123679 3.123679 v -1.5578 -1.55778 h 1.56184 1.561838 v -1.55779 -1.5578 h -1.561838 -1.56184 v -1.55778 -1.55779 h 1.56184 1.561838 v 1.55779 1.55778 h 1.56184 1.56184 v -3.11557 -3.11558 h 1.561839 1.561839 v 4.67337 4.67337 h 1.56184 1.56184 v 3.11558 3.11557 h 1.561839 1.561839 v -4.67337 -4.67337 h -1.561839 -1.561839 v -1.55778 -1.55779 h 1.561839 1.561839 v -3.11558 -3.11559 h 3.123677 3.12368 v 1.5578 1.55779 h -1.56183 -1.56185 v 1.55778 1.5578 h -1.561837 -1.56184 v 1.55779 1.55778 h 1.56184 1.561837 v 1.5578 1.55779 h 1.56185 1.56183 v 1.55778 1.5578 h -1.56183 -1.56185 v 1.55779 1.55778 h -1.561837 -1.56184 v 1.5578 1.55779 h 1.56184 1.561837 v 1.55778 1.5578 h 1.56185 1.56183 v 1.55779 1.55779 h -1.56183 -1.56185 v 1.55778 1.5578 h -1.561837 -1.56184 v 1.55779 1.55778 h -3.123678 -3.12368 v 1.5578 1.55779 h 3.12368 3.123678 v 1.55778 1.5578 h 1.56184 1.561837 v -3.11558 -3.11559 h 1.56185 1.56183 v 3.11559 3.11558 h -1.56183 -1.56185 v 3.11557 3.11559 h 1.56185 1.56183 v 3.11558 3.11557 h -3.12368 -3.123677 v 3.11559 3.11558 h 1.56184 1.561837 v 1.55779 1.55778 h -1.561837 -1.56184 v -1.55778 -1.55779 h -1.561839 -1.561839 v 1.55779 1.55778 h -1.56184 -1.56184 v -1.55778 -1.55779 h -3.123678 -3.12368 v 1.55779 1.55778 H 79.47198 73.224622 v -1.55778 -1.55779 h -4.685518 -4.685519 v 1.55779 1.55778 h -1.561839 -1.56184 v -3.11557 -3.11558 h 1.56184 1.561839 v -1.55779 -1.5578 h -3.123679 -3.123678 v -1.55778 -1.55779 h 4.685518 4.685518 v -1.5578 -1.55778 h -1.56184 -1.561839 v -1.55779 -1.5578 h 1.561839 1.56184 v -1.55778 -1.55779 h -4.685518 -4.685518 v 1.55779 1.55778 h -1.56184 -1.56184 v 1.5578 1.55779 H 52.920709 51.35887 v 1.55778 1.5578 h 1.561839 1.561839 v 1.55779 1.55778 H 52.920709 51.35887 v 1.5578 1.55779 h 1.561839 1.561839 v 1.55778 1.5578 h 1.56184 1.56184 v 1.55779 1.55778 h -1.56184 -1.56184 z m 24.989432,-3.11559 v -1.55778 h 1.561839 1.56184 v -1.55779 -1.5578 h 1.56184 1.561838 v 1.5578 1.55779 h 3.12368 3.123678 v -1.55779 -1.5578 h -3.123678 -3.12368 v -1.55778 -1.55779 h -1.561838 -1.56184 v 1.55779 1.55778 h -1.56184 -1.561839 v -1.55778 -1.55779 h -1.561839 -1.56184 v -1.5578 -1.55778 h -1.56184 -1.561839 v 3.11558 3.11557 h -3.123679 -3.123679 v 1.5578 1.55779 h 4.685518 4.685519 v 1.55778 1.5578 h 1.56184 1.561839 z m 21.86575,-9.34674 v -1.55778 h -4.685516 -4.685519 v 1.55778 1.5578 h 4.685519 4.685516 z M 48.23519,278.487 v -1.5578 h -1.561839 -1.56184 v 1.5578 1.55779 h 1.56184 1.561839 z m 40.607827,-3.11558 v -4.67337 H 84.157499 79.47198 v 4.67337 4.67337 h 4.685519 4.685518 z m -6.247358,0 v -1.55779 h 1.56184 1.561838 v 1.55779 1.55778 h -1.561838 -1.56184 z m 12.494716,0 v -1.55779 h -1.56184 -1.56184 v 1.55779 1.55778 h 1.56184 1.56184 z m -18.742074,-3.11559 v -1.55778 h -1.56184 -1.561839 v 1.55778 1.5578 h 1.561839 1.56184 z m -9.371037,-3.11557 v -1.5578 h -1.56184 -1.561839 v 1.5578 1.55779 h 1.561839 1.56184 z m -9.371036,-3.11558 v -1.55779 h 3.123678 3.123679 v -1.5578 -1.55778 h -4.685519 -4.685518 v 3.11558 3.11557 h 1.56184 1.56184 z m 18.742073,0 v -1.55779 h 1.56184 1.561839 v -1.5578 -1.55778 h 1.561839 1.56184 v -1.55779 -1.55779 h 1.56184 1.561838 v 3.11558 3.11558 h -1.561838 -1.56184 v 1.55779 1.55778 h 4.685518 4.685518 v -4.67337 -4.67336 h 1.56184 1.56184 v 3.11558 3.11558 h 1.561839 1.561839 v -4.67337 -4.67337 h -1.561839 -1.561839 v -1.55779 -1.5578 h -1.56184 -1.56184 v -3.11557 -3.11558 h -3.123678 -3.12368 v 1.55778 1.5578 h 1.56184 1.56184 v 1.55779 1.55778 h -1.56184 -1.56184 v 1.5578 1.55779 h -1.561838 -1.56184 v -1.55779 -1.5578 H 79.47198 76.348301 v -1.55778 -1.55779 h -1.56184 -1.561839 v -1.5578 -1.55778 h -1.56184 -1.561839 v -1.55779 -1.5578 h -1.561839 -1.56184 v -1.55778 -1.55779 h -1.56184 -1.561839 v 1.55779 1.55778 h 1.561839 1.56184 v 4.67337 4.67337 h -1.56184 -1.561839 v -1.55778 -1.55779 h -4.685519 -4.685518 v 3.11557 3.11559 H 52.920709 51.35887 v 1.55778 1.5578 h 7.809196 7.809198 v 1.55779 1.55779 h 3.123679 3.123679 v 3.11558 3.11557 h 1.561839 1.56184 z m -3.123679,-7.78895 v -3.11558 h 4.685519 4.685518 v 1.55778 1.5578 H 79.47198 76.348301 v 1.55779 1.55779 h -1.56184 -1.561839 z m 12.494715,-1.5578 v -1.55778 h 1.56184 1.56184 v -1.55779 -1.5578 h 1.561839 1.561839 v 3.11559 3.11558 h -3.123678 -3.12368 z m -24.989431,-3.11557 v -1.5578 h 1.56184 1.561839 v 1.5578 1.55779 h -1.561839 -1.56184 z m 6.247358,0 v -1.5578 h 1.56184 1.561839 v -1.55778 -1.55779 h 1.561839 1.56184 v 1.55779 1.55778 h -1.56184 -1.561839 v 1.5578 1.55779 h -1.561839 -1.56184 z m -53.102542,9.34673 v -1.55778 h -1.56184 -1.561839 v 1.55778 1.5578 h 1.561839 1.56184 z m 34.360468,-9.34673 v -1.5578 h -1.561839 -1.56184 v 1.5578 1.55779 h 1.56184 1.561839 z m -24.989431,-6.23117 v -1.55778 h 1.56184 1.561839 v 1.55778 1.5578 h 3.123679 3.123678 v -1.5578 -1.55778 h 1.56184 1.56184 v -1.55779 -1.5578 h -3.12368 -3.123678 v -1.55778 -1.55779 H 24.807599 20.12208 v -1.5578 -1.55778 h 4.685519 4.685518 v -1.55779 -1.5578 H 24.807599 20.12208 v 1.5578 1.55779 h -1.56184 -1.561839 v 1.55778 1.5578 h 1.561839 1.56184 v 1.55779 1.55778 h 1.561839 1.56184 v 1.5578 1.55779 h -1.56184 -1.561839 v 1.55778 1.5578 h 1.561839 1.56184 z m 43.731505,-12.46231 v -1.5578 h 1.56184 1.561839 v 1.5578 1.55779 h 1.561839 1.56184 v -1.55779 -1.5578 h 1.561839 1.56184 v 1.5578 1.55779 h 1.56184 1.561839 v -1.55779 -1.5578 h -1.561839 -1.56184 v -3.11557 -3.11558 h 1.56184 1.561839 v -1.55779 -1.5578 h 1.561839 1.56184 v -1.55778 -1.55779 h -1.56184 -1.561839 v 1.55779 1.55778 h -3.123679 -3.123679 v -3.11557 -3.11558 h -3.123679 -3.123679 v 4.67337 4.67337 h 1.56184 1.561839 v -1.55779 -1.5578 h 1.561839 1.56184 v 4.67337 4.67337 h -1.56184 -1.561839 v -1.55778 -1.55779 h -3.123679 -3.123679 v 3.11557 3.11559 h 1.561839 1.56184 z M 48.23519,228.63771 v -1.55778 h -1.561839 -1.56184 v 1.55778 1.5578 h 1.56184 1.561839 z m 49.978863,-3.11557 v -1.5578 h -1.561839 -1.561839 v 1.5578 1.55779 h 1.561839 1.561839 z M 7.6273635,222.40656 v -1.55779 H 6.0655237 4.503685 v 1.55779 1.55778 h 1.5618387 1.5618398 z m 15.6183955,0 v -1.55779 h -1.56184 -1.561839 v 1.55779 1.55778 h 1.561839 1.56184 z m 12.494716,-3.11559 v -1.55778 h -1.56184 -1.56184 v 1.55778 1.5578 h 1.56184 1.56184 z m -3.12368,-6.23115 v -1.55779 h -1.561838 -1.56184 v 1.55779 1.55778 h 1.56184 1.561838 z m 6.247358,0 v -1.55779 h -1.561839 -1.561839 v 1.55779 1.55778 h 1.561839 1.561839 z m 24.989432,-1.55779 v -3.11558 h -3.123679 -3.123678 v 1.55778 1.5578 h 1.561838 1.56184 v 1.55779 1.55778 h 1.56184 1.561839 z m 6.247358,0 v -3.11558 h 1.561839 1.56184 v 3.11558 3.11557 h 1.561839 1.56184 v -3.11557 -3.11558 h -1.56184 -1.561839 v -1.55779 -1.55779 h -1.56184 -1.561839 v -1.55779 -1.55779 h -3.123679 -3.123679 v -3.11558 -3.11558 h -1.561839 -1.56184 v 4.67337 4.67337 h 4.685518 4.685519 v 1.55779 1.55779 h -1.561839 -1.56184 v 3.11558 3.11557 h 1.56184 1.561839 z m -15.618395,-7.78895 v -1.55779 h 1.56184 1.56184 v -1.55779 -1.55779 h -3.12368 -3.123678 v 3.11558 3.11558 h 1.561839 1.561839 z M 48.23519,200.5975 v -1.55779 h -1.561839 -1.56184 v 1.55779 1.55779 h 1.56184 1.561839 z m -15.618395,81.00507 v -1.55778 h 1.56184 1.56184 v 1.55778 1.5578 h -1.56184 -1.56184 z m -6.247357,-17.13568 v -3.11558 h 3.123679 3.123678 v 1.55778 1.5578 h -1.561838 -1.56184 v 1.55779 1.55778 h -1.56184 -1.561839 z M 1.3800054,247.33119 v -1.55778 H 2.9418452 4.503685 v 1.55778 1.5578 H 2.9418452 1.3800054 Z m 0,-7.78894 v -3.11558 H 2.9418452 4.503685 v 3.11558 3.11557 H 2.9418452 1.3800054 Z M 45.111511,214.6176 v -3.11557 h 1.56184 1.561839 v 3.11557 3.11559 h -1.561839 -1.56184 z M 1.3800054,203.71308 V 192.80855 H 12.312882 23.245759 v 10.90453 10.90452 H 12.312882 1.3800054 Z m 18.7420746,0 v -7.78895 H 12.312882 4.503685 v 7.78895 7.78895 h 7.809197 7.809198 z m -12.4947165,0 v -4.67337 h 4.6855185 4.685519 v 4.67337 4.67337 H 12.312882 7.6273635 Z m 74.9682955,0 v -10.90453 h 10.932876 10.932875 v 10.90453 10.90452 H 93.528535 82.595659 Z m 18.742071,0 v -7.78895 h -7.809195 -7.809198 v 7.78895 7.78895 h 7.809198 7.809195 z m -12.494713,0 v -4.67337 h 4.685518 4.685518 v 4.67337 4.67337 h -4.685518 -4.685518 z m -62.473579,-6.23116 v -1.55779 h 1.561839 1.56184 v 1.55779 1.55779 h -1.56184 -1.561839 z m 6.247357,-1.55779 v -3.11558 h 1.56184 1.56184 v 3.11558 3.11558 h -1.56184 -1.56184 z"
       id="path1675"
       inkscape:connector-curvature="0" />
  </g>
</svg>
