<?xml version="1.0" encoding="UTF-8" standalone="no"?>
<!-- Created with Inkscape (http://www.inkscape.org/) -->

<svg
   xmlns:dc="http://purl.org/dc/elements/1.1/"
   xmlns:cc="http://creativecommons.org/ns#"
   xmlns:rdf="http://www.w3.org/1999/02/22-rdf-syntax-ns#"
   xmlns:svg="http://www.w3.org/2000/svg"
   xmlns="http://www.w3.org/2000/svg"
   xmlns:sodipodi="http://sodipodi.sourceforge.net/DTD/sodipodi-0.dtd"
   xmlns:inkscape="http://www.inkscape.org/namespaces/inkscape"
   width="400"
   height="400"
   viewBox="0 0 105.83333 105.83333"
   version="1.1"
   id="svg921"
   inkscape:version="0.92.3 (2405546, 2018-03-11)"
   sodipodi:docname="waiariaqr.svg">
  <defs
     id="defs915" />
  <sodipodi:namedview
     id="base"
     pagecolor="#ffffff"
     bordercolor="#666666"
     borderopacity="1.0"
     inkscape:pageopacity="0.0"
     inkscape:pageshadow="2"
     inkscape:zoom="0.98994949"
     inkscape:cx="186.35607"
     inkscape:cy="291.96815"
     inkscape:document-units="mm"
     inkscape:current-layer="layer1"
     showgrid="false"
     units="px"
     inkscape:window-width="1920"
     inkscape:window-height="1017"
     inkscape:window-x="-8"
     inkscape:window-y="-8"
     inkscape:window-maximized="1" />
  <metadata
     id="metadata918">
    <rdf:RDF>
      <cc:Work
         rdf:about="">
        <dc:format>image/svg+xml</dc:format>
        <dc:type
           rdf:resource="http://purl.org/dc/dcmitype/StillImage" />
        <dc:title></dc:title>
      </cc:Work>
    </rdf:RDF>
  </metadata>
  <g
     inkscape:label="Layer 1"
     inkscape:groupmode="layer"
     id="layer1"
     transform="translate(0,-191.16667)">
    <path
       style="fill:#000000;stroke-width:0.29338366"
       d="m 1.668768,282.48802 v -12.306 h 12.338253 12.338254 v 12.306 12.30599 H 14.007021 1.668768 Z m 21.151292,0 v -8.79 H 14.007021 5.1939833 v 8.79 8.78999 h 8.8130377 8.813039 z m -14.1008615,0 v -5.274 h 5.2878225 5.287823 v 5.274 5.27399 H 14.007021 8.7191985 Z m 21.1512915,3.51599 v -8.78999 h 1.762608 1.762607 v 3.516 3.516 h 1.762608 1.762608 v 3.51599 3.516 h 1.762607 1.762608 v 1.758 1.758 H 35.158313 29.87049 Z m 17.626075,7.032 v -1.758 h -1.762607 -1.762607 v -1.758 -1.758 h 1.762607 1.762607 v -1.758 -1.75799 h -3.525214 -3.525215 v -1.758 -1.758 h -1.762608 -1.762607 v -5.274 -5.274 h -1.762608 -1.762608 v 1.758 1.758 H 31.633098 29.87049 v -3.516 -3.516 h -5.287823 -5.287823 v -1.758 -1.758 h 3.525216 3.525215 v -1.758 -1.758 H 24.582667 22.82006 v -1.758 -1.758 h 1.762607 1.762608 v -1.758 -1.758 h -5.287823 -5.287823 v -1.758 -1.75798 h 5.287823 5.287823 v -1.758 -1.758 H 24.582667 22.82006 v -1.758 -1.758 h 3.525215 3.525215 v 1.758 1.758 h 1.762608 1.762607 v -10.548 -10.548 H 28.107882 22.82006 v -1.758 -1.758 h 8.813038 8.813038 v 1.758 1.758 h -1.762608 -1.762607 v 3.516 3.516 h 1.762607 1.762608 v -1.758 -1.758 h 3.525215 3.525214 v 1.758 1.758 h -1.762607 -1.762607 v 3.516 3.516 h 1.762607 1.762607 v -1.758 -1.758 h 1.762608 1.762607 v -3.516 -3.516 h 3.525216 3.525215 v -1.758 -1.758 H 51.02178 43.971351 v -5.274 -5.274 h 1.762607 1.762607 v -1.758 -1.75799 h -1.762607 -1.762607 v -1.758 -1.758 h -1.762608 -1.762607 v 5.27399 5.274 h -1.762608 -1.762607 v -5.274 -5.27399 H 33.395705 29.87049 v -1.758 -1.758 h 1.762608 1.762607 v -1.758 -1.758 H 31.633098 29.87049 v -1.758 -1.758 h 1.762608 1.762607 v -1.758 -1.758 h 1.762608 1.762608 v 3.516 3.516 h 1.762607 1.762608 v -1.758 -1.758 h 3.525215 3.525214 v -1.758 -1.758 h 1.762608 1.762607 v 1.758 1.758 h -1.762607 -1.762608 v 1.758 1.758 h -1.762607 -1.762607 v 3.516 3.516 h 1.762607 1.762607 v -1.758 -1.758 h 1.762608 1.762607 v -1.758 -1.758 h 1.762608 1.762608 v -1.758 -1.758 h 1.762607 1.762608 v -1.758 -1.758 h 1.762608 1.762607 v 1.758 1.758 h 1.762608 1.762607 v 1.758 1.758 h -1.762607 -1.762608 v 1.758 1.758 h 1.762608 1.762607 v 1.758 1.758 h 1.762608 1.762608 v -3.516 -3.516 h 1.762607 1.762608 v -1.758 -1.758 h -1.762608 -1.762607 v -1.758 -1.758 h 3.525215 3.525215 v 5.274 5.274 H 73.93568 72.173072 v 3.516 3.516 h -1.762608 -1.762607 v 3.51599 3.516 h 1.762607 1.762608 v -1.758 -1.758 h 1.762608 1.762607 v 1.758 1.758 H 73.93568 72.173072 v 1.758 1.758 h 3.525215 3.525215 v 1.758 1.758 h 1.762608 1.762608 v -1.758 -1.758 h 1.762607 1.762608 v 1.758 1.758 h 1.762608 1.762605 v -1.758 -1.758 h 1.762608 1.762607 v 1.758 1.758 h -1.762607 -1.762608 v 1.758 1.758 h -5.287821 -5.287823 v -1.758 -1.758 h -1.762607 -1.762608 v 1.758 1.758 H 73.93568 72.173072 v -3.516 -3.516 h -1.762608 -1.762607 v -1.758 -1.758 h -1.762608 -1.762608 v -5.274 -5.27399 h -1.762607 -1.762608 v 5.27399 5.274 h -1.762607 -1.762608 v -1.758 -1.758 h -1.762608 -1.762607 v 3.516 3.516 h 1.762607 1.762608 v 1.758 1.758 h 1.762608 1.762607 v -1.758 -1.758 h 1.762608 1.762607 v 1.758 1.758 h 1.762608 1.762608 v 3.516 3.516 h -1.762608 -1.762608 v -1.758 -1.758 h -1.762607 -1.762608 v 1.758 1.758 h -1.762607 -1.762608 v 3.516 3.516 h 1.762608 1.762607 v -1.758 -1.758 h 3.525215 3.525216 v 3.516 3.516 h -5.287823 -5.287823 v 1.758 1.758 h -1.762608 -1.762607 v 1.758 1.758 h 5.287823 5.287822 v 1.75798 1.758 h 1.762608 1.762608 v -3.51598 -3.516 h 1.762607 1.762608 v -7.032 -7.032 h 1.762608 1.762607 v 1.758 1.758 h 1.762608 1.762607 v -1.758 -1.758 h 3.525216 3.525215 v 1.758 1.758 h -3.525215 -3.525216 v 1.758 1.758 h 1.762608 1.762608 v 1.758 1.758 h 1.762607 1.762608 v -1.758 -1.758 h 1.762608 1.762605 v -3.516 -3.516 h 1.762608 1.762607 v 1.758 1.758 h 1.762608 1.762608 v -1.758 -1.758 h 1.762607 1.762606 v 1.758 1.758 h -1.762606 -1.762607 v 1.758 1.758 h -3.525216 -3.525215 v 1.758 1.758 h 3.525215 3.525216 v 1.758 1.758 h 1.762607 1.762606 v 1.758 1.758 h -1.762606 -1.762607 v 5.27398 5.274 h 1.762607 1.762606 v 1.758 1.758 h 1.76261 1.76261 v 3.516 3.516 h -3.52522 -3.525213 v 1.758 1.758 h -3.525216 -3.525215 v 3.516 3.516 h 1.762608 1.762607 v -1.758 -1.758 h 1.762608 1.762608 v 1.758 1.758 h 1.762607 1.762606 v -1.758 -1.758 h 1.76261 1.76261 v 3.516 3.516 h -1.76261 -1.76261 v 3.51599 3.516 h -1.762606 -1.762607 v 1.758 1.758 h -8.813036 -8.813039 v -3.516 -3.516 h -1.762607 -1.762608 v 1.758 1.758 H 73.93568 72.173072 v 1.758 1.758 h -1.762608 -1.762607 v -3.516 -3.516 h -1.762608 -1.762608 v -1.758 -1.75799 h -1.762607 -1.762608 v 1.75799 1.758 h -1.762607 -1.762608 v 3.516 3.516 h -1.762608 -1.762607 v -3.516 -3.516 H 51.02178 47.496565 v 1.758 1.758 h 1.762608 1.762607 v 1.758 1.758 h -1.762607 -1.762608 z m 42.302581,-3.516 v -1.758 h -1.762605 -1.762608 v 1.758 1.758 h 1.762608 1.762605 z m 7.050431,0 v -1.758 h -1.762608 -1.762608 v 1.758 1.758 h 1.762608 1.762608 z m -21.15129,-3.516 v -1.75799 h 3.525215 3.525216 v -1.758 -1.758 h -3.525216 -3.525215 v 1.758 1.758 H 73.93568 72.173072 v -3.516 -3.516 h -3.525215 -3.525216 v -1.758 -1.758 h -1.762607 -1.762608 v 1.758 1.758 H 56.309603 51.02178 v -1.758 -1.758 h 1.762608 1.762608 v -1.758 -1.758 h 1.762607 1.762608 v -1.758 -1.758 h -1.762608 -1.762607 v -1.758 -1.758 H 52.784388 51.02178 v -3.516 -3.516 h 3.525216 3.525215 v 3.516 3.516 h 3.525215 3.525215 v 1.758 1.758 h -1.762607 -1.762608 v 1.758 1.758 h 5.287823 5.287823 v -3.516 -3.516 h -1.762608 -1.762607 v -1.758 -1.758 h 1.762607 1.762608 v -1.758 -1.758 h 1.762608 1.762607 v 1.758 1.758 h 1.762608 1.762607 v -1.758 -1.758 h -1.762607 -1.762608 v -3.516 -3.51598 h 1.762608 1.762607 v 1.75798 1.758 h 1.762608 1.762608 v -1.758 -1.75798 H 80.98611 79.223502 v -1.758 -1.758 h 1.762608 1.762608 v -1.758 -1.758 H 80.98611 79.223502 v -1.758 -1.758 h -1.762607 -1.762608 v 1.758 1.758 h 1.762608 1.762607 v 1.758 1.758 h -1.762607 -1.762608 v 1.758 1.758 H 73.93568 72.173072 v 3.51598 3.516 h -1.762608 -1.762607 v 1.758 1.758 h -1.762608 -1.762608 v -3.516 -3.516 h -1.762607 -1.762608 v 1.758 1.758 h -1.762607 -1.762608 v -1.758 -1.758 h -1.762608 -1.762607 v -1.758 -1.75798 H 52.784388 51.02178 v -1.758 -1.758 h 1.762608 1.762608 v -1.758 -1.758 h 1.762607 1.762608 v -1.758 -1.758 h -1.762608 -1.762607 v 1.758 1.758 H 52.784388 51.02178 v -1.758 -1.758 h -1.762607 -1.762608 v 1.758 1.758 h -1.762607 -1.762607 v -1.758 -1.758 h -1.762608 -1.762607 v -1.758 -1.758 h -1.762608 -1.762607 v 1.758 1.758 h 1.762607 1.762608 v 8.79 8.78998 h -1.762608 -1.762607 v -1.758 -1.758 H 33.395705 29.87049 v 1.758 1.758 h 3.525215 3.525216 v 3.516 3.516 h -1.762608 -1.762608 v 1.758 1.758 h 1.762608 1.762608 v 1.758 1.758 h 1.762607 1.762608 v 1.758 1.758 h 1.762607 1.762608 v 1.758 1.758 h 3.525214 3.525215 v 3.516 3.516 h 5.287823 5.287823 v -3.516 -3.516 h 1.762608 1.762607 v 1.758 1.758 h 1.762608 1.762608 v 3.516 3.51599 h 3.525215 3.525215 z M 43.971351,268.42402 v -1.758 h -1.762608 -1.762607 v -5.274 -5.274 h 3.525215 3.525214 v -1.758 -1.758 h -1.762607 -1.762607 v -3.51598 -3.516 h 1.762607 1.762607 v -1.758 -1.758 h 1.762608 1.762607 v 1.758 1.758 h -1.762607 -1.762608 v 1.758 1.758 h 1.762608 1.762607 v 3.51598 3.516 h -1.762607 -1.762608 v 1.758 1.758 h -1.762607 -1.762607 v 1.758 1.758 h 3.525214 3.525215 v 1.758 1.758 h 1.762608 1.762608 v 1.758 1.758 H 52.784388 51.02178 v -1.758 -1.758 h -1.762607 -1.762608 v 1.758 1.758 h -1.762607 -1.762607 z m 45.827795,14.064 v -1.758 h -1.762605 -1.762608 v 1.758 1.758 h 1.762608 1.762605 z m -3.525213,-10.548 v -5.274 H 80.98611 75.698287 v 5.274 5.274 h 5.287823 5.287823 z m -7.050431,0 v -1.758 h 1.762608 1.762608 v 1.758 1.758 H 80.98611 79.223502 Z m 14.100859,-7.032 v -1.758 h 1.762608 1.762608 v -1.758 -1.758 h -1.762608 -1.762608 v -3.516 -3.516 h -1.762607 -1.762608 v -1.758 -1.75798 h 3.525215 3.525216 v -1.758 -1.758 h -3.525216 -3.525215 v -1.758 -1.758 h -1.762605 -1.762608 v 1.758 1.758 h 1.762608 1.762605 v 1.758 1.758 h -1.762605 -1.762608 v 1.75798 1.758 h 1.762608 1.762605 v 1.758 1.758 h -1.762605 -1.762608 v 1.758 1.758 h 1.762608 1.762605 v 3.516 3.516 h 1.762608 1.762607 z m -56.40344,-17.57998 v -1.758 h -1.762608 -1.762608 v 1.758 1.758 h 1.762608 1.762608 z m 14.100859,-29.886 v -3.516 h 1.762608 1.762608 v -1.758 -1.75799 h 1.762607 1.762608 v -1.758 -1.758 h -5.287823 -5.287823 v 1.758 1.758 h 1.762608 1.762607 v 1.75799 1.758 h -1.762607 -1.762608 v 3.516 3.516 h 1.762608 1.762607 z M 40.446136,205.13605 v -1.758 h -1.762608 -1.762607 v 1.758 1.758 h 1.762607 1.762608 z m 21.15129,-7.032 v -1.758 h -1.762607 -1.762608 v 1.758 1.758 h 1.762608 1.762607 z m 0,94.93196 v -1.758 h 1.762608 1.762607 v 1.758 1.758 H 63.360034 61.597426 Z M 1.668768,257.87602 v -8.78998 h 1.7626076 1.7626077 v -3.516 -3.516 h 1.7626076 1.7626076 v -1.758 -1.758 H 5.1939833 1.668768 v -1.758 -1.758 h 1.7626076 1.7626077 v -3.516 -3.516 H 3.4313756 1.668768 v -3.516 -3.516 h 8.813038 8.813038 v 1.758 1.758 h -7.05043 -7.0504307 v 1.758 1.758 h 1.7626076 1.7626076 v 1.758 1.758 h 1.7626075 1.762608 v -1.758 -1.758 h 1.762607 1.762608 v 3.516 3.516 h 1.762608 1.762607 v -1.758 -1.758 h 1.762608 1.762608 v -1.758 -1.758 h 3.525215 3.525215 v 3.516 3.516 h -1.762608 -1.762607 v 1.758 1.758 H 22.82006 19.294844 v 3.516 3.516 h -1.762607 -1.762608 v -1.758 -1.758 H 12.244414 8.7191985 v 3.516 3.516 h 1.7626075 1.762608 v 1.75798 1.758 H 10.481806 8.7191985 v 1.758 1.758 h 3.5252155 3.525215 v 3.516 3.516 h -1.762608 -1.762607 v 1.758 1.758 H 10.481806 8.7191985 v -5.274 -5.274 H 6.9565909 5.1939833 v 5.274 5.274 H 3.4313756 1.668768 Z m 14.100861,-21.09598 v -1.758 H 12.244414 8.7191985 v 1.758 1.758 h 3.5252155 3.525215 z m 10.575646,-3.516 v -1.758 H 24.582667 22.82006 v 1.758 1.758 h 1.762607 1.762608 z m 74.029515,21.09598 v -1.758 h 1.76261 1.76261 v 1.758 1.758 h -1.76261 -1.76261 z m 0,-14.06398 v -1.758 h 1.76261 1.76261 v 1.758 1.758 h -1.76261 -1.76261 z m 0,-14.064 v -1.758 h -1.762606 -1.762607 v -1.758 -1.758 h 1.762607 1.762606 v 1.758 1.758 h 1.76261 1.76261 v 1.758 1.758 h -1.76261 -1.76261 z M 1.668768,205.13605 v -12.306 h 12.338253 12.338254 v 12.306 12.30599 H 14.007021 1.668768 Z m 21.151292,0 v -8.79 H 14.007021 5.1939833 v 8.79 8.78999 h 8.8130377 8.813039 z m -14.1008615,0 v -5.274 h 5.2878225 5.287823 v 5.274 5.274 H 14.007021 8.7191985 Z m 21.1512915,8.78999 v -3.51599 h 1.762608 1.762607 v 3.51599 3.516 H 31.633098 29.87049 Z m 49.353012,-8.78999 v -12.306 h 12.338252 12.338256 v 12.306 12.30599 H 91.561754 79.223502 Z m 21.151288,0 v -8.79 h -8.813036 -8.813036 v 8.79 8.78999 h 8.813036 8.813036 z m -14.100857,0 v -5.274 h 5.287821 5.287823 v 5.274 5.274 h -5.287823 -5.287821 z"
       id="path1662"
       inkscape:connector-curvature="0" />
  </g>
</svg>
