<?xml version="1.0" encoding="UTF-8" standalone="no"?>
<!-- Created with Inkscape (http://www.inkscape.org/) -->

<svg
   xmlns:dc="http://purl.org/dc/elements/1.1/"
   xmlns:cc="http://creativecommons.org/ns#"
   xmlns:rdf="http://www.w3.org/1999/02/22-rdf-syntax-ns#"
   xmlns:svg="http://www.w3.org/2000/svg"
   xmlns="http://www.w3.org/2000/svg"
   xmlns:xlink="http://www.w3.org/1999/xlink"
   xmlns:sodipodi="http://sodipodi.sourceforge.net/DTD/sodipodi-0.dtd"
   xmlns:inkscape="http://www.inkscape.org/namespaces/inkscape"
   width="150mm"
   height="70mm"
   viewBox="0 0 150 70"
   version="1.1"
   id="svg1487"
   inkscape:version="0.92.3 (2405546, 2018-03-11)"
   sodipodi:docname="wcag.svg">
  <defs
     id="defs1481">
    <linearGradient
       inkscape:collect="always"
       id="linearGradient2162">
      <stop
         style="stop-color:#ff6600;stop-opacity:1"
         offset="0"
         id="stop2158" />
      <stop
         id="stop2166"
         offset="0.70703846"
         style="stop-color:#ffff00;stop-opacity:1" />
      <stop
         style="stop-color:#ffffff;stop-opacity:1"
         offset="1"
         id="stop2160" />
    </linearGradient>
    <linearGradient
       inkscape:collect="always"
       xlink:href="#linearGradient2162"
       id="linearGradient2164"
       x1="80.947746"
       y1="101.28368"
       x2="79.909782"
       y2="171.28391"
       gradientUnits="userSpaceOnUse" />
  </defs>
  <sodipodi:namedview
     id="base"
     pagecolor="#ffffff"
     bordercolor="#666666"
     borderopacity="1.0"
     inkscape:pageopacity="0.0"
     inkscape:pageshadow="2"
     inkscape:zoom="0.7"
     inkscape:cx="582.67698"
     inkscape:cy="470.59459"
     inkscape:document-units="mm"
     inkscape:current-layer="layer1"
     showgrid="false"
     inkscape:window-width="1920"
     inkscape:window-height="1017"
     inkscape:window-x="-8"
     inkscape:window-y="-8"
     inkscape:window-maximized="1" />
  <metadata
     id="metadata1484">
    <rdf:RDF>
      <cc:Work
         rdf:about="">
        <dc:format>image/svg+xml</dc:format>
        <dc:type
           rdf:resource="http://purl.org/dc/dcmitype/StillImage" />
        <dc:title />
      </cc:Work>
    </rdf:RDF>
  </metadata>
  <g
     inkscape:label="Layer 1"
     inkscape:groupmode="layer"
     id="layer1"
     transform="translate(0,-227)">
    <path
       style="fill:#000000;stroke-width:0.26458332"
       d="m 57.715737,276.14702 c -4.179975,-1.09039 -7.444568,-4.75227 -8.405093,-9.42796 -0.179364,-0.87313 -0.37623,-1.75472 -0.437476,-1.9591 -0.06195,-0.20671 -0.906994,0.84986 -1.904529,2.38125 -2.037913,3.12857 -3.366997,4.73722 -3.913933,4.73722 -0.206457,0 -0.892411,0.47659 -1.524342,1.05908 -1.025652,0.94541 -1.493104,1.14419 -4.35543,1.85209 -1.763557,0.43615 -3.912185,0.793 -4.77473,0.793 -1.426394,0 -1.630227,-0.0736 -2.25324,-0.81405 -0.395055,-0.4695 -0.684978,-1.14142 -0.684978,-1.5875 0,-0.97299 -0.170238,-0.9687 -1.200874,0.0302 -0.673683,0.65296 -1.420354,0.9503 -3.981347,1.58543 -1.761771,0.43691 -3.871186,0.78265 -4.78228,0.78381 -1.51391,0.002 -1.681476,-0.059 -2.350379,-0.85389 l -0.720252,-0.85597 0.201372,-3.84039 c 0.110755,-2.11221 0.275456,-8.54892 0.366004,-14.3038 0.148954,-9.46705 0.210039,-10.53265 0.641489,-11.19045 0.584289,-0.89083 0.912234,-1.01912 4.705521,-1.84077 6.821491,-1.47758 8.767933,-1.49094 9.126414,-0.0626 0.205222,0.81767 0.158792,0.81709 3.860144,0.0476 5.196308,-1.08029 7.008331,-1.29975 8.007967,-0.96984 1.077669,0.35567 1.207606,0.64389 1.398542,3.10218 l 0.14804,1.90599 1.017471,-1.27789 c 1.678144,-2.10766 1.765464,-2.13934 8.164362,-2.96225 3.01852,-0.38818 4.713954,-0.21082 5.290444,0.55345 0.442357,0.58645 0.465426,0.58834 2.276602,0.18701 8.880029,-1.96768 14.844417,-0.92715 18.727627,3.26718 1.45922,1.57613 1.84443,2.58137 1.55979,4.0704 -0.0919,0.48054 -0.43252,0.90684 -0.94391,1.18122 -0.44009,0.23612 -1.22698,0.80227 -1.74865,1.2581 -0.52166,0.45584 -2.46364,1.6167 -4.315508,2.57969 -4.46934,2.32411 -5.90094,2.33753 -7.672658,0.0719 -1.899947,-2.42956 -4.430462,-0.96589 -5.213793,3.01571 -0.393245,1.99883 -0.01024,3.56007 1.22831,5.00705 l 0.927092,1.0831 0.912603,-0.53845 c 0.613312,-0.36186 1.379765,-0.53845 2.337068,-0.53845 0.78347,0 1.498058,-0.11906 1.587998,-0.26458 0.33701,-0.5453 2.65988,-0.29471 3.67899,0.39687 0.53609,0.3638 1.05872,0.66092 1.1614,0.66026 0.10268,-5.3e-4 0.83245,-1.27393 1.621698,-2.82949 2.33244,-4.59706 8.93442,-14.11541 12.01891,-17.32815 0.88343,-0.92016 1.45321,-1.28094 2.20321,-1.39502 0.55639,-0.0846 1.82049,-0.29035 2.80911,-0.45713 0.98862,-0.16679 2.85963,-0.31294 4.1578,-0.32478 3.2592,-0.0297 3.470797,0.19018 3.643987,3.78687 l 0.12793,2.65671 1.72966,-1.58491 c 1.96541,-1.80095 5.15286,-3.51821 7.25071,-3.90638 3.66397,-0.67795 5.07826,-0.84152 7.27591,-0.84152 5.04633,0 9.42732,1.90462 11.74713,5.10702 0.96444,1.33138 1.07756,3.31293 0.23709,4.1534 -0.29104,0.29104 -0.64789,0.52916 -0.79299,0.52916 -0.1451,0 -0.71065,0.39734 -1.25677,0.88297 -0.54612,0.48563 -2.4217,1.64391 -4.16795,2.57396 -2.93607,1.56373 -3.30177,1.69141 -4.85958,1.69671 -1.6453,0.006 -1.70698,-0.0197 -2.64583,-1.08689 -0.52869,-0.60095 -1.23613,-1.23395 -1.57209,-1.40668 -0.7908,-0.40658 -1.9625,-0.14088 -2.62297,0.5948 -1.20613,1.34346 -1.95014,4.7246 -1.40386,6.37982 0.3696,1.11991 1.48429,2.53615 1.99615,2.53615 0.57952,0 1.3175,-1.15909 1.84298,-2.89461 0.62616,-2.06809 1.69621,-3.08418 3.49935,-3.32291 0.69736,-0.0923 1.86325,-0.27195 2.59085,-0.39917 0.7276,-0.12722 2.5237,-0.36189 3.99132,-0.5215 3.05593,-0.33233 3.94107,-0.13682 4.35917,0.96287 0.31464,0.82757 0.33192,0.74015 -1.71727,8.68886 -1.23487,4.78999 -1.61801,5.92626 -2.16345,6.41614 -0.36455,0.32743 -0.83841,0.59532 -1.05303,0.59532 -0.21461,0 -0.75462,0.41505 -1.20003,0.92235 -0.46809,0.53312 -1.21834,1.02843 -1.77786,1.17373 -3.10224,0.80562 -11.96015,1.06695 -14.40369,0.42494 -2.80802,-0.73777 -5.26214,-2.43717 -6.565887,-4.54669 l -0.55819,-0.90317 -0.61163,0.65997 c -0.3364,0.36298 -0.91318,0.73565 -1.28172,0.82814 -0.36855,0.0925 -0.85607,0.45203 -1.08338,0.79895 -0.22731,0.34692 -0.73959,0.79698 -1.1384,1.00013 -1.10549,0.56313 -6.52327,1.75831 -7.97043,1.75831 -1.70051,0 -2.67656,-0.73063 -2.67656,-2.00358 0,-1.15835 -0.39452,-1.14859 -1.42717,0.0353 -0.73744,0.84546 -1.1477,1.0253 -3.99679,1.75204 -1.74625,0.44542 -3.874048,0.82416 -4.728448,0.84164 -1.46802,0.03 -1.59898,-0.0203 -2.38125,-0.91515 l -0.8278,-0.94693 -1.374008,0.629 c -3.047939,1.39529 -7.656452,1.77598 -10.98578,0.90749 z m 10.14551,-3.8559 c 0.964958,-0.20454 2.374688,-0.68617 3.132718,-1.0703 1.40384,-0.71137 3.78892,-2.70733 3.6539,-3.05777 -0.10919,-0.28338 -3.9239,-3.42837 -4.15844,-3.42837 -0.10978,0 -0.42641,0.25494 -0.70362,0.56654 -1.236998,1.3904 -4.377403,1.98401 -6.283274,1.18768 -1.928804,-0.8059 -3.613462,-3.7789 -3.613462,-6.37686 0,-1.50705 0.675722,-3.95243 1.521635,-5.50665 1.341604,-2.46497 4.177146,-4.15821 6.963453,-4.15821 2.050358,0 3.372928,0.69283 4.561258,2.38941 l 0.44652,0.63749 3.440018,-1.70376 c 1.89202,-0.93707 3.44003,-1.84337 3.44003,-2.014 0,-0.49093 -2.37561,-3.0031 -3.52744,-3.73022 -2.521478,-1.59174 -7.330838,-2.36774 -10.4837,-1.69158 -4.799174,1.02924 -9.242806,5.39565 -10.932882,10.74287 -0.802992,2.54059 -0.807368,7.91753 -0.0084,10.34632 0.635804,1.93283 2.159804,4.3103 3.332649,5.19899 2.485673,1.88346 5.570572,2.44175 9.219057,1.66842 z m 11.255076,-0.29013 c 3.99397,-0.93554 3.91334,-0.88581 4.56621,-2.81626 0.311,-0.91956 1.00805,-2.50536 1.54901,-3.52401 l 0.98356,-1.85208 2.60574,-0.13229 c 1.43316,-0.0728 2.65053,-0.0593 2.70526,0.03 0.0547,0.0893 -0.49352,1.93249 -1.21834,4.09607 -0.72481,2.16358 -1.28733,4.01135 -1.25004,4.10616 0.0817,0.20777 6.58425,-1.32363 6.91367,-1.62823 0.12721,-0.11763 0.57372,-2.15766 0.99225,-4.53341 1.48467,-8.42762 1.61044,-9.74684 1.51325,-15.87324 -0.05,-3.15307 -0.15048,-5.78462 -0.22324,-5.84788 -0.0728,-0.0633 -1.20386,-0.057 -2.51355,0.0139 l -2.38125,0.12891 -1.43799,1.68457 c -4.4777,5.24551 -9.43443,12.87962 -12.83963,19.77496 -2.53004,5.12317 -3.33998,7.04403 -2.97016,7.04403 0.0769,0 1.42925,-0.30203 3.00525,-0.67119 z m 12.95451,-12.60509 c -0.29672,-0.16733 -1.10742,-0.20938 -2.02834,-0.10519 -0.84373,0.0955 -1.58659,0.0795 -1.65078,-0.0355 -0.12663,-0.22681 4.4864,-8.04923 5.07318,-8.60272 0.70051,-0.66075 -0.0254,8.04287 -0.73732,8.84019 -0.0894,0.10008 -0.38489,0.0565 -0.65674,-0.0968 z m 22.314147,13.01829 c 1.08226,-0.15641 1.76898,-0.15439 1.86779,0.005 0.0975,0.15772 1.28856,0.10347 3.16643,-0.1442 1.65559,-0.21837 3.04292,-0.39703 3.08295,-0.39703 0.04,0 0.2,-0.50601 0.35552,-1.12448 0.99637,-3.96248 2.00635,-7.77671 2.56441,-9.68456 0.35556,-1.21555 0.60681,-2.24974 0.55834,-2.29821 -0.0485,-0.0485 -1.45502,0.0818 -3.12568,0.28946 -1.67065,0.20768 -3.12338,0.37866 -3.22829,0.37998 -0.1049,10e-4 -0.55945,1.18923 -1.01011,2.63979 -0.65079,2.09475 -0.99261,2.78348 -1.66135,3.34739 -2.36423,1.99363 -5.77581,1.9633 -7.70114,-0.0685 -2.34895,-2.4788 -2.62503,-6.43669 -0.72368,-10.37499 1.60957,-3.33396 5.6353,-5.2221 9.08896,-4.26288 0.62873,0.17462 1.36621,0.71356 2.06908,1.51206 l 1.09212,1.24073 3.34476,-1.71198 c 1.83962,-0.94158 3.38401,-1.84581 3.43198,-2.0094 0.048,-0.16358 -0.52397,-0.96616 -1.27097,-1.78351 -2.33381,-2.55356 -5.77123,-3.87645 -10.04079,-3.8642 -4.55914,0.0131 -8.59153,2.30902 -11.47996,6.53638 -1.77655,2.60007 -2.57922,5.11136 -2.74575,8.59055 -0.16709,3.4908 0.1981,5.53702 1.44167,8.07809 2.06405,4.2176 5.60595,5.87251 10.92371,5.10399 z m -87.844056,-1.5762 2.76748,-0.67935 1.237553,-1.53731 c 0.680655,-0.84552 2.042401,-2.95887 3.026103,-4.69635 0.983703,-1.73748 1.882622,-3.15905 1.997602,-3.15905 0.11498,0 0.161745,0.38696 0.10392,0.8599 -0.05782,0.47294 -0.170063,2.98149 -0.249425,5.57455 -0.134969,4.41001 -0.114279,4.70563 0.320206,4.57507 0.255474,-0.0768 1.774185,-0.4593 3.374914,-0.85007 1.60073,-0.39078 3.132998,-0.90175 3.405042,-1.1355 1.252781,-1.07641 4.614275,-6.66069 10.687855,-17.7552 1.234792,-2.25557 2.740863,-4.81541 3.346828,-5.68854 0.605965,-0.87312 1.201941,-1.75009 1.32439,-1.94882 0.184513,-0.29945 -0.15707,-0.33106 -1.994696,-0.1846 -3.635185,0.28974 -3.479927,0.20888 -5.385014,2.80444 -2.042084,2.78221 -3.977095,5.74038 -6.830015,10.44148 l -2.087356,3.43958 0.160422,-1.32291 c 0.779198,-6.42567 1.233466,-16.27188 0.750723,-16.27188 -0.106534,0 -1.654347,0.3201 -3.439583,0.71134 l -3.245887,0.71133 v 2.35971 2.35971 l -2.213333,3.47739 c -1.217332,1.91257 -2.781214,4.45966 -3.475293,5.66021 -0.694078,1.20055 -1.314883,2.18281 -1.379565,2.18281 -0.06468,0 -0.05204,-0.32742 0.0281,-0.7276 0.172027,-0.85908 0.863989,-9.32503 1.086688,-13.29531 0.08599,-1.53298 0.04753,-2.93793 -0.08581,-3.13467 -0.198711,-0.29321 -0.82987,-0.22412 -3.553131,0.38897 l -3.311497,0.74552 0.128457,1.46311 c 0.146425,1.66777 -0.393084,22.49672 -0.632778,24.42979 l -0.157581,1.27084 0.763601,-0.19462 c 0.41998,-0.10704 2.008966,-0.50033 3.53108,-0.87397 z"
       id="path2056"
       inkscape:connector-curvature="0" />
    <g
       id="g2156"
       style="fill-opacity:1;fill:url(#linearGradient2164)">
      <path
         transform="matrix(0.26458333,0,0,0.26458333,0,227)"
         inkscape:connector-curvature="0"
         id="path2136"
         d="m 84.772639,157.84579 c 0.983155,-17.86818 2.328925,-82.097364 1.819309,-86.829658 l -0.44222,-4.106457 10.442362,-2.246717 c 5.7433,-1.235695 11.44696,-2.460223 12.67479,-2.721175 3.64717,-0.775132 4.62285,2.514375 3.86919,13.044978 -1.71621,23.979777 -3.6512,46.890319 -4.19196,49.633299 -0.35675,1.80961 3.56993,-3.68423 9.747,-13.63706 5.68944,-9.16713 11.64451,-18.763345 13.23349,-21.324921 2.62019,-4.223991 2.88905,-5.504297 2.88905,-13.75792 v -9.100512 l 10.85914,-2.243406 c 5.97252,-1.233873 11.82801,-2.465298 13.01219,-2.736501 1.82496,-0.417956 2.21487,0.03645 2.55875,2.982015 0.5736,4.913295 -0.79947,35.077052 -2.20001,48.330105 -0.64743,6.12659 -0.98202,11.33439 -0.74352,11.57289 0.2385,0.2385 3.54447,-4.68324 7.3466,-10.9372 15.57123,-25.612431 29.477,-45.300329 33.19153,-46.992777 3.71116,-1.69092 19.81798,-2.820533 19.81798,-1.389887 0,0.630702 -1.54467,3.306984 -3.43258,5.947293 -1.88792,2.640309 -9.65955,15.937495 -17.2703,29.549301 -17.85626,31.9359 -26.99428,47.48206 -32.45924,55.22167 -3.68705,5.22168 -5.17609,6.48066 -9.20577,7.78347 -4.98462,1.61155 -20.7648,5.68523 -22.02282,5.68523 -0.39409,0 -0.52047,-9.31865 -0.28084,-20.70812 0.23962,-11.38947 0.3268,-20.70813 0.19372,-20.70813 -0.13308,0 -3.28128,5.1139 -6.996,11.36421 -3.71473,6.25032 -8.85855,14.18052 -11.43073,17.62267 l -4.67669,6.25845 -11.111676,2.6039 c -6.111423,1.43215 -12.178184,2.88505 -13.481692,3.22868 l -2.370014,0.62479 z"
         style="opacity:1;fill:url(#linearGradient2164);fill-opacity:1;stroke:none;stroke-width:5.95787954;stroke-linecap:square;stroke-linejoin:round;stroke-miterlimit:4;stroke-dasharray:none;stroke-opacity:1;paint-order:normal" />
      <path
         transform="matrix(0.26458333,0,0,0.26458333,0,227)"
         inkscape:connector-curvature="0"
         id="path2138"
         d="m 233.42877,170.94903 c -13.40881,-4.11764 -23.18514,-16.26235 -25.9716,-32.26337 -1.64061,-9.42107 -0.6272,-26.49853 2.02371,-34.1026 5.27167,-15.121639 17.11318,-28.852584 30.61207,-35.496551 6.91624,-3.404076 8.86113,-3.891137 17.1726,-4.300546 10.93086,-0.538437 21.69831,1.387398 29.73156,5.317697 5.4772,2.679745 16.89578,13.917255 16.24485,15.987259 -0.19949,0.634426 -6.04314,4.079053 -12.98587,7.65473 l -12.62316,6.501231 -4.35789,-4.727755 c -5.01296,-5.438421 -10.06145,-7.288476 -17.49463,-6.411032 -9.97236,1.17718 -19.21217,7.375246 -23.43926,15.723067 -3.21932,6.35762 -5.60362,14.77767 -5.60362,19.7889 0,9.94724 6.42215,21.29419 13.79584,24.37511 6.7819,2.83366 17.37596,0.80382 22.7684,-4.36247 l 2.75276,-2.63731 5.34277,4.15809 c 12.75333,9.92543 12.61904,9.50865 5.02927,15.60961 -11.88078,9.55026 -29.53177,13.32117 -42.9978,9.18594 z"
         style="opacity:1;fill:url(#linearGradient2164);fill-opacity:1;stroke:none;stroke-width:5.95787954;stroke-linecap:square;stroke-linejoin:round;stroke-miterlimit:4;stroke-dasharray:none;stroke-opacity:1;paint-order:normal" />
      <path
         transform="matrix(0.26458333,0,0,0.26458333,0,227)"
         inkscape:connector-curvature="0"
         id="path2140"
         d="m 287.81432,169.86647 c 1.07059,-4.2656 13.61348,-29.90855 20.64932,-42.21595 8.52879,-14.91891 23.53964,-37.434917 32.04771,-48.071021 12.90984,-16.138825 10.84519,-14.657562 21.38184,-15.340201 9.18594,-0.595131 9.29754,-0.57456 9.89974,1.824774 0.33498,1.33468 0.40631,13.919362 0.15851,27.96596 -0.40621,23.025998 -0.76982,27.363068 -3.69488,44.072298 -4.21137,24.05718 -4.67436,25.39093 -9.37524,27.00751 -6.04378,2.07839 -20.90299,4.92274 -21.67642,4.14932 -0.39265,-0.39265 1.35951,-7.18781 3.8937,-15.10036 3.16316,-9.87642 4.2477,-14.56789 3.45957,-14.96522 -0.63141,-0.31833 -5.14286,-0.38461 -10.02544,-0.1473 l -8.87742,0.43148 -3.13055,6.20158 c -1.7218,3.41087 -4.15688,8.93198 -5.4113,12.26913 -1.26338,3.36102 -3.40773,6.90915 -4.80725,7.95428 -2.18314,1.63031 -19.87718,6.58836 -23.80635,6.67078 -0.99008,0.0208 -1.18098,-0.73308 -0.68554,-2.70706 z m 64.76795,-58.01172 c 0.78111,-5.20192 1.40706,-12.412738 1.39101,-16.024033 l -0.0292,-6.565992 -2.23651,2.750881 c -2.31056,2.841948 -15.28346,25.176754 -16.44609,28.314424 -0.58757,1.58571 0.0405,1.75168 6.00697,1.58729 3.66473,-0.10097 6.97922,0.13249 7.36553,0.5188 1.48151,1.48151 2.57835,-1.45799 3.94828,-10.58137 z"
         style="opacity:1;fill:url(#linearGradient2164);fill-opacity:1;stroke:none;stroke-width:5.95787954;stroke-linecap:square;stroke-linejoin:round;stroke-miterlimit:4;stroke-dasharray:none;stroke-opacity:1;paint-order:normal" />
      <path
         transform="matrix(0.26458333,0,0,0.26458333,0,227)"
         inkscape:connector-curvature="0"
         id="path2142"
         d="m 412.55566,171.24142 c -16.60368,-4.53194 -27.25004,-21.9692 -27.20664,-44.56074 0.0375,-19.53581 5.52129,-33.52794 18.07352,-46.115549 4.24923,-4.261206 10.02467,-8.88118 12.95416,-10.36248 15.27109,-7.721849 34.81054,-7.515946 49.89844,0.52582 6.15538,3.280784 16.46379,13.197223 15.79732,15.196635 -0.21338,0.640126 -5.93435,4.08172 -12.71327,7.647985 l -12.3253,6.484119 -5.563,-5.084263 c -6.44031,-5.886082 -11.12402,-7.130812 -19.81698,-5.266506 -10.25558,2.199428 -17.16178,7.8051 -21.61711,17.546319 -5.67111,12.39944 -5.60735,24.76976 0.17365,33.68538 5.41923,8.3577 15.57685,11.62521 24.97791,8.03491 6.48563,-2.47689 9.27979,-6.08965 12.98902,-16.79444 l 3.31909,-9.57885 11.85103,-1.44932 c 6.51806,-0.79712 12.12125,-1.17908 12.45153,-0.8488 0.33028,0.33028 -1.45932,8.25557 -3.97688,17.61175 -2.51756,9.35619 -5.33891,20.09528 -6.26965,23.86465 -0.97361,3.943 -2.38709,7.21009 -3.32846,7.69332 -4.67693,2.40083 -42.42837,3.7462 -49.66838,1.77006 z"
         style="opacity:1;fill:url(#linearGradient2164);fill-opacity:1;stroke:none;stroke-width:5.95787954;stroke-linecap:square;stroke-linejoin:round;stroke-miterlimit:4;stroke-dasharray:none;stroke-opacity:1;paint-order:normal" />
    </g>
  </g>
</svg>
