<?xml version="1.0" encoding="UTF-8" standalone="no"?>
<!-- Created with Inkscape (http://www.inkscape.org/) -->

<svg
   xmlns:dc="http://purl.org/dc/elements/1.1/"
   xmlns:cc="http://creativecommons.org/ns#"
   xmlns:rdf="http://www.w3.org/1999/02/22-rdf-syntax-ns#"
   xmlns:svg="http://www.w3.org/2000/svg"
   xmlns="http://www.w3.org/2000/svg"
   xmlns:sodipodi="http://sodipodi.sourceforge.net/DTD/sodipodi-0.dtd"
   xmlns:inkscape="http://www.inkscape.org/namespaces/inkscape"
   width="400"
   height="400"
   viewBox="0 0 105.83333 105.83333"
   version="1.1"
   id="svg921"
   inkscape:version="0.92.3 (2405546, 2018-03-11)"
   sodipodi:docname="webaimwcagqr.svg">
  <defs
     id="defs915" />
  <sodipodi:namedview
     id="base"
     pagecolor="#ffffff"
     bordercolor="#666666"
     borderopacity="1.0"
     inkscape:pageopacity="0.0"
     inkscape:pageshadow="2"
     inkscape:zoom="0.98994949"
     inkscape:cx="186.35607"
     inkscape:cy="291.96815"
     inkscape:document-units="mm"
     inkscape:current-layer="layer1"
     showgrid="false"
     units="px"
     inkscape:window-width="1920"
     inkscape:window-height="1017"
     inkscape:window-x="-8"
     inkscape:window-y="-8"
     inkscape:window-maximized="1" />
  <metadata
     id="metadata918">
    <rdf:RDF>
      <cc:Work
         rdf:about="">
        <dc:format>image/svg+xml</dc:format>
        <dc:type
           rdf:resource="http://purl.org/dc/dcmitype/StillImage" />
        <dc:title></dc:title>
      </cc:Work>
    </rdf:RDF>
  </metadata>
  <g
     inkscape:label="Layer 1"
     inkscape:groupmode="layer"
     id="layer1"
     transform="translate(0,-191.16667)">
    <path
       style="fill:#000000;stroke-width:0.29414967"
       d="m 1.5848259,282.72911 v -12.306 H 13.987592 26.39036 v 12.306 12.306 H 13.987592 1.5848259 Z m 21.2618861,0 v -8.78999 h -8.85912 -8.8591187 v 8.78999 8.79 h 8.8591187 8.85912 z m -14.1745917,0 v -5.274 h 5.3154717 5.315472 v 5.274 5.27401 H 13.987592 8.6721203 Z m 21.2618867,3.51601 v -8.79001 h 3.543648 3.543647 v -1.75799 -1.758 h 1.771824 1.771824 v 5.274 5.27399 h 3.543647 3.543648 v 1.75801 1.758 h -1.771824 -1.771824 v 1.75799 1.758 h 1.771824 1.771824 v 1.75801 1.75799 h -5.315472 -5.315471 v -1.75799 -1.75801 h -1.771824 -1.771823 v 1.75801 1.75799 h -1.771824 -1.771824 z m 10.630943,1.758 v -3.51601 h -1.771824 -1.771824 v -1.758 -1.75799 h -1.771824 -1.771823 v 3.51599 3.51601 h 1.771823 1.771824 v 1.75799 1.758 h 1.771824 1.771824 z m 14.17459,5.274 v -1.75801 h 1.771824 1.771824 v -1.758 -1.75799 H 54.73954 51.195892 v -3.51601 -3.51599 h -3.543647 -3.543648 v -3.51601 -3.51599 h 1.771824 1.771824 v -1.758 -1.75801 h -1.771824 -1.771824 v -1.75799 -1.758 H 42.336773 40.56495 v 1.758 1.75799 h -1.771824 -1.771824 v -3.51599 -3.51599 h 1.771824 1.771824 v -1.75801 -1.758 h -3.543648 -3.543647 v -1.758 -1.75799 h -1.771824 -1.771824 v 1.75799 1.758 H 26.39036 22.846712 v 1.758 1.75801 h 1.771824 1.771824 v 1.75799 1.758 h -1.771824 -1.771824 v -1.758 -1.75799 H 17.53124 12.215768 v 1.75799 1.758 H 10.443944 8.6721203 v -3.51599 -3.51601 h 1.7718237 1.771824 v -3.51599 -3.51601 H 10.443944 8.6721203 v 1.758 1.75801 H 6.9002971 5.1284733 v 5.27399 5.274 H 3.3566495 1.5848259 v -10.54799 -10.54801 h 1.7718236 1.7718238 v 3.51601 3.51599 h 1.7718238 1.7718232 v -1.75799 -1.758 h 1.7718237 1.771824 v -1.75801 -1.758 H 10.443944 8.6721203 v -1.75799 -1.758 h 1.7718237 1.771824 v -1.75801 -1.75799 H 8.6721203 5.1284733 v 1.75799 1.75801 H 3.3566495 1.5848259 v -1.75801 -1.75799 h 1.7718236 1.7718238 v -3.516 -3.516 H 3.3566495 1.5848259 v -1.758 -1.758 h 1.7718236 1.7718238 v -1.75799 -1.75801 H 3.3566495 1.5848259 v -1.758 -1.758 h 8.8591181 8.85912 v 1.758 1.758 h 1.771824 1.771824 v -1.758 -1.758 h 8.859119 8.859119 v 1.758 1.758 h -1.771824 -1.771824 v 3.516 3.516 h 1.771824 1.771824 v -1.758 -1.758 h 3.543647 3.543648 v -1.75799 -1.75801 h -1.771824 -1.771824 v -5.27399 -5.274 h 1.771824 1.771824 v -1.758 -1.75801 h -1.771824 -1.771824 v -1.758 -1.75799 H 42.336773 40.56495 v 5.274 5.27399 h -1.771824 -1.771824 v -5.27399 -5.274 h -3.543647 -3.543648 v -1.758 -1.75801 h 1.771824 1.771824 v -1.75799 -1.758 h -1.771824 -1.771824 v -1.758 -1.75801 h 1.771824 1.771824 v -1.75799 -1.758 h 1.771823 1.771824 v 3.51599 3.51601 h 1.771824 1.771824 v -1.758 -1.75801 h 3.543647 3.543648 v 1.75801 1.758 h -1.771824 -1.771824 v 3.51599 3.51601 h 1.771824 1.771824 v -1.758 -1.75801 h 1.771823 1.771824 v -3.51599 -3.51601 h 3.543648 3.543648 v -1.75799 -1.758 h 8.859119 8.859119 v 3.51599 3.51601 h -1.771824 -1.771824 v -1.758 -1.75801 h -3.543647 -3.543648 v 1.75801 1.758 h 1.771824 1.771824 v 1.758 1.75799 h -1.771824 -1.771824 v 1.75801 1.758 h 5.315472 5.315471 v 1.75799 1.758 h -5.315471 -5.315472 v -1.758 -1.75799 H 63.59866 61.826836 v 5.274 5.27399 h -1.771824 -1.771824 v -1.758 -1.75799 H 56.511364 54.73954 v 3.51599 3.516 h 1.771824 1.771824 v 1.758 1.758 h 1.771824 1.771824 v -1.758 -1.758 h 1.771824 1.771823 v -3.516 -3.51599 h 1.771824 1.771824 v 3.51599 3.516 h -1.771824 -1.771824 v 1.758 1.758 h 3.543648 3.543647 v -5.27399 -5.274 h 1.771824 1.771824 v 3.51599 3.516 h 1.771824 1.771823 v 1.758 1.758 h 1.771824 1.771824 v -1.758 -1.758 h 1.771824 1.771823 v 1.758 1.758 h 1.771824 1.771824 v -1.758 -1.758 h 1.771824 1.771824 v 1.758 1.758 H 91.94784 90.176016 v 3.516 3.516 h 1.771824 1.771824 v 1.75799 1.75801 h 1.771824 1.771824 v -1.75801 -1.75799 h 1.771824 1.771824 v 1.75799 1.75801 h -1.771824 -1.771824 v 1.758 1.758 h -3.543648 -3.543648 v 1.75799 1.75801 h 3.543648 3.543648 v 1.758 1.75799 h 1.771824 1.771824 v 1.758 1.75801 h -1.771824 -1.771824 v 5.27399 5.274 h 1.771824 1.771824 v 1.758 1.75801 h 1.77183 1.77182 v 3.51599 3.51599 h -3.54365 -3.543648 v 1.75801 1.758 h -3.543648 -3.543648 v 3.51599 3.51601 h 1.771824 1.771824 v -1.758 -1.75801 h 3.543648 3.543648 v -1.75799 -1.758 h 1.77183 1.77182 v 5.274 5.27399 h -1.77182 -1.77183 v 3.51601 3.51599 h -1.771824 -1.771824 v 1.75801 1.75799 h -8.85912 -8.859119 v -3.516 -3.51599 H 77.77325 76.001426 v 1.75799 1.758 h -1.771824 -1.771824 v 1.75801 1.75799 h -1.771823 -1.771824 v -3.516 -3.51599 h 3.543647 3.543648 v -1.758 -1.75801 h -1.771824 -1.771824 v -3.51599 -3.51601 h -1.771823 -1.771824 v 3.51601 3.51599 h -1.771824 -1.771824 v 1.75801 1.758 H 63.59866 61.826836 v 1.75799 1.758 h 1.771824 1.771823 v 1.75801 1.75799 H 60.055012 54.73954 Z m 35.436476,-3.51601 v -1.75799 h -1.771824 -1.771824 v 1.75799 1.758 h 1.771824 1.771824 z m 7.087296,0 v -1.75799 h -1.771824 -1.771824 v 1.75799 1.758 h 1.771824 1.771824 z m -38.980124,-7.032 v -1.75799 h 1.771824 1.771824 v -1.758 -1.75801 h 3.543647 3.543648 v -1.75799 -1.758 H 61.826836 54.73954 v -1.758 -1.75801 h 1.771824 1.771824 v -1.75799 -1.758 h 1.771824 1.771824 v 1.758 1.75799 h 5.315471 5.315471 v -3.51599 -3.51599 h -3.543647 -3.543648 v -1.75801 -1.758 h 3.543648 3.543647 v -1.758 -1.75799 h 1.771824 1.771824 v 1.75799 1.758 h 1.771824 1.771823 v -1.758 -1.75799 H 77.77325 76.001426 v -3.51601 -3.51599 h 1.771824 1.771823 v 1.758 1.75799 h 5.315472 5.315471 v 7.032 7.032 h 1.771824 1.771824 v -1.758 -1.75799 h 1.771824 1.771824 v -1.75801 -1.758 h -1.771824 -1.771824 v -3.51599 -3.51601 H 91.94784 90.176016 v -1.75799 -1.758 h 3.543648 3.543648 v -1.75801 -1.758 h -3.543648 -3.543648 v -1.75799 -1.758 h -3.543648 -3.543647 v 1.758 1.75799 h -1.771824 -1.771824 v -1.75799 -1.758 H 77.77325 76.001426 v 3.51599 3.51601 h -1.771824 -1.771824 v 3.51599 3.51601 h -3.543647 -3.543648 v -1.75801 -1.758 h 1.771824 1.771824 v -1.75799 -1.758 h -1.771824 -1.771824 v -1.75801 -1.758 H 63.59866 61.826836 v 1.758 1.75801 h -1.771824 -1.771824 v -1.75801 -1.758 H 54.73954 51.195892 v -1.75799 -1.758 h 8.85912 8.859119 v 1.758 1.75799 h 1.771824 1.771823 v -1.75799 -1.758 h -1.771823 -1.771824 v -1.75801 -1.75799 h 1.771824 1.771823 v -1.758 -1.758 h 1.771824 1.771824 v 1.758 1.758 h 7.087295 7.087295 v -1.758 -1.758 h -1.771824 -1.771824 v -1.75801 -1.75799 h -7.087295 -7.087295 v -1.758 -1.758 h -1.771823 -1.771824 v 1.758 1.758 h -1.771824 -1.771824 v -3.516 -3.516 H 63.59866 61.826836 v 5.274 5.274 h -1.771824 -1.771824 v -1.75801 -1.75799 H 56.511364 54.73954 v -1.758 -1.758 h 1.771824 1.771824 v -1.75799 -1.75801 H 54.73954 51.195892 v 3.516 3.516 h -3.543647 -3.543648 v 3.516 3.516 H 42.336773 40.56495 v -1.758 -1.758 h -1.771824 -1.771824 v 1.758 1.758 h 1.771824 1.771824 v 1.75799 1.75801 h -1.771824 -1.771824 v 1.758 1.75799 h 1.771824 1.771824 v 1.758 1.75801 h -1.771824 -1.771824 v 1.758 1.75799 h -1.771824 -1.771823 v -1.75799 -1.758 h -1.771824 -1.771824 v -1.75801 -1.758 h 1.771824 1.771824 v -1.75799 -1.758 h -1.771824 -1.771824 v -3.516 -3.516 H 28.162183 26.39036 v -1.75801 -1.75799 h -1.771824 -1.771824 v -1.758 -1.758 h 1.771824 1.771824 v -1.75799 -1.75801 h -1.771824 -1.771824 v 1.75801 1.75799 h -1.771824 -1.771824 v -1.75799 -1.75801 H 17.53124 15.759416 v 1.75801 1.75799 h 1.771824 1.771824 v 1.758 1.758 h 1.771824 1.771824 v 1.75799 1.75801 h -1.771824 -1.771824 v 1.758 1.758 H 17.53124 15.759416 v -3.516 -3.516 h -1.771824 -1.771824 v 3.516 3.516 h 1.771824 1.771824 v 1.75799 1.75801 h -1.771824 -1.771824 v 1.758 1.75799 h 1.771824 1.771824 v 1.758 1.75801 h -1.771824 -1.771824 v 1.758 1.75799 h 3.543648 3.543648 v -3.51599 -3.51601 h 1.771824 1.771824 v 1.758 1.75801 h 1.771824 1.771824 v 1.758 1.75799 h -1.771824 -1.771824 v 1.758 1.75801 h 3.543648 3.543647 v -1.75801 -1.758 h 1.771824 1.771824 v 1.758 1.75801 h 7.087295 7.087295 v 1.75799 1.758 h -1.771824 -1.771824 v 3.51601 3.51599 h 1.771824 1.771824 v 1.758 1.75799 h 1.771823 1.771824 v 1.75801 1.758 h -1.771824 -1.771823 v 1.758 1.75799 h 1.771823 1.771824 v -1.75799 -1.758 h 1.771824 1.771824 v 1.758 1.75799 h 1.771824 1.771824 v 1.75801 1.758 H 56.511364 54.73954 v 1.75799 1.758 h 1.771824 1.771824 z m -7.087296,-14.06399 v -1.758 h -1.771824 -1.771823 v -1.758 -1.75799 h 1.771823 1.771824 v -1.75801 -1.758 h 1.771824 1.771824 v -1.758 -1.75799 h 1.771824 1.771824 v -1.75801 -1.758 H 54.73954 51.195892 v 1.758 1.75801 h -1.771824 -1.771823 v -1.75801 -1.758 h -1.771824 -1.771824 v -3.51599 -3.51601 h 1.771824 1.771824 v 1.758 1.75801 h 5.315471 5.315472 v 1.758 1.75799 h 1.771824 1.771824 v -1.75799 -1.758 h 1.771824 1.771823 v 1.758 1.75799 H 63.59866 61.826836 v 3.51601 3.51599 h -1.771824 -1.771824 v 3.51601 3.51599 H 56.511364 54.73954 v 1.758 1.75799 h -1.771824 -1.771824 z m 10.630944,-3.516 v -1.75799 h 1.771824 1.771823 v 1.75799 1.758 H 63.59866 61.826836 Z m 24.805532,-17.58 v -1.758 h 1.771824 1.771824 v 1.758 1.75801 h -1.771824 -1.771824 z m -70.872952,-3.51599 v -1.758 h 1.771824 1.771824 v 1.758 1.75799 H 17.53124 15.759416 Z m 7.087296,0 v -1.758 h 1.771824 1.771824 v 1.758 1.75799 h -1.771824 -1.771824 z m 21.261885,-3.51601 v -1.75799 h 1.771824 1.771824 v -1.758 -1.758 h 1.771823 1.771824 v -1.75801 -1.75799 h 1.771824 1.771824 v 3.516 3.516 h -1.771824 -1.771824 v 1.75799 1.75801 h -3.543647 -3.543648 z m -21.261885,-3.51599 v -1.758 h 1.771824 1.771824 v 1.758 1.758 h -1.771824 -1.771824 z m 38.980124,0 v -1.758 h 1.771824 1.771823 v 1.758 1.758 H 63.59866 61.826836 Z m 7.087295,-3.51601 v -1.75799 h 1.771824 1.771823 v 1.75799 1.75801 h -1.771823 -1.771824 z m 21.261885,49.22399 v -1.75799 h -7.087295 -7.087295 v 1.75799 1.758 h 7.087295 7.087295 z m -3.543648,-10.54799 v -5.274 h -5.315471 -5.315471 v 5.274 5.27399 h 5.315471 5.315471 z m -7.087295,0 v -1.75801 h 1.771824 1.771824 v 1.75801 1.758 h -1.771824 -1.771824 z m -60.242009,-14.064 v -1.75799 H 17.53124 15.759416 v 1.75799 1.758 h 1.771824 1.771824 z m 14.174591,-29.88599 v -3.516 h -1.771824 -1.771824 v 3.516 3.516 h 1.771824 1.771824 z m 17.718237,-10.548 v -3.51599 h 1.771824 1.771824 v -1.758 -1.75801 h 1.771824 1.771824 v -1.758 -1.75799 h 1.771824 1.771824 v -1.758 -1.75801 h 1.771824 1.771823 v -1.75799 -1.758 H 63.59866 61.826836 v -1.758 -1.75801 h -1.771824 -1.771824 v 3.51601 3.51599 H 56.511364 54.73954 v 1.75801 1.758 h -3.543648 -3.543647 v 1.75799 1.758 h 1.771823 1.771824 v 1.75801 1.758 h -1.771824 -1.771823 v 3.51599 3.516 h 1.771823 1.771824 z M 40.56495,205.37714 v -1.75801 h -1.771824 -1.771824 v 1.75801 1.758 h 1.771824 1.771824 z m -10.630943,63.28798 v -5.27399 h 1.771824 1.771824 v 5.27399 5.274 h -1.771824 -1.771824 z m 70.872953,-14.064 v -1.758 h 1.77183 1.77182 v 1.758 1.75801 h -1.77182 -1.77183 z m 0,-14.064 v -1.75799 h 1.77183 1.77182 v 1.75799 1.75801 h -1.77182 -1.77183 z m 0,-14.06398 v -1.75801 h -1.771824 -1.771824 v -1.758 -1.758 h 1.771824 1.771824 v 1.758 1.758 h 1.77183 1.77182 v 1.75801 1.75799 h -1.77182 -1.77183 z m -99.2221341,-21.096 v -12.306 H 13.987592 26.39036 v 12.306 12.30599 H 13.987592 1.5848259 Z m 21.2618861,0 v -8.79001 h -8.85912 -8.8591187 v 8.79001 8.79 h 8.8591187 8.85912 z m -14.1745917,0 v -5.274 h 5.3154717 5.315472 v 5.274 5.27399 H 13.987592 8.6721203 Z m 21.2618867,8.79 v -3.51601 h 1.771824 1.771824 v 3.51601 3.51599 h -1.771824 -1.771824 z m 49.611066,-8.79 v -12.306 h 12.402767 12.40277 v 12.306 12.30599 H 91.94784 79.545073 Z m 21.261887,0 v -8.79001 h -8.85912 -8.859119 v 8.79001 8.79 h 8.859119 8.85912 z m -14.174592,0 v -5.274 h 5.315472 5.315472 v 5.274 5.27399 H 91.94784 86.632368 Z"
       id="path1638"
       inkscape:connector-curvature="0" />
  </g>
</svg>
